<svg width="252" height="80" viewBox="0 0 252 80" fill="none" xmlns="http://www.w3.org/2000/svg">
<mask id="path-1-inside-1_10_12895" fill="white">
<path d="M0 0H229V80H0V0Z"/>
</mask>
<path d="M0 0H229V80H0V0Z" fill="white"/>
<path d="M0 0H229V80H0V0Z" fill="#009FDA" fill-opacity="0.1"/>
<path d="M0 12H229V-12H0V12Z" fill="#009FDA" mask="url(#path-1-inside-1_10_12895)"/>
<circle cx="34" cy="44" r="6" fill="white" stroke="#009FDA" stroke-width="4"/>
<path d="M67 53C67 53.55 67.45 54 68 54H72C72.55 54 73 53.55 73 53V52H67V53ZM70 34C66.14 34 63 37.14 63 41C63 43.38 64.19 45.47 66 46.74V49C66 49.55 66.45 50 67 50H73C73.55 50 74 49.55 74 49V46.74C75.81 45.47 77 43.38 77 41C77 37.14 73.86 34 70 34ZM72.85 45.1L72 45.7V48H68V45.7L67.15 45.1C65.8 44.16 65 42.63 65 41C65 38.24 67.24 36 70 36C72.76 36 75 38.24 75 41C75 42.63 74.2 44.16 72.85 45.1Z" fill="#454545"/>
<path d="M92.256 35.1H96.792V36H91.296V28.08H92.256V35.1ZM102.112 32.124C102.112 31.676 101.992 31.332 101.752 31.092C101.512 30.844 101.172 30.72 100.732 30.72C100.316 30.72 99.9639 30.812 99.6759 30.996C99.3879 31.172 99.1759 31.46 99.0399 31.86L98.2599 31.38C98.4199 30.932 98.7159 30.572 99.1479 30.3C99.5799 30.02 100.116 29.88 100.756 29.88C101.188 29.88 101.58 29.956 101.932 30.108C102.284 30.252 102.56 30.476 102.76 30.78C102.968 31.076 103.072 31.46 103.072 31.932V34.836C103.072 35.124 103.224 35.268 103.528 35.268C103.68 35.268 103.828 35.248 103.972 35.208L103.924 35.964C103.764 36.044 103.556 36.084 103.3 36.084C103.068 36.084 102.86 36.04 102.676 35.952C102.492 35.864 102.348 35.732 102.244 35.556C102.14 35.372 102.088 35.144 102.088 34.872V34.752L102.328 34.788C102.232 35.1 102.068 35.356 101.836 35.556C101.604 35.748 101.344 35.892 101.056 35.988C100.768 36.076 100.484 36.12 100.204 36.12C99.8519 36.12 99.5239 36.06 99.2199 35.94C98.9159 35.82 98.6719 35.64 98.4879 35.4C98.3119 35.152 98.2239 34.848 98.2239 34.488C98.2239 34.04 98.3719 33.672 98.6679 33.384C98.9719 33.088 99.3919 32.888 99.9279 32.784L102.304 32.316V33.108L100.372 33.504C99.9799 33.584 99.6879 33.696 99.4959 33.84C99.3039 33.984 99.2079 34.184 99.2079 34.44C99.2079 34.688 99.3039 34.892 99.4959 35.052C99.6959 35.204 99.9759 35.28 100.336 35.28C100.568 35.28 100.788 35.252 100.996 35.196C101.212 35.132 101.404 35.04 101.572 34.92C101.74 34.792 101.872 34.636 101.968 34.452C102.064 34.26 102.112 34.036 102.112 33.78V32.124ZM107.885 36.12C107.301 36.12 106.761 35.996 106.265 35.748C105.777 35.5 105.401 35.148 105.137 34.692L105.953 34.104C106.129 34.472 106.385 34.76 106.721 34.968C107.065 35.176 107.477 35.28 107.957 35.28C108.381 35.28 108.713 35.2 108.953 35.04C109.193 34.872 109.313 34.656 109.313 34.392C109.313 34.224 109.257 34.072 109.145 33.936C109.041 33.792 108.837 33.688 108.533 33.624L107.093 33.324C106.509 33.204 106.089 33.004 105.833 32.724C105.585 32.444 105.461 32.096 105.461 31.68C105.461 31.352 105.553 31.052 105.737 30.78C105.929 30.508 106.197 30.292 106.541 30.132C106.893 29.964 107.305 29.88 107.777 29.88C108.369 29.88 108.869 29.996 109.277 30.228C109.685 30.46 109.989 30.788 110.189 31.212L109.385 31.74C109.249 31.388 109.029 31.132 108.725 30.972C108.421 30.804 108.105 30.72 107.777 30.72C107.489 30.72 107.241 30.76 107.033 30.84C106.833 30.92 106.677 31.032 106.565 31.176C106.461 31.312 106.409 31.468 106.409 31.644C106.409 31.82 106.469 31.984 106.589 32.136C106.709 32.28 106.933 32.384 107.261 32.448L108.761 32.76C109.321 32.872 109.713 33.056 109.937 33.312C110.161 33.568 110.273 33.88 110.273 34.248C110.273 34.624 110.173 34.956 109.973 35.244C109.773 35.524 109.493 35.74 109.133 35.892C108.773 36.044 108.357 36.12 107.885 36.12ZM113.789 28.296V34.344C113.789 34.64 113.873 34.86 114.041 35.004C114.209 35.148 114.425 35.22 114.689 35.22C114.921 35.22 115.121 35.18 115.289 35.1C115.457 35.02 115.609 34.912 115.745 34.776L116.081 35.58C115.897 35.748 115.677 35.88 115.421 35.976C115.173 36.072 114.885 36.12 114.557 36.12C114.253 36.12 113.969 36.068 113.705 35.964C113.441 35.852 113.229 35.68 113.069 35.448C112.917 35.208 112.837 34.896 112.829 34.512V28.56L113.789 28.296ZM115.973 30V30.828H111.629V30H115.973Z" fill="#707070"/>
<path d="M101.718 47.76V57H99.59V52.758L99.66 49.916H99.632L97.35 57H95.404L93.122 49.916H93.094L93.164 52.758V57H91.022V47.76H94.452L95.908 52.464L96.426 54.424H96.454L96.986 52.478L98.428 47.76H101.718ZM107.475 52.562C107.475 52.2353 107.382 51.9787 107.195 51.792C107.018 51.596 106.775 51.498 106.467 51.498C106.159 51.498 105.893 51.5773 105.669 51.736C105.454 51.8853 105.305 52.156 105.221 52.548L103.205 52.072C103.336 51.4 103.681 50.8633 104.241 50.462C104.801 50.0607 105.59 49.86 106.607 49.86C107.288 49.86 107.867 49.9627 108.343 50.168C108.828 50.364 109.197 50.6627 109.449 51.064C109.71 51.456 109.841 51.9413 109.841 52.52V55.082C109.841 55.446 110.004 55.628 110.331 55.628C110.499 55.628 110.634 55.6093 110.737 55.572L110.597 56.93C110.317 57.0607 109.976 57.126 109.575 57.126C109.211 57.126 108.889 57.07 108.609 56.958C108.329 56.8367 108.11 56.6593 107.951 56.426C107.792 56.1833 107.713 55.88 107.713 55.516V55.432L107.979 55.334C107.979 55.7353 107.858 56.0713 107.615 56.342C107.382 56.6127 107.074 56.8133 106.691 56.944C106.318 57.0747 105.926 57.14 105.515 57.14C105.039 57.14 104.624 57.0653 104.269 56.916C103.914 56.7667 103.639 56.552 103.443 56.272C103.256 55.9827 103.163 55.628 103.163 55.208C103.163 54.704 103.312 54.2887 103.611 53.962C103.919 53.626 104.4 53.3927 105.053 53.262L107.699 52.716L107.685 53.976L106.341 54.256C106.061 54.312 105.851 54.396 105.711 54.508C105.58 54.6107 105.515 54.7693 105.515 54.984C105.515 55.1893 105.59 55.3433 105.739 55.446C105.888 55.5487 106.066 55.6 106.271 55.6C106.43 55.6 106.579 55.5767 106.719 55.53C106.868 55.4833 106.999 55.4133 107.111 55.32C107.223 55.2173 107.312 55.0913 107.377 54.942C107.442 54.7927 107.475 54.6153 107.475 54.41V52.562ZM119.362 50L116.002 53.584L115.554 53.71L113.552 55.95L113.538 53.514L116.716 50H119.362ZM114.056 47.032V57H111.676V47.032H114.056ZM116.366 52.1L119.516 57H116.884L114.812 53.5L116.366 52.1ZM123.432 57.14C122.657 57.14 121.985 56.9953 121.416 56.706C120.856 56.4167 120.422 56.0013 120.114 55.46C119.806 54.9187 119.652 54.2653 119.652 53.5C119.652 52.7347 119.806 52.0813 120.114 51.54C120.422 50.9987 120.851 50.5833 121.402 50.294C121.962 50.0047 122.601 49.86 123.32 49.86C124.057 49.86 124.683 50.0047 125.196 50.294C125.719 50.574 126.115 50.966 126.386 51.47C126.657 51.9647 126.792 52.534 126.792 53.178C126.792 53.346 126.787 53.514 126.778 53.682C126.769 53.85 126.755 53.99 126.736 54.102H121.192V52.828H125.686L124.552 53.262C124.552 52.702 124.449 52.2727 124.244 51.974C124.048 51.6753 123.74 51.526 123.32 51.526C123.021 51.526 122.765 51.596 122.55 51.736C122.345 51.876 122.186 52.0953 122.074 52.394C121.971 52.6927 121.92 53.0753 121.92 53.542C121.92 53.9993 121.981 54.3727 122.102 54.662C122.223 54.942 122.396 55.1473 122.62 55.278C122.844 55.3993 123.115 55.46 123.432 55.46C123.787 55.46 124.067 55.39 124.272 55.25C124.487 55.11 124.645 54.914 124.748 54.662L126.652 55.292C126.521 55.6933 126.293 56.034 125.966 56.314C125.649 56.5847 125.266 56.79 124.818 56.93C124.379 57.07 123.917 57.14 123.432 57.14ZM136.035 52.562C136.035 52.2353 135.942 51.9787 135.755 51.792C135.578 51.596 135.335 51.498 135.027 51.498C134.719 51.498 134.453 51.5773 134.229 51.736C134.015 51.8853 133.865 52.156 133.781 52.548L131.765 52.072C131.896 51.4 132.241 50.8633 132.801 50.462C133.361 50.0607 134.15 49.86 135.167 49.86C135.849 49.86 136.427 49.9627 136.903 50.168C137.389 50.364 137.757 50.6627 138.009 51.064C138.271 51.456 138.401 51.9413 138.401 52.52V55.082C138.401 55.446 138.565 55.628 138.891 55.628C139.059 55.628 139.195 55.6093 139.297 55.572L139.157 56.93C138.877 57.0607 138.537 57.126 138.135 57.126C137.771 57.126 137.449 57.07 137.169 56.958C136.889 56.8367 136.67 56.6593 136.511 56.426C136.353 56.1833 136.273 55.88 136.273 55.516V55.432L136.539 55.334C136.539 55.7353 136.418 56.0713 136.175 56.342C135.942 56.6127 135.634 56.8133 135.251 56.944C134.878 57.0747 134.486 57.14 134.075 57.14C133.599 57.14 133.184 57.0653 132.829 56.916C132.475 56.7667 132.199 56.552 132.003 56.272C131.817 55.9827 131.723 55.628 131.723 55.208C131.723 54.704 131.873 54.2887 132.171 53.962C132.479 53.626 132.96 53.3927 133.613 53.262L136.259 52.716L136.245 53.976L134.901 54.256C134.621 54.312 134.411 54.396 134.271 54.508C134.141 54.6107 134.075 54.7693 134.075 54.984C134.075 55.1893 134.15 55.3433 134.299 55.446C134.449 55.5487 134.626 55.6 134.831 55.6C134.99 55.6 135.139 55.5767 135.279 55.53C135.429 55.4833 135.559 55.4133 135.671 55.32C135.783 55.2173 135.872 55.0913 135.937 54.942C136.003 54.7927 136.035 54.6153 136.035 54.41V52.562ZM148.194 47.76C149.641 47.76 150.747 48.1613 151.512 48.964C152.287 49.7667 152.674 50.9053 152.674 52.38C152.674 53.8547 152.287 54.9933 151.512 55.796C150.747 56.5987 149.641 57 148.194 57H144.274V47.76H148.194ZM147.956 55.18C148.74 55.18 149.309 54.9467 149.664 54.48C150.028 54.004 150.21 53.304 150.21 52.38C150.21 51.456 150.028 50.7607 149.664 50.294C149.309 49.818 148.74 49.58 147.956 49.58H146.682V55.18H147.956ZM157.571 57.14C156.796 57.14 156.124 56.9953 155.555 56.706C154.995 56.4167 154.561 56.0013 154.253 55.46C153.945 54.9187 153.791 54.2653 153.791 53.5C153.791 52.7347 153.945 52.0813 154.253 51.54C154.561 50.9987 154.99 50.5833 155.541 50.294C156.101 50.0047 156.74 49.86 157.459 49.86C158.196 49.86 158.821 50.0047 159.335 50.294C159.857 50.574 160.254 50.966 160.525 51.47C160.795 51.9647 160.931 52.534 160.931 53.178C160.931 53.346 160.926 53.514 160.917 53.682C160.907 53.85 160.893 53.99 160.875 54.102H155.331V52.828H159.825L158.691 53.262C158.691 52.702 158.588 52.2727 158.383 51.974C158.187 51.6753 157.879 51.526 157.459 51.526C157.16 51.526 156.903 51.596 156.689 51.736C156.483 51.876 156.325 52.0953 156.213 52.394C156.11 52.6927 156.059 53.0753 156.059 53.542C156.059 53.9993 156.119 54.3727 156.241 54.662C156.362 54.942 156.535 55.1473 156.759 55.278C156.983 55.3993 157.253 55.46 157.571 55.46C157.925 55.46 158.205 55.39 158.411 55.25C158.625 55.11 158.784 54.914 158.887 54.662L160.791 55.292C160.66 55.6933 160.431 56.034 160.105 56.314C159.787 56.5847 159.405 56.79 158.957 56.93C158.518 57.07 158.056 57.14 157.571 57.14ZM165.58 49.86C166.29 49.86 166.878 49.9627 167.344 50.168C167.82 50.364 168.189 50.63 168.45 50.966C168.721 51.2927 168.889 51.6473 168.954 52.03L166.756 52.758C166.691 52.3567 166.57 52.058 166.392 51.862C166.224 51.6567 165.977 51.554 165.65 51.554C165.352 51.554 165.1 51.624 164.894 51.764C164.698 51.8947 164.549 52.1093 164.446 52.408C164.344 52.6973 164.292 53.0707 164.292 53.528C164.292 53.9853 164.348 54.3587 164.46 54.648C164.572 54.928 164.731 55.1333 164.936 55.264C165.142 55.3853 165.384 55.446 165.664 55.446C165.898 55.446 166.089 55.404 166.238 55.32C166.397 55.2267 166.528 55.096 166.63 54.928C166.733 54.76 166.798 54.5547 166.826 54.312L168.968 54.998C168.903 55.4087 168.726 55.7773 168.436 56.104C168.156 56.4213 167.783 56.6733 167.316 56.86C166.85 57.0467 166.304 57.14 165.678 57.14C164.913 57.14 164.246 57 163.676 56.72C163.107 56.4307 162.668 56.0153 162.36 55.474C162.052 54.9233 161.898 54.2653 161.898 53.5C161.898 52.7347 162.052 52.0813 162.36 51.54C162.668 50.9893 163.098 50.574 163.648 50.294C164.208 50.0047 164.852 49.86 165.58 49.86ZM171.396 49.188C170.91 49.188 170.556 49.0993 170.332 48.922C170.117 48.7353 170.01 48.446 170.01 48.054C170.01 47.6527 170.117 47.3633 170.332 47.186C170.556 46.9993 170.91 46.906 171.396 46.906C171.872 46.906 172.222 46.9993 172.446 47.186C172.67 47.3633 172.782 47.6527 172.782 48.054C172.782 48.446 172.67 48.7353 172.446 48.922C172.222 49.0993 171.872 49.188 171.396 49.188ZM172.586 50V57H170.206V50H172.586ZM177.22 57.14C176.52 57.14 175.866 57.028 175.26 56.804C174.662 56.5707 174.168 56.2393 173.776 55.81L174.896 54.494C175.129 54.7927 175.437 55.0447 175.82 55.25C176.212 55.446 176.646 55.544 177.122 55.544C177.411 55.544 177.649 55.502 177.836 55.418C178.022 55.334 178.116 55.2033 178.116 55.026C178.116 54.8953 178.069 54.7927 177.976 54.718C177.882 54.634 177.696 54.564 177.416 54.508L176.436 54.312C175.558 54.1347 174.933 53.8733 174.56 53.528C174.196 53.1733 174.014 52.7113 174.014 52.142C174.014 51.7593 174.13 51.3953 174.364 51.05C174.597 50.6953 174.956 50.4107 175.442 50.196C175.927 49.972 176.548 49.86 177.304 49.86C178.013 49.86 178.638 49.9627 179.18 50.168C179.721 50.3733 180.15 50.672 180.468 51.064L179.334 52.352C179.11 52.072 178.82 51.8527 178.466 51.694C178.111 51.5353 177.756 51.456 177.402 51.456C177.178 51.456 176.986 51.4793 176.828 51.526C176.678 51.5633 176.566 51.6193 176.492 51.694C176.417 51.7687 176.38 51.862 176.38 51.974C176.38 52.0953 176.436 52.2027 176.548 52.296C176.669 52.38 176.888 52.4547 177.206 52.52L178.48 52.772C179.198 52.9027 179.716 53.1407 180.034 53.486C180.351 53.8313 180.51 54.2467 180.51 54.732C180.51 55.1893 180.388 55.6 180.146 55.964C179.903 56.328 179.539 56.6173 179.054 56.832C178.568 57.0373 177.957 57.14 177.22 57.14ZM182.935 49.188C182.449 49.188 182.095 49.0993 181.871 48.922C181.656 48.7353 181.549 48.446 181.549 48.054C181.549 47.6527 181.656 47.3633 181.871 47.186C182.095 46.9993 182.449 46.906 182.935 46.906C183.411 46.906 183.761 46.9993 183.985 47.186C184.209 47.3633 184.321 47.6527 184.321 48.054C184.321 48.446 184.209 48.7353 183.985 48.922C183.761 49.0993 183.411 49.188 182.935 49.188ZM184.125 50V57H181.745V50H184.125ZM189.151 49.86C189.888 49.86 190.532 50.0047 191.083 50.294C191.643 50.574 192.077 50.9893 192.385 51.54C192.702 52.0813 192.861 52.7347 192.861 53.5C192.861 54.2653 192.702 54.9233 192.385 55.474C192.077 56.0153 191.643 56.4307 191.083 56.72C190.532 57 189.888 57.14 189.151 57.14C188.432 57.14 187.793 57 187.233 56.72C186.673 56.4307 186.234 56.0153 185.917 55.474C185.609 54.9233 185.455 54.2653 185.455 53.5C185.455 52.7347 185.609 52.0813 185.917 51.54C186.234 50.9893 186.673 50.574 187.233 50.294C187.793 50.0047 188.432 49.86 189.151 49.86ZM189.151 51.554C188.88 51.554 188.647 51.6193 188.451 51.75C188.255 51.8807 188.106 52.0907 188.003 52.38C187.9 52.6693 187.849 53.0427 187.849 53.5C187.849 53.9573 187.9 54.3307 188.003 54.62C188.106 54.9 188.255 55.11 188.451 55.25C188.647 55.3807 188.88 55.446 189.151 55.446C189.431 55.446 189.669 55.3807 189.865 55.25C190.061 55.11 190.21 54.9 190.313 54.62C190.416 54.3307 190.467 53.9573 190.467 53.5C190.467 53.0427 190.416 52.6693 190.313 52.38C190.21 52.0907 190.061 51.8807 189.865 51.75C189.669 51.6193 189.431 51.554 189.151 51.554ZM194.2 57V50H196.328L196.454 52.408L196.188 52.142C196.281 51.638 196.444 51.218 196.678 50.882C196.92 50.546 197.219 50.294 197.574 50.126C197.938 49.9487 198.344 49.86 198.792 49.86C199.277 49.86 199.697 49.9533 200.052 50.14C200.416 50.3267 200.7 50.602 200.906 50.966C201.111 51.33 201.214 51.7873 201.214 52.338V57H198.834V52.968C198.834 52.4827 198.74 52.1467 198.554 51.96C198.367 51.7733 198.129 51.68 197.84 51.68C197.616 51.68 197.406 51.736 197.21 51.848C197.014 51.9507 196.86 52.1187 196.748 52.352C196.636 52.5853 196.58 52.898 196.58 53.29V57H194.2Z" fill="#454545"/>
</svg>
