<svg width="273" height="80" viewBox="0 0 273 80" fill="none" xmlns="http://www.w3.org/2000/svg">
<mask id="path-1-inside-1_10_12844" fill="white">
<path d="M0 0H273V80H0V0Z"/>
</mask>
<path d="M0 0H273V80H0V0Z" fill="white"/>
<path d="M0 0H273V80H0V0Z" fill="#F89B1B" fill-opacity="0.1"/>
<path d="M0 12H273V-12H0V12Z" fill="#F89B1B" mask="url(#path-1-inside-1_10_12844)"/>
<circle cx="27.5" cy="44" r="6" fill="white" stroke="#F89B1B" stroke-width="4"/>
<path d="M58.5 40.5H53.5V38.5H58.5V40.5ZM58.5 43.5H53.5V45.5H58.5V43.5ZM72.09 50.5L68.26 46.67C67.46 47.19 66.52 47.5 65.5 47.5C62.74 47.5 60.5 45.26 60.5 42.5C60.5 39.74 62.74 37.5 65.5 37.5C68.26 37.5 70.5 39.74 70.5 42.5C70.5 43.52 70.19 44.46 69.67 45.25L73.5 49.09L72.09 50.5ZM68.5 42.5C68.5 40.85 67.15 39.5 65.5 39.5C63.85 39.5 62.5 40.85 62.5 42.5C62.5 44.15 63.85 45.5 65.5 45.5C67.15 45.5 68.5 44.15 68.5 42.5ZM53.5 50.5H63.5V48.5H53.5V50.5Z" fill="#454545"/>
<path d="M91.108 36H90.088L89.248 33.804H85.66L84.82 36H83.812L86.896 28.08H88.036L91.108 36ZM86.008 32.904H88.9L87.448 29.004L86.008 32.904ZM92.8579 36V30H93.6379L93.7699 30.984C93.9379 30.616 94.1819 30.34 94.5019 30.156C94.8299 29.972 95.2259 29.88 95.6899 29.88C95.7939 29.88 95.9059 29.888 96.0259 29.904C96.1539 29.92 96.2619 29.952 96.3499 30L96.1819 30.876C96.0939 30.844 95.9979 30.82 95.8939 30.804C95.7899 30.788 95.6419 30.78 95.4499 30.78C95.2019 30.78 94.9499 30.852 94.6939 30.996C94.4459 31.14 94.2379 31.36 94.0699 31.656C93.9019 31.944 93.8179 32.312 93.8179 32.76V36H92.8579ZM99.129 28.296V34.344C99.129 34.64 99.213 34.86 99.381 35.004C99.549 35.148 99.765 35.22 100.029 35.22C100.261 35.22 100.461 35.18 100.629 35.1C100.797 35.02 100.949 34.912 101.085 34.776L101.421 35.58C101.237 35.748 101.017 35.88 100.761 35.976C100.513 36.072 100.225 36.12 99.897 36.12C99.593 36.12 99.309 36.068 99.045 35.964C98.781 35.852 98.569 35.68 98.409 35.448C98.257 35.208 98.177 34.896 98.169 34.512V28.56L99.129 28.296ZM101.313 30V30.828H96.969V30H101.313ZM103.54 28.848C103.324 28.848 103.148 28.784 103.012 28.656C102.884 28.52 102.82 28.344 102.82 28.128C102.82 27.912 102.884 27.74 103.012 27.612C103.148 27.476 103.324 27.408 103.54 27.408C103.756 27.408 103.928 27.476 104.056 27.612C104.192 27.74 104.26 27.912 104.26 28.128C104.26 28.344 104.192 28.52 104.056 28.656C103.928 28.784 103.756 28.848 103.54 28.848ZM104.02 30V36H103.06V30H104.02ZM109.004 27.18C109.212 27.18 109.408 27.204 109.592 27.252C109.776 27.3 109.92 27.368 110.024 27.456L109.772 28.236C109.676 28.172 109.572 28.128 109.46 28.104C109.348 28.072 109.224 28.056 109.088 28.056C108.744 28.056 108.476 28.14 108.284 28.308C108.092 28.468 107.996 28.728 107.996 29.088V30V30.312V36H107.036V28.992C107.036 28.728 107.076 28.484 107.156 28.26C107.236 28.036 107.356 27.844 107.516 27.684C107.684 27.524 107.892 27.4 108.14 27.312C108.388 27.224 108.676 27.18 109.004 27.18ZM110 30V30.828H105.836V30H110ZM114.74 32.124C114.74 31.676 114.62 31.332 114.38 31.092C114.14 30.844 113.8 30.72 113.36 30.72C112.944 30.72 112.592 30.812 112.304 30.996C112.016 31.172 111.804 31.46 111.668 31.86L110.888 31.38C111.048 30.932 111.344 30.572 111.776 30.3C112.208 30.02 112.744 29.88 113.384 29.88C113.816 29.88 114.208 29.956 114.56 30.108C114.912 30.252 115.188 30.476 115.388 30.78C115.596 31.076 115.7 31.46 115.7 31.932V34.836C115.7 35.124 115.852 35.268 116.156 35.268C116.308 35.268 116.456 35.248 116.6 35.208L116.552 35.964C116.392 36.044 116.184 36.084 115.928 36.084C115.696 36.084 115.488 36.04 115.304 35.952C115.12 35.864 114.976 35.732 114.872 35.556C114.768 35.372 114.716 35.144 114.716 34.872V34.752L114.956 34.788C114.86 35.1 114.696 35.356 114.464 35.556C114.232 35.748 113.972 35.892 113.684 35.988C113.396 36.076 113.112 36.12 112.832 36.12C112.48 36.12 112.152 36.06 111.848 35.94C111.544 35.82 111.3 35.64 111.116 35.4C110.94 35.152 110.852 34.848 110.852 34.488C110.852 34.04 111 33.672 111.296 33.384C111.6 33.088 112.02 32.888 112.556 32.784L114.932 32.316V33.108L113 33.504C112.608 33.584 112.316 33.696 112.124 33.84C111.932 33.984 111.836 34.184 111.836 34.44C111.836 34.688 111.932 34.892 112.124 35.052C112.324 35.204 112.604 35.28 112.964 35.28C113.196 35.28 113.416 35.252 113.624 35.196C113.84 35.132 114.032 35.04 114.2 34.92C114.368 34.792 114.5 34.636 114.596 34.452C114.692 34.26 114.74 34.036 114.74 33.78V32.124ZM120.836 29.88C121.252 29.88 121.616 29.944 121.928 30.072C122.248 30.2 122.524 30.384 122.756 30.624C122.988 30.864 123.176 31.148 123.32 31.476L122.408 31.908C122.28 31.524 122.084 31.232 121.82 31.032C121.564 30.824 121.228 30.72 120.812 30.72C120.412 30.72 120.068 30.812 119.78 30.996C119.492 31.172 119.272 31.432 119.12 31.776C118.968 32.112 118.892 32.52 118.892 33C118.892 33.472 118.968 33.88 119.12 34.224C119.272 34.568 119.492 34.832 119.78 35.016C120.068 35.192 120.412 35.28 120.812 35.28C121.124 35.28 121.392 35.232 121.616 35.136C121.848 35.04 122.036 34.9 122.18 34.716C122.332 34.532 122.436 34.308 122.492 34.044L123.38 34.356C123.244 34.724 123.056 35.04 122.816 35.304C122.584 35.568 122.3 35.772 121.964 35.916C121.636 36.052 121.26 36.12 120.836 36.12C120.276 36.12 119.776 35.996 119.336 35.748C118.896 35.5 118.552 35.144 118.304 34.68C118.056 34.208 117.932 33.648 117.932 33C117.932 32.352 118.056 31.796 118.304 31.332C118.552 30.86 118.896 30.5 119.336 30.252C119.776 30.004 120.276 29.88 120.836 29.88ZM126.803 28.296V34.344C126.803 34.64 126.887 34.86 127.055 35.004C127.223 35.148 127.439 35.22 127.703 35.22C127.935 35.22 128.135 35.18 128.303 35.1C128.471 35.02 128.623 34.912 128.759 34.776L129.095 35.58C128.911 35.748 128.691 35.88 128.435 35.976C128.187 36.072 127.899 36.12 127.571 36.12C127.267 36.12 126.983 36.068 126.719 35.964C126.455 35.852 126.243 35.68 126.083 35.448C125.931 35.208 125.851 34.896 125.843 34.512V28.56L126.803 28.296ZM128.987 30V30.828H124.643V30H128.987ZM132.895 36.12C132.311 36.12 131.771 35.996 131.275 35.748C130.787 35.5 130.411 35.148 130.147 34.692L130.963 34.104C131.139 34.472 131.395 34.76 131.731 34.968C132.075 35.176 132.487 35.28 132.967 35.28C133.391 35.28 133.723 35.2 133.963 35.04C134.203 34.872 134.323 34.656 134.323 34.392C134.323 34.224 134.267 34.072 134.155 33.936C134.051 33.792 133.847 33.688 133.543 33.624L132.103 33.324C131.519 33.204 131.099 33.004 130.843 32.724C130.595 32.444 130.471 32.096 130.471 31.68C130.471 31.352 130.563 31.052 130.747 30.78C130.939 30.508 131.207 30.292 131.551 30.132C131.903 29.964 132.315 29.88 132.787 29.88C133.379 29.88 133.879 29.996 134.287 30.228C134.695 30.46 134.999 30.788 135.199 31.212L134.395 31.74C134.259 31.388 134.039 31.132 133.735 30.972C133.431 30.804 133.115 30.72 132.787 30.72C132.499 30.72 132.251 30.76 132.043 30.84C131.843 30.92 131.687 31.032 131.575 31.176C131.471 31.312 131.419 31.468 131.419 31.644C131.419 31.82 131.479 31.984 131.599 32.136C131.719 32.28 131.943 32.384 132.271 32.448L133.771 32.76C134.331 32.872 134.723 33.056 134.947 33.312C135.171 33.568 135.283 33.88 135.283 34.248C135.283 34.624 135.183 34.956 134.983 35.244C134.783 35.524 134.503 35.74 134.143 35.892C133.783 36.044 133.367 36.12 132.895 36.12ZM142.933 28.08V36H141.973V28.08H142.933ZM146.803 28.08V36H145.843V28.08H146.803Z" fill="#707070"/>
<path d="M86.93 47.76V57H84.522V47.76H86.93ZM88.7837 57V50H90.9117L91.0377 52.408L90.7717 52.142C90.865 51.638 91.0284 51.218 91.2617 50.882C91.5044 50.546 91.803 50.294 92.1577 50.126C92.5217 49.9487 92.9277 49.86 93.3757 49.86C93.861 49.86 94.281 49.9533 94.6357 50.14C94.9997 50.3267 95.2844 50.602 95.4897 50.966C95.695 51.33 95.7977 51.7873 95.7977 52.338V57H93.4177V52.968C93.4177 52.4827 93.3244 52.1467 93.1377 51.96C92.951 51.7733 92.713 51.68 92.4237 51.68C92.1997 51.68 91.9897 51.736 91.7937 51.848C91.5977 51.9507 91.4437 52.1187 91.3317 52.352C91.2197 52.5853 91.1637 52.898 91.1637 53.29V57H88.7837ZM101.851 50H104.315L101.795 57H98.9533L96.4333 50H98.9393L100.381 55.334L101.851 50ZM108.442 57.14C107.667 57.14 106.995 56.9953 106.426 56.706C105.866 56.4167 105.432 56.0013 105.124 55.46C104.816 54.9187 104.662 54.2653 104.662 53.5C104.662 52.7347 104.816 52.0813 105.124 51.54C105.432 50.9987 105.861 50.5833 106.412 50.294C106.972 50.0047 107.611 49.86 108.33 49.86C109.067 49.86 109.693 50.0047 110.206 50.294C110.729 50.574 111.125 50.966 111.396 51.47C111.667 51.9647 111.802 52.534 111.802 53.178C111.802 53.346 111.797 53.514 111.788 53.682C111.779 53.85 111.765 53.99 111.746 54.102H106.202V52.828H110.696L109.562 53.262C109.562 52.702 109.459 52.2727 109.254 51.974C109.058 51.6753 108.75 51.526 108.33 51.526C108.031 51.526 107.775 51.596 107.56 51.736C107.355 51.876 107.196 52.0953 107.084 52.394C106.981 52.6927 106.93 53.0753 106.93 53.542C106.93 53.9993 106.991 54.3727 107.112 54.662C107.233 54.942 107.406 55.1473 107.63 55.278C107.854 55.3993 108.125 55.46 108.442 55.46C108.797 55.46 109.077 55.39 109.282 55.25C109.497 55.11 109.655 54.914 109.758 54.662L111.662 55.292C111.531 55.6933 111.303 56.034 110.976 56.314C110.659 56.5847 110.276 56.79 109.828 56.93C109.389 57.07 108.927 57.14 108.442 57.14ZM116.073 57.14C115.373 57.14 114.72 57.028 114.113 56.804C113.516 56.5707 113.021 56.2393 112.629 55.81L113.749 54.494C113.983 54.7927 114.291 55.0447 114.673 55.25C115.065 55.446 115.499 55.544 115.975 55.544C116.265 55.544 116.503 55.502 116.689 55.418C116.876 55.334 116.969 55.2033 116.969 55.026C116.969 54.8953 116.923 54.7927 116.829 54.718C116.736 54.634 116.549 54.564 116.269 54.508L115.289 54.312C114.412 54.1347 113.787 53.8733 113.413 53.528C113.049 53.1733 112.867 52.7113 112.867 52.142C112.867 51.7593 112.984 51.3953 113.217 51.05C113.451 50.6953 113.81 50.4107 114.295 50.196C114.781 49.972 115.401 49.86 116.157 49.86C116.867 49.86 117.492 49.9627 118.033 50.168C118.575 50.3733 119.004 50.672 119.321 51.064L118.187 52.352C117.963 52.072 117.674 51.8527 117.319 51.694C116.965 51.5353 116.61 51.456 116.255 51.456C116.031 51.456 115.84 51.4793 115.681 51.526C115.532 51.5633 115.42 51.6193 115.345 51.694C115.271 51.7687 115.233 51.862 115.233 51.974C115.233 52.0953 115.289 52.2027 115.401 52.296C115.523 52.38 115.742 52.4547 116.059 52.52L117.333 52.772C118.052 52.9027 118.57 53.1407 118.887 53.486C119.205 53.8313 119.363 54.2467 119.363 54.732C119.363 55.1893 119.242 55.6 118.999 55.964C118.757 56.328 118.393 56.6173 117.907 56.832C117.422 57.0373 116.811 57.14 116.073 57.14ZM123.524 47.774V54.508C123.524 54.844 123.603 55.0867 123.762 55.236C123.93 55.376 124.159 55.446 124.448 55.446C124.672 55.446 124.863 55.4227 125.022 55.376C125.19 55.32 125.339 55.2407 125.47 55.138L125.722 56.608C125.489 56.776 125.195 56.9067 124.84 57C124.485 57.0933 124.121 57.14 123.748 57.14C123.216 57.14 122.754 57.0653 122.362 56.916C121.979 56.7667 121.681 56.5287 121.466 56.202C121.261 55.8753 121.153 55.4413 121.144 54.9V48.432L123.524 47.774ZM125.61 50V51.694H119.94V50H125.61ZM127.899 49.188C127.414 49.188 127.059 49.0993 126.835 48.922C126.621 48.7353 126.513 48.446 126.513 48.054C126.513 47.6527 126.621 47.3633 126.835 47.186C127.059 46.9993 127.414 46.906 127.899 46.906C128.375 46.906 128.725 46.9993 128.949 47.186C129.173 47.3633 129.285 47.6527 129.285 48.054C129.285 48.446 129.173 48.7353 128.949 48.922C128.725 49.0993 128.375 49.188 127.899 49.188ZM129.089 50V57H126.709V50H129.089ZM137.56 48.124L137.756 49.72C137.7 49.7013 137.644 49.692 137.588 49.692C137.532 49.6827 137.476 49.678 137.42 49.678C137.009 49.678 136.701 49.7807 136.496 49.986C136.3 50.182 136.202 50.4293 136.202 50.728L135.362 50.42C135.362 50.0373 135.432 49.6687 135.572 49.314C135.712 48.9593 135.926 48.67 136.216 48.446C136.514 48.222 136.888 48.11 137.336 48.11C137.364 48.11 137.396 48.11 137.434 48.11C137.48 48.11 137.522 48.1147 137.56 48.124ZM135.152 55.446C135.964 55.446 136.584 55.6187 137.014 55.964C137.452 56.3 137.672 56.7853 137.672 57.42C137.672 57.9987 137.513 58.4793 137.196 58.862C136.878 59.2447 136.43 59.5293 135.852 59.716C135.282 59.912 134.606 60.01 133.822 60.01C132.552 60.01 131.638 59.8513 131.078 59.534C130.518 59.2167 130.238 58.7873 130.238 58.246C130.238 57.854 130.396 57.5367 130.714 57.294C131.031 57.0513 131.558 56.9207 132.296 56.902L132.24 57.126C131.67 57.0513 131.246 56.8833 130.966 56.622C130.686 56.3607 130.546 56.006 130.546 55.558C130.546 55.11 130.723 54.746 131.078 54.466C131.432 54.186 131.904 54.032 132.492 54.004L133.36 54.41H133.136C132.772 54.4287 132.515 54.4893 132.366 54.592C132.216 54.6947 132.142 54.8207 132.142 54.97C132.142 55.1287 132.207 55.25 132.338 55.334C132.468 55.4087 132.664 55.446 132.926 55.446H135.152ZM133.836 58.47C134.284 58.47 134.652 58.4373 134.942 58.372C135.24 58.316 135.464 58.232 135.614 58.12C135.763 58.0173 135.838 57.896 135.838 57.756C135.838 57.616 135.786 57.504 135.684 57.42C135.581 57.3453 135.394 57.308 135.124 57.308H132.618C132.44 57.308 132.296 57.3547 132.184 57.448C132.081 57.5413 132.03 57.658 132.03 57.798C132.03 58.0127 132.188 58.176 132.506 58.288C132.823 58.4093 133.266 58.47 133.836 58.47ZM133.92 49.86C134.629 49.86 135.236 49.9533 135.74 50.14C136.244 50.3267 136.626 50.5973 136.888 50.952C137.158 51.2973 137.294 51.7267 137.294 52.24C137.294 52.744 137.158 53.1733 136.888 53.528C136.626 53.8827 136.244 54.1533 135.74 54.34C135.236 54.5173 134.629 54.606 133.92 54.606C132.809 54.606 131.964 54.4007 131.386 53.99C130.816 53.5793 130.532 52.996 130.532 52.24C130.532 51.7267 130.662 51.2973 130.924 50.952C131.194 50.5973 131.582 50.3267 132.086 50.14C132.59 49.9533 133.201 49.86 133.92 49.86ZM133.92 51.218C133.612 51.218 133.36 51.3067 133.164 51.484C132.977 51.6613 132.884 51.9133 132.884 52.24C132.884 52.5573 132.977 52.8047 133.164 52.982C133.36 53.1593 133.612 53.248 133.92 53.248C134.218 53.248 134.466 53.1593 134.662 52.982C134.858 52.8047 134.956 52.5573 134.956 52.24C134.956 51.9133 134.858 51.6613 134.662 51.484C134.466 51.3067 134.218 51.218 133.92 51.218ZM142.524 52.562C142.524 52.2353 142.43 51.9787 142.244 51.792C142.066 51.596 141.824 51.498 141.516 51.498C141.208 51.498 140.942 51.5773 140.718 51.736C140.503 51.8853 140.354 52.156 140.27 52.548L138.254 52.072C138.384 51.4 138.73 50.8633 139.29 50.462C139.85 50.0607 140.638 49.86 141.656 49.86C142.337 49.86 142.916 49.9627 143.392 50.168C143.877 50.364 144.246 50.6627 144.498 51.064C144.759 51.456 144.89 51.9413 144.89 52.52V55.082C144.89 55.446 145.053 55.628 145.38 55.628C145.548 55.628 145.683 55.6093 145.786 55.572L145.646 56.93C145.366 57.0607 145.025 57.126 144.624 57.126C144.26 57.126 143.938 57.07 143.658 56.958C143.378 56.8367 143.158 56.6593 143 56.426C142.841 56.1833 142.762 55.88 142.762 55.516V55.432L143.028 55.334C143.028 55.7353 142.906 56.0713 142.664 56.342C142.43 56.6127 142.122 56.8133 141.74 56.944C141.366 57.0747 140.974 57.14 140.564 57.14C140.088 57.14 139.672 57.0653 139.318 56.916C138.963 56.7667 138.688 56.552 138.492 56.272C138.305 55.9827 138.212 55.628 138.212 55.208C138.212 54.704 138.361 54.2887 138.66 53.962C138.968 53.626 139.448 53.3927 140.102 53.262L142.748 52.716L142.734 53.976L141.39 54.256C141.11 54.312 140.9 54.396 140.76 54.508C140.629 54.6107 140.564 54.7693 140.564 54.984C140.564 55.1893 140.638 55.3433 140.788 55.446C140.937 55.5487 141.114 55.6 141.32 55.6C141.478 55.6 141.628 55.5767 141.768 55.53C141.917 55.4833 142.048 55.4133 142.16 55.32C142.272 55.2173 142.36 55.0913 142.426 54.942C142.491 54.7927 142.524 54.6153 142.524 54.41V52.562ZM149.378 47.774V54.508C149.378 54.844 149.457 55.0867 149.616 55.236C149.784 55.376 150.012 55.446 150.302 55.446C150.526 55.446 150.717 55.4227 150.876 55.376C151.044 55.32 151.193 55.2407 151.324 55.138L151.576 56.608C151.342 56.776 151.048 56.9067 150.694 57C150.339 57.0933 149.975 57.14 149.602 57.14C149.07 57.14 148.608 57.0653 148.216 56.916C147.833 56.7667 147.534 56.5287 147.32 56.202C147.114 55.8753 147.007 55.4413 146.998 54.9V48.432L149.378 47.774ZM151.464 50V51.694H145.794V50H151.464ZM155.979 57.14C155.204 57.14 154.532 56.9953 153.963 56.706C153.403 56.4167 152.969 56.0013 152.661 55.46C152.353 54.9187 152.199 54.2653 152.199 53.5C152.199 52.7347 152.353 52.0813 152.661 51.54C152.969 50.9987 153.398 50.5833 153.949 50.294C154.509 50.0047 155.148 49.86 155.867 49.86C156.604 49.86 157.23 50.0047 157.743 50.294C158.266 50.574 158.662 50.966 158.933 51.47C159.204 51.9647 159.339 52.534 159.339 53.178C159.339 53.346 159.334 53.514 159.325 53.682C159.316 53.85 159.302 53.99 159.283 54.102H153.739V52.828H158.233L157.099 53.262C157.099 52.702 156.996 52.2727 156.791 51.974C156.595 51.6753 156.287 51.526 155.867 51.526C155.568 51.526 155.312 51.596 155.097 51.736C154.892 51.876 154.733 52.0953 154.621 52.394C154.518 52.6927 154.467 53.0753 154.467 53.542C154.467 53.9993 154.528 54.3727 154.649 54.662C154.77 54.942 154.943 55.1473 155.167 55.278C155.391 55.3993 155.662 55.46 155.979 55.46C156.334 55.46 156.614 55.39 156.819 55.25C157.034 55.11 157.192 54.914 157.295 54.662L159.199 55.292C159.068 55.6933 158.84 56.034 158.513 56.314C158.196 56.5847 157.813 56.79 157.365 56.93C156.926 57.07 156.464 57.14 155.979 57.14ZM167.493 47.774V54.508C167.493 54.844 167.572 55.0867 167.731 55.236C167.899 55.376 168.128 55.446 168.417 55.446C168.641 55.446 168.832 55.4227 168.991 55.376C169.159 55.32 169.308 55.2407 169.439 55.138L169.691 56.608C169.458 56.776 169.164 56.9067 168.809 57C168.454 57.0933 168.09 57.14 167.717 57.14C167.185 57.14 166.723 57.0653 166.331 56.916C165.948 56.7667 165.65 56.5287 165.435 56.202C165.23 55.8753 165.122 55.4413 165.113 54.9V48.432L167.493 47.774ZM169.579 50V51.694H163.909V50H169.579ZM170.842 57V47.032H173.222V51.274C173.428 50.8073 173.722 50.4573 174.104 50.224C174.487 49.9813 174.93 49.86 175.434 49.86C175.92 49.86 176.34 49.9533 176.694 50.14C177.058 50.3267 177.343 50.602 177.548 50.966C177.754 51.33 177.856 51.7873 177.856 52.338V57H175.476V52.996C175.476 52.492 175.383 52.1467 175.196 51.96C175.019 51.764 174.781 51.666 174.482 51.666C174.258 51.666 174.048 51.722 173.852 51.834C173.656 51.946 173.502 52.1233 173.39 52.366C173.278 52.6087 173.222 52.926 173.222 53.318V57H170.842ZM182.94 57.14C182.165 57.14 181.493 56.9953 180.924 56.706C180.364 56.4167 179.93 56.0013 179.622 55.46C179.314 54.9187 179.16 54.2653 179.16 53.5C179.16 52.7347 179.314 52.0813 179.622 51.54C179.93 50.9987 180.359 50.5833 180.91 50.294C181.47 50.0047 182.109 49.86 182.828 49.86C183.565 49.86 184.191 50.0047 184.704 50.294C185.227 50.574 185.623 50.966 185.894 51.47C186.165 51.9647 186.3 52.534 186.3 53.178C186.3 53.346 186.295 53.514 186.286 53.682C186.277 53.85 186.263 53.99 186.244 54.102H180.7V52.828H185.194L184.06 53.262C184.06 52.702 183.957 52.2727 183.752 51.974C183.556 51.6753 183.248 51.526 182.828 51.526C182.529 51.526 182.273 51.596 182.058 51.736C181.853 51.876 181.694 52.0953 181.582 52.394C181.479 52.6927 181.428 53.0753 181.428 53.542C181.428 53.9993 181.489 54.3727 181.61 54.662C181.731 54.942 181.904 55.1473 182.128 55.278C182.352 55.3993 182.623 55.46 182.94 55.46C183.295 55.46 183.575 55.39 183.78 55.25C183.995 55.11 184.153 54.914 184.256 54.662L186.16 55.292C186.029 55.6933 185.801 56.034 185.474 56.314C185.157 56.5847 184.774 56.79 184.326 56.93C183.887 57.07 183.425 57.14 182.94 57.14ZM191.805 57V47.76H199.001V49.622H194.213V51.498H198.021V53.248H194.213V55.138H199.183V57H191.805ZM204.842 50H207.306L204.786 57H201.944L199.423 50H201.93L203.372 55.334L204.842 50ZM209.329 49.188C208.844 49.188 208.489 49.0993 208.265 48.922C208.05 48.7353 207.943 48.446 207.943 48.054C207.943 47.6527 208.05 47.3633 208.265 47.186C208.489 46.9993 208.844 46.906 209.329 46.906C209.805 46.906 210.155 46.9993 210.379 47.186C210.603 47.3633 210.715 47.6527 210.715 48.054C210.715 48.446 210.603 48.7353 210.379 48.922C210.155 49.0993 209.805 49.188 209.329 49.188ZM210.519 50V57H208.139V50H210.519ZM214.789 57.14C214.211 57.14 213.702 57 213.263 56.72C212.834 56.4307 212.498 56.0153 212.255 55.474C212.022 54.9327 211.905 54.284 211.905 53.528C211.905 52.744 212.027 52.0813 212.269 51.54C212.521 50.9987 212.867 50.5833 213.305 50.294C213.753 50.0047 214.267 49.86 214.845 49.86C215.48 49.86 215.989 50.056 216.371 50.448C216.763 50.8307 217.015 51.3207 217.127 51.918L216.903 52.212V47.032H219.283V57H217.155L217.001 54.62L217.281 54.83C217.225 55.2967 217.081 55.7027 216.847 56.048C216.623 56.3933 216.334 56.664 215.979 56.86C215.634 57.0467 215.237 57.14 214.789 57.14ZM215.615 55.39C215.886 55.39 216.115 55.32 216.301 55.18C216.497 55.0307 216.647 54.8113 216.749 54.522C216.852 54.2327 216.903 53.878 216.903 53.458C216.903 53.066 216.852 52.7347 216.749 52.464C216.656 52.184 216.511 51.974 216.315 51.834C216.129 51.6847 215.9 51.61 215.629 51.61C215.219 51.61 214.892 51.764 214.649 52.072C214.416 52.3707 214.299 52.8467 214.299 53.5C214.299 54.1533 214.416 54.634 214.649 54.942C214.883 55.2407 215.205 55.39 215.615 55.39ZM224.407 57.14C223.632 57.14 222.96 56.9953 222.391 56.706C221.831 56.4167 221.397 56.0013 221.089 55.46C220.781 54.9187 220.627 54.2653 220.627 53.5C220.627 52.7347 220.781 52.0813 221.089 51.54C221.397 50.9987 221.826 50.5833 222.377 50.294C222.937 50.0047 223.576 49.86 224.295 49.86C225.032 49.86 225.657 50.0047 226.171 50.294C226.693 50.574 227.09 50.966 227.361 51.47C227.631 51.9647 227.767 52.534 227.767 53.178C227.767 53.346 227.762 53.514 227.753 53.682C227.743 53.85 227.729 53.99 227.711 54.102H222.167V52.828H226.661L225.527 53.262C225.527 52.702 225.424 52.2727 225.219 51.974C225.023 51.6753 224.715 51.526 224.295 51.526C223.996 51.526 223.739 51.596 223.525 51.736C223.319 51.876 223.161 52.0953 223.049 52.394C222.946 52.6927 222.895 53.0753 222.895 53.542C222.895 53.9993 222.955 54.3727 223.077 54.662C223.198 54.942 223.371 55.1473 223.595 55.278C223.819 55.3993 224.089 55.46 224.407 55.46C224.761 55.46 225.041 55.39 225.247 55.25C225.461 55.11 225.62 54.914 225.723 54.662L227.627 55.292C227.496 55.6933 227.267 56.034 226.941 56.314C226.623 56.5847 226.241 56.79 225.793 56.93C225.354 57.07 224.892 57.14 224.407 57.14ZM229.098 57V50H231.226L231.352 52.408L231.086 52.142C231.179 51.638 231.343 51.218 231.576 50.882C231.819 50.546 232.117 50.294 232.472 50.126C232.836 49.9487 233.242 49.86 233.69 49.86C234.175 49.86 234.595 49.9533 234.95 50.14C235.314 50.3267 235.599 50.602 235.804 50.966C236.009 51.33 236.112 51.7873 236.112 52.338V57H233.732V52.968C233.732 52.4827 233.639 52.1467 233.452 51.96C233.265 51.7733 233.027 51.68 232.738 51.68C232.514 51.68 232.304 51.736 232.108 51.848C231.912 51.9507 231.758 52.1187 231.646 52.352C231.534 52.5853 231.478 52.898 231.478 53.29V57H229.098ZM241.098 49.86C241.807 49.86 242.395 49.9627 242.862 50.168C243.338 50.364 243.706 50.63 243.968 50.966C244.238 51.2927 244.406 51.6473 244.472 52.03L242.274 52.758C242.208 52.3567 242.087 52.058 241.91 51.862C241.742 51.6567 241.494 51.554 241.168 51.554C240.869 51.554 240.617 51.624 240.412 51.764C240.216 51.8947 240.066 52.1093 239.964 52.408C239.861 52.6973 239.81 53.0707 239.81 53.528C239.81 53.9853 239.866 54.3587 239.978 54.648C240.09 54.928 240.248 55.1333 240.454 55.264C240.659 55.3853 240.902 55.446 241.182 55.446C241.415 55.446 241.606 55.404 241.756 55.32C241.914 55.2267 242.045 55.096 242.148 54.928C242.25 54.76 242.316 54.5547 242.344 54.312L244.486 54.998C244.42 55.4087 244.243 55.7773 243.954 56.104C243.674 56.4213 243.3 56.6733 242.834 56.86C242.367 57.0467 241.821 57.14 241.196 57.14C240.43 57.14 239.763 57 239.194 56.72C238.624 56.4307 238.186 56.0153 237.878 55.474C237.57 54.9233 237.416 54.2653 237.416 53.5C237.416 52.7347 237.57 52.0813 237.878 51.54C238.186 50.9893 238.615 50.574 239.166 50.294C239.726 50.0047 240.37 49.86 241.098 49.86ZM249.139 57.14C248.364 57.14 247.692 56.9953 247.123 56.706C246.563 56.4167 246.129 56.0013 245.821 55.46C245.513 54.9187 245.359 54.2653 245.359 53.5C245.359 52.7347 245.513 52.0813 245.821 51.54C246.129 50.9987 246.558 50.5833 247.109 50.294C247.669 50.0047 248.308 49.86 249.027 49.86C249.764 49.86 250.39 50.0047 250.903 50.294C251.426 50.574 251.822 50.966 252.093 51.47C252.364 51.9647 252.499 52.534 252.499 53.178C252.499 53.346 252.494 53.514 252.485 53.682C252.476 53.85 252.462 53.99 252.443 54.102H246.899V52.828H251.393L250.259 53.262C250.259 52.702 250.156 52.2727 249.951 51.974C249.755 51.6753 249.447 51.526 249.027 51.526C248.728 51.526 248.472 51.596 248.257 51.736C248.052 51.876 247.893 52.0953 247.781 52.394C247.678 52.6927 247.627 53.0753 247.627 53.542C247.627 53.9993 247.688 54.3727 247.809 54.662C247.93 54.942 248.103 55.1473 248.327 55.278C248.551 55.3993 248.822 55.46 249.139 55.46C249.494 55.46 249.774 55.39 249.979 55.25C250.194 55.11 250.352 54.914 250.455 54.662L252.359 55.292C252.228 55.6933 252 56.034 251.673 56.314C251.356 56.5847 250.973 56.79 250.525 56.93C250.086 57.07 249.624 57.14 249.139 57.14Z" fill="#454545"/>
</svg>
