<svg width="252" height="80" viewBox="0 0 252 80" fill="none" xmlns="http://www.w3.org/2000/svg">
<mask id="path-1-inside-1_10_12714" fill="white">
<path d="M0 0H229V64H0V0Z"/>
</mask>
<path d="M0 0H229V64H0V0Z" fill="white"/>
<path d="M0 0H229V64H0V0Z" fill="#BD6697" fill-opacity="0.1"/>
<path d="M0 12H229V-12H0V12Z" fill="#BD6697" mask="url(#path-1-inside-1_10_12714)"/>
<circle cx="24" cy="36" r="6" fill="white" stroke="#BD6697" stroke-width="4"/>
<path d="M67 29V38H62V43H53V29H67ZM67 27H53C51.9 27 51 27.9 51 29V43C51 44.1 51.9 45 53 45H63L69 39V29C69 27.9 68.1 27 67 27ZM60 38H55V36H60V38ZM65 34H55V32H65V34Z" fill="#454545"/>
<path d="M83.43 31.76V41H81.022V31.76H83.43ZM85.2837 41V34H87.4117L87.5377 36.408L87.2717 36.142C87.365 35.638 87.5284 35.218 87.7617 34.882C88.0044 34.546 88.303 34.294 88.6577 34.126C89.0217 33.9487 89.4277 33.86 89.8757 33.86C90.361 33.86 90.781 33.9533 91.1357 34.14C91.4997 34.3267 91.7844 34.602 91.9897 34.966C92.195 35.33 92.2977 35.7873 92.2977 36.338V41H89.9177V36.968C89.9177 36.4827 89.8244 36.1467 89.6377 35.96C89.451 35.7733 89.213 35.68 88.9237 35.68C88.6997 35.68 88.4897 35.736 88.2937 35.848C88.0977 35.9507 87.9437 36.1187 87.8317 36.352C87.7197 36.5853 87.6637 36.898 87.6637 37.29V41H85.2837ZM96.9053 41.14C96.2053 41.14 95.552 41.028 94.9453 40.804C94.348 40.5707 93.8533 40.2393 93.4613 39.81L94.5813 38.494C94.8147 38.7927 95.1227 39.0447 95.5053 39.25C95.8973 39.446 96.3313 39.544 96.8073 39.544C97.0967 39.544 97.3347 39.502 97.5213 39.418C97.708 39.334 97.8013 39.2033 97.8013 39.026C97.8013 38.8953 97.7547 38.7927 97.6613 38.718C97.568 38.634 97.3813 38.564 97.1013 38.508L96.1213 38.312C95.244 38.1347 94.6187 37.8733 94.2453 37.528C93.8813 37.1733 93.6993 36.7113 93.6993 36.142C93.6993 35.7593 93.816 35.3953 94.0493 35.05C94.2827 34.6953 94.642 34.4107 95.1273 34.196C95.6127 33.972 96.2333 33.86 96.9893 33.86C97.6987 33.86 98.324 33.9627 98.8653 34.168C99.4067 34.3733 99.836 34.672 100.153 35.064L99.0193 36.352C98.7953 36.072 98.506 35.8527 98.1513 35.694C97.7967 35.5353 97.442 35.456 97.0873 35.456C96.8633 35.456 96.672 35.4793 96.5133 35.526C96.364 35.5633 96.252 35.6193 96.1773 35.694C96.1027 35.7687 96.0653 35.862 96.0653 35.974C96.0653 36.0953 96.1213 36.2027 96.2333 36.296C96.3547 36.38 96.574 36.4547 96.8913 36.52L98.1653 36.772C98.884 36.9027 99.402 37.1407 99.7193 37.486C100.037 37.8313 100.195 38.2467 100.195 38.732C100.195 39.1893 100.074 39.6 99.8313 39.964C99.5887 40.328 99.2247 40.6173 98.7393 40.832C98.254 41.0373 97.6427 41.14 96.9053 41.14ZM104.356 31.774V38.508C104.356 38.844 104.436 39.0867 104.594 39.236C104.762 39.376 104.991 39.446 105.28 39.446C105.504 39.446 105.696 39.4227 105.854 39.376C106.022 39.32 106.172 39.2407 106.302 39.138L106.554 40.608C106.321 40.776 106.027 40.9067 105.672 41C105.318 41.0933 104.954 41.14 104.58 41.14C104.048 41.14 103.586 41.0653 103.194 40.916C102.812 40.7667 102.513 40.5287 102.298 40.202C102.093 39.8753 101.986 39.4413 101.976 38.9V32.432L104.356 31.774ZM106.442 34V35.694H100.772V34H106.442ZM107.542 41V34H109.642L109.74 35.512C109.917 34.9893 110.178 34.5833 110.524 34.294C110.878 34.0047 111.326 33.86 111.868 33.86C112.045 33.86 112.194 33.874 112.316 33.902C112.446 33.93 112.549 33.9673 112.624 34.014L112.386 35.974C112.292 35.9367 112.171 35.9087 112.022 35.89C111.882 35.862 111.709 35.848 111.504 35.848C111.224 35.848 110.962 35.9087 110.72 36.03C110.477 36.1513 110.281 36.3333 110.132 36.576C109.992 36.8093 109.922 37.108 109.922 37.472V41H107.542ZM115.923 41.14C115.447 41.14 115.027 41.0607 114.663 40.902C114.308 40.734 114.028 40.468 113.823 40.104C113.618 39.74 113.515 39.264 113.515 38.676V34H115.895V38.116C115.895 38.564 115.984 38.8767 116.161 39.054C116.338 39.2313 116.59 39.32 116.917 39.32C117.085 39.32 117.244 39.292 117.393 39.236C117.542 39.1707 117.673 39.0773 117.785 38.956C117.897 38.8253 117.981 38.662 118.037 38.466C118.102 38.2607 118.135 38.0227 118.135 37.752V34H120.515V41H118.387L118.317 39.684C118.093 40.1787 117.78 40.5473 117.379 40.79C116.978 41.0233 116.492 41.14 115.923 41.14ZM125.543 33.86C126.252 33.86 126.84 33.9627 127.307 34.168C127.783 34.364 128.152 34.63 128.413 34.966C128.684 35.2927 128.852 35.6473 128.917 36.03L126.719 36.758C126.654 36.3567 126.532 36.058 126.355 35.862C126.187 35.6567 125.94 35.554 125.613 35.554C125.314 35.554 125.062 35.624 124.857 35.764C124.661 35.8947 124.512 36.1093 124.409 36.408C124.306 36.6973 124.255 37.0707 124.255 37.528C124.255 37.9853 124.311 38.3587 124.423 38.648C124.535 38.928 124.694 39.1333 124.899 39.264C125.104 39.3853 125.347 39.446 125.627 39.446C125.86 39.446 126.052 39.404 126.201 39.32C126.36 39.2267 126.49 39.096 126.593 38.928C126.696 38.76 126.761 38.5547 126.789 38.312L128.931 38.998C128.866 39.4087 128.688 39.7773 128.399 40.104C128.119 40.4213 127.746 40.6733 127.279 40.86C126.812 41.0467 126.266 41.14 125.641 41.14C124.876 41.14 124.208 41 123.639 40.72C123.07 40.4307 122.631 40.0153 122.323 39.474C122.015 38.9233 121.861 38.2653 121.861 37.5C121.861 36.7347 122.015 36.0813 122.323 35.54C122.631 34.9893 123.06 34.574 123.611 34.294C124.171 34.0047 124.815 33.86 125.543 33.86ZM133.094 31.774V38.508C133.094 38.844 133.174 39.0867 133.332 39.236C133.5 39.376 133.729 39.446 134.018 39.446C134.242 39.446 134.434 39.4227 134.592 39.376C134.76 39.32 134.91 39.2407 135.04 39.138L135.292 40.608C135.059 40.776 134.765 40.9067 134.41 41C134.056 41.0933 133.692 41.14 133.318 41.14C132.786 41.14 132.324 41.0653 131.932 40.916C131.55 40.7667 131.251 40.5287 131.036 40.202C130.831 39.8753 130.724 39.4413 130.714 38.9V32.432L133.094 31.774ZM135.18 34V35.694H129.51V34H135.18ZM137.47 33.188C136.984 33.188 136.63 33.0993 136.406 32.922C136.191 32.7353 136.084 32.446 136.084 32.054C136.084 31.6527 136.191 31.3633 136.406 31.186C136.63 30.9993 136.984 30.906 137.47 30.906C137.946 30.906 138.296 30.9993 138.52 31.186C138.744 31.3633 138.856 31.6527 138.856 32.054C138.856 32.446 138.744 32.7353 138.52 32.922C138.296 33.0993 137.946 33.188 137.47 33.188ZM138.66 34V41H136.28V34H138.66ZM143.686 33.86C144.423 33.86 145.067 34.0047 145.618 34.294C146.178 34.574 146.612 34.9893 146.92 35.54C147.237 36.0813 147.396 36.7347 147.396 37.5C147.396 38.2653 147.237 38.9233 146.92 39.474C146.612 40.0153 146.178 40.4307 145.618 40.72C145.067 41 144.423 41.14 143.686 41.14C142.967 41.14 142.328 41 141.768 40.72C141.208 40.4307 140.769 40.0153 140.452 39.474C140.144 38.9233 139.99 38.2653 139.99 37.5C139.99 36.7347 140.144 36.0813 140.452 35.54C140.769 34.9893 141.208 34.574 141.768 34.294C142.328 34.0047 142.967 33.86 143.686 33.86ZM143.686 35.554C143.415 35.554 143.182 35.6193 142.986 35.75C142.79 35.8807 142.641 36.0907 142.538 36.38C142.435 36.6693 142.384 37.0427 142.384 37.5C142.384 37.9573 142.435 38.3307 142.538 38.62C142.641 38.9 142.79 39.11 142.986 39.25C143.182 39.3807 143.415 39.446 143.686 39.446C143.966 39.446 144.204 39.3807 144.4 39.25C144.596 39.11 144.745 38.9 144.848 38.62C144.951 38.3307 145.002 37.9573 145.002 37.5C145.002 37.0427 144.951 36.6693 144.848 36.38C144.745 36.0907 144.596 35.8807 144.4 35.75C144.204 35.6193 143.966 35.554 143.686 35.554ZM148.735 41V34H150.863L150.989 36.408L150.723 36.142C150.816 35.638 150.98 35.218 151.213 34.882C151.456 34.546 151.754 34.294 152.109 34.126C152.473 33.9487 152.879 33.86 153.327 33.86C153.812 33.86 154.232 33.9533 154.587 34.14C154.951 34.3267 155.236 34.602 155.441 34.966C155.646 35.33 155.749 35.7873 155.749 36.338V41H153.369V36.968C153.369 36.4827 153.276 36.1467 153.089 35.96C152.902 35.7733 152.664 35.68 152.375 35.68C152.151 35.68 151.941 35.736 151.745 35.848C151.549 35.9507 151.395 36.1187 151.283 36.352C151.171 36.5853 151.115 36.898 151.115 37.29V41H148.735ZM160.357 41.14C159.657 41.14 159.003 41.028 158.397 40.804C157.799 40.5707 157.305 40.2393 156.913 39.81L158.033 38.494C158.266 38.7927 158.574 39.0447 158.957 39.25C159.349 39.446 159.783 39.544 160.258 39.544C160.548 39.544 160.786 39.502 160.973 39.418C161.159 39.334 161.253 39.2033 161.253 39.026C161.253 38.8953 161.206 38.7927 161.113 38.718C161.019 38.634 160.833 38.564 160.553 38.508L159.573 38.312C158.695 38.1347 158.07 37.8733 157.697 37.528C157.333 37.1733 157.151 36.7113 157.151 36.142C157.151 35.7593 157.267 35.3953 157.501 35.05C157.734 34.6953 158.093 34.4107 158.579 34.196C159.064 33.972 159.685 33.86 160.441 33.86C161.15 33.86 161.775 33.9627 162.317 34.168C162.858 34.3733 163.287 34.672 163.605 35.064L162.471 36.352C162.247 36.072 161.957 35.8527 161.603 35.694C161.248 35.5353 160.893 35.456 160.539 35.456C160.315 35.456 160.123 35.4793 159.965 35.526C159.815 35.5633 159.703 35.6193 159.629 35.694C159.554 35.7687 159.517 35.862 159.517 35.974C159.517 36.0953 159.573 36.2027 159.685 36.296C159.806 36.38 160.025 36.4547 160.343 36.52L161.617 36.772C162.335 36.9027 162.853 37.1407 163.171 37.486C163.488 37.8313 163.647 38.2467 163.647 38.732C163.647 39.1893 163.525 39.6 163.283 39.964C163.04 40.328 162.676 40.6173 162.191 40.832C161.705 41.0373 161.094 41.14 160.357 41.14Z" fill="#454545"/>
</svg>
