<svg width="252" height="80" viewBox="0 0 252 80" fill="none" xmlns="http://www.w3.org/2000/svg">
<mask id="path-1-inside-1_10_12793" fill="white">
<path d="M0 0H245V80H0V0Z"/>
</mask>
<path d="M0 0H245V80H0V0Z" fill="white"/>
<path d="M0 0H245V80H0V0Z" fill="#67BC46" fill-opacity="0.1"/>
<path d="M0 12H245V-12H0V12Z" fill="#67BC46" mask="url(#path-1-inside-1_10_12793)"/>
<circle cx="24" cy="44" r="6" fill="white" stroke="#67BC46" stroke-width="4"/>
<path d="M62.17 37L67 41.83V51H53V37H62.17ZM62.17 35H53C51.9 35 51 35.9 51 37V51C51 52.1 51.9 53 53 53H67C68.1 53 69 52.1 69 51V41.83C69 41.3 68.79 40.79 68.41 40.42L63.58 35.59C63.21 35.21 62.7 35 62.17 35ZM55 47H65V49H55V47ZM55 43H65V45H55V43ZM55 39H62V41H55V39Z" fill="#454545"/>
<path d="M87.608 36H86.588L85.748 33.804H82.16L81.32 36H80.312L83.396 28.08H84.536L87.608 36ZM82.508 32.904H85.4L83.948 29.004L82.508 32.904ZM89.3579 36V30H90.1379L90.2699 30.984C90.4379 30.616 90.6819 30.34 91.0019 30.156C91.3299 29.972 91.7259 29.88 92.1899 29.88C92.2939 29.88 92.4059 29.888 92.5259 29.904C92.6539 29.92 92.7619 29.952 92.8499 30L92.6819 30.876C92.5939 30.844 92.4979 30.82 92.3939 30.804C92.2899 30.788 92.1419 30.78 91.9499 30.78C91.7019 30.78 91.4499 30.852 91.1939 30.996C90.9459 31.14 90.7379 31.36 90.5699 31.656C90.4019 31.944 90.3179 32.312 90.3179 32.76V36H89.3579ZM95.629 28.296V34.344C95.629 34.64 95.713 34.86 95.881 35.004C96.049 35.148 96.265 35.22 96.529 35.22C96.761 35.22 96.961 35.18 97.129 35.1C97.297 35.02 97.449 34.912 97.585 34.776L97.921 35.58C97.737 35.748 97.517 35.88 97.261 35.976C97.013 36.072 96.725 36.12 96.397 36.12C96.093 36.12 95.809 36.068 95.545 35.964C95.281 35.852 95.069 35.68 94.909 35.448C94.757 35.208 94.677 34.896 94.669 34.512V28.56L95.629 28.296ZM97.813 30V30.828H93.469V30H97.813ZM100.04 28.848C99.8244 28.848 99.6484 28.784 99.5124 28.656C99.3844 28.52 99.3204 28.344 99.3204 28.128C99.3204 27.912 99.3844 27.74 99.5124 27.612C99.6484 27.476 99.8244 27.408 100.04 27.408C100.256 27.408 100.428 27.476 100.556 27.612C100.692 27.74 100.76 27.912 100.76 28.128C100.76 28.344 100.692 28.52 100.556 28.656C100.428 28.784 100.256 28.848 100.04 28.848ZM100.52 30V36H99.5604V30H100.52ZM105.504 27.18C105.712 27.18 105.908 27.204 106.092 27.252C106.276 27.3 106.42 27.368 106.524 27.456L106.272 28.236C106.176 28.172 106.072 28.128 105.96 28.104C105.848 28.072 105.724 28.056 105.588 28.056C105.244 28.056 104.976 28.14 104.784 28.308C104.592 28.468 104.496 28.728 104.496 29.088V30V30.312V36H103.536V28.992C103.536 28.728 103.576 28.484 103.656 28.26C103.736 28.036 103.856 27.844 104.016 27.684C104.184 27.524 104.392 27.4 104.64 27.312C104.888 27.224 105.176 27.18 105.504 27.18ZM106.5 30V30.828H102.336V30H106.5ZM111.24 32.124C111.24 31.676 111.12 31.332 110.88 31.092C110.64 30.844 110.3 30.72 109.86 30.72C109.444 30.72 109.092 30.812 108.804 30.996C108.516 31.172 108.304 31.46 108.168 31.86L107.388 31.38C107.548 30.932 107.844 30.572 108.276 30.3C108.708 30.02 109.244 29.88 109.884 29.88C110.316 29.88 110.708 29.956 111.06 30.108C111.412 30.252 111.688 30.476 111.888 30.78C112.096 31.076 112.2 31.46 112.2 31.932V34.836C112.2 35.124 112.352 35.268 112.656 35.268C112.808 35.268 112.956 35.248 113.1 35.208L113.052 35.964C112.892 36.044 112.684 36.084 112.428 36.084C112.196 36.084 111.988 36.04 111.804 35.952C111.62 35.864 111.476 35.732 111.372 35.556C111.268 35.372 111.216 35.144 111.216 34.872V34.752L111.456 34.788C111.36 35.1 111.196 35.356 110.964 35.556C110.732 35.748 110.472 35.892 110.184 35.988C109.896 36.076 109.612 36.12 109.332 36.12C108.98 36.12 108.652 36.06 108.348 35.94C108.044 35.82 107.8 35.64 107.616 35.4C107.44 35.152 107.352 34.848 107.352 34.488C107.352 34.04 107.5 33.672 107.796 33.384C108.1 33.088 108.52 32.888 109.056 32.784L111.432 32.316V33.108L109.5 33.504C109.108 33.584 108.816 33.696 108.624 33.84C108.432 33.984 108.336 34.184 108.336 34.44C108.336 34.688 108.432 34.892 108.624 35.052C108.824 35.204 109.104 35.28 109.464 35.28C109.696 35.28 109.916 35.252 110.124 35.196C110.34 35.132 110.532 35.04 110.7 34.92C110.868 34.792 111 34.636 111.096 34.452C111.192 34.26 111.24 34.036 111.24 33.78V32.124ZM117.336 29.88C117.752 29.88 118.116 29.944 118.428 30.072C118.748 30.2 119.024 30.384 119.256 30.624C119.488 30.864 119.676 31.148 119.82 31.476L118.908 31.908C118.78 31.524 118.584 31.232 118.32 31.032C118.064 30.824 117.728 30.72 117.312 30.72C116.912 30.72 116.568 30.812 116.28 30.996C115.992 31.172 115.772 31.432 115.62 31.776C115.468 32.112 115.392 32.52 115.392 33C115.392 33.472 115.468 33.88 115.62 34.224C115.772 34.568 115.992 34.832 116.28 35.016C116.568 35.192 116.912 35.28 117.312 35.28C117.624 35.28 117.892 35.232 118.116 35.136C118.348 35.04 118.536 34.9 118.68 34.716C118.832 34.532 118.936 34.308 118.992 34.044L119.88 34.356C119.744 34.724 119.556 35.04 119.316 35.304C119.084 35.568 118.8 35.772 118.464 35.916C118.136 36.052 117.76 36.12 117.336 36.12C116.776 36.12 116.276 35.996 115.836 35.748C115.396 35.5 115.052 35.144 114.804 34.68C114.556 34.208 114.432 33.648 114.432 33C114.432 32.352 114.556 31.796 114.804 31.332C115.052 30.86 115.396 30.5 115.836 30.252C116.276 30.004 116.776 29.88 117.336 29.88ZM123.303 28.296V34.344C123.303 34.64 123.387 34.86 123.555 35.004C123.723 35.148 123.939 35.22 124.203 35.22C124.435 35.22 124.635 35.18 124.803 35.1C124.971 35.02 125.123 34.912 125.259 34.776L125.595 35.58C125.411 35.748 125.191 35.88 124.935 35.976C124.687 36.072 124.399 36.12 124.071 36.12C123.767 36.12 123.483 36.068 123.219 35.964C122.955 35.852 122.743 35.68 122.583 35.448C122.431 35.208 122.351 34.896 122.343 34.512V28.56L123.303 28.296ZM125.487 30V30.828H121.143V30H125.487ZM129.395 36.12C128.811 36.12 128.271 35.996 127.775 35.748C127.287 35.5 126.911 35.148 126.647 34.692L127.463 34.104C127.639 34.472 127.895 34.76 128.231 34.968C128.575 35.176 128.987 35.28 129.467 35.28C129.891 35.28 130.223 35.2 130.463 35.04C130.703 34.872 130.823 34.656 130.823 34.392C130.823 34.224 130.767 34.072 130.655 33.936C130.551 33.792 130.347 33.688 130.043 33.624L128.603 33.324C128.019 33.204 127.599 33.004 127.343 32.724C127.095 32.444 126.971 32.096 126.971 31.68C126.971 31.352 127.063 31.052 127.247 30.78C127.439 30.508 127.707 30.292 128.051 30.132C128.403 29.964 128.815 29.88 129.287 29.88C129.879 29.88 130.379 29.996 130.787 30.228C131.195 30.46 131.499 30.788 131.699 31.212L130.895 31.74C130.759 31.388 130.539 31.132 130.235 30.972C129.931 30.804 129.615 30.72 129.287 30.72C128.999 30.72 128.751 30.76 128.543 30.84C128.343 30.92 128.187 31.032 128.075 31.176C127.971 31.312 127.919 31.468 127.919 31.644C127.919 31.82 127.979 31.984 128.099 32.136C128.219 32.28 128.443 32.384 128.771 32.448L130.271 32.76C130.831 32.872 131.223 33.056 131.447 33.312C131.671 33.568 131.783 33.88 131.783 34.248C131.783 34.624 131.683 34.956 131.483 35.244C131.283 35.524 131.003 35.74 130.643 35.892C130.283 36.044 129.867 36.12 129.395 36.12ZM139.433 28.08V36H138.473V28.08H139.433Z" fill="#707070"/>
<path d="M89.212 54.354C89.0347 54.998 88.75 55.53 88.358 55.95C87.966 56.3607 87.4993 56.664 86.958 56.86C86.4167 57.0467 85.8193 57.14 85.166 57.14C84.2327 57.14 83.4253 56.9533 82.744 56.58C82.0627 56.1973 81.54 55.6513 81.176 54.942C80.812 54.2327 80.63 53.3787 80.63 52.38C80.63 51.3813 80.812 50.5273 81.176 49.818C81.54 49.1087 82.0627 48.5673 82.744 48.194C83.4253 47.8113 84.228 47.62 85.152 47.62C85.796 47.62 86.3887 47.7133 86.93 47.9C87.4713 48.0773 87.9287 48.3527 88.302 48.726C88.6753 49.0993 88.9413 49.58 89.1 50.168L86.986 51.022C86.8553 50.4433 86.6407 50.0467 86.342 49.832C86.0527 49.6173 85.684 49.51 85.236 49.51C84.7973 49.51 84.4147 49.6173 84.088 49.832C83.7707 50.0467 83.5233 50.3687 83.346 50.798C83.178 51.218 83.094 51.7453 83.094 52.38C83.094 53.0053 83.1733 53.5327 83.332 53.962C83.4907 54.3913 83.7287 54.7133 84.046 54.928C84.3727 55.1427 84.774 55.25 85.25 55.25C85.698 55.25 86.076 55.1287 86.384 54.886C86.7013 54.634 86.916 54.2513 87.028 53.738L89.212 54.354ZM93.7153 49.86C94.4526 49.86 95.0966 50.0047 95.6473 50.294C96.2073 50.574 96.6413 50.9893 96.9493 51.54C97.2666 52.0813 97.4253 52.7347 97.4253 53.5C97.4253 54.2653 97.2666 54.9233 96.9493 55.474C96.6413 56.0153 96.2073 56.4307 95.6473 56.72C95.0966 57 94.4526 57.14 93.7153 57.14C92.9966 57.14 92.3573 57 91.7973 56.72C91.2373 56.4307 90.7986 56.0153 90.4813 55.474C90.1733 54.9233 90.0193 54.2653 90.0193 53.5C90.0193 52.7347 90.1733 52.0813 90.4813 51.54C90.7986 50.9893 91.2373 50.574 91.7973 50.294C92.3573 50.0047 92.9966 49.86 93.7153 49.86ZM93.7153 51.554C93.4446 51.554 93.2113 51.6193 93.0153 51.75C92.8193 51.8807 92.67 52.0907 92.5673 52.38C92.4646 52.6693 92.4133 53.0427 92.4133 53.5C92.4133 53.9573 92.4646 54.3307 92.5673 54.62C92.67 54.9 92.8193 55.11 93.0153 55.25C93.2113 55.3807 93.4446 55.446 93.7153 55.446C93.9953 55.446 94.2333 55.3807 94.4293 55.25C94.6253 55.11 94.7746 54.9 94.8773 54.62C94.98 54.3307 95.0313 53.9573 95.0313 53.5C95.0313 53.0427 94.98 52.6693 94.8773 52.38C94.7746 52.0907 94.6253 51.8807 94.4293 51.75C94.2333 51.6193 93.9953 51.554 93.7153 51.554ZM98.7642 57V50H100.892L101.018 52.408L100.752 52.142C100.845 51.638 101.009 51.218 101.242 50.882C101.485 50.546 101.783 50.294 102.138 50.126C102.502 49.9487 102.908 49.86 103.356 49.86C103.841 49.86 104.261 49.9533 104.616 50.14C104.98 50.3267 105.265 50.602 105.47 50.966C105.675 51.33 105.778 51.7873 105.778 52.338V57H103.398V52.968C103.398 52.4827 103.305 52.1467 103.118 51.96C102.931 51.7733 102.693 51.68 102.404 51.68C102.18 51.68 101.97 51.736 101.774 51.848C101.578 51.9507 101.424 52.1187 101.312 52.352C101.2 52.5853 101.144 52.898 101.144 53.29V57H98.7642ZM110.386 57.14C109.686 57.14 109.032 57.028 108.426 56.804C107.828 56.5707 107.334 56.2393 106.942 55.81L108.062 54.494C108.295 54.7927 108.603 55.0447 108.986 55.25C109.378 55.446 109.812 55.544 110.288 55.544C110.577 55.544 110.815 55.502 111.002 55.418C111.188 55.334 111.282 55.2033 111.282 55.026C111.282 54.8953 111.235 54.7927 111.142 54.718C111.048 54.634 110.862 54.564 110.582 54.508L109.602 54.312C108.724 54.1347 108.099 53.8733 107.726 53.528C107.362 53.1733 107.18 52.7113 107.18 52.142C107.18 51.7593 107.296 51.3953 107.53 51.05C107.763 50.6953 108.122 50.4107 108.608 50.196C109.093 49.972 109.714 49.86 110.47 49.86C111.179 49.86 111.804 49.9627 112.346 50.168C112.887 50.3733 113.316 50.672 113.634 51.064L112.5 52.352C112.276 52.072 111.986 51.8527 111.632 51.694C111.277 51.5353 110.922 51.456 110.568 51.456C110.344 51.456 110.152 51.4793 109.994 51.526C109.844 51.5633 109.732 51.6193 109.658 51.694C109.583 51.7687 109.546 51.862 109.546 51.974C109.546 52.0953 109.602 52.2027 109.714 52.296C109.835 52.38 110.054 52.4547 110.372 52.52L111.646 52.772C112.364 52.9027 112.882 53.1407 113.2 53.486C113.517 53.8313 113.676 54.2467 113.676 54.732C113.676 55.1893 113.554 55.6 113.312 55.964C113.069 56.328 112.705 56.6173 112.22 56.832C111.734 57.0373 111.123 57.14 110.386 57.14ZM117.277 57.14C116.801 57.14 116.381 57.0607 116.017 56.902C115.662 56.734 115.382 56.468 115.177 56.104C114.971 55.74 114.869 55.264 114.869 54.676V50H117.249V54.116C117.249 54.564 117.337 54.8767 117.515 55.054C117.692 55.2313 117.944 55.32 118.271 55.32C118.439 55.32 118.597 55.292 118.747 55.236C118.896 55.1707 119.027 55.0773 119.139 54.956C119.251 54.8253 119.335 54.662 119.391 54.466C119.456 54.2607 119.489 54.0227 119.489 53.752V50H121.869V57H119.741L119.671 55.684C119.447 56.1787 119.134 56.5473 118.733 56.79C118.331 57.0233 117.846 57.14 117.277 57.14ZM125.931 47.032V54.62C125.931 54.928 125.982 55.1473 126.085 55.278C126.187 55.4087 126.36 55.474 126.603 55.474C126.743 55.474 126.859 55.4647 126.953 55.446C127.046 55.4273 127.158 55.3993 127.289 55.362L127.135 56.79C126.967 56.8927 126.747 56.9767 126.477 57.042C126.206 57.1073 125.94 57.14 125.679 57.14C124.932 57.14 124.391 56.9673 124.055 56.622C123.719 56.2767 123.551 55.712 123.551 54.928V47.032H125.931ZM130.852 47.774V54.508C130.852 54.844 130.932 55.0867 131.09 55.236C131.258 55.376 131.487 55.446 131.776 55.446C132 55.446 132.192 55.4227 132.35 55.376C132.518 55.32 132.668 55.2407 132.798 55.138L133.05 56.608C132.817 56.776 132.523 56.9067 132.168 57C131.814 57.0933 131.45 57.14 131.076 57.14C130.544 57.14 130.082 57.0653 129.69 56.916C129.308 56.7667 129.009 56.5287 128.794 56.202C128.589 55.8753 128.482 55.4413 128.472 54.9V48.432L130.852 47.774ZM132.938 50V51.694H127.268V50H132.938ZM140.86 47.774V54.508C140.86 54.844 140.939 55.0867 141.098 55.236C141.266 55.376 141.495 55.446 141.784 55.446C142.008 55.446 142.199 55.4227 142.358 55.376C142.526 55.32 142.675 55.2407 142.806 55.138L143.058 56.608C142.825 56.776 142.531 56.9067 142.176 57C141.821 57.0933 141.457 57.14 141.084 57.14C140.552 57.14 140.09 57.0653 139.698 56.916C139.315 56.7667 139.017 56.5287 138.802 56.202C138.597 55.8753 138.489 55.4413 138.48 54.9V48.432L140.86 47.774ZM142.946 50V51.694H137.276V50H142.946ZM144.209 57V47.032H146.589V51.274C146.795 50.8073 147.089 50.4573 147.471 50.224C147.854 49.9813 148.297 49.86 148.801 49.86C149.287 49.86 149.707 49.9533 150.061 50.14C150.425 50.3267 150.71 50.602 150.915 50.966C151.121 51.33 151.223 51.7873 151.223 52.338V57H148.843V52.996C148.843 52.492 148.75 52.1467 148.563 51.96C148.386 51.764 148.148 51.666 147.849 51.666C147.625 51.666 147.415 51.722 147.219 51.834C147.023 51.946 146.869 52.1233 146.757 52.366C146.645 52.6087 146.589 52.926 146.589 53.318V57H144.209ZM156.307 57.14C155.532 57.14 154.86 56.9953 154.291 56.706C153.731 56.4167 153.297 56.0013 152.989 55.46C152.681 54.9187 152.527 54.2653 152.527 53.5C152.527 52.7347 152.681 52.0813 152.989 51.54C153.297 50.9987 153.726 50.5833 154.277 50.294C154.837 50.0047 155.476 49.86 156.195 49.86C156.932 49.86 157.558 50.0047 158.071 50.294C158.594 50.574 158.99 50.966 159.261 51.47C159.532 51.9647 159.667 52.534 159.667 53.178C159.667 53.346 159.662 53.514 159.653 53.682C159.644 53.85 159.63 53.99 159.611 54.102H154.067V52.828H158.561L157.427 53.262C157.427 52.702 157.324 52.2727 157.119 51.974C156.923 51.6753 156.615 51.526 156.195 51.526C155.896 51.526 155.64 51.596 155.425 51.736C155.22 51.876 155.061 52.0953 154.949 52.394C154.846 52.6927 154.795 53.0753 154.795 53.542C154.795 53.9993 154.856 54.3727 154.977 54.662C155.098 54.942 155.271 55.1473 155.495 55.278C155.719 55.3993 155.99 55.46 156.307 55.46C156.662 55.46 156.942 55.39 157.147 55.25C157.362 55.11 157.52 54.914 157.623 54.662L159.527 55.292C159.396 55.6933 159.168 56.034 158.841 56.314C158.524 56.5847 158.141 56.79 157.693 56.93C157.254 57.07 156.792 57.14 156.307 57.14ZM169.582 47.76C170.684 47.76 171.538 48.0213 172.144 48.544C172.76 49.0573 173.068 49.7433 173.068 50.602C173.068 51.5447 172.765 52.2633 172.158 52.758C171.552 53.2527 170.698 53.5 169.596 53.5L169.372 53.626H167.538V57H165.172V47.76H169.582ZM169.246 51.918C169.713 51.918 170.063 51.8247 170.296 51.638C170.53 51.4513 170.646 51.1527 170.646 50.742C170.646 50.3407 170.53 50.0467 170.296 49.86C170.063 49.6733 169.713 49.58 169.246 49.58H167.538V51.918H169.246ZM170.66 52.422L173.614 57H170.954L168.588 52.954L170.66 52.422ZM177.977 57.14C177.202 57.14 176.53 56.9953 175.961 56.706C175.401 56.4167 174.967 56.0013 174.659 55.46C174.351 54.9187 174.197 54.2653 174.197 53.5C174.197 52.7347 174.351 52.0813 174.659 51.54C174.967 50.9987 175.396 50.5833 175.947 50.294C176.507 50.0047 177.146 49.86 177.865 49.86C178.602 49.86 179.228 50.0047 179.741 50.294C180.264 50.574 180.66 50.966 180.931 51.47C181.202 51.9647 181.337 52.534 181.337 53.178C181.337 53.346 181.332 53.514 181.323 53.682C181.314 53.85 181.3 53.99 181.281 54.102H175.737V52.828H180.231L179.097 53.262C179.097 52.702 178.994 52.2727 178.789 51.974C178.593 51.6753 178.285 51.526 177.865 51.526C177.566 51.526 177.31 51.596 177.095 51.736C176.89 51.876 176.731 52.0953 176.619 52.394C176.516 52.6927 176.465 53.0753 176.465 53.542C176.465 53.9993 176.526 54.3727 176.647 54.662C176.768 54.942 176.941 55.1473 177.165 55.278C177.389 55.3993 177.66 55.46 177.977 55.46C178.332 55.46 178.612 55.39 178.817 55.25C179.032 55.11 179.19 54.914 179.293 54.662L181.197 55.292C181.066 55.6933 180.838 56.034 180.511 56.314C180.194 56.5847 179.811 56.79 179.363 56.93C178.924 57.07 178.462 57.14 177.977 57.14ZM185.608 57.14C184.908 57.14 184.255 57.028 183.648 56.804C183.051 56.5707 182.556 56.2393 182.164 55.81L183.284 54.494C183.518 54.7927 183.826 55.0447 184.208 55.25C184.6 55.446 185.034 55.544 185.51 55.544C185.8 55.544 186.038 55.502 186.224 55.418C186.411 55.334 186.504 55.2033 186.504 55.026C186.504 54.8953 186.458 54.7927 186.364 54.718C186.271 54.634 186.084 54.564 185.804 54.508L184.824 54.312C183.947 54.1347 183.322 53.8733 182.948 53.528C182.584 53.1733 182.402 52.7113 182.402 52.142C182.402 51.7593 182.519 51.3953 182.752 51.05C182.986 50.6953 183.345 50.4107 183.83 50.196C184.316 49.972 184.936 49.86 185.692 49.86C186.402 49.86 187.027 49.9627 187.568 50.168C188.11 50.3733 188.539 50.672 188.856 51.064L187.722 52.352C187.498 52.072 187.209 51.8527 186.854 51.694C186.5 51.5353 186.145 51.456 185.79 51.456C185.566 51.456 185.375 51.4793 185.216 51.526C185.067 51.5633 184.955 51.6193 184.88 51.694C184.806 51.7687 184.768 51.862 184.768 51.974C184.768 52.0953 184.824 52.2027 184.936 52.296C185.058 52.38 185.277 52.4547 185.594 52.52L186.868 52.772C187.587 52.9027 188.105 53.1407 188.422 53.486C188.74 53.8313 188.898 54.2467 188.898 54.732C188.898 55.1893 188.777 55.6 188.534 55.964C188.292 56.328 187.928 56.6173 187.442 56.832C186.957 57.0373 186.346 57.14 185.608 57.14ZM193.508 57.14C192.734 57.14 192.062 56.9953 191.492 56.706C190.932 56.4167 190.498 56.0013 190.19 55.46C189.882 54.9187 189.728 54.2653 189.728 53.5C189.728 52.7347 189.882 52.0813 190.19 51.54C190.498 50.9987 190.928 50.5833 191.478 50.294C192.038 50.0047 192.678 49.86 193.396 49.86C194.134 49.86 194.759 50.0047 195.272 50.294C195.795 50.574 196.192 50.966 196.462 51.47C196.733 51.9647 196.868 52.534 196.868 53.178C196.868 53.346 196.864 53.514 196.854 53.682C196.845 53.85 196.831 53.99 196.812 54.102H191.268V52.828H195.762L194.628 53.262C194.628 52.702 194.526 52.2727 194.32 51.974C194.124 51.6753 193.816 51.526 193.396 51.526C193.098 51.526 192.841 51.596 192.626 51.736C192.421 51.876 192.262 52.0953 192.15 52.394C192.048 52.6927 191.996 53.0753 191.996 53.542C191.996 53.9993 192.057 54.3727 192.178 54.662C192.3 54.942 192.472 55.1473 192.696 55.278C192.92 55.3993 193.191 55.46 193.508 55.46C193.863 55.46 194.143 55.39 194.348 55.25C194.563 55.11 194.722 54.914 194.824 54.662L196.728 55.292C196.598 55.6933 196.369 56.034 196.042 56.314C195.725 56.5847 195.342 56.79 194.894 56.93C194.456 57.07 193.994 57.14 193.508 57.14ZM202.106 52.562C202.106 52.2353 202.012 51.9787 201.826 51.792C201.648 51.596 201.406 51.498 201.098 51.498C200.79 51.498 200.524 51.5773 200.3 51.736C200.085 51.8853 199.936 52.156 199.852 52.548L197.836 52.072C197.966 51.4 198.312 50.8633 198.872 50.462C199.432 50.0607 200.22 49.86 201.238 49.86C201.919 49.86 202.498 49.9627 202.974 50.168C203.459 50.364 203.828 50.6627 204.08 51.064C204.341 51.456 204.472 51.9413 204.472 52.52V55.082C204.472 55.446 204.635 55.628 204.962 55.628C205.13 55.628 205.265 55.6093 205.368 55.572L205.228 56.93C204.948 57.0607 204.607 57.126 204.206 57.126C203.842 57.126 203.52 57.07 203.24 56.958C202.96 56.8367 202.74 56.6593 202.582 56.426C202.423 56.1833 202.344 55.88 202.344 55.516V55.432L202.61 55.334C202.61 55.7353 202.488 56.0713 202.246 56.342C202.012 56.6127 201.704 56.8133 201.322 56.944C200.948 57.0747 200.556 57.14 200.146 57.14C199.67 57.14 199.254 57.0653 198.9 56.916C198.545 56.7667 198.27 56.552 198.074 56.272C197.887 55.9827 197.794 55.628 197.794 55.208C197.794 54.704 197.943 54.2887 198.242 53.962C198.55 53.626 199.03 53.3927 199.684 53.262L202.33 52.716L202.316 53.976L200.972 54.256C200.692 54.312 200.482 54.396 200.342 54.508C200.211 54.6107 200.146 54.7693 200.146 54.984C200.146 55.1893 200.22 55.3433 200.37 55.446C200.519 55.5487 200.696 55.6 200.902 55.6C201.06 55.6 201.21 55.5767 201.35 55.53C201.499 55.4833 201.63 55.4133 201.742 55.32C201.854 55.2173 201.942 55.0913 202.008 54.942C202.073 54.7927 202.106 54.6153 202.106 54.41V52.562ZM206.307 57V50H208.407L208.505 51.512C208.682 50.9893 208.944 50.5833 209.289 50.294C209.644 50.0047 210.092 49.86 210.633 49.86C210.81 49.86 210.96 49.874 211.081 49.902C211.212 49.93 211.314 49.9673 211.389 50.014L211.151 51.974C211.058 51.9367 210.936 51.9087 210.787 51.89C210.647 51.862 210.474 51.848 210.269 51.848C209.989 51.848 209.728 51.9087 209.485 52.03C209.242 52.1513 209.046 52.3333 208.897 52.576C208.757 52.8093 208.687 53.108 208.687 53.472V57H206.307ZM215.559 49.86C216.268 49.86 216.856 49.9627 217.323 50.168C217.799 50.364 218.167 50.63 218.429 50.966C218.699 51.2927 218.867 51.6473 218.933 52.03L216.735 52.758C216.669 52.3567 216.548 52.058 216.371 51.862C216.203 51.6567 215.955 51.554 215.629 51.554C215.33 51.554 215.078 51.624 214.873 51.764C214.677 51.8947 214.527 52.1093 214.425 52.408C214.322 52.6973 214.271 53.0707 214.271 53.528C214.271 53.9853 214.327 54.3587 214.439 54.648C214.551 54.928 214.709 55.1333 214.915 55.264C215.12 55.3853 215.363 55.446 215.643 55.446C215.876 55.446 216.067 55.404 216.217 55.32C216.375 55.2267 216.506 55.096 216.609 54.928C216.711 54.76 216.777 54.5547 216.805 54.312L218.947 54.998C218.881 55.4087 218.704 55.7773 218.415 56.104C218.135 56.4213 217.761 56.6733 217.295 56.86C216.828 57.0467 216.282 57.14 215.657 57.14C214.891 57.14 214.224 57 213.655 56.72C213.085 56.4307 212.647 56.0153 212.339 55.474C212.031 54.9233 211.877 54.2653 211.877 53.5C211.877 52.7347 212.031 52.0813 212.339 51.54C212.647 50.9893 213.076 50.574 213.627 50.294C214.187 50.0047 214.831 49.86 215.559 49.86ZM220.184 57V47.032H222.564V51.274C222.769 50.8073 223.063 50.4573 223.446 50.224C223.829 49.9813 224.272 49.86 224.776 49.86C225.261 49.86 225.681 49.9533 226.036 50.14C226.4 50.3267 226.685 50.602 226.89 50.966C227.095 51.33 227.198 51.7873 227.198 52.338V57H224.818V52.996C224.818 52.492 224.725 52.1467 224.538 51.96C224.361 51.764 224.123 51.666 223.824 51.666C223.6 51.666 223.39 51.722 223.194 51.834C222.998 51.946 222.844 52.1233 222.732 52.366C222.62 52.6087 222.564 52.926 222.564 53.318V57H220.184Z" fill="#454545"/>
</svg>
