<svg width="237" height="80" viewBox="0 0 237 80" fill="none" xmlns="http://www.w3.org/2000/svg">
<mask id="path-1-inside-1_10_12940" fill="white">
<path d="M0 0H237V80H0V0Z"/>
</mask>
<path d="M0 0H237V80H0V0Z" fill="white"/>
<path d="M0 12H237V-12H0V12Z" fill="#009FDA" mask="url(#path-1-inside-1_10_12940)"/>
<circle cx="39" cy="44" r="8" fill="#BDBDBD"/>
<path d="M72 53C72 53.55 72.45 54 73 54H77C77.55 54 78 53.55 78 53V52H72V53ZM75 34C71.14 34 68 37.14 68 41C68 43.38 69.19 45.47 71 46.74V49C71 49.55 71.45 50 72 50H78C78.55 50 79 49.55 79 49V46.74C80.81 45.47 82 43.38 82 41C82 37.14 78.86 34 75 34ZM77.85 45.1L77 45.7V48H73V45.7L72.15 45.1C70.8 44.16 70 42.63 70 41C70 38.24 72.24 36 75 36C77.76 36 80 38.24 80 41C80 42.63 79.2 44.16 77.85 45.1Z" fill="#454545"/>
<path d="M97.256 35.1H101.792V36H96.296V28.08H97.256V35.1ZM107.112 32.124C107.112 31.676 106.992 31.332 106.752 31.092C106.512 30.844 106.172 30.72 105.732 30.72C105.316 30.72 104.964 30.812 104.676 30.996C104.388 31.172 104.176 31.46 104.04 31.86L103.26 31.38C103.42 30.932 103.716 30.572 104.148 30.3C104.58 30.02 105.116 29.88 105.756 29.88C106.188 29.88 106.58 29.956 106.932 30.108C107.284 30.252 107.56 30.476 107.76 30.78C107.968 31.076 108.072 31.46 108.072 31.932V34.836C108.072 35.124 108.224 35.268 108.528 35.268C108.68 35.268 108.828 35.248 108.972 35.208L108.924 35.964C108.764 36.044 108.556 36.084 108.3 36.084C108.068 36.084 107.86 36.04 107.676 35.952C107.492 35.864 107.348 35.732 107.244 35.556C107.14 35.372 107.088 35.144 107.088 34.872V34.752L107.328 34.788C107.232 35.1 107.068 35.356 106.836 35.556C106.604 35.748 106.344 35.892 106.056 35.988C105.768 36.076 105.484 36.12 105.204 36.12C104.852 36.12 104.524 36.06 104.22 35.94C103.916 35.82 103.672 35.64 103.488 35.4C103.312 35.152 103.224 34.848 103.224 34.488C103.224 34.04 103.372 33.672 103.668 33.384C103.972 33.088 104.392 32.888 104.928 32.784L107.304 32.316V33.108L105.372 33.504C104.98 33.584 104.688 33.696 104.496 33.84C104.304 33.984 104.208 34.184 104.208 34.44C104.208 34.688 104.304 34.892 104.496 35.052C104.696 35.204 104.976 35.28 105.336 35.28C105.568 35.28 105.788 35.252 105.996 35.196C106.212 35.132 106.404 35.04 106.572 34.92C106.74 34.792 106.872 34.636 106.968 34.452C107.064 34.26 107.112 34.036 107.112 33.78V32.124ZM112.885 36.12C112.301 36.12 111.761 35.996 111.265 35.748C110.777 35.5 110.401 35.148 110.137 34.692L110.953 34.104C111.129 34.472 111.385 34.76 111.721 34.968C112.065 35.176 112.477 35.28 112.957 35.28C113.381 35.28 113.713 35.2 113.953 35.04C114.193 34.872 114.313 34.656 114.313 34.392C114.313 34.224 114.257 34.072 114.145 33.936C114.041 33.792 113.837 33.688 113.533 33.624L112.093 33.324C111.509 33.204 111.089 33.004 110.833 32.724C110.585 32.444 110.461 32.096 110.461 31.68C110.461 31.352 110.553 31.052 110.737 30.78C110.929 30.508 111.197 30.292 111.541 30.132C111.893 29.964 112.305 29.88 112.777 29.88C113.369 29.88 113.869 29.996 114.277 30.228C114.685 30.46 114.989 30.788 115.189 31.212L114.385 31.74C114.249 31.388 114.029 31.132 113.725 30.972C113.421 30.804 113.105 30.72 112.777 30.72C112.489 30.72 112.241 30.76 112.033 30.84C111.833 30.92 111.677 31.032 111.565 31.176C111.461 31.312 111.409 31.468 111.409 31.644C111.409 31.82 111.469 31.984 111.589 32.136C111.709 32.28 111.933 32.384 112.261 32.448L113.761 32.76C114.321 32.872 114.713 33.056 114.937 33.312C115.161 33.568 115.273 33.88 115.273 34.248C115.273 34.624 115.173 34.956 114.973 35.244C114.773 35.524 114.493 35.74 114.133 35.892C113.773 36.044 113.357 36.12 112.885 36.12ZM118.789 28.296V34.344C118.789 34.64 118.873 34.86 119.041 35.004C119.209 35.148 119.425 35.22 119.689 35.22C119.921 35.22 120.121 35.18 120.289 35.1C120.457 35.02 120.609 34.912 120.745 34.776L121.081 35.58C120.897 35.748 120.677 35.88 120.421 35.976C120.173 36.072 119.885 36.12 119.557 36.12C119.253 36.12 118.969 36.068 118.705 35.964C118.441 35.852 118.229 35.68 118.069 35.448C117.917 35.208 117.837 34.896 117.829 34.512V28.56L118.789 28.296ZM120.973 30V30.828H116.629V30H120.973Z" fill="#707070"/>
<path d="M105.444 47.76V57H104.38V51.19L104.506 48.754H104.492L101.454 57H100.502L97.464 48.754H97.45L97.576 51.19V57H96.512V47.76H98.234L100.264 53.374L100.964 55.684H100.992L101.706 53.388L103.722 47.76H105.444ZM112.257 52.478C112.257 51.9553 112.117 51.554 111.837 51.274C111.557 50.9847 111.161 50.84 110.647 50.84C110.162 50.84 109.751 50.9473 109.415 51.162C109.079 51.3673 108.832 51.7033 108.673 52.17L107.763 51.61C107.95 51.0873 108.295 50.6673 108.799 50.35C109.303 50.0233 109.929 49.86 110.675 49.86C111.179 49.86 111.637 49.9487 112.047 50.126C112.458 50.294 112.78 50.5553 113.013 50.91C113.256 51.2553 113.377 51.7033 113.377 52.254V55.642C113.377 55.978 113.555 56.146 113.909 56.146C114.087 56.146 114.259 56.1227 114.427 56.076L114.371 56.958C114.185 57.0513 113.942 57.098 113.643 57.098C113.373 57.098 113.13 57.0467 112.915 56.944C112.701 56.8413 112.533 56.6873 112.411 56.482C112.29 56.2673 112.229 56.0013 112.229 55.684V55.544L112.509 55.586C112.397 55.95 112.206 56.2487 111.935 56.482C111.665 56.706 111.361 56.874 111.025 56.986C110.689 57.0887 110.358 57.14 110.031 57.14C109.621 57.14 109.238 57.07 108.883 56.93C108.529 56.79 108.244 56.58 108.029 56.3C107.824 56.0107 107.721 55.656 107.721 55.236C107.721 54.7133 107.894 54.284 108.239 53.948C108.594 53.6027 109.084 53.3693 109.709 53.248L112.481 52.702V53.626L110.227 54.088C109.77 54.1813 109.429 54.312 109.205 54.48C108.981 54.648 108.869 54.8813 108.869 55.18C108.869 55.4693 108.981 55.7073 109.205 55.894C109.439 56.0713 109.765 56.16 110.185 56.16C110.456 56.16 110.713 56.1273 110.955 56.062C111.207 55.9873 111.431 55.88 111.627 55.74C111.823 55.5907 111.977 55.4087 112.089 55.194C112.201 54.97 112.257 54.7087 112.257 54.41V52.478ZM122.245 50L119.221 53.024L118.955 53.29L116.659 55.586V54.186L120.831 50H122.245ZM117.219 46.78V57H116.099V46.78H117.219ZM119.319 52.45L122.413 57H121.055L118.381 53.08L119.319 52.45ZM126.722 57.14C126.059 57.14 125.467 56.9953 124.944 56.706C124.431 56.4167 124.029 56.0013 123.74 55.46C123.451 54.9093 123.306 54.256 123.306 53.5C123.306 52.744 123.451 52.0953 123.74 51.554C124.029 51.0033 124.426 50.5833 124.93 50.294C125.434 50.0047 126.008 49.86 126.652 49.86C127.305 49.86 127.861 50 128.318 50.28C128.785 50.56 129.139 50.9427 129.382 51.428C129.625 51.904 129.746 52.4407 129.746 53.038C129.746 53.1967 129.741 53.3413 129.732 53.472C129.723 53.6027 129.709 53.7193 129.69 53.822H124.034V52.828H129.2L128.626 52.94C128.626 52.268 128.439 51.75 128.066 51.386C127.702 51.022 127.221 50.84 126.624 50.84C126.167 50.84 125.77 50.9473 125.434 51.162C125.107 51.3673 124.851 51.6707 124.664 52.072C124.487 52.464 124.398 52.94 124.398 53.5C124.398 54.0507 124.491 54.5267 124.678 54.928C124.865 55.3293 125.126 55.6373 125.462 55.852C125.807 56.0573 126.218 56.16 126.694 56.16C127.207 56.16 127.623 56.062 127.94 55.866C128.267 55.67 128.528 55.404 128.724 55.068L129.606 55.586C129.429 55.9033 129.2 56.1787 128.92 56.412C128.649 56.6453 128.327 56.8273 127.954 56.958C127.59 57.0793 127.179 57.14 126.722 57.14ZM140.736 52.478C140.736 51.9553 140.596 51.554 140.316 51.274C140.036 50.9847 139.639 50.84 139.126 50.84C138.64 50.84 138.23 50.9473 137.894 51.162C137.558 51.3673 137.31 51.7033 137.152 52.17L136.242 51.61C136.428 51.0873 136.774 50.6673 137.278 50.35C137.782 50.0233 138.407 49.86 139.154 49.86C139.658 49.86 140.115 49.9487 140.526 50.126C140.936 50.294 141.258 50.5553 141.492 50.91C141.734 51.2553 141.856 51.7033 141.856 52.254V55.642C141.856 55.978 142.033 56.146 142.388 56.146C142.565 56.146 142.738 56.1227 142.906 56.076L142.85 56.958C142.663 57.0513 142.42 57.098 142.122 57.098C141.851 57.098 141.608 57.0467 141.394 56.944C141.179 56.8413 141.011 56.6873 140.89 56.482C140.768 56.2673 140.708 56.0013 140.708 55.684V55.544L140.988 55.586C140.876 55.95 140.684 56.2487 140.414 56.482C140.143 56.706 139.84 56.874 139.504 56.986C139.168 57.0887 138.836 57.14 138.51 57.14C138.099 57.14 137.716 57.07 137.362 56.93C137.007 56.79 136.722 56.58 136.508 56.3C136.302 56.0107 136.2 55.656 136.2 55.236C136.2 54.7133 136.372 54.284 136.718 53.948C137.072 53.6027 137.562 53.3693 138.188 53.248L140.96 52.702V53.626L138.706 54.088C138.248 54.1813 137.908 54.312 137.684 54.48C137.46 54.648 137.348 54.8813 137.348 55.18C137.348 55.4693 137.46 55.7073 137.684 55.894C137.917 56.0713 138.244 56.16 138.664 56.16C138.934 56.16 139.191 56.1273 139.434 56.062C139.686 55.9873 139.91 55.88 140.106 55.74C140.302 55.5907 140.456 55.4087 140.568 55.194C140.68 54.97 140.736 54.7087 140.736 54.41V52.478ZM152.213 47.76C153.659 47.76 154.793 48.1613 155.615 48.964C156.445 49.7573 156.861 50.896 156.861 52.38C156.861 53.864 156.445 55.0073 155.615 55.81C154.793 56.6033 153.659 57 152.213 57H149.231V47.76H152.213ZM152.325 55.95C153.379 55.95 154.201 55.6373 154.789 55.012C155.386 54.3773 155.685 53.5 155.685 52.38C155.685 51.26 155.386 50.3873 154.789 49.762C154.201 49.1273 153.379 48.81 152.325 48.81H150.351V55.95H152.325ZM162.037 57.14C161.374 57.14 160.781 56.9953 160.259 56.706C159.745 56.4167 159.344 56.0013 159.055 55.46C158.765 54.9093 158.621 54.256 158.621 53.5C158.621 52.744 158.765 52.0953 159.055 51.554C159.344 51.0033 159.741 50.5833 160.245 50.294C160.749 50.0047 161.323 49.86 161.967 49.86C162.62 49.86 163.175 50 163.633 50.28C164.099 50.56 164.454 50.9427 164.697 51.428C164.939 51.904 165.061 52.4407 165.061 53.038C165.061 53.1967 165.056 53.3413 165.047 53.472C165.037 53.6027 165.023 53.7193 165.005 53.822H159.349V52.828H164.515L163.941 52.94C163.941 52.268 163.754 51.75 163.381 51.386C163.017 51.022 162.536 50.84 161.939 50.84C161.481 50.84 161.085 50.9473 160.749 51.162C160.422 51.3673 160.165 51.6707 159.979 52.072C159.801 52.464 159.713 52.94 159.713 53.5C159.713 54.0507 159.806 54.5267 159.993 54.928C160.179 55.3293 160.441 55.6373 160.777 55.852C161.122 56.0573 161.533 56.16 162.009 56.16C162.522 56.16 162.937 56.062 163.255 55.866C163.581 55.67 163.843 55.404 164.039 55.068L164.921 55.586C164.743 55.9033 164.515 56.1787 164.235 56.412C163.964 56.6453 163.642 56.8273 163.269 56.958C162.905 57.0793 162.494 57.14 162.037 57.14ZM170.089 49.86C170.574 49.86 170.999 49.9347 171.363 50.084C171.736 50.2333 172.058 50.448 172.329 50.728C172.599 51.008 172.819 51.3393 172.987 51.722L171.923 52.226C171.773 51.778 171.545 51.4373 171.237 51.204C170.938 50.9613 170.546 50.84 170.061 50.84C169.594 50.84 169.193 50.9473 168.857 51.162C168.521 51.3673 168.264 51.6707 168.087 52.072C167.909 52.464 167.821 52.94 167.821 53.5C167.821 54.0507 167.909 54.5267 168.087 54.928C168.264 55.3293 168.521 55.6373 168.857 55.852C169.193 56.0573 169.594 56.16 170.061 56.16C170.425 56.16 170.737 56.104 170.999 55.992C171.269 55.88 171.489 55.7167 171.657 55.502C171.834 55.2873 171.955 55.026 172.021 54.718L173.057 55.082C172.898 55.5113 172.679 55.88 172.399 56.188C172.128 56.496 171.797 56.734 171.405 56.902C171.022 57.0607 170.583 57.14 170.089 57.14C169.435 57.14 168.852 56.9953 168.339 56.706C167.825 56.4167 167.424 56.0013 167.135 55.46C166.845 54.9093 166.701 54.256 166.701 53.5C166.701 52.744 166.845 52.0953 167.135 51.554C167.424 51.0033 167.825 50.5833 168.339 50.294C168.852 50.0047 169.435 49.86 170.089 49.86ZM175.585 48.656C175.333 48.656 175.127 48.5813 174.969 48.432C174.819 48.2733 174.745 48.068 174.745 47.816C174.745 47.564 174.819 47.3633 174.969 47.214C175.127 47.0553 175.333 46.976 175.585 46.976C175.837 46.976 176.037 47.0553 176.187 47.214C176.345 47.3633 176.425 47.564 176.425 47.816C176.425 48.068 176.345 48.2733 176.187 48.432C176.037 48.5813 175.837 48.656 175.585 48.656ZM176.145 50V57H175.025V50H176.145ZM181.263 57.14C180.582 57.14 179.952 56.9953 179.373 56.706C178.804 56.4167 178.365 56.006 178.057 55.474L179.009 54.788C179.215 55.2173 179.513 55.5533 179.905 55.796C180.307 56.0387 180.787 56.16 181.347 56.16C181.842 56.16 182.229 56.0667 182.509 55.88C182.789 55.684 182.929 55.432 182.929 55.124C182.929 54.928 182.864 54.7507 182.733 54.592C182.612 54.424 182.374 54.3027 182.019 54.228L180.339 53.878C179.658 53.738 179.168 53.5047 178.869 53.178C178.58 52.8513 178.435 52.4453 178.435 51.96C178.435 51.5773 178.543 51.2273 178.757 50.91C178.981 50.5927 179.294 50.3407 179.695 50.154C180.106 49.958 180.587 49.86 181.137 49.86C181.828 49.86 182.411 49.9953 182.887 50.266C183.363 50.5367 183.718 50.9193 183.951 51.414L183.013 52.03C182.855 51.6193 182.598 51.3207 182.243 51.134C181.889 50.938 181.52 50.84 181.137 50.84C180.801 50.84 180.512 50.8867 180.269 50.98C180.036 51.0733 179.854 51.204 179.723 51.372C179.602 51.5307 179.541 51.7127 179.541 51.918C179.541 52.1233 179.611 52.3147 179.751 52.492C179.891 52.66 180.153 52.7813 180.535 52.856L182.285 53.22C182.939 53.3507 183.396 53.5653 183.657 53.864C183.919 54.1627 184.049 54.5267 184.049 54.956C184.049 55.3947 183.933 55.782 183.699 56.118C183.466 56.4447 183.139 56.6967 182.719 56.874C182.299 57.0513 181.814 57.14 181.263 57.14ZM186.686 48.656C186.434 48.656 186.229 48.5813 186.07 48.432C185.921 48.2733 185.846 48.068 185.846 47.816C185.846 47.564 185.921 47.3633 186.07 47.214C186.229 47.0553 186.434 46.976 186.686 46.976C186.938 46.976 187.139 47.0553 187.288 47.214C187.447 47.3633 187.526 47.564 187.526 47.816C187.526 48.068 187.447 48.2733 187.288 48.432C187.139 48.5813 186.938 48.656 186.686 48.656ZM187.246 50V57H186.126V50H187.246ZM192.743 49.86C193.406 49.86 193.989 50.0047 194.493 50.294C195.006 50.5833 195.408 51.0033 195.697 51.554C195.986 52.0953 196.131 52.744 196.131 53.5C196.131 54.256 195.986 54.9093 195.697 55.46C195.408 56.0013 195.006 56.4167 194.493 56.706C193.989 56.9953 193.406 57.14 192.743 57.14C192.09 57.14 191.506 56.9953 190.993 56.706C190.48 56.4167 190.078 56.0013 189.789 55.46C189.5 54.9093 189.355 54.256 189.355 53.5C189.355 52.744 189.5 52.0953 189.789 51.554C190.078 51.0033 190.48 50.5833 190.993 50.294C191.506 50.0047 192.09 49.86 192.743 49.86ZM192.743 50.826C192.267 50.826 191.861 50.9333 191.525 51.148C191.189 51.3627 190.928 51.6707 190.741 52.072C190.564 52.464 190.475 52.94 190.475 53.5C190.475 54.0507 190.564 54.5267 190.741 54.928C190.928 55.3293 191.189 55.6373 191.525 55.852C191.861 56.0667 192.267 56.174 192.743 56.174C193.219 56.174 193.625 56.0667 193.961 55.852C194.297 55.6373 194.554 55.3293 194.731 54.928C194.918 54.5267 195.011 54.0507 195.011 53.5C195.011 52.94 194.918 52.464 194.731 52.072C194.554 51.6707 194.297 51.3627 193.961 51.148C193.625 50.9333 193.219 50.826 192.743 50.826ZM198.24 57V50H199.22L199.318 51.568L199.136 51.414C199.285 51.0407 199.486 50.742 199.738 50.518C199.99 50.2847 200.279 50.1167 200.606 50.014C200.942 49.9113 201.287 49.86 201.642 49.86C202.146 49.86 202.603 49.958 203.014 50.154C203.424 50.3407 203.751 50.63 203.994 51.022C204.246 51.414 204.372 51.9133 204.372 52.52V57H203.252V52.912C203.252 52.1373 203.084 51.6007 202.748 51.302C202.421 50.994 202.015 50.84 201.53 50.84C201.194 50.84 200.858 50.9193 200.522 51.078C200.186 51.2367 199.906 51.4933 199.682 51.848C199.467 52.2027 199.36 52.6787 199.36 53.276V57H198.24Z" fill="#454545"/>
</svg>
