<svg width="267" height="80" viewBox="0 0 267 80" fill="none" xmlns="http://www.w3.org/2000/svg">
<mask id="path-1-inside-1_10_12939" fill="white">
<path d="M0 0H267V80H0V0Z"/>
</mask>
<path d="M0 0H267V80H0V0Z" fill="white"/>
<path d="M0 12H267V-12H0V12Z" fill="#F89B1B" mask="url(#path-1-inside-1_10_12939)"/>
<circle cx="26" cy="44" r="8" fill="#BDBDBD"/>
<path d="M57 40.5H52V38.5H57V40.5ZM57 43.5H52V45.5H57V43.5ZM70.59 50.5L66.76 46.67C65.96 47.19 65.02 47.5 64 47.5C61.24 47.5 59 45.26 59 42.5C59 39.74 61.24 37.5 64 37.5C66.76 37.5 69 39.74 69 42.5C69 43.52 68.69 44.46 68.17 45.25L72 49.09L70.59 50.5ZM67 42.5C67 40.85 65.65 39.5 64 39.5C62.35 39.5 61 40.85 61 42.5C61 44.15 62.35 45.5 64 45.5C65.65 45.5 67 44.15 67 42.5ZM52 50.5H62V48.5H52V50.5Z" fill="#454545"/>
<path d="M89.608 36H88.588L87.748 33.804H84.16L83.32 36H82.312L85.396 28.08H86.536L89.608 36ZM84.508 32.904H87.4L85.948 29.004L84.508 32.904ZM91.3579 36V30H92.1379L92.2699 30.984C92.4379 30.616 92.6819 30.34 93.0019 30.156C93.3299 29.972 93.7259 29.88 94.1899 29.88C94.2939 29.88 94.4059 29.888 94.5259 29.904C94.6539 29.92 94.7619 29.952 94.8499 30L94.6819 30.876C94.5939 30.844 94.4979 30.82 94.3939 30.804C94.2899 30.788 94.1419 30.78 93.9499 30.78C93.7019 30.78 93.4499 30.852 93.1939 30.996C92.9459 31.14 92.7379 31.36 92.5699 31.656C92.4019 31.944 92.3179 32.312 92.3179 32.76V36H91.3579ZM97.629 28.296V34.344C97.629 34.64 97.713 34.86 97.881 35.004C98.049 35.148 98.265 35.22 98.529 35.22C98.761 35.22 98.961 35.18 99.129 35.1C99.297 35.02 99.449 34.912 99.585 34.776L99.921 35.58C99.737 35.748 99.517 35.88 99.261 35.976C99.013 36.072 98.725 36.12 98.397 36.12C98.093 36.12 97.809 36.068 97.545 35.964C97.281 35.852 97.069 35.68 96.909 35.448C96.757 35.208 96.677 34.896 96.669 34.512V28.56L97.629 28.296ZM99.813 30V30.828H95.469V30H99.813ZM102.04 28.848C101.824 28.848 101.648 28.784 101.512 28.656C101.384 28.52 101.32 28.344 101.32 28.128C101.32 27.912 101.384 27.74 101.512 27.612C101.648 27.476 101.824 27.408 102.04 27.408C102.256 27.408 102.428 27.476 102.556 27.612C102.692 27.74 102.76 27.912 102.76 28.128C102.76 28.344 102.692 28.52 102.556 28.656C102.428 28.784 102.256 28.848 102.04 28.848ZM102.52 30V36H101.56V30H102.52ZM107.504 27.18C107.712 27.18 107.908 27.204 108.092 27.252C108.276 27.3 108.42 27.368 108.524 27.456L108.272 28.236C108.176 28.172 108.072 28.128 107.96 28.104C107.848 28.072 107.724 28.056 107.588 28.056C107.244 28.056 106.976 28.14 106.784 28.308C106.592 28.468 106.496 28.728 106.496 29.088V30V30.312V36H105.536V28.992C105.536 28.728 105.576 28.484 105.656 28.26C105.736 28.036 105.856 27.844 106.016 27.684C106.184 27.524 106.392 27.4 106.64 27.312C106.888 27.224 107.176 27.18 107.504 27.18ZM108.5 30V30.828H104.336V30H108.5ZM113.24 32.124C113.24 31.676 113.12 31.332 112.88 31.092C112.64 30.844 112.3 30.72 111.86 30.72C111.444 30.72 111.092 30.812 110.804 30.996C110.516 31.172 110.304 31.46 110.168 31.86L109.388 31.38C109.548 30.932 109.844 30.572 110.276 30.3C110.708 30.02 111.244 29.88 111.884 29.88C112.316 29.88 112.708 29.956 113.06 30.108C113.412 30.252 113.688 30.476 113.888 30.78C114.096 31.076 114.2 31.46 114.2 31.932V34.836C114.2 35.124 114.352 35.268 114.656 35.268C114.808 35.268 114.956 35.248 115.1 35.208L115.052 35.964C114.892 36.044 114.684 36.084 114.428 36.084C114.196 36.084 113.988 36.04 113.804 35.952C113.62 35.864 113.476 35.732 113.372 35.556C113.268 35.372 113.216 35.144 113.216 34.872V34.752L113.456 34.788C113.36 35.1 113.196 35.356 112.964 35.556C112.732 35.748 112.472 35.892 112.184 35.988C111.896 36.076 111.612 36.12 111.332 36.12C110.98 36.12 110.652 36.06 110.348 35.94C110.044 35.82 109.8 35.64 109.616 35.4C109.44 35.152 109.352 34.848 109.352 34.488C109.352 34.04 109.5 33.672 109.796 33.384C110.1 33.088 110.52 32.888 111.056 32.784L113.432 32.316V33.108L111.5 33.504C111.108 33.584 110.816 33.696 110.624 33.84C110.432 33.984 110.336 34.184 110.336 34.44C110.336 34.688 110.432 34.892 110.624 35.052C110.824 35.204 111.104 35.28 111.464 35.28C111.696 35.28 111.916 35.252 112.124 35.196C112.34 35.132 112.532 35.04 112.7 34.92C112.868 34.792 113 34.636 113.096 34.452C113.192 34.26 113.24 34.036 113.24 33.78V32.124ZM119.336 29.88C119.752 29.88 120.116 29.944 120.428 30.072C120.748 30.2 121.024 30.384 121.256 30.624C121.488 30.864 121.676 31.148 121.82 31.476L120.908 31.908C120.78 31.524 120.584 31.232 120.32 31.032C120.064 30.824 119.728 30.72 119.312 30.72C118.912 30.72 118.568 30.812 118.28 30.996C117.992 31.172 117.772 31.432 117.62 31.776C117.468 32.112 117.392 32.52 117.392 33C117.392 33.472 117.468 33.88 117.62 34.224C117.772 34.568 117.992 34.832 118.28 35.016C118.568 35.192 118.912 35.28 119.312 35.28C119.624 35.28 119.892 35.232 120.116 35.136C120.348 35.04 120.536 34.9 120.68 34.716C120.832 34.532 120.936 34.308 120.992 34.044L121.88 34.356C121.744 34.724 121.556 35.04 121.316 35.304C121.084 35.568 120.8 35.772 120.464 35.916C120.136 36.052 119.76 36.12 119.336 36.12C118.776 36.12 118.276 35.996 117.836 35.748C117.396 35.5 117.052 35.144 116.804 34.68C116.556 34.208 116.432 33.648 116.432 33C116.432 32.352 116.556 31.796 116.804 31.332C117.052 30.86 117.396 30.5 117.836 30.252C118.276 30.004 118.776 29.88 119.336 29.88ZM125.303 28.296V34.344C125.303 34.64 125.387 34.86 125.555 35.004C125.723 35.148 125.939 35.22 126.203 35.22C126.435 35.22 126.635 35.18 126.803 35.1C126.971 35.02 127.123 34.912 127.259 34.776L127.595 35.58C127.411 35.748 127.191 35.88 126.935 35.976C126.687 36.072 126.399 36.12 126.071 36.12C125.767 36.12 125.483 36.068 125.219 35.964C124.955 35.852 124.743 35.68 124.583 35.448C124.431 35.208 124.351 34.896 124.343 34.512V28.56L125.303 28.296ZM127.487 30V30.828H123.143V30H127.487ZM131.395 36.12C130.811 36.12 130.271 35.996 129.775 35.748C129.287 35.5 128.911 35.148 128.647 34.692L129.463 34.104C129.639 34.472 129.895 34.76 130.231 34.968C130.575 35.176 130.987 35.28 131.467 35.28C131.891 35.28 132.223 35.2 132.463 35.04C132.703 34.872 132.823 34.656 132.823 34.392C132.823 34.224 132.767 34.072 132.655 33.936C132.551 33.792 132.347 33.688 132.043 33.624L130.603 33.324C130.019 33.204 129.599 33.004 129.343 32.724C129.095 32.444 128.971 32.096 128.971 31.68C128.971 31.352 129.063 31.052 129.247 30.78C129.439 30.508 129.707 30.292 130.051 30.132C130.403 29.964 130.815 29.88 131.287 29.88C131.879 29.88 132.379 29.996 132.787 30.228C133.195 30.46 133.499 30.788 133.699 31.212L132.895 31.74C132.759 31.388 132.539 31.132 132.235 30.972C131.931 30.804 131.615 30.72 131.287 30.72C130.999 30.72 130.751 30.76 130.543 30.84C130.343 30.92 130.187 31.032 130.075 31.176C129.971 31.312 129.919 31.468 129.919 31.644C129.919 31.82 129.979 31.984 130.099 32.136C130.219 32.28 130.443 32.384 130.771 32.448L132.271 32.76C132.831 32.872 133.223 33.056 133.447 33.312C133.671 33.568 133.783 33.88 133.783 34.248C133.783 34.624 133.683 34.956 133.483 35.244C133.283 35.524 133.003 35.74 132.643 35.892C132.283 36.044 131.867 36.12 131.395 36.12ZM141.433 28.08V36H140.473V28.08H141.433ZM145.303 28.08V36H144.343V28.08H145.303Z" fill="#707070"/>
<path d="M84.632 47.76V57H83.512V47.76H84.632ZM87.3762 57V50H88.3562L88.4542 51.568L88.2722 51.414C88.4216 51.0407 88.6222 50.742 88.8742 50.518C89.1262 50.2847 89.4156 50.1167 89.7422 50.014C90.0782 49.9113 90.4236 49.86 90.7782 49.86C91.2822 49.86 91.7396 49.958 92.1502 50.154C92.5609 50.3407 92.8876 50.63 93.1302 51.022C93.3822 51.414 93.5082 51.9133 93.5082 52.52V57H92.3882V52.912C92.3882 52.1373 92.2202 51.6007 91.8842 51.302C91.5576 50.994 91.1516 50.84 90.6662 50.84C90.3302 50.84 89.9942 50.9193 89.6582 51.078C89.3222 51.2367 89.0422 51.4933 88.8182 51.848C88.6036 52.2027 88.4962 52.6787 88.4962 53.276V57H87.3762ZM100.5 50H101.676L98.7645 57H97.6445L94.7325 50H96.0065L98.2185 55.866L100.5 50ZM106.066 57.14C105.403 57.14 104.811 56.9953 104.288 56.706C103.775 56.4167 103.373 56.0013 103.084 55.46C102.795 54.9093 102.65 54.256 102.65 53.5C102.65 52.744 102.795 52.0953 103.084 51.554C103.373 51.0033 103.77 50.5833 104.274 50.294C104.778 50.0047 105.352 49.86 105.996 49.86C106.649 49.86 107.205 50 107.662 50.28C108.129 50.56 108.483 50.9427 108.726 51.428C108.969 51.904 109.09 52.4407 109.09 53.038C109.09 53.1967 109.085 53.3413 109.076 53.472C109.067 53.6027 109.053 53.7193 109.034 53.822H103.378V52.828H108.544L107.97 52.94C107.97 52.268 107.783 51.75 107.41 51.386C107.046 51.022 106.565 50.84 105.968 50.84C105.511 50.84 105.114 50.9473 104.778 51.162C104.451 51.3673 104.195 51.6707 104.008 52.072C103.831 52.464 103.742 52.94 103.742 53.5C103.742 54.0507 103.835 54.5267 104.022 54.928C104.209 55.3293 104.47 55.6373 104.806 55.852C105.151 56.0573 105.562 56.16 106.038 56.16C106.551 56.16 106.967 56.062 107.284 55.866C107.611 55.67 107.872 55.404 108.068 55.068L108.95 55.586C108.773 55.9033 108.544 56.1787 108.264 56.412C107.993 56.6453 107.671 56.8273 107.298 56.958C106.934 57.0793 106.523 57.14 106.066 57.14ZM113.74 57.14C113.059 57.14 112.429 56.9953 111.85 56.706C111.281 56.4167 110.842 56.006 110.534 55.474L111.486 54.788C111.691 55.2173 111.99 55.5533 112.382 55.796C112.783 56.0387 113.264 56.16 113.824 56.16C114.319 56.16 114.706 56.0667 114.986 55.88C115.266 55.684 115.406 55.432 115.406 55.124C115.406 54.928 115.341 54.7507 115.21 54.592C115.089 54.424 114.851 54.3027 114.496 54.228L112.816 53.878C112.135 53.738 111.645 53.5047 111.346 53.178C111.057 52.8513 110.912 52.4453 110.912 51.96C110.912 51.5773 111.019 51.2273 111.234 50.91C111.458 50.5927 111.771 50.3407 112.172 50.154C112.583 49.958 113.063 49.86 113.614 49.86C114.305 49.86 114.888 49.9953 115.364 50.266C115.84 50.5367 116.195 50.9193 116.428 51.414L115.49 52.03C115.331 51.6193 115.075 51.3207 114.72 51.134C114.365 50.938 113.997 50.84 113.614 50.84C113.278 50.84 112.989 50.8867 112.746 50.98C112.513 51.0733 112.331 51.204 112.2 51.372C112.079 51.5307 112.018 51.7127 112.018 51.918C112.018 52.1233 112.088 52.3147 112.228 52.492C112.368 52.66 112.629 52.7813 113.012 52.856L114.762 53.22C115.415 53.3507 115.873 53.5653 116.134 53.864C116.395 54.1627 116.526 54.5267 116.526 54.956C116.526 55.3947 116.409 55.782 116.176 56.118C115.943 56.4447 115.616 56.6967 115.196 56.874C114.776 57.0513 114.291 57.14 113.74 57.14ZM120.255 48.012V55.068C120.255 55.4133 120.353 55.67 120.549 55.838C120.745 56.006 120.997 56.09 121.305 56.09C121.575 56.09 121.809 56.0433 122.005 55.95C122.201 55.8567 122.378 55.7307 122.537 55.572L122.929 56.51C122.714 56.706 122.457 56.86 122.159 56.972C121.869 57.084 121.533 57.14 121.151 57.14C120.796 57.14 120.465 57.0793 120.157 56.958C119.849 56.8273 119.601 56.6267 119.415 56.356C119.237 56.076 119.144 55.712 119.135 55.264V48.32L120.255 48.012ZM122.803 50V50.966H117.735V50H122.803ZM125.028 48.656C124.776 48.656 124.571 48.5813 124.412 48.432C124.263 48.2733 124.188 48.068 124.188 47.816C124.188 47.564 124.263 47.3633 124.412 47.214C124.571 47.0553 124.776 46.976 125.028 46.976C125.28 46.976 125.481 47.0553 125.63 47.214C125.789 47.3633 125.868 47.564 125.868 47.816C125.868 48.068 125.789 48.2733 125.63 48.432C125.481 48.5813 125.28 48.656 125.028 48.656ZM125.588 50V57H124.468V50H125.588ZM134.081 48.712L134.333 49.706C134.323 49.706 134.309 49.706 134.291 49.706C134.272 49.706 134.253 49.706 134.235 49.706C133.777 49.706 133.423 49.7993 133.171 49.986C132.928 50.1633 132.807 50.4527 132.807 50.854L132.121 50.504C132.121 50.14 132.205 49.8227 132.373 49.552C132.541 49.2813 132.769 49.076 133.059 48.936C133.348 48.7867 133.665 48.712 134.011 48.712C134.02 48.712 134.029 48.712 134.039 48.712C134.057 48.712 134.071 48.712 134.081 48.712ZM131.953 56.104C132.615 56.104 133.133 56.258 133.507 56.566C133.88 56.8647 134.067 57.266 134.067 57.77C134.067 58.2273 133.913 58.624 133.605 58.96C133.306 59.296 132.9 59.5527 132.387 59.73C131.883 59.9167 131.313 60.01 130.679 60.01C129.577 60.01 128.751 59.8233 128.201 59.45C127.659 59.0767 127.389 58.6287 127.389 58.106C127.389 57.7327 127.51 57.3967 127.753 57.098C128.005 56.8087 128.425 56.6453 129.013 56.608L128.915 56.818C128.597 56.734 128.327 56.594 128.103 56.398C127.888 56.1927 127.781 55.8987 127.781 55.516C127.781 55.1333 127.921 54.8067 128.201 54.536C128.49 54.256 128.915 54.0833 129.475 54.018L130.217 54.396H130.077C129.619 54.4427 129.293 54.5593 129.097 54.746C128.91 54.9233 128.817 55.1193 128.817 55.334C128.817 55.5953 128.91 55.7913 129.097 55.922C129.293 56.0433 129.563 56.104 129.909 56.104H131.953ZM130.665 59.072C131.206 59.072 131.649 59.016 131.995 58.904C132.349 58.792 132.611 58.6473 132.779 58.47C132.947 58.2927 133.031 58.1013 133.031 57.896C133.031 57.644 132.928 57.4433 132.723 57.294C132.527 57.1447 132.167 57.07 131.645 57.07H129.489C129.19 57.07 128.938 57.1447 128.733 57.294C128.527 57.4527 128.425 57.6673 128.425 57.938C128.425 58.2833 128.621 58.5587 129.013 58.764C129.414 58.9693 129.965 59.072 130.665 59.072ZM130.567 49.86C131.127 49.86 131.621 49.9627 132.051 50.168C132.489 50.364 132.83 50.6393 133.073 50.994C133.315 51.3487 133.437 51.7593 133.437 52.226C133.437 52.6833 133.315 53.094 133.073 53.458C132.83 53.8127 132.489 54.0927 132.051 54.298C131.621 54.494 131.127 54.592 130.567 54.592C129.643 54.592 128.933 54.3727 128.439 53.934C127.944 53.486 127.697 52.9167 127.697 52.226C127.697 51.7593 127.818 51.3487 128.061 50.994C128.313 50.6393 128.653 50.364 129.083 50.168C129.512 49.9627 130.007 49.86 130.567 49.86ZM130.567 50.77C130.081 50.77 129.675 50.9053 129.349 51.176C129.022 51.4373 128.859 51.7873 128.859 52.226C128.859 52.6553 129.022 53.0053 129.349 53.276C129.675 53.5467 130.081 53.682 130.567 53.682C131.052 53.682 131.458 53.5467 131.785 53.276C132.111 53.0053 132.275 52.6553 132.275 52.226C132.275 51.7873 132.111 51.4373 131.785 51.176C131.458 50.9053 131.052 50.77 130.567 50.77ZM139.726 52.478C139.726 51.9553 139.586 51.554 139.306 51.274C139.026 50.9847 138.629 50.84 138.116 50.84C137.631 50.84 137.22 50.9473 136.884 51.162C136.548 51.3673 136.301 51.7033 136.142 52.17L135.232 51.61C135.419 51.0873 135.764 50.6673 136.268 50.35C136.772 50.0233 137.397 49.86 138.144 49.86C138.648 49.86 139.105 49.9487 139.516 50.126C139.927 50.294 140.249 50.5553 140.482 50.91C140.725 51.2553 140.846 51.7033 140.846 52.254V55.642C140.846 55.978 141.023 56.146 141.378 56.146C141.555 56.146 141.728 56.1227 141.896 56.076L141.84 56.958C141.653 57.0513 141.411 57.098 141.112 57.098C140.841 57.098 140.599 57.0467 140.384 56.944C140.169 56.8413 140.001 56.6873 139.88 56.482C139.759 56.2673 139.698 56.0013 139.698 55.684V55.544L139.978 55.586C139.866 55.95 139.675 56.2487 139.404 56.482C139.133 56.706 138.83 56.874 138.494 56.986C138.158 57.0887 137.827 57.14 137.5 57.14C137.089 57.14 136.707 57.07 136.352 56.93C135.997 56.79 135.713 56.58 135.498 56.3C135.293 56.0107 135.19 55.656 135.19 55.236C135.19 54.7133 135.363 54.284 135.708 53.948C136.063 53.6027 136.553 53.3693 137.178 53.248L139.95 52.702V53.626L137.696 54.088C137.239 54.1813 136.898 54.312 136.674 54.48C136.45 54.648 136.338 54.8813 136.338 55.18C136.338 55.4693 136.45 55.7073 136.674 55.894C136.907 56.0713 137.234 56.16 137.654 56.16C137.925 56.16 138.181 56.1273 138.424 56.062C138.676 55.9873 138.9 55.88 139.096 55.74C139.292 55.5907 139.446 55.4087 139.558 55.194C139.67 54.97 139.726 54.7087 139.726 54.41V52.478ZM144.946 48.012V55.068C144.946 55.4133 145.044 55.67 145.24 55.838C145.436 56.006 145.688 56.09 145.996 56.09C146.267 56.09 146.5 56.0433 146.696 55.95C146.892 55.8567 147.07 55.7307 147.228 55.572L147.62 56.51C147.406 56.706 147.149 56.86 146.85 56.972C146.561 57.084 146.225 57.14 145.842 57.14C145.488 57.14 145.156 57.0793 144.848 56.958C144.54 56.8273 144.293 56.6267 144.106 56.356C143.929 56.076 143.836 55.712 143.826 55.264V48.32L144.946 48.012ZM147.494 50V50.966H142.426V50H147.494ZM152.085 57.14C151.423 57.14 150.83 56.9953 150.307 56.706C149.794 56.4167 149.393 56.0013 149.103 55.46C148.814 54.9093 148.669 54.256 148.669 53.5C148.669 52.744 148.814 52.0953 149.103 51.554C149.393 51.0033 149.789 50.5833 150.293 50.294C150.797 50.0047 151.371 49.86 152.015 49.86C152.669 49.86 153.224 50 153.681 50.28C154.148 50.56 154.503 50.9427 154.745 51.428C154.988 51.904 155.109 52.4407 155.109 53.038C155.109 53.1967 155.105 53.3413 155.095 53.472C155.086 53.6027 155.072 53.7193 155.053 53.822H149.397V52.828H154.563L153.989 52.94C153.989 52.268 153.803 51.75 153.429 51.386C153.065 51.022 152.585 50.84 151.987 50.84C151.53 50.84 151.133 50.9473 150.797 51.162C150.471 51.3673 150.214 51.6707 150.027 52.072C149.85 52.464 149.761 52.94 149.761 53.5C149.761 54.0507 149.855 54.5267 150.041 54.928C150.228 55.3293 150.489 55.6373 150.825 55.852C151.171 56.0573 151.581 56.16 152.057 56.16C152.571 56.16 152.986 56.062 153.303 55.866C153.63 55.67 153.891 55.404 154.087 55.068L154.969 55.586C154.792 55.9033 154.563 56.1787 154.283 56.412C154.013 56.6453 153.691 56.8273 153.317 56.958C152.953 57.0793 152.543 57.14 152.085 57.14ZM163.39 48.012V55.068C163.39 55.4133 163.488 55.67 163.684 55.838C163.88 56.006 164.132 56.09 164.44 56.09C164.71 56.09 164.944 56.0433 165.14 55.95C165.336 55.8567 165.513 55.7307 165.672 55.572L166.064 56.51C165.849 56.706 165.592 56.86 165.294 56.972C165.004 57.084 164.668 57.14 164.286 57.14C163.931 57.14 163.6 57.0793 163.292 56.958C162.984 56.8273 162.736 56.6267 162.55 56.356C162.372 56.076 162.279 55.712 162.27 55.264V48.32L163.39 48.012ZM165.938 50V50.966H160.87V50H165.938ZM167.603 57V46.78H168.723V51.05C168.965 50.63 169.287 50.3267 169.689 50.14C170.09 49.9533 170.529 49.86 171.005 49.86C171.509 49.86 171.966 49.958 172.377 50.154C172.787 50.3407 173.114 50.63 173.357 51.022C173.609 51.414 173.735 51.9133 173.735 52.52V57H172.615V52.912C172.615 52.1373 172.447 51.6007 172.111 51.302C171.784 50.994 171.378 50.84 170.893 50.84C170.557 50.84 170.221 50.9193 169.885 51.078C169.549 51.2367 169.269 51.498 169.045 51.862C168.83 52.2167 168.723 52.6927 168.723 53.29V57H167.603ZM179.197 57.14C178.534 57.14 177.941 56.9953 177.419 56.706C176.905 56.4167 176.504 56.0013 176.215 55.46C175.925 54.9093 175.781 54.256 175.781 53.5C175.781 52.744 175.925 52.0953 176.215 51.554C176.504 51.0033 176.901 50.5833 177.405 50.294C177.909 50.0047 178.483 49.86 179.127 49.86C179.78 49.86 180.335 50 180.793 50.28C181.259 50.56 181.614 50.9427 181.857 51.428C182.099 51.904 182.221 52.4407 182.221 53.038C182.221 53.1967 182.216 53.3413 182.207 53.472C182.197 53.6027 182.183 53.7193 182.165 53.822H176.509V52.828H181.675L181.101 52.94C181.101 52.268 180.914 51.75 180.541 51.386C180.177 51.022 179.696 50.84 179.099 50.84C178.641 50.84 178.245 50.9473 177.909 51.162C177.582 51.3673 177.325 51.6707 177.139 52.072C176.961 52.464 176.873 52.94 176.873 53.5C176.873 54.0507 176.966 54.5267 177.153 54.928C177.339 55.3293 177.601 55.6373 177.937 55.852C178.282 56.0573 178.693 56.16 179.169 56.16C179.682 56.16 180.097 56.062 180.415 55.866C180.741 55.67 181.003 55.404 181.199 55.068L182.081 55.586C181.903 55.9033 181.675 56.1787 181.395 56.412C181.124 56.6453 180.802 56.8273 180.429 56.958C180.065 57.0793 179.654 57.14 179.197 57.14ZM189.332 57V47.76H195.814V48.81H190.452V51.792H194.624V52.842H190.452V55.95H196.024V57H189.332ZM202.233 50H203.409L200.497 57H199.377L196.465 50H197.739L199.951 55.866L202.233 50ZM205.432 48.656C205.18 48.656 204.975 48.5813 204.816 48.432C204.667 48.2733 204.592 48.068 204.592 47.816C204.592 47.564 204.667 47.3633 204.816 47.214C204.975 47.0553 205.18 46.976 205.432 46.976C205.684 46.976 205.885 47.0553 206.034 47.214C206.193 47.3633 206.272 47.564 206.272 47.816C206.272 48.068 206.193 48.2733 206.034 48.432C205.885 48.5813 205.684 48.656 205.432 48.656ZM205.992 50V57H204.872V50H205.992ZM211.321 57.14C210.742 57.14 210.21 56.9953 209.725 56.706C209.24 56.4167 208.852 56.0013 208.563 55.46C208.274 54.9093 208.129 54.256 208.129 53.5C208.129 52.7253 208.283 52.0673 208.591 51.526C208.899 50.9847 209.305 50.574 209.809 50.294C210.313 50.0047 210.854 49.86 211.433 49.86C212.012 49.86 212.511 50.0093 212.931 50.308C213.36 50.6067 213.645 51.0033 213.785 51.498L213.645 51.596V46.78H214.765V57H213.785L213.687 55.306L213.841 55.222C213.776 55.6327 213.617 55.9827 213.365 56.272C213.122 56.552 212.819 56.7667 212.455 56.916C212.1 57.0653 211.722 57.14 211.321 57.14ZM211.433 56.16C211.881 56.16 212.268 56.048 212.595 55.824C212.931 55.6 213.188 55.2827 213.365 54.872C213.552 54.452 213.645 53.962 213.645 53.402C213.645 52.87 213.552 52.4127 213.365 52.03C213.188 51.6473 212.936 51.3533 212.609 51.148C212.292 50.9427 211.918 50.84 211.489 50.84C210.78 50.84 210.229 51.0827 209.837 51.568C209.445 52.0533 209.249 52.6973 209.249 53.5C209.249 54.3027 209.44 54.9467 209.823 55.432C210.206 55.9173 210.742 56.16 211.433 56.16ZM220.294 57.14C219.632 57.14 219.039 56.9953 218.516 56.706C218.003 56.4167 217.602 56.0013 217.312 55.46C217.023 54.9093 216.878 54.256 216.878 53.5C216.878 52.744 217.023 52.0953 217.312 51.554C217.602 51.0033 217.998 50.5833 218.502 50.294C219.006 50.0047 219.58 49.86 220.224 49.86C220.878 49.86 221.433 50 221.89 50.28C222.357 50.56 222.712 50.9427 222.954 51.428C223.197 51.904 223.318 52.4407 223.318 53.038C223.318 53.1967 223.314 53.3413 223.304 53.472C223.295 53.6027 223.281 53.7193 223.262 53.822H217.606V52.828H222.772L222.198 52.94C222.198 52.268 222.012 51.75 221.638 51.386C221.274 51.022 220.794 50.84 220.196 50.84C219.739 50.84 219.342 50.9473 219.006 51.162C218.68 51.3673 218.423 51.6707 218.236 52.072C218.059 52.464 217.97 52.94 217.97 53.5C217.97 54.0507 218.064 54.5267 218.25 54.928C218.437 55.3293 218.698 55.6373 219.034 55.852C219.38 56.0573 219.79 56.16 220.266 56.16C220.78 56.16 221.195 56.062 221.512 55.866C221.839 55.67 222.1 55.404 222.296 55.068L223.178 55.586C223.001 55.9033 222.772 56.1787 222.492 56.412C222.222 56.6453 221.9 56.8273 221.526 56.958C221.162 57.0793 220.752 57.14 220.294 57.14ZM225.448 57V50H226.428L226.526 51.568L226.344 51.414C226.494 51.0407 226.694 50.742 226.946 50.518C227.198 50.2847 227.488 50.1167 227.814 50.014C228.15 49.9113 228.496 49.86 228.85 49.86C229.354 49.86 229.812 49.958 230.222 50.154C230.633 50.3407 230.96 50.63 231.202 51.022C231.454 51.414 231.58 51.9133 231.58 52.52V57H230.46V52.912C230.46 52.1373 230.292 51.6007 229.956 51.302C229.63 50.994 229.224 50.84 228.738 50.84C228.402 50.84 228.066 50.9193 227.73 51.078C227.394 51.2367 227.114 51.4933 226.89 51.848C226.676 52.2027 226.568 52.6787 226.568 53.276V57H225.448ZM237.014 49.86C237.5 49.86 237.924 49.9347 238.288 50.084C238.662 50.2333 238.984 50.448 239.254 50.728C239.525 51.008 239.744 51.3393 239.912 51.722L238.848 52.226C238.699 51.778 238.47 51.4373 238.162 51.204C237.864 50.9613 237.472 50.84 236.986 50.84C236.52 50.84 236.118 50.9473 235.782 51.162C235.446 51.3673 235.19 51.6707 235.012 52.072C234.835 52.464 234.746 52.94 234.746 53.5C234.746 54.0507 234.835 54.5267 235.012 54.928C235.19 55.3293 235.446 55.6373 235.782 55.852C236.118 56.0573 236.52 56.16 236.986 56.16C237.35 56.16 237.663 56.104 237.924 55.992C238.195 55.88 238.414 55.7167 238.582 55.502C238.76 55.2873 238.881 55.026 238.946 54.718L239.982 55.082C239.824 55.5113 239.604 55.88 239.324 56.188C239.054 56.496 238.722 56.734 238.33 56.902C237.948 57.0607 237.509 57.14 237.014 57.14C236.361 57.14 235.778 56.9953 235.264 56.706C234.751 56.4167 234.35 56.0013 234.06 55.46C233.771 54.9093 233.626 54.256 233.626 53.5C233.626 52.744 233.771 52.0953 234.06 51.554C234.35 51.0033 234.751 50.5833 235.264 50.294C235.778 50.0047 236.361 49.86 237.014 49.86ZM244.876 57.14C244.214 57.14 243.621 56.9953 243.098 56.706C242.585 56.4167 242.184 56.0013 241.894 55.46C241.605 54.9093 241.46 54.256 241.46 53.5C241.46 52.744 241.605 52.0953 241.894 51.554C242.184 51.0033 242.58 50.5833 243.084 50.294C243.588 50.0047 244.162 49.86 244.806 49.86C245.46 49.86 246.015 50 246.472 50.28C246.939 50.56 247.294 50.9427 247.536 51.428C247.779 51.904 247.9 52.4407 247.9 53.038C247.9 53.1967 247.896 53.3413 247.886 53.472C247.877 53.6027 247.863 53.7193 247.844 53.822H242.188V52.828H247.354L246.78 52.94C246.78 52.268 246.594 51.75 246.22 51.386C245.856 51.022 245.376 50.84 244.778 50.84C244.321 50.84 243.924 50.9473 243.588 51.162C243.262 51.3673 243.005 51.6707 242.818 52.072C242.641 52.464 242.552 52.94 242.552 53.5C242.552 54.0507 242.646 54.5267 242.832 54.928C243.019 55.3293 243.28 55.6373 243.616 55.852C243.962 56.0573 244.372 56.16 244.848 56.16C245.362 56.16 245.777 56.062 246.094 55.866C246.421 55.67 246.682 55.404 246.878 55.068L247.76 55.586C247.583 55.9033 247.354 56.1787 247.074 56.412C246.804 56.6453 246.482 56.8273 246.108 56.958C245.744 57.0793 245.334 57.14 244.876 57.14Z" fill="#454545"/>
</svg>
