<svg width="1008" height="80" viewBox="0 0 1008 80" fill="none" xmlns="http://www.w3.org/2000/svg">
<mask id="path-1-inside-1_10_12936" fill="white">
<path d="M0 0H237V80H0V0Z"/>
</mask>
<path d="M0 0H237V80H0V0Z" fill="white"/>
<path d="M0 12H237V-12H0V12Z" fill="#BD6697" mask="url(#path-1-inside-1_10_12936)"/>
<circle cx="24" cy="44" r="8" fill="#BDBDBD"/>
<path d="M67 37V46H62V51H53V37H67ZM67 35H53C51.9 35 51 35.9 51 37V51C51 52.1 51.9 53 53 53H63L69 47V37C69 35.9 68.1 35 67 35ZM60 46H55V44H60V46ZM65 42H55V40H65V42Z" fill="#454545"/>
<path d="M82.632 39.76V49H81.512V39.76H82.632ZM85.3762 49V42H86.3562L86.4542 43.568L86.2722 43.414C86.4216 43.0407 86.6222 42.742 86.8742 42.518C87.1262 42.2847 87.4156 42.1167 87.7422 42.014C88.0782 41.9113 88.4236 41.86 88.7782 41.86C89.2822 41.86 89.7396 41.958 90.1502 42.154C90.5609 42.3407 90.8876 42.63 91.1302 43.022C91.3822 43.414 91.5082 43.9133 91.5082 44.52V49H90.3882V44.912C90.3882 44.1373 90.2202 43.6007 89.8842 43.302C89.5576 42.994 89.1516 42.84 88.6662 42.84C88.3302 42.84 87.9942 42.9193 87.6582 43.078C87.3222 43.2367 87.0422 43.4933 86.8182 43.848C86.6036 44.2027 86.4962 44.6787 86.4962 45.276V49H85.3762ZM96.5642 49.14C95.8829 49.14 95.2529 48.9953 94.6742 48.706C94.1049 48.4167 93.6662 48.006 93.3582 47.474L94.3102 46.788C94.5155 47.2173 94.8142 47.5533 95.2062 47.796C95.6075 48.0387 96.0882 48.16 96.6482 48.16C97.1429 48.16 97.5302 48.0667 97.8102 47.88C98.0902 47.684 98.2302 47.432 98.2302 47.124C98.2302 46.928 98.1649 46.7507 98.0342 46.592C97.9129 46.424 97.6749 46.3027 97.3202 46.228L95.6402 45.878C94.9589 45.738 94.4689 45.5047 94.1702 45.178C93.8809 44.8513 93.7362 44.4453 93.7362 43.96C93.7362 43.5773 93.8435 43.2273 94.0582 42.91C94.2822 42.5927 94.5949 42.3407 94.9962 42.154C95.4069 41.958 95.8875 41.86 96.4382 41.86C97.1289 41.86 97.7122 41.9953 98.1882 42.266C98.6642 42.5367 99.0189 42.9193 99.2522 43.414L98.3142 44.03C98.1555 43.6193 97.8989 43.3207 97.5442 43.134C97.1895 42.938 96.8209 42.84 96.4382 42.84C96.1022 42.84 95.8129 42.8867 95.5702 42.98C95.3369 43.0733 95.1549 43.204 95.0242 43.372C94.9029 43.5307 94.8422 43.7127 94.8422 43.918C94.8422 44.1233 94.9122 44.3147 95.0522 44.492C95.1922 44.66 95.4535 44.7813 95.8362 44.856L97.5862 45.22C98.2395 45.3507 98.6969 45.5653 98.9582 45.864C99.2195 46.1627 99.3502 46.5267 99.3502 46.956C99.3502 47.3947 99.2335 47.782 99.0002 48.118C98.7669 48.4447 98.4402 48.6967 98.0202 48.874C97.6002 49.0513 97.1149 49.14 96.5642 49.14ZM103.079 40.012V47.068C103.079 47.4133 103.177 47.67 103.373 47.838C103.569 48.006 103.821 48.09 104.129 48.09C104.4 48.09 104.633 48.0433 104.829 47.95C105.025 47.8567 105.202 47.7307 105.361 47.572L105.753 48.51C105.538 48.706 105.282 48.86 104.983 48.972C104.694 49.084 104.358 49.14 103.975 49.14C103.62 49.14 103.289 49.0793 102.981 48.958C102.673 48.8273 102.426 48.6267 102.239 48.356C102.062 48.076 101.968 47.712 101.959 47.264V40.32L103.079 40.012ZM105.627 42V42.966H100.559V42H105.627ZM107.292 49V42H108.202L108.356 43.148C108.552 42.7187 108.837 42.3967 109.21 42.182C109.593 41.9673 110.055 41.86 110.596 41.86C110.718 41.86 110.848 41.8693 110.988 41.888C111.138 41.9067 111.264 41.944 111.366 42L111.17 43.022C111.068 42.9847 110.956 42.9567 110.834 42.938C110.713 42.9193 110.54 42.91 110.316 42.91C110.027 42.91 109.733 42.994 109.434 43.162C109.145 43.33 108.902 43.5867 108.706 43.932C108.51 44.268 108.412 44.6973 108.412 45.22V49H107.292ZM115.541 49.14C115.093 49.14 114.668 49.056 114.267 48.888C113.875 48.72 113.553 48.4493 113.301 48.076C113.058 47.6933 112.937 47.1987 112.937 46.592V42H114.057V46.298C114.057 47.0073 114.211 47.4973 114.519 47.768C114.827 48.0293 115.261 48.16 115.821 48.16C116.082 48.16 116.339 48.118 116.591 48.034C116.843 47.9407 117.067 47.8007 117.263 47.614C117.468 47.418 117.627 47.1707 117.739 46.872C117.86 46.5733 117.921 46.2187 117.921 45.808V42H119.041V49H118.061L117.991 47.936C117.748 48.356 117.417 48.664 116.997 48.86C116.586 49.0467 116.101 49.14 115.541 49.14ZM124.546 41.86C125.031 41.86 125.456 41.9347 125.82 42.084C126.193 42.2333 126.515 42.448 126.786 42.728C127.056 43.008 127.276 43.3393 127.444 43.722L126.38 44.226C126.23 43.778 126.002 43.4373 125.694 43.204C125.395 42.9613 125.003 42.84 124.518 42.84C124.051 42.84 123.65 42.9473 123.314 43.162C122.978 43.3673 122.721 43.6707 122.544 44.072C122.366 44.464 122.278 44.94 122.278 45.5C122.278 46.0507 122.366 46.5267 122.544 46.928C122.721 47.3293 122.978 47.6373 123.314 47.852C123.65 48.0573 124.051 48.16 124.518 48.16C124.882 48.16 125.194 48.104 125.456 47.992C125.726 47.88 125.946 47.7167 126.114 47.502C126.291 47.2873 126.412 47.026 126.478 46.718L127.514 47.082C127.355 47.5113 127.136 47.88 126.856 48.188C126.585 48.496 126.254 48.734 125.862 48.902C125.479 49.0607 125.04 49.14 124.546 49.14C123.892 49.14 123.309 48.9953 122.796 48.706C122.282 48.4167 121.881 48.0013 121.592 47.46C121.302 46.9093 121.158 46.256 121.158 45.5C121.158 44.744 121.302 44.0953 121.592 43.554C121.881 43.0033 122.282 42.5833 122.796 42.294C123.309 42.0047 123.892 41.86 124.546 41.86ZM131.134 40.012V47.068C131.134 47.4133 131.232 47.67 131.428 47.838C131.624 48.006 131.876 48.09 132.184 48.09C132.454 48.09 132.688 48.0433 132.884 47.95C133.08 47.8567 133.257 47.7307 133.416 47.572L133.808 48.51C133.593 48.706 133.336 48.86 133.038 48.972C132.748 49.084 132.412 49.14 132.03 49.14C131.675 49.14 131.344 49.0793 131.036 48.958C130.728 48.8273 130.48 48.6267 130.294 48.356C130.116 48.076 130.023 47.712 130.014 47.264V40.32L131.134 40.012ZM133.682 42V42.966H128.614V42H133.682ZM135.907 40.656C135.655 40.656 135.45 40.5813 135.291 40.432C135.142 40.2733 135.067 40.068 135.067 39.816C135.067 39.564 135.142 39.3633 135.291 39.214C135.45 39.0553 135.655 38.976 135.907 38.976C136.159 38.976 136.36 39.0553 136.509 39.214C136.668 39.3633 136.747 39.564 136.747 39.816C136.747 40.068 136.668 40.2733 136.509 40.432C136.36 40.5813 136.159 40.656 135.907 40.656ZM136.467 42V49H135.347V42H136.467ZM141.964 41.86C142.626 41.86 143.21 42.0047 143.714 42.294C144.227 42.5833 144.628 43.0033 144.918 43.554C145.207 44.0953 145.352 44.744 145.352 45.5C145.352 46.256 145.207 46.9093 144.918 47.46C144.628 48.0013 144.227 48.4167 143.714 48.706C143.21 48.9953 142.626 49.14 141.964 49.14C141.31 49.14 140.727 48.9953 140.214 48.706C139.7 48.4167 139.299 48.0013 139.01 47.46C138.72 46.9093 138.576 46.256 138.576 45.5C138.576 44.744 138.72 44.0953 139.01 43.554C139.299 43.0033 139.7 42.5833 140.214 42.294C140.727 42.0047 141.31 41.86 141.964 41.86ZM141.964 42.826C141.488 42.826 141.082 42.9333 140.746 43.148C140.41 43.3627 140.148 43.6707 139.962 44.072C139.784 44.464 139.696 44.94 139.696 45.5C139.696 46.0507 139.784 46.5267 139.962 46.928C140.148 47.3293 140.41 47.6373 140.746 47.852C141.082 48.0667 141.488 48.174 141.964 48.174C142.44 48.174 142.846 48.0667 143.182 47.852C143.518 47.6373 143.774 47.3293 143.952 46.928C144.138 46.5267 144.232 46.0507 144.232 45.5C144.232 44.94 144.138 44.464 143.952 44.072C143.774 43.6707 143.518 43.3627 143.182 43.148C142.846 42.9333 142.44 42.826 141.964 42.826ZM147.46 49V42H148.44L148.538 43.568L148.356 43.414C148.506 43.0407 148.706 42.742 148.958 42.518C149.21 42.2847 149.5 42.1167 149.826 42.014C150.162 41.9113 150.508 41.86 150.862 41.86C151.366 41.86 151.824 41.958 152.234 42.154C152.645 42.3407 152.972 42.63 153.214 43.022C153.466 43.414 153.592 43.9133 153.592 44.52V49H152.472V44.912C152.472 44.1373 152.304 43.6007 151.968 43.302C151.642 42.994 151.236 42.84 150.75 42.84C150.414 42.84 150.078 42.9193 149.742 43.078C149.406 43.2367 149.126 43.4933 148.902 43.848C148.688 44.2027 148.58 44.6787 148.58 45.276V49H147.46ZM158.648 49.14C157.967 49.14 157.337 48.9953 156.758 48.706C156.189 48.4167 155.75 48.006 155.442 47.474L156.394 46.788C156.6 47.2173 156.898 47.5533 157.29 47.796C157.692 48.0387 158.172 48.16 158.732 48.16C159.227 48.16 159.614 48.0667 159.894 47.88C160.174 47.684 160.314 47.432 160.314 47.124C160.314 46.928 160.249 46.7507 160.118 46.592C159.997 46.424 159.759 46.3027 159.404 46.228L157.724 45.878C157.043 45.738 156.553 45.5047 156.254 45.178C155.965 44.8513 155.82 44.4453 155.82 43.96C155.82 43.5773 155.928 43.2273 156.142 42.91C156.366 42.5927 156.679 42.3407 157.08 42.154C157.491 41.958 157.972 41.86 158.522 41.86C159.213 41.86 159.796 41.9953 160.272 42.266C160.748 42.5367 161.103 42.9193 161.336 43.414L160.398 44.03C160.24 43.6193 159.983 43.3207 159.628 43.134C159.274 42.938 158.905 42.84 158.522 42.84C158.186 42.84 157.897 42.8867 157.654 42.98C157.421 43.0733 157.239 43.204 157.108 43.372C156.987 43.5307 156.926 43.7127 156.926 43.918C156.926 44.1233 156.996 44.3147 157.136 44.492C157.276 44.66 157.538 44.7813 157.92 44.856L159.67 45.22C160.324 45.3507 160.781 45.5653 161.042 45.864C161.304 46.1627 161.434 46.5267 161.434 46.956C161.434 47.3947 161.318 47.782 161.084 48.118C160.851 48.4447 160.524 48.6967 160.104 48.874C159.684 49.0513 159.199 49.14 158.648 49.14Z" fill="#454545"/>
<mask id="path-6-inside-2_10_12936" fill="white">
<path d="M237 0H504V80H237V0Z"/>
</mask>
<path d="M237 0H504V80H237V0Z" fill="white"/>
<path d="M237 12H504V-12H237V12Z" fill="#67BC46" mask="url(#path-6-inside-2_10_12936)"/>
<circle cx="273" cy="44" r="8" fill="#BDBDBD"/>
<path d="M311.17 37L316 41.83V51H302V37H311.17ZM311.17 35H302C300.9 35 300 35.9 300 37V51C300 52.1 300.9 53 302 53H316C317.1 53 318 52.1 318 51V41.83C318 41.3 317.79 40.79 317.41 40.42L312.58 35.59C312.21 35.21 311.7 35 311.17 35ZM304 47H314V49H304V47ZM304 43H314V45H304V43ZM304 39H311V41H304V39Z" fill="#454545"/>
<path d="M336.608 36H335.588L334.748 33.804H331.16L330.32 36H329.312L332.396 28.08H333.536L336.608 36ZM331.508 32.904H334.4L332.948 29.004L331.508 32.904ZM338.358 36V30H339.138L339.27 30.984C339.438 30.616 339.682 30.34 340.002 30.156C340.33 29.972 340.726 29.88 341.19 29.88C341.294 29.88 341.406 29.888 341.526 29.904C341.654 29.92 341.762 29.952 341.85 30L341.682 30.876C341.594 30.844 341.498 30.82 341.394 30.804C341.29 30.788 341.142 30.78 340.95 30.78C340.702 30.78 340.45 30.852 340.194 30.996C339.946 31.14 339.738 31.36 339.57 31.656C339.402 31.944 339.318 32.312 339.318 32.76V36H338.358ZM344.629 28.296V34.344C344.629 34.64 344.713 34.86 344.881 35.004C345.049 35.148 345.265 35.22 345.529 35.22C345.761 35.22 345.961 35.18 346.129 35.1C346.297 35.02 346.449 34.912 346.585 34.776L346.921 35.58C346.737 35.748 346.517 35.88 346.261 35.976C346.013 36.072 345.725 36.12 345.397 36.12C345.093 36.12 344.809 36.068 344.545 35.964C344.281 35.852 344.069 35.68 343.909 35.448C343.757 35.208 343.677 34.896 343.669 34.512V28.56L344.629 28.296ZM346.813 30V30.828H342.469V30H346.813ZM349.04 28.848C348.824 28.848 348.648 28.784 348.512 28.656C348.384 28.52 348.32 28.344 348.32 28.128C348.32 27.912 348.384 27.74 348.512 27.612C348.648 27.476 348.824 27.408 349.04 27.408C349.256 27.408 349.428 27.476 349.556 27.612C349.692 27.74 349.76 27.912 349.76 28.128C349.76 28.344 349.692 28.52 349.556 28.656C349.428 28.784 349.256 28.848 349.04 28.848ZM349.52 30V36H348.56V30H349.52ZM354.504 27.18C354.712 27.18 354.908 27.204 355.092 27.252C355.276 27.3 355.42 27.368 355.524 27.456L355.272 28.236C355.176 28.172 355.072 28.128 354.96 28.104C354.848 28.072 354.724 28.056 354.588 28.056C354.244 28.056 353.976 28.14 353.784 28.308C353.592 28.468 353.496 28.728 353.496 29.088V30V30.312V36H352.536V28.992C352.536 28.728 352.576 28.484 352.656 28.26C352.736 28.036 352.856 27.844 353.016 27.684C353.184 27.524 353.392 27.4 353.64 27.312C353.888 27.224 354.176 27.18 354.504 27.18ZM355.5 30V30.828H351.336V30H355.5ZM360.24 32.124C360.24 31.676 360.12 31.332 359.88 31.092C359.64 30.844 359.3 30.72 358.86 30.72C358.444 30.72 358.092 30.812 357.804 30.996C357.516 31.172 357.304 31.46 357.168 31.86L356.388 31.38C356.548 30.932 356.844 30.572 357.276 30.3C357.708 30.02 358.244 29.88 358.884 29.88C359.316 29.88 359.708 29.956 360.06 30.108C360.412 30.252 360.688 30.476 360.888 30.78C361.096 31.076 361.2 31.46 361.2 31.932V34.836C361.2 35.124 361.352 35.268 361.656 35.268C361.808 35.268 361.956 35.248 362.1 35.208L362.052 35.964C361.892 36.044 361.684 36.084 361.428 36.084C361.196 36.084 360.988 36.04 360.804 35.952C360.62 35.864 360.476 35.732 360.372 35.556C360.268 35.372 360.216 35.144 360.216 34.872V34.752L360.456 34.788C360.36 35.1 360.196 35.356 359.964 35.556C359.732 35.748 359.472 35.892 359.184 35.988C358.896 36.076 358.612 36.12 358.332 36.12C357.98 36.12 357.652 36.06 357.348 35.94C357.044 35.82 356.8 35.64 356.616 35.4C356.44 35.152 356.352 34.848 356.352 34.488C356.352 34.04 356.5 33.672 356.796 33.384C357.1 33.088 357.52 32.888 358.056 32.784L360.432 32.316V33.108L358.5 33.504C358.108 33.584 357.816 33.696 357.624 33.84C357.432 33.984 357.336 34.184 357.336 34.44C357.336 34.688 357.432 34.892 357.624 35.052C357.824 35.204 358.104 35.28 358.464 35.28C358.696 35.28 358.916 35.252 359.124 35.196C359.34 35.132 359.532 35.04 359.7 34.92C359.868 34.792 360 34.636 360.096 34.452C360.192 34.26 360.24 34.036 360.24 33.78V32.124ZM366.336 29.88C366.752 29.88 367.116 29.944 367.428 30.072C367.748 30.2 368.024 30.384 368.256 30.624C368.488 30.864 368.676 31.148 368.82 31.476L367.908 31.908C367.78 31.524 367.584 31.232 367.32 31.032C367.064 30.824 366.728 30.72 366.312 30.72C365.912 30.72 365.568 30.812 365.28 30.996C364.992 31.172 364.772 31.432 364.62 31.776C364.468 32.112 364.392 32.52 364.392 33C364.392 33.472 364.468 33.88 364.62 34.224C364.772 34.568 364.992 34.832 365.28 35.016C365.568 35.192 365.912 35.28 366.312 35.28C366.624 35.28 366.892 35.232 367.116 35.136C367.348 35.04 367.536 34.9 367.68 34.716C367.832 34.532 367.936 34.308 367.992 34.044L368.88 34.356C368.744 34.724 368.556 35.04 368.316 35.304C368.084 35.568 367.8 35.772 367.464 35.916C367.136 36.052 366.76 36.12 366.336 36.12C365.776 36.12 365.276 35.996 364.836 35.748C364.396 35.5 364.052 35.144 363.804 34.68C363.556 34.208 363.432 33.648 363.432 33C363.432 32.352 363.556 31.796 363.804 31.332C364.052 30.86 364.396 30.5 364.836 30.252C365.276 30.004 365.776 29.88 366.336 29.88ZM372.303 28.296V34.344C372.303 34.64 372.387 34.86 372.555 35.004C372.723 35.148 372.939 35.22 373.203 35.22C373.435 35.22 373.635 35.18 373.803 35.1C373.971 35.02 374.123 34.912 374.259 34.776L374.595 35.58C374.411 35.748 374.191 35.88 373.935 35.976C373.687 36.072 373.399 36.12 373.071 36.12C372.767 36.12 372.483 36.068 372.219 35.964C371.955 35.852 371.743 35.68 371.583 35.448C371.431 35.208 371.351 34.896 371.343 34.512V28.56L372.303 28.296ZM374.487 30V30.828H370.143V30H374.487ZM378.395 36.12C377.811 36.12 377.271 35.996 376.775 35.748C376.287 35.5 375.911 35.148 375.647 34.692L376.463 34.104C376.639 34.472 376.895 34.76 377.231 34.968C377.575 35.176 377.987 35.28 378.467 35.28C378.891 35.28 379.223 35.2 379.463 35.04C379.703 34.872 379.823 34.656 379.823 34.392C379.823 34.224 379.767 34.072 379.655 33.936C379.551 33.792 379.347 33.688 379.043 33.624L377.603 33.324C377.019 33.204 376.599 33.004 376.343 32.724C376.095 32.444 375.971 32.096 375.971 31.68C375.971 31.352 376.063 31.052 376.247 30.78C376.439 30.508 376.707 30.292 377.051 30.132C377.403 29.964 377.815 29.88 378.287 29.88C378.879 29.88 379.379 29.996 379.787 30.228C380.195 30.46 380.499 30.788 380.699 31.212L379.895 31.74C379.759 31.388 379.539 31.132 379.235 30.972C378.931 30.804 378.615 30.72 378.287 30.72C377.999 30.72 377.751 30.76 377.543 30.84C377.343 30.92 377.187 31.032 377.075 31.176C376.971 31.312 376.919 31.468 376.919 31.644C376.919 31.82 376.979 31.984 377.099 32.136C377.219 32.28 377.443 32.384 377.771 32.448L379.271 32.76C379.831 32.872 380.223 33.056 380.447 33.312C380.671 33.568 380.783 33.88 380.783 34.248C380.783 34.624 380.683 34.956 380.483 35.244C380.283 35.524 380.003 35.74 379.643 35.892C379.283 36.044 378.867 36.12 378.395 36.12ZM388.433 28.08V36H387.473V28.08H388.433Z" fill="#707070"/>
<path d="M337.96 54.634C337.764 55.1567 337.484 55.6093 337.12 55.992C336.756 56.3653 336.327 56.65 335.832 56.846C335.347 57.042 334.815 57.14 334.236 57.14C333.359 57.14 332.598 56.9487 331.954 56.566C331.319 56.174 330.825 55.6233 330.47 54.914C330.125 54.2047 329.952 53.36 329.952 52.38C329.952 51.4 330.125 50.5553 330.47 49.846C330.825 49.1367 331.319 48.5907 331.954 48.208C332.598 47.816 333.349 47.62 334.208 47.62C334.805 47.62 335.337 47.704 335.804 47.872C336.271 48.0307 336.667 48.2733 336.994 48.6C337.33 48.9173 337.596 49.3093 337.792 49.776L336.686 50.294C336.481 49.762 336.182 49.3607 335.79 49.09C335.407 48.81 334.908 48.67 334.292 48.67C333.667 48.67 333.116 48.8193 332.64 49.118C332.164 49.4073 331.791 49.8273 331.52 50.378C331.259 50.9287 331.128 51.596 331.128 52.38C331.128 53.1547 331.254 53.822 331.506 54.382C331.758 54.9327 332.117 55.3573 332.584 55.656C333.051 55.9453 333.601 56.09 334.236 56.09C334.852 56.09 335.389 55.936 335.846 55.628C336.303 55.3107 336.635 54.8393 336.84 54.214L337.96 54.634ZM342.798 49.86C343.46 49.86 344.044 50.0047 344.548 50.294C345.061 50.5833 345.462 51.0033 345.752 51.554C346.041 52.0953 346.186 52.744 346.186 53.5C346.186 54.256 346.041 54.9093 345.752 55.46C345.462 56.0013 345.061 56.4167 344.548 56.706C344.044 56.9953 343.46 57.14 342.798 57.14C342.144 57.14 341.561 56.9953 341.048 56.706C340.534 56.4167 340.133 56.0013 339.844 55.46C339.554 54.9093 339.41 54.256 339.41 53.5C339.41 52.744 339.554 52.0953 339.844 51.554C340.133 51.0033 340.534 50.5833 341.048 50.294C341.561 50.0047 342.144 49.86 342.798 49.86ZM342.798 50.826C342.322 50.826 341.916 50.9333 341.58 51.148C341.244 51.3627 340.982 51.6707 340.796 52.072C340.618 52.464 340.53 52.94 340.53 53.5C340.53 54.0507 340.618 54.5267 340.796 54.928C340.982 55.3293 341.244 55.6373 341.58 55.852C341.916 56.0667 342.322 56.174 342.798 56.174C343.274 56.174 343.68 56.0667 344.016 55.852C344.352 55.6373 344.608 55.3293 344.786 54.928C344.972 54.5267 345.066 54.0507 345.066 53.5C345.066 52.94 344.972 52.464 344.786 52.072C344.608 51.6707 344.352 51.3627 344.016 51.148C343.68 50.9333 343.274 50.826 342.798 50.826ZM348.294 57V50H349.274L349.372 51.568L349.19 51.414C349.34 51.0407 349.54 50.742 349.792 50.518C350.044 50.2847 350.334 50.1167 350.66 50.014C350.996 49.9113 351.342 49.86 351.696 49.86C352.2 49.86 352.658 49.958 353.068 50.154C353.479 50.3407 353.806 50.63 354.048 51.022C354.3 51.414 354.426 51.9133 354.426 52.52V57H353.306V52.912C353.306 52.1373 353.138 51.6007 352.802 51.302C352.476 50.994 352.07 50.84 351.584 50.84C351.248 50.84 350.912 50.9193 350.576 51.078C350.24 51.2367 349.96 51.4933 349.736 51.848C349.522 52.2027 349.414 52.6787 349.414 53.276V57H348.294ZM359.482 57.14C358.801 57.14 358.171 56.9953 357.592 56.706C357.023 56.4167 356.584 56.006 356.276 55.474L357.228 54.788C357.433 55.2173 357.732 55.5533 358.124 55.796C358.525 56.0387 359.006 56.16 359.566 56.16C360.061 56.16 360.448 56.0667 360.728 55.88C361.008 55.684 361.148 55.432 361.148 55.124C361.148 54.928 361.083 54.7507 360.952 54.592C360.831 54.424 360.593 54.3027 360.238 54.228L358.558 53.878C357.877 53.738 357.387 53.5047 357.088 53.178C356.799 52.8513 356.654 52.4453 356.654 51.96C356.654 51.5773 356.761 51.2273 356.976 50.91C357.2 50.5927 357.513 50.3407 357.914 50.154C358.325 49.958 358.805 49.86 359.356 49.86C360.047 49.86 360.63 49.9953 361.106 50.266C361.582 50.5367 361.937 50.9193 362.17 51.414L361.232 52.03C361.073 51.6193 360.817 51.3207 360.462 51.134C360.107 50.938 359.739 50.84 359.356 50.84C359.02 50.84 358.731 50.8867 358.488 50.98C358.255 51.0733 358.073 51.204 357.942 51.372C357.821 51.5307 357.76 51.7127 357.76 51.918C357.76 52.1233 357.83 52.3147 357.97 52.492C358.11 52.66 358.371 52.7813 358.754 52.856L360.504 53.22C361.157 53.3507 361.615 53.5653 361.876 53.864C362.137 54.1627 362.268 54.5267 362.268 54.956C362.268 55.3947 362.151 55.782 361.918 56.118C361.685 56.4447 361.358 56.6967 360.938 56.874C360.518 57.0513 360.033 57.14 359.482 57.14ZM366.879 57.14C366.431 57.14 366.006 57.056 365.605 56.888C365.213 56.72 364.891 56.4493 364.639 56.076C364.396 55.6933 364.275 55.1987 364.275 54.592V50H365.395V54.298C365.395 55.0073 365.549 55.4973 365.857 55.768C366.165 56.0293 366.599 56.16 367.159 56.16C367.42 56.16 367.677 56.118 367.929 56.034C368.181 55.9407 368.405 55.8007 368.601 55.614C368.806 55.418 368.965 55.1707 369.077 54.872C369.198 54.5733 369.259 54.2187 369.259 53.808V50H370.379V57H369.399L369.329 55.936C369.086 56.356 368.755 56.664 368.335 56.86C367.924 57.0467 367.439 57.14 366.879 57.14ZM374.05 46.78V55.222C374.05 55.5767 374.115 55.824 374.246 55.964C374.376 56.0947 374.586 56.16 374.876 56.16C375.062 56.16 375.216 56.146 375.338 56.118C375.459 56.09 375.622 56.0387 375.828 55.964L375.646 56.944C375.496 57.0093 375.333 57.056 375.156 57.084C374.978 57.1213 374.796 57.14 374.61 57.14C374.04 57.14 373.616 56.986 373.336 56.678C373.065 56.37 372.93 55.8987 372.93 55.264V46.78H374.05ZM378.643 48.012V55.068C378.643 55.4133 378.741 55.67 378.937 55.838C379.133 56.006 379.385 56.09 379.693 56.09C379.964 56.09 380.197 56.0433 380.393 55.95C380.589 55.8567 380.767 55.7307 380.925 55.572L381.317 56.51C381.103 56.706 380.846 56.86 380.547 56.972C380.258 57.084 379.922 57.14 379.539 57.14C379.185 57.14 378.853 57.0793 378.545 56.958C378.237 56.8273 377.99 56.6267 377.803 56.356C377.626 56.076 377.533 55.712 377.523 55.264V48.32L378.643 48.012ZM381.191 50V50.966H376.123V50H381.191ZM389.007 48.012V55.068C389.007 55.4133 389.105 55.67 389.301 55.838C389.497 56.006 389.749 56.09 390.057 56.09C390.327 56.09 390.561 56.0433 390.757 55.95C390.953 55.8567 391.13 55.7307 391.289 55.572L391.681 56.51C391.466 56.706 391.209 56.86 390.911 56.972C390.621 57.084 390.285 57.14 389.903 57.14C389.548 57.14 389.217 57.0793 388.909 56.958C388.601 56.8273 388.353 56.6267 388.167 56.356C387.989 56.076 387.896 55.712 387.887 55.264V48.32L389.007 48.012ZM391.555 50V50.966H386.487V50H391.555ZM393.22 57V46.78H394.34V51.05C394.583 50.63 394.905 50.3267 395.306 50.14C395.707 49.9533 396.146 49.86 396.622 49.86C397.126 49.86 397.583 49.958 397.994 50.154C398.405 50.3407 398.731 50.63 398.974 51.022C399.226 51.414 399.352 51.9133 399.352 52.52V57H398.232V52.912C398.232 52.1373 398.064 51.6007 397.728 51.302C397.401 50.994 396.995 50.84 396.51 50.84C396.174 50.84 395.838 50.9193 395.502 51.078C395.166 51.2367 394.886 51.498 394.662 51.862C394.447 52.2167 394.34 52.6927 394.34 53.29V57H393.22ZM404.814 57.14C404.151 57.14 403.559 56.9953 403.036 56.706C402.523 56.4167 402.121 56.0013 401.832 55.46C401.543 54.9093 401.398 54.256 401.398 53.5C401.398 52.744 401.543 52.0953 401.832 51.554C402.121 51.0033 402.518 50.5833 403.022 50.294C403.526 50.0047 404.1 49.86 404.744 49.86C405.397 49.86 405.953 50 406.41 50.28C406.877 50.56 407.231 50.9427 407.474 51.428C407.717 51.904 407.838 52.4407 407.838 53.038C407.838 53.1967 407.833 53.3413 407.824 53.472C407.815 53.6027 407.801 53.7193 407.782 53.822H402.126V52.828H407.292L406.718 52.94C406.718 52.268 406.531 51.75 406.158 51.386C405.794 51.022 405.313 50.84 404.716 50.84C404.259 50.84 403.862 50.9473 403.526 51.162C403.199 51.3673 402.943 51.6707 402.756 52.072C402.579 52.464 402.49 52.94 402.49 53.5C402.49 54.0507 402.583 54.5267 402.77 54.928C402.957 55.3293 403.218 55.6373 403.554 55.852C403.899 56.0573 404.31 56.16 404.786 56.16C405.299 56.16 405.715 56.062 406.032 55.866C406.359 55.67 406.62 55.404 406.816 55.068L407.698 55.586C407.521 55.9033 407.292 56.1787 407.012 56.412C406.741 56.6453 406.419 56.8273 406.046 56.958C405.682 57.0793 405.271 57.14 404.814 57.14ZM418.45 47.76C419.392 47.76 420.148 48.0027 420.718 48.488C421.287 48.9733 421.572 49.6313 421.572 50.462C421.572 51.2927 421.282 51.9413 420.704 52.408C420.134 52.8653 419.378 53.094 418.436 53.094L418.338 53.164H416.07V57H414.95V47.76H418.45ZM418.436 52.114C419.098 52.114 419.588 51.9787 419.906 51.708C420.232 51.428 420.396 51.0127 420.396 50.462C420.396 49.9113 420.232 49.5007 419.906 49.23C419.588 48.95 419.098 48.81 418.436 48.81H416.07V52.114H418.436ZM419.08 52.338L422.132 57H420.802L418.142 52.954L419.08 52.338ZM426.744 57.14C426.081 57.14 425.488 56.9953 424.966 56.706C424.452 56.4167 424.051 56.0013 423.762 55.46C423.472 54.9093 423.328 54.256 423.328 53.5C423.328 52.744 423.472 52.0953 423.762 51.554C424.051 51.0033 424.448 50.5833 424.952 50.294C425.456 50.0047 426.03 49.86 426.674 49.86C427.327 49.86 427.882 50 428.34 50.28C428.806 50.56 429.161 50.9427 429.404 51.428C429.646 51.904 429.768 52.4407 429.768 53.038C429.768 53.1967 429.763 53.3413 429.754 53.472C429.744 53.6027 429.73 53.7193 429.712 53.822H424.056V52.828H429.222L428.648 52.94C428.648 52.268 428.461 51.75 428.088 51.386C427.724 51.022 427.243 50.84 426.646 50.84C426.188 50.84 425.792 50.9473 425.456 51.162C425.129 51.3673 424.872 51.6707 424.686 52.072C424.508 52.464 424.42 52.94 424.42 53.5C424.42 54.0507 424.513 54.5267 424.7 54.928C424.886 55.3293 425.148 55.6373 425.484 55.852C425.829 56.0573 426.24 56.16 426.716 56.16C427.229 56.16 427.644 56.062 427.962 55.866C428.288 55.67 428.55 55.404 428.746 55.068L429.628 55.586C429.45 55.9033 429.222 56.1787 428.942 56.412C428.671 56.6453 428.349 56.8273 427.976 56.958C427.612 57.0793 427.201 57.14 426.744 57.14ZM434.418 57.14C433.736 57.14 433.106 56.9953 432.528 56.706C431.958 56.4167 431.52 56.006 431.212 55.474L432.164 54.788C432.369 55.2173 432.668 55.5533 433.06 55.796C433.461 56.0387 433.942 56.16 434.502 56.16C434.996 56.16 435.384 56.0667 435.664 55.88C435.944 55.684 436.084 55.432 436.084 55.124C436.084 54.928 436.018 54.7507 435.888 54.592C435.766 54.424 435.528 54.3027 435.174 54.228L433.494 53.878C432.812 53.738 432.322 53.5047 432.024 53.178C431.734 52.8513 431.59 52.4453 431.59 51.96C431.59 51.5773 431.697 51.2273 431.912 50.91C432.136 50.5927 432.448 50.3407 432.85 50.154C433.26 49.958 433.741 49.86 434.292 49.86C434.982 49.86 435.566 49.9953 436.042 50.266C436.518 50.5367 436.872 50.9193 437.106 51.414L436.168 52.03C436.009 51.6193 435.752 51.3207 435.398 51.134C435.043 50.938 434.674 50.84 434.292 50.84C433.956 50.84 433.666 50.8867 433.424 50.98C433.19 51.0733 433.008 51.204 432.878 51.372C432.756 51.5307 432.696 51.7127 432.696 51.918C432.696 52.1233 432.766 52.3147 432.906 52.492C433.046 52.66 433.307 52.7813 433.69 52.856L435.44 53.22C436.093 53.3507 436.55 53.5653 436.812 53.864C437.073 54.1627 437.204 54.5267 437.204 54.956C437.204 55.3947 437.087 55.782 436.854 56.118C436.62 56.4447 436.294 56.6967 435.874 56.874C435.454 57.0513 434.968 57.14 434.418 57.14ZM442.207 57.14C441.544 57.14 440.951 56.9953 440.429 56.706C439.915 56.4167 439.514 56.0013 439.225 55.46C438.935 54.9093 438.791 54.256 438.791 53.5C438.791 52.744 438.935 52.0953 439.225 51.554C439.514 51.0033 439.911 50.5833 440.415 50.294C440.919 50.0047 441.493 49.86 442.137 49.86C442.79 49.86 443.345 50 443.803 50.28C444.269 50.56 444.624 50.9427 444.867 51.428C445.109 51.904 445.231 52.4407 445.231 53.038C445.231 53.1967 445.226 53.3413 445.217 53.472C445.207 53.6027 445.193 53.7193 445.175 53.822H439.519V52.828H444.685L444.111 52.94C444.111 52.268 443.924 51.75 443.551 51.386C443.187 51.022 442.706 50.84 442.109 50.84C441.651 50.84 441.255 50.9473 440.919 51.162C440.592 51.3673 440.335 51.6707 440.149 52.072C439.971 52.464 439.883 52.94 439.883 53.5C439.883 54.0507 439.976 54.5267 440.163 54.928C440.349 55.3293 440.611 55.6373 440.947 55.852C441.292 56.0573 441.703 56.16 442.179 56.16C442.692 56.16 443.107 56.062 443.425 55.866C443.751 55.67 444.013 55.404 444.209 55.068L445.091 55.586C444.913 55.9033 444.685 56.1787 444.405 56.412C444.134 56.6453 443.812 56.8273 443.439 56.958C443.075 57.0793 442.664 57.14 442.207 57.14ZM451.449 52.478C451.449 51.9553 451.309 51.554 451.029 51.274C450.749 50.9847 450.352 50.84 449.839 50.84C449.353 50.84 448.943 50.9473 448.607 51.162C448.271 51.3673 448.023 51.7033 447.865 52.17L446.955 51.61C447.141 51.0873 447.487 50.6673 447.991 50.35C448.495 50.0233 449.12 49.86 449.867 49.86C450.371 49.86 450.828 49.9487 451.239 50.126C451.649 50.294 451.971 50.5553 452.205 50.91C452.447 51.2553 452.569 51.7033 452.569 52.254V55.642C452.569 55.978 452.746 56.146 453.101 56.146C453.278 56.146 453.451 56.1227 453.619 56.076L453.563 56.958C453.376 57.0513 453.133 57.098 452.835 57.098C452.564 57.098 452.321 57.0467 452.107 56.944C451.892 56.8413 451.724 56.6873 451.603 56.482C451.481 56.2673 451.421 56.0013 451.421 55.684V55.544L451.701 55.586C451.589 55.95 451.397 56.2487 451.127 56.482C450.856 56.706 450.553 56.874 450.217 56.986C449.881 57.0887 449.549 57.14 449.223 57.14C448.812 57.14 448.429 57.07 448.075 56.93C447.72 56.79 447.435 56.58 447.221 56.3C447.015 56.0107 446.913 55.656 446.913 55.236C446.913 54.7133 447.085 54.284 447.431 53.948C447.785 53.6027 448.275 53.3693 448.901 53.248L451.673 52.702V53.626L449.419 54.088C448.961 54.1813 448.621 54.312 448.397 54.48C448.173 54.648 448.061 54.8813 448.061 55.18C448.061 55.4693 448.173 55.7073 448.397 55.894C448.63 56.0713 448.957 56.16 449.377 56.16C449.647 56.16 449.904 56.1273 450.147 56.062C450.399 55.9873 450.623 55.88 450.819 55.74C451.015 55.5907 451.169 55.4087 451.281 55.194C451.393 54.97 451.449 54.7087 451.449 54.41V52.478ZM455.29 57V50H456.2L456.354 51.148C456.55 50.7187 456.835 50.3967 457.208 50.182C457.591 49.9673 458.053 49.86 458.594 49.86C458.716 49.86 458.846 49.8693 458.986 49.888C459.136 49.9067 459.262 49.944 459.364 50L459.168 51.022C459.066 50.9847 458.954 50.9567 458.832 50.938C458.711 50.9193 458.538 50.91 458.314 50.91C458.025 50.91 457.731 50.994 457.432 51.162C457.143 51.33 456.9 51.5867 456.704 51.932C456.508 52.268 456.41 52.6973 456.41 53.22V57H455.29ZM463.684 49.86C464.17 49.86 464.594 49.9347 464.958 50.084C465.332 50.2333 465.654 50.448 465.924 50.728C466.195 51.008 466.414 51.3393 466.582 51.722L465.518 52.226C465.369 51.778 465.14 51.4373 464.832 51.204C464.534 50.9613 464.142 50.84 463.656 50.84C463.19 50.84 462.788 50.9473 462.452 51.162C462.116 51.3673 461.86 51.6707 461.682 52.072C461.505 52.464 461.416 52.94 461.416 53.5C461.416 54.0507 461.505 54.5267 461.682 54.928C461.86 55.3293 462.116 55.6373 462.452 55.852C462.788 56.0573 463.19 56.16 463.656 56.16C464.02 56.16 464.333 56.104 464.594 55.992C464.865 55.88 465.084 55.7167 465.252 55.502C465.43 55.2873 465.551 55.026 465.616 54.718L466.652 55.082C466.494 55.5113 466.274 55.88 465.994 56.188C465.724 56.496 465.392 56.734 465 56.902C464.618 57.0607 464.179 57.14 463.684 57.14C463.031 57.14 462.448 56.9953 461.934 56.706C461.421 56.4167 461.02 56.0013 460.73 55.46C460.441 54.9093 460.296 54.256 460.296 53.5C460.296 52.744 460.441 52.0953 460.73 51.554C461.02 51.0033 461.421 50.5833 461.934 50.294C462.448 50.0047 463.031 49.86 463.684 49.86ZM468.62 57V46.78H469.74V51.05C469.983 50.63 470.305 50.3267 470.706 50.14C471.108 49.9533 471.546 49.86 472.022 49.86C472.526 49.86 472.984 49.958 473.394 50.154C473.805 50.3407 474.132 50.63 474.374 51.022C474.626 51.414 474.752 51.9133 474.752 52.52V57H473.632V52.912C473.632 52.1373 473.464 51.6007 473.128 51.302C472.802 50.994 472.396 50.84 471.91 50.84C471.574 50.84 471.238 50.9193 470.902 51.078C470.566 51.2367 470.286 51.498 470.062 51.862C469.848 52.2167 469.74 52.6927 469.74 53.29V57H468.62Z" fill="#454545"/>
<mask id="path-12-inside-3_10_12936" fill="white">
<path d="M504 0H771V80H504V0Z"/>
</mask>
<path d="M504 0H771V80H504V0Z" fill="white"/>
<path d="M504 12H771V-12H504V12Z" fill="#F89B1B" mask="url(#path-12-inside-3_10_12936)"/>
<circle cx="530" cy="44" r="8" fill="#BDBDBD"/>
<path d="M561 40.5H556V38.5H561V40.5ZM561 43.5H556V45.5H561V43.5ZM574.59 50.5L570.76 46.67C569.96 47.19 569.02 47.5 568 47.5C565.24 47.5 563 45.26 563 42.5C563 39.74 565.24 37.5 568 37.5C570.76 37.5 573 39.74 573 42.5C573 43.52 572.69 44.46 572.17 45.25L576 49.09L574.59 50.5ZM571 42.5C571 40.85 569.65 39.5 568 39.5C566.35 39.5 565 40.85 565 42.5C565 44.15 566.35 45.5 568 45.5C569.65 45.5 571 44.15 571 42.5ZM556 50.5H566V48.5H556V50.5Z" fill="#454545"/>
<path d="M593.608 36H592.588L591.748 33.804H588.16L587.32 36H586.312L589.396 28.08H590.536L593.608 36ZM588.508 32.904H591.4L589.948 29.004L588.508 32.904ZM595.358 36V30H596.138L596.27 30.984C596.438 30.616 596.682 30.34 597.002 30.156C597.33 29.972 597.726 29.88 598.19 29.88C598.294 29.88 598.406 29.888 598.526 29.904C598.654 29.92 598.762 29.952 598.85 30L598.682 30.876C598.594 30.844 598.498 30.82 598.394 30.804C598.29 30.788 598.142 30.78 597.95 30.78C597.702 30.78 597.45 30.852 597.194 30.996C596.946 31.14 596.738 31.36 596.57 31.656C596.402 31.944 596.318 32.312 596.318 32.76V36H595.358ZM601.629 28.296V34.344C601.629 34.64 601.713 34.86 601.881 35.004C602.049 35.148 602.265 35.22 602.529 35.22C602.761 35.22 602.961 35.18 603.129 35.1C603.297 35.02 603.449 34.912 603.585 34.776L603.921 35.58C603.737 35.748 603.517 35.88 603.261 35.976C603.013 36.072 602.725 36.12 602.397 36.12C602.093 36.12 601.809 36.068 601.545 35.964C601.281 35.852 601.069 35.68 600.909 35.448C600.757 35.208 600.677 34.896 600.669 34.512V28.56L601.629 28.296ZM603.813 30V30.828H599.469V30H603.813ZM606.04 28.848C605.824 28.848 605.648 28.784 605.512 28.656C605.384 28.52 605.32 28.344 605.32 28.128C605.32 27.912 605.384 27.74 605.512 27.612C605.648 27.476 605.824 27.408 606.04 27.408C606.256 27.408 606.428 27.476 606.556 27.612C606.692 27.74 606.76 27.912 606.76 28.128C606.76 28.344 606.692 28.52 606.556 28.656C606.428 28.784 606.256 28.848 606.04 28.848ZM606.52 30V36H605.56V30H606.52ZM611.504 27.18C611.712 27.18 611.908 27.204 612.092 27.252C612.276 27.3 612.42 27.368 612.524 27.456L612.272 28.236C612.176 28.172 612.072 28.128 611.96 28.104C611.848 28.072 611.724 28.056 611.588 28.056C611.244 28.056 610.976 28.14 610.784 28.308C610.592 28.468 610.496 28.728 610.496 29.088V30V30.312V36H609.536V28.992C609.536 28.728 609.576 28.484 609.656 28.26C609.736 28.036 609.856 27.844 610.016 27.684C610.184 27.524 610.392 27.4 610.64 27.312C610.888 27.224 611.176 27.18 611.504 27.18ZM612.5 30V30.828H608.336V30H612.5ZM617.24 32.124C617.24 31.676 617.12 31.332 616.88 31.092C616.64 30.844 616.3 30.72 615.86 30.72C615.444 30.72 615.092 30.812 614.804 30.996C614.516 31.172 614.304 31.46 614.168 31.86L613.388 31.38C613.548 30.932 613.844 30.572 614.276 30.3C614.708 30.02 615.244 29.88 615.884 29.88C616.316 29.88 616.708 29.956 617.06 30.108C617.412 30.252 617.688 30.476 617.888 30.78C618.096 31.076 618.2 31.46 618.2 31.932V34.836C618.2 35.124 618.352 35.268 618.656 35.268C618.808 35.268 618.956 35.248 619.1 35.208L619.052 35.964C618.892 36.044 618.684 36.084 618.428 36.084C618.196 36.084 617.988 36.04 617.804 35.952C617.62 35.864 617.476 35.732 617.372 35.556C617.268 35.372 617.216 35.144 617.216 34.872V34.752L617.456 34.788C617.36 35.1 617.196 35.356 616.964 35.556C616.732 35.748 616.472 35.892 616.184 35.988C615.896 36.076 615.612 36.12 615.332 36.12C614.98 36.12 614.652 36.06 614.348 35.94C614.044 35.82 613.8 35.64 613.616 35.4C613.44 35.152 613.352 34.848 613.352 34.488C613.352 34.04 613.5 33.672 613.796 33.384C614.1 33.088 614.52 32.888 615.056 32.784L617.432 32.316V33.108L615.5 33.504C615.108 33.584 614.816 33.696 614.624 33.84C614.432 33.984 614.336 34.184 614.336 34.44C614.336 34.688 614.432 34.892 614.624 35.052C614.824 35.204 615.104 35.28 615.464 35.28C615.696 35.28 615.916 35.252 616.124 35.196C616.34 35.132 616.532 35.04 616.7 34.92C616.868 34.792 617 34.636 617.096 34.452C617.192 34.26 617.24 34.036 617.24 33.78V32.124ZM623.336 29.88C623.752 29.88 624.116 29.944 624.428 30.072C624.748 30.2 625.024 30.384 625.256 30.624C625.488 30.864 625.676 31.148 625.82 31.476L624.908 31.908C624.78 31.524 624.584 31.232 624.32 31.032C624.064 30.824 623.728 30.72 623.312 30.72C622.912 30.72 622.568 30.812 622.28 30.996C621.992 31.172 621.772 31.432 621.62 31.776C621.468 32.112 621.392 32.52 621.392 33C621.392 33.472 621.468 33.88 621.62 34.224C621.772 34.568 621.992 34.832 622.28 35.016C622.568 35.192 622.912 35.28 623.312 35.28C623.624 35.28 623.892 35.232 624.116 35.136C624.348 35.04 624.536 34.9 624.68 34.716C624.832 34.532 624.936 34.308 624.992 34.044L625.88 34.356C625.744 34.724 625.556 35.04 625.316 35.304C625.084 35.568 624.8 35.772 624.464 35.916C624.136 36.052 623.76 36.12 623.336 36.12C622.776 36.12 622.276 35.996 621.836 35.748C621.396 35.5 621.052 35.144 620.804 34.68C620.556 34.208 620.432 33.648 620.432 33C620.432 32.352 620.556 31.796 620.804 31.332C621.052 30.86 621.396 30.5 621.836 30.252C622.276 30.004 622.776 29.88 623.336 29.88ZM629.303 28.296V34.344C629.303 34.64 629.387 34.86 629.555 35.004C629.723 35.148 629.939 35.22 630.203 35.22C630.435 35.22 630.635 35.18 630.803 35.1C630.971 35.02 631.123 34.912 631.259 34.776L631.595 35.58C631.411 35.748 631.191 35.88 630.935 35.976C630.687 36.072 630.399 36.12 630.071 36.12C629.767 36.12 629.483 36.068 629.219 35.964C628.955 35.852 628.743 35.68 628.583 35.448C628.431 35.208 628.351 34.896 628.343 34.512V28.56L629.303 28.296ZM631.487 30V30.828H627.143V30H631.487ZM635.395 36.12C634.811 36.12 634.271 35.996 633.775 35.748C633.287 35.5 632.911 35.148 632.647 34.692L633.463 34.104C633.639 34.472 633.895 34.76 634.231 34.968C634.575 35.176 634.987 35.28 635.467 35.28C635.891 35.28 636.223 35.2 636.463 35.04C636.703 34.872 636.823 34.656 636.823 34.392C636.823 34.224 636.767 34.072 636.655 33.936C636.551 33.792 636.347 33.688 636.043 33.624L634.603 33.324C634.019 33.204 633.599 33.004 633.343 32.724C633.095 32.444 632.971 32.096 632.971 31.68C632.971 31.352 633.063 31.052 633.247 30.78C633.439 30.508 633.707 30.292 634.051 30.132C634.403 29.964 634.815 29.88 635.287 29.88C635.879 29.88 636.379 29.996 636.787 30.228C637.195 30.46 637.499 30.788 637.699 31.212L636.895 31.74C636.759 31.388 636.539 31.132 636.235 30.972C635.931 30.804 635.615 30.72 635.287 30.72C634.999 30.72 634.751 30.76 634.543 30.84C634.343 30.92 634.187 31.032 634.075 31.176C633.971 31.312 633.919 31.468 633.919 31.644C633.919 31.82 633.979 31.984 634.099 32.136C634.219 32.28 634.443 32.384 634.771 32.448L636.271 32.76C636.831 32.872 637.223 33.056 637.447 33.312C637.671 33.568 637.783 33.88 637.783 34.248C637.783 34.624 637.683 34.956 637.483 35.244C637.283 35.524 637.003 35.74 636.643 35.892C636.283 36.044 635.867 36.12 635.395 36.12ZM645.433 28.08V36H644.473V28.08H645.433ZM649.303 28.08V36H648.343V28.08H649.303Z" fill="#707070"/>
<path d="M588.632 47.76V57H587.512V47.76H588.632ZM591.376 57V50H592.356L592.454 51.568L592.272 51.414C592.422 51.0407 592.622 50.742 592.874 50.518C593.126 50.2847 593.416 50.1167 593.742 50.014C594.078 49.9113 594.424 49.86 594.778 49.86C595.282 49.86 595.74 49.958 596.15 50.154C596.561 50.3407 596.888 50.63 597.13 51.022C597.382 51.414 597.508 51.9133 597.508 52.52V57H596.388V52.912C596.388 52.1373 596.22 51.6007 595.884 51.302C595.558 50.994 595.152 50.84 594.666 50.84C594.33 50.84 593.994 50.9193 593.658 51.078C593.322 51.2367 593.042 51.4933 592.818 51.848C592.604 52.2027 592.496 52.6787 592.496 53.276V57H591.376ZM604.5 50H605.676L602.764 57H601.644L598.732 50H600.006L602.218 55.866L604.5 50ZM610.066 57.14C609.403 57.14 608.811 56.9953 608.288 56.706C607.775 56.4167 607.373 56.0013 607.084 55.46C606.795 54.9093 606.65 54.256 606.65 53.5C606.65 52.744 606.795 52.0953 607.084 51.554C607.373 51.0033 607.77 50.5833 608.274 50.294C608.778 50.0047 609.352 49.86 609.996 49.86C610.649 49.86 611.205 50 611.662 50.28C612.129 50.56 612.483 50.9427 612.726 51.428C612.969 51.904 613.09 52.4407 613.09 53.038C613.09 53.1967 613.085 53.3413 613.076 53.472C613.067 53.6027 613.053 53.7193 613.034 53.822H607.378V52.828H612.544L611.97 52.94C611.97 52.268 611.783 51.75 611.41 51.386C611.046 51.022 610.565 50.84 609.968 50.84C609.511 50.84 609.114 50.9473 608.778 51.162C608.451 51.3673 608.195 51.6707 608.008 52.072C607.831 52.464 607.742 52.94 607.742 53.5C607.742 54.0507 607.835 54.5267 608.022 54.928C608.209 55.3293 608.47 55.6373 608.806 55.852C609.151 56.0573 609.562 56.16 610.038 56.16C610.551 56.16 610.967 56.062 611.284 55.866C611.611 55.67 611.872 55.404 612.068 55.068L612.95 55.586C612.773 55.9033 612.544 56.1787 612.264 56.412C611.993 56.6453 611.671 56.8273 611.298 56.958C610.934 57.0793 610.523 57.14 610.066 57.14ZM617.74 57.14C617.059 57.14 616.429 56.9953 615.85 56.706C615.281 56.4167 614.842 56.006 614.534 55.474L615.486 54.788C615.691 55.2173 615.99 55.5533 616.382 55.796C616.783 56.0387 617.264 56.16 617.824 56.16C618.319 56.16 618.706 56.0667 618.986 55.88C619.266 55.684 619.406 55.432 619.406 55.124C619.406 54.928 619.341 54.7507 619.21 54.592C619.089 54.424 618.851 54.3027 618.496 54.228L616.816 53.878C616.135 53.738 615.645 53.5047 615.346 53.178C615.057 52.8513 614.912 52.4453 614.912 51.96C614.912 51.5773 615.019 51.2273 615.234 50.91C615.458 50.5927 615.771 50.3407 616.172 50.154C616.583 49.958 617.063 49.86 617.614 49.86C618.305 49.86 618.888 49.9953 619.364 50.266C619.84 50.5367 620.195 50.9193 620.428 51.414L619.49 52.03C619.331 51.6193 619.075 51.3207 618.72 51.134C618.365 50.938 617.997 50.84 617.614 50.84C617.278 50.84 616.989 50.8867 616.746 50.98C616.513 51.0733 616.331 51.204 616.2 51.372C616.079 51.5307 616.018 51.7127 616.018 51.918C616.018 52.1233 616.088 52.3147 616.228 52.492C616.368 52.66 616.629 52.7813 617.012 52.856L618.762 53.22C619.415 53.3507 619.873 53.5653 620.134 53.864C620.395 54.1627 620.526 54.5267 620.526 54.956C620.526 55.3947 620.409 55.782 620.176 56.118C619.943 56.4447 619.616 56.6967 619.196 56.874C618.776 57.0513 618.291 57.14 617.74 57.14ZM624.255 48.012V55.068C624.255 55.4133 624.353 55.67 624.549 55.838C624.745 56.006 624.997 56.09 625.305 56.09C625.575 56.09 625.809 56.0433 626.005 55.95C626.201 55.8567 626.378 55.7307 626.537 55.572L626.929 56.51C626.714 56.706 626.457 56.86 626.159 56.972C625.869 57.084 625.533 57.14 625.151 57.14C624.796 57.14 624.465 57.0793 624.157 56.958C623.849 56.8273 623.601 56.6267 623.415 56.356C623.237 56.076 623.144 55.712 623.135 55.264V48.32L624.255 48.012ZM626.803 50V50.966H621.735V50H626.803ZM629.028 48.656C628.776 48.656 628.571 48.5813 628.412 48.432C628.263 48.2733 628.188 48.068 628.188 47.816C628.188 47.564 628.263 47.3633 628.412 47.214C628.571 47.0553 628.776 46.976 629.028 46.976C629.28 46.976 629.481 47.0553 629.63 47.214C629.789 47.3633 629.868 47.564 629.868 47.816C629.868 48.068 629.789 48.2733 629.63 48.432C629.481 48.5813 629.28 48.656 629.028 48.656ZM629.588 50V57H628.468V50H629.588ZM638.081 48.712L638.333 49.706C638.323 49.706 638.309 49.706 638.291 49.706C638.272 49.706 638.253 49.706 638.235 49.706C637.777 49.706 637.423 49.7993 637.171 49.986C636.928 50.1633 636.807 50.4527 636.807 50.854L636.121 50.504C636.121 50.14 636.205 49.8227 636.373 49.552C636.541 49.2813 636.769 49.076 637.059 48.936C637.348 48.7867 637.665 48.712 638.011 48.712C638.02 48.712 638.029 48.712 638.039 48.712C638.057 48.712 638.071 48.712 638.081 48.712ZM635.953 56.104C636.615 56.104 637.133 56.258 637.507 56.566C637.88 56.8647 638.067 57.266 638.067 57.77C638.067 58.2273 637.913 58.624 637.605 58.96C637.306 59.296 636.9 59.5527 636.387 59.73C635.883 59.9167 635.313 60.01 634.679 60.01C633.577 60.01 632.751 59.8233 632.201 59.45C631.659 59.0767 631.389 58.6287 631.389 58.106C631.389 57.7327 631.51 57.3967 631.753 57.098C632.005 56.8087 632.425 56.6453 633.013 56.608L632.915 56.818C632.597 56.734 632.327 56.594 632.103 56.398C631.888 56.1927 631.781 55.8987 631.781 55.516C631.781 55.1333 631.921 54.8067 632.201 54.536C632.49 54.256 632.915 54.0833 633.475 54.018L634.217 54.396H634.077C633.619 54.4427 633.293 54.5593 633.097 54.746C632.91 54.9233 632.817 55.1193 632.817 55.334C632.817 55.5953 632.91 55.7913 633.097 55.922C633.293 56.0433 633.563 56.104 633.909 56.104H635.953ZM634.665 59.072C635.206 59.072 635.649 59.016 635.995 58.904C636.349 58.792 636.611 58.6473 636.779 58.47C636.947 58.2927 637.031 58.1013 637.031 57.896C637.031 57.644 636.928 57.4433 636.723 57.294C636.527 57.1447 636.167 57.07 635.645 57.07H633.489C633.19 57.07 632.938 57.1447 632.733 57.294C632.527 57.4527 632.425 57.6673 632.425 57.938C632.425 58.2833 632.621 58.5587 633.013 58.764C633.414 58.9693 633.965 59.072 634.665 59.072ZM634.567 49.86C635.127 49.86 635.621 49.9627 636.051 50.168C636.489 50.364 636.83 50.6393 637.073 50.994C637.315 51.3487 637.437 51.7593 637.437 52.226C637.437 52.6833 637.315 53.094 637.073 53.458C636.83 53.8127 636.489 54.0927 636.051 54.298C635.621 54.494 635.127 54.592 634.567 54.592C633.643 54.592 632.933 54.3727 632.439 53.934C631.944 53.486 631.697 52.9167 631.697 52.226C631.697 51.7593 631.818 51.3487 632.061 50.994C632.313 50.6393 632.653 50.364 633.083 50.168C633.512 49.9627 634.007 49.86 634.567 49.86ZM634.567 50.77C634.081 50.77 633.675 50.9053 633.349 51.176C633.022 51.4373 632.859 51.7873 632.859 52.226C632.859 52.6553 633.022 53.0053 633.349 53.276C633.675 53.5467 634.081 53.682 634.567 53.682C635.052 53.682 635.458 53.5467 635.785 53.276C636.111 53.0053 636.275 52.6553 636.275 52.226C636.275 51.7873 636.111 51.4373 635.785 51.176C635.458 50.9053 635.052 50.77 634.567 50.77ZM643.726 52.478C643.726 51.9553 643.586 51.554 643.306 51.274C643.026 50.9847 642.629 50.84 642.116 50.84C641.631 50.84 641.22 50.9473 640.884 51.162C640.548 51.3673 640.301 51.7033 640.142 52.17L639.232 51.61C639.419 51.0873 639.764 50.6673 640.268 50.35C640.772 50.0233 641.397 49.86 642.144 49.86C642.648 49.86 643.105 49.9487 643.516 50.126C643.927 50.294 644.249 50.5553 644.482 50.91C644.725 51.2553 644.846 51.7033 644.846 52.254V55.642C644.846 55.978 645.023 56.146 645.378 56.146C645.555 56.146 645.728 56.1227 645.896 56.076L645.84 56.958C645.653 57.0513 645.411 57.098 645.112 57.098C644.841 57.098 644.599 57.0467 644.384 56.944C644.169 56.8413 644.001 56.6873 643.88 56.482C643.759 56.2673 643.698 56.0013 643.698 55.684V55.544L643.978 55.586C643.866 55.95 643.675 56.2487 643.404 56.482C643.133 56.706 642.83 56.874 642.494 56.986C642.158 57.0887 641.827 57.14 641.5 57.14C641.089 57.14 640.707 57.07 640.352 56.93C639.997 56.79 639.713 56.58 639.498 56.3C639.293 56.0107 639.19 55.656 639.19 55.236C639.19 54.7133 639.363 54.284 639.708 53.948C640.063 53.6027 640.553 53.3693 641.178 53.248L643.95 52.702V53.626L641.696 54.088C641.239 54.1813 640.898 54.312 640.674 54.48C640.45 54.648 640.338 54.8813 640.338 55.18C640.338 55.4693 640.45 55.7073 640.674 55.894C640.907 56.0713 641.234 56.16 641.654 56.16C641.925 56.16 642.181 56.1273 642.424 56.062C642.676 55.9873 642.9 55.88 643.096 55.74C643.292 55.5907 643.446 55.4087 643.558 55.194C643.67 54.97 643.726 54.7087 643.726 54.41V52.478ZM648.946 48.012V55.068C648.946 55.4133 649.044 55.67 649.24 55.838C649.436 56.006 649.688 56.09 649.996 56.09C650.267 56.09 650.5 56.0433 650.696 55.95C650.892 55.8567 651.07 55.7307 651.228 55.572L651.62 56.51C651.406 56.706 651.149 56.86 650.85 56.972C650.561 57.084 650.225 57.14 649.842 57.14C649.488 57.14 649.156 57.0793 648.848 56.958C648.54 56.8273 648.293 56.6267 648.106 56.356C647.929 56.076 647.836 55.712 647.826 55.264V48.32L648.946 48.012ZM651.494 50V50.966H646.426V50H651.494ZM656.085 57.14C655.423 57.14 654.83 56.9953 654.307 56.706C653.794 56.4167 653.393 56.0013 653.103 55.46C652.814 54.9093 652.669 54.256 652.669 53.5C652.669 52.744 652.814 52.0953 653.103 51.554C653.393 51.0033 653.789 50.5833 654.293 50.294C654.797 50.0047 655.371 49.86 656.015 49.86C656.669 49.86 657.224 50 657.681 50.28C658.148 50.56 658.503 50.9427 658.745 51.428C658.988 51.904 659.109 52.4407 659.109 53.038C659.109 53.1967 659.105 53.3413 659.095 53.472C659.086 53.6027 659.072 53.7193 659.053 53.822H653.397V52.828H658.563L657.989 52.94C657.989 52.268 657.803 51.75 657.429 51.386C657.065 51.022 656.585 50.84 655.987 50.84C655.53 50.84 655.133 50.9473 654.797 51.162C654.471 51.3673 654.214 51.6707 654.027 52.072C653.85 52.464 653.761 52.94 653.761 53.5C653.761 54.0507 653.855 54.5267 654.041 54.928C654.228 55.3293 654.489 55.6373 654.825 55.852C655.171 56.0573 655.581 56.16 656.057 56.16C656.571 56.16 656.986 56.062 657.303 55.866C657.63 55.67 657.891 55.404 658.087 55.068L658.969 55.586C658.792 55.9033 658.563 56.1787 658.283 56.412C658.013 56.6453 657.691 56.8273 657.317 56.958C656.953 57.0793 656.543 57.14 656.085 57.14ZM667.39 48.012V55.068C667.39 55.4133 667.488 55.67 667.684 55.838C667.88 56.006 668.132 56.09 668.44 56.09C668.71 56.09 668.944 56.0433 669.14 55.95C669.336 55.8567 669.513 55.7307 669.672 55.572L670.064 56.51C669.849 56.706 669.592 56.86 669.294 56.972C669.004 57.084 668.668 57.14 668.286 57.14C667.931 57.14 667.6 57.0793 667.292 56.958C666.984 56.8273 666.736 56.6267 666.55 56.356C666.372 56.076 666.279 55.712 666.27 55.264V48.32L667.39 48.012ZM669.938 50V50.966H664.87V50H669.938ZM671.603 57V46.78H672.723V51.05C672.965 50.63 673.287 50.3267 673.689 50.14C674.09 49.9533 674.529 49.86 675.005 49.86C675.509 49.86 675.966 49.958 676.377 50.154C676.787 50.3407 677.114 50.63 677.357 51.022C677.609 51.414 677.735 51.9133 677.735 52.52V57H676.615V52.912C676.615 52.1373 676.447 51.6007 676.111 51.302C675.784 50.994 675.378 50.84 674.893 50.84C674.557 50.84 674.221 50.9193 673.885 51.078C673.549 51.2367 673.269 51.498 673.045 51.862C672.83 52.2167 672.723 52.6927 672.723 53.29V57H671.603ZM683.197 57.14C682.534 57.14 681.941 56.9953 681.419 56.706C680.905 56.4167 680.504 56.0013 680.215 55.46C679.925 54.9093 679.781 54.256 679.781 53.5C679.781 52.744 679.925 52.0953 680.215 51.554C680.504 51.0033 680.901 50.5833 681.405 50.294C681.909 50.0047 682.483 49.86 683.127 49.86C683.78 49.86 684.335 50 684.793 50.28C685.259 50.56 685.614 50.9427 685.857 51.428C686.099 51.904 686.221 52.4407 686.221 53.038C686.221 53.1967 686.216 53.3413 686.207 53.472C686.197 53.6027 686.183 53.7193 686.165 53.822H680.509V52.828H685.675L685.101 52.94C685.101 52.268 684.914 51.75 684.541 51.386C684.177 51.022 683.696 50.84 683.099 50.84C682.641 50.84 682.245 50.9473 681.909 51.162C681.582 51.3673 681.325 51.6707 681.139 52.072C680.961 52.464 680.873 52.94 680.873 53.5C680.873 54.0507 680.966 54.5267 681.153 54.928C681.339 55.3293 681.601 55.6373 681.937 55.852C682.282 56.0573 682.693 56.16 683.169 56.16C683.682 56.16 684.097 56.062 684.415 55.866C684.741 55.67 685.003 55.404 685.199 55.068L686.081 55.586C685.903 55.9033 685.675 56.1787 685.395 56.412C685.124 56.6453 684.802 56.8273 684.429 56.958C684.065 57.0793 683.654 57.14 683.197 57.14ZM693.332 57V47.76H699.814V48.81H694.452V51.792H698.624V52.842H694.452V55.95H700.024V57H693.332ZM706.233 50H707.409L704.497 57H703.377L700.465 50H701.739L703.951 55.866L706.233 50ZM709.432 48.656C709.18 48.656 708.975 48.5813 708.816 48.432C708.667 48.2733 708.592 48.068 708.592 47.816C708.592 47.564 708.667 47.3633 708.816 47.214C708.975 47.0553 709.18 46.976 709.432 46.976C709.684 46.976 709.885 47.0553 710.034 47.214C710.193 47.3633 710.272 47.564 710.272 47.816C710.272 48.068 710.193 48.2733 710.034 48.432C709.885 48.5813 709.684 48.656 709.432 48.656ZM709.992 50V57H708.872V50H709.992ZM715.321 57.14C714.742 57.14 714.21 56.9953 713.725 56.706C713.24 56.4167 712.852 56.0013 712.563 55.46C712.274 54.9093 712.129 54.256 712.129 53.5C712.129 52.7253 712.283 52.0673 712.591 51.526C712.899 50.9847 713.305 50.574 713.809 50.294C714.313 50.0047 714.854 49.86 715.433 49.86C716.012 49.86 716.511 50.0093 716.931 50.308C717.36 50.6067 717.645 51.0033 717.785 51.498L717.645 51.596V46.78H718.765V57H717.785L717.687 55.306L717.841 55.222C717.776 55.6327 717.617 55.9827 717.365 56.272C717.122 56.552 716.819 56.7667 716.455 56.916C716.1 57.0653 715.722 57.14 715.321 57.14ZM715.433 56.16C715.881 56.16 716.268 56.048 716.595 55.824C716.931 55.6 717.188 55.2827 717.365 54.872C717.552 54.452 717.645 53.962 717.645 53.402C717.645 52.87 717.552 52.4127 717.365 52.03C717.188 51.6473 716.936 51.3533 716.609 51.148C716.292 50.9427 715.918 50.84 715.489 50.84C714.78 50.84 714.229 51.0827 713.837 51.568C713.445 52.0533 713.249 52.6973 713.249 53.5C713.249 54.3027 713.44 54.9467 713.823 55.432C714.206 55.9173 714.742 56.16 715.433 56.16ZM724.294 57.14C723.632 57.14 723.039 56.9953 722.516 56.706C722.003 56.4167 721.602 56.0013 721.312 55.46C721.023 54.9093 720.878 54.256 720.878 53.5C720.878 52.744 721.023 52.0953 721.312 51.554C721.602 51.0033 721.998 50.5833 722.502 50.294C723.006 50.0047 723.58 49.86 724.224 49.86C724.878 49.86 725.433 50 725.89 50.28C726.357 50.56 726.712 50.9427 726.954 51.428C727.197 51.904 727.318 52.4407 727.318 53.038C727.318 53.1967 727.314 53.3413 727.304 53.472C727.295 53.6027 727.281 53.7193 727.262 53.822H721.606V52.828H726.772L726.198 52.94C726.198 52.268 726.012 51.75 725.638 51.386C725.274 51.022 724.794 50.84 724.196 50.84C723.739 50.84 723.342 50.9473 723.006 51.162C722.68 51.3673 722.423 51.6707 722.236 52.072C722.059 52.464 721.97 52.94 721.97 53.5C721.97 54.0507 722.064 54.5267 722.25 54.928C722.437 55.3293 722.698 55.6373 723.034 55.852C723.38 56.0573 723.79 56.16 724.266 56.16C724.78 56.16 725.195 56.062 725.512 55.866C725.839 55.67 726.1 55.404 726.296 55.068L727.178 55.586C727.001 55.9033 726.772 56.1787 726.492 56.412C726.222 56.6453 725.9 56.8273 725.526 56.958C725.162 57.0793 724.752 57.14 724.294 57.14ZM729.448 57V50H730.428L730.526 51.568L730.344 51.414C730.494 51.0407 730.694 50.742 730.946 50.518C731.198 50.2847 731.488 50.1167 731.814 50.014C732.15 49.9113 732.496 49.86 732.85 49.86C733.354 49.86 733.812 49.958 734.222 50.154C734.633 50.3407 734.96 50.63 735.202 51.022C735.454 51.414 735.58 51.9133 735.58 52.52V57H734.46V52.912C734.46 52.1373 734.292 51.6007 733.956 51.302C733.63 50.994 733.224 50.84 732.738 50.84C732.402 50.84 732.066 50.9193 731.73 51.078C731.394 51.2367 731.114 51.4933 730.89 51.848C730.676 52.2027 730.568 52.6787 730.568 53.276V57H729.448ZM741.014 49.86C741.5 49.86 741.924 49.9347 742.288 50.084C742.662 50.2333 742.984 50.448 743.254 50.728C743.525 51.008 743.744 51.3393 743.912 51.722L742.848 52.226C742.699 51.778 742.47 51.4373 742.162 51.204C741.864 50.9613 741.472 50.84 740.986 50.84C740.52 50.84 740.118 50.9473 739.782 51.162C739.446 51.3673 739.19 51.6707 739.012 52.072C738.835 52.464 738.746 52.94 738.746 53.5C738.746 54.0507 738.835 54.5267 739.012 54.928C739.19 55.3293 739.446 55.6373 739.782 55.852C740.118 56.0573 740.52 56.16 740.986 56.16C741.35 56.16 741.663 56.104 741.924 55.992C742.195 55.88 742.414 55.7167 742.582 55.502C742.76 55.2873 742.881 55.026 742.946 54.718L743.982 55.082C743.824 55.5113 743.604 55.88 743.324 56.188C743.054 56.496 742.722 56.734 742.33 56.902C741.948 57.0607 741.509 57.14 741.014 57.14C740.361 57.14 739.778 56.9953 739.264 56.706C738.751 56.4167 738.35 56.0013 738.06 55.46C737.771 54.9093 737.626 54.256 737.626 53.5C737.626 52.744 737.771 52.0953 738.06 51.554C738.35 51.0033 738.751 50.5833 739.264 50.294C739.778 50.0047 740.361 49.86 741.014 49.86ZM748.876 57.14C748.214 57.14 747.621 56.9953 747.098 56.706C746.585 56.4167 746.184 56.0013 745.894 55.46C745.605 54.9093 745.46 54.256 745.46 53.5C745.46 52.744 745.605 52.0953 745.894 51.554C746.184 51.0033 746.58 50.5833 747.084 50.294C747.588 50.0047 748.162 49.86 748.806 49.86C749.46 49.86 750.015 50 750.472 50.28C750.939 50.56 751.294 50.9427 751.536 51.428C751.779 51.904 751.9 52.4407 751.9 53.038C751.9 53.1967 751.896 53.3413 751.886 53.472C751.877 53.6027 751.863 53.7193 751.844 53.822H746.188V52.828H751.354L750.78 52.94C750.78 52.268 750.594 51.75 750.22 51.386C749.856 51.022 749.376 50.84 748.778 50.84C748.321 50.84 747.924 50.9473 747.588 51.162C747.262 51.3673 747.005 51.6707 746.818 52.072C746.641 52.464 746.552 52.94 746.552 53.5C746.552 54.0507 746.646 54.5267 746.832 54.928C747.019 55.3293 747.28 55.6373 747.616 55.852C747.962 56.0573 748.372 56.16 748.848 56.16C749.362 56.16 749.777 56.062 750.094 55.866C750.421 55.67 750.682 55.404 750.878 55.068L751.76 55.586C751.583 55.9033 751.354 56.1787 751.074 56.412C750.804 56.6453 750.482 56.8273 750.108 56.958C749.744 57.0793 749.334 57.14 748.876 57.14Z" fill="#454545"/>
<mask id="path-18-inside-4_10_12936" fill="white">
<path d="M771 0H1008V80H771V0Z"/>
</mask>
<path d="M771 0H1008V80H771V0Z" fill="white"/>
<path d="M771 12H1008V-12H771V12Z" fill="#009FDA" mask="url(#path-18-inside-4_10_12936)"/>
<circle cx="810" cy="44" r="8" fill="#BDBDBD"/>
<path d="M843 53C843 53.55 843.45 54 844 54H848C848.55 54 849 53.55 849 53V52H843V53ZM846 34C842.14 34 839 37.14 839 41C839 43.38 840.19 45.47 842 46.74V49C842 49.55 842.45 50 843 50H849C849.55 50 850 49.55 850 49V46.74C851.81 45.47 853 43.38 853 41C853 37.14 849.86 34 846 34ZM848.85 45.1L848 45.7V48H844V45.7L843.15 45.1C841.8 44.16 841 42.63 841 41C841 38.24 843.24 36 846 36C848.76 36 851 38.24 851 41C851 42.63 850.2 44.16 848.85 45.1Z" fill="#454545"/>
<path d="M868.256 35.1H872.792V36H867.296V28.08H868.256V35.1ZM878.112 32.124C878.112 31.676 877.992 31.332 877.752 31.092C877.512 30.844 877.172 30.72 876.732 30.72C876.316 30.72 875.964 30.812 875.676 30.996C875.388 31.172 875.176 31.46 875.04 31.86L874.26 31.38C874.42 30.932 874.716 30.572 875.148 30.3C875.58 30.02 876.116 29.88 876.756 29.88C877.188 29.88 877.58 29.956 877.932 30.108C878.284 30.252 878.56 30.476 878.76 30.78C878.968 31.076 879.072 31.46 879.072 31.932V34.836C879.072 35.124 879.224 35.268 879.528 35.268C879.68 35.268 879.828 35.248 879.972 35.208L879.924 35.964C879.764 36.044 879.556 36.084 879.3 36.084C879.068 36.084 878.86 36.04 878.676 35.952C878.492 35.864 878.348 35.732 878.244 35.556C878.14 35.372 878.088 35.144 878.088 34.872V34.752L878.328 34.788C878.232 35.1 878.068 35.356 877.836 35.556C877.604 35.748 877.344 35.892 877.056 35.988C876.768 36.076 876.484 36.12 876.204 36.12C875.852 36.12 875.524 36.06 875.22 35.94C874.916 35.82 874.672 35.64 874.488 35.4C874.312 35.152 874.224 34.848 874.224 34.488C874.224 34.04 874.372 33.672 874.668 33.384C874.972 33.088 875.392 32.888 875.928 32.784L878.304 32.316V33.108L876.372 33.504C875.98 33.584 875.688 33.696 875.496 33.84C875.304 33.984 875.208 34.184 875.208 34.44C875.208 34.688 875.304 34.892 875.496 35.052C875.696 35.204 875.976 35.28 876.336 35.28C876.568 35.28 876.788 35.252 876.996 35.196C877.212 35.132 877.404 35.04 877.572 34.92C877.74 34.792 877.872 34.636 877.968 34.452C878.064 34.26 878.112 34.036 878.112 33.78V32.124ZM883.885 36.12C883.301 36.12 882.761 35.996 882.265 35.748C881.777 35.5 881.401 35.148 881.137 34.692L881.953 34.104C882.129 34.472 882.385 34.76 882.721 34.968C883.065 35.176 883.477 35.28 883.957 35.28C884.381 35.28 884.713 35.2 884.953 35.04C885.193 34.872 885.313 34.656 885.313 34.392C885.313 34.224 885.257 34.072 885.145 33.936C885.041 33.792 884.837 33.688 884.533 33.624L883.093 33.324C882.509 33.204 882.089 33.004 881.833 32.724C881.585 32.444 881.461 32.096 881.461 31.68C881.461 31.352 881.553 31.052 881.737 30.78C881.929 30.508 882.197 30.292 882.541 30.132C882.893 29.964 883.305 29.88 883.777 29.88C884.369 29.88 884.869 29.996 885.277 30.228C885.685 30.46 885.989 30.788 886.189 31.212L885.385 31.74C885.249 31.388 885.029 31.132 884.725 30.972C884.421 30.804 884.105 30.72 883.777 30.72C883.489 30.72 883.241 30.76 883.033 30.84C882.833 30.92 882.677 31.032 882.565 31.176C882.461 31.312 882.409 31.468 882.409 31.644C882.409 31.82 882.469 31.984 882.589 32.136C882.709 32.28 882.933 32.384 883.261 32.448L884.761 32.76C885.321 32.872 885.713 33.056 885.937 33.312C886.161 33.568 886.273 33.88 886.273 34.248C886.273 34.624 886.173 34.956 885.973 35.244C885.773 35.524 885.493 35.74 885.133 35.892C884.773 36.044 884.357 36.12 883.885 36.12ZM889.789 28.296V34.344C889.789 34.64 889.873 34.86 890.041 35.004C890.209 35.148 890.425 35.22 890.689 35.22C890.921 35.22 891.121 35.18 891.289 35.1C891.457 35.02 891.609 34.912 891.745 34.776L892.081 35.58C891.897 35.748 891.677 35.88 891.421 35.976C891.173 36.072 890.885 36.12 890.557 36.12C890.253 36.12 889.969 36.068 889.705 35.964C889.441 35.852 889.229 35.68 889.069 35.448C888.917 35.208 888.837 34.896 888.829 34.512V28.56L889.789 28.296ZM891.973 30V30.828H887.629V30H891.973Z" fill="#707070"/>
<path d="M876.444 47.76V57H875.38V51.19L875.506 48.754H875.492L872.454 57H871.502L868.464 48.754H868.45L868.576 51.19V57H867.512V47.76H869.234L871.264 53.374L871.964 55.684H871.992L872.706 53.388L874.722 47.76H876.444ZM883.257 52.478C883.257 51.9553 883.117 51.554 882.837 51.274C882.557 50.9847 882.161 50.84 881.647 50.84C881.162 50.84 880.751 50.9473 880.415 51.162C880.079 51.3673 879.832 51.7033 879.673 52.17L878.763 51.61C878.95 51.0873 879.295 50.6673 879.799 50.35C880.303 50.0233 880.929 49.86 881.675 49.86C882.179 49.86 882.637 49.9487 883.047 50.126C883.458 50.294 883.78 50.5553 884.013 50.91C884.256 51.2553 884.377 51.7033 884.377 52.254V55.642C884.377 55.978 884.555 56.146 884.909 56.146C885.087 56.146 885.259 56.1227 885.427 56.076L885.371 56.958C885.185 57.0513 884.942 57.098 884.643 57.098C884.373 57.098 884.13 57.0467 883.915 56.944C883.701 56.8413 883.533 56.6873 883.411 56.482C883.29 56.2673 883.229 56.0013 883.229 55.684V55.544L883.509 55.586C883.397 55.95 883.206 56.2487 882.935 56.482C882.665 56.706 882.361 56.874 882.025 56.986C881.689 57.0887 881.358 57.14 881.031 57.14C880.621 57.14 880.238 57.07 879.883 56.93C879.529 56.79 879.244 56.58 879.029 56.3C878.824 56.0107 878.721 55.656 878.721 55.236C878.721 54.7133 878.894 54.284 879.239 53.948C879.594 53.6027 880.084 53.3693 880.709 53.248L883.481 52.702V53.626L881.227 54.088C880.77 54.1813 880.429 54.312 880.205 54.48C879.981 54.648 879.869 54.8813 879.869 55.18C879.869 55.4693 879.981 55.7073 880.205 55.894C880.439 56.0713 880.765 56.16 881.185 56.16C881.456 56.16 881.713 56.1273 881.955 56.062C882.207 55.9873 882.431 55.88 882.627 55.74C882.823 55.5907 882.977 55.4087 883.089 55.194C883.201 54.97 883.257 54.7087 883.257 54.41V52.478ZM893.245 50L890.221 53.024L889.955 53.29L887.659 55.586V54.186L891.831 50H893.245ZM888.219 46.78V57H887.099V46.78H888.219ZM890.319 52.45L893.413 57H892.055L889.381 53.08L890.319 52.45ZM897.722 57.14C897.059 57.14 896.467 56.9953 895.944 56.706C895.431 56.4167 895.029 56.0013 894.74 55.46C894.451 54.9093 894.306 54.256 894.306 53.5C894.306 52.744 894.451 52.0953 894.74 51.554C895.029 51.0033 895.426 50.5833 895.93 50.294C896.434 50.0047 897.008 49.86 897.652 49.86C898.305 49.86 898.861 50 899.318 50.28C899.785 50.56 900.139 50.9427 900.382 51.428C900.625 51.904 900.746 52.4407 900.746 53.038C900.746 53.1967 900.741 53.3413 900.732 53.472C900.723 53.6027 900.709 53.7193 900.69 53.822H895.034V52.828H900.2L899.626 52.94C899.626 52.268 899.439 51.75 899.066 51.386C898.702 51.022 898.221 50.84 897.624 50.84C897.167 50.84 896.77 50.9473 896.434 51.162C896.107 51.3673 895.851 51.6707 895.664 52.072C895.487 52.464 895.398 52.94 895.398 53.5C895.398 54.0507 895.491 54.5267 895.678 54.928C895.865 55.3293 896.126 55.6373 896.462 55.852C896.807 56.0573 897.218 56.16 897.694 56.16C898.207 56.16 898.623 56.062 898.94 55.866C899.267 55.67 899.528 55.404 899.724 55.068L900.606 55.586C900.429 55.9033 900.2 56.1787 899.92 56.412C899.649 56.6453 899.327 56.8273 898.954 56.958C898.59 57.0793 898.179 57.14 897.722 57.14ZM911.736 52.478C911.736 51.9553 911.596 51.554 911.316 51.274C911.036 50.9847 910.639 50.84 910.126 50.84C909.64 50.84 909.23 50.9473 908.894 51.162C908.558 51.3673 908.31 51.7033 908.152 52.17L907.242 51.61C907.428 51.0873 907.774 50.6673 908.278 50.35C908.782 50.0233 909.407 49.86 910.154 49.86C910.658 49.86 911.115 49.9487 911.526 50.126C911.936 50.294 912.258 50.5553 912.492 50.91C912.734 51.2553 912.856 51.7033 912.856 52.254V55.642C912.856 55.978 913.033 56.146 913.388 56.146C913.565 56.146 913.738 56.1227 913.906 56.076L913.85 56.958C913.663 57.0513 913.42 57.098 913.122 57.098C912.851 57.098 912.608 57.0467 912.394 56.944C912.179 56.8413 912.011 56.6873 911.89 56.482C911.768 56.2673 911.708 56.0013 911.708 55.684V55.544L911.988 55.586C911.876 55.95 911.684 56.2487 911.414 56.482C911.143 56.706 910.84 56.874 910.504 56.986C910.168 57.0887 909.836 57.14 909.51 57.14C909.099 57.14 908.716 57.07 908.362 56.93C908.007 56.79 907.722 56.58 907.508 56.3C907.302 56.0107 907.2 55.656 907.2 55.236C907.2 54.7133 907.372 54.284 907.718 53.948C908.072 53.6027 908.562 53.3693 909.188 53.248L911.96 52.702V53.626L909.706 54.088C909.248 54.1813 908.908 54.312 908.684 54.48C908.46 54.648 908.348 54.8813 908.348 55.18C908.348 55.4693 908.46 55.7073 908.684 55.894C908.917 56.0713 909.244 56.16 909.664 56.16C909.934 56.16 910.191 56.1273 910.434 56.062C910.686 55.9873 910.91 55.88 911.106 55.74C911.302 55.5907 911.456 55.4087 911.568 55.194C911.68 54.97 911.736 54.7087 911.736 54.41V52.478ZM923.213 47.76C924.659 47.76 925.793 48.1613 926.615 48.964C927.445 49.7573 927.861 50.896 927.861 52.38C927.861 53.864 927.445 55.0073 926.615 55.81C925.793 56.6033 924.659 57 923.213 57H920.231V47.76H923.213ZM923.325 55.95C924.379 55.95 925.201 55.6373 925.789 55.012C926.386 54.3773 926.685 53.5 926.685 52.38C926.685 51.26 926.386 50.3873 925.789 49.762C925.201 49.1273 924.379 48.81 923.325 48.81H921.351V55.95H923.325ZM933.037 57.14C932.374 57.14 931.781 56.9953 931.259 56.706C930.745 56.4167 930.344 56.0013 930.055 55.46C929.765 54.9093 929.621 54.256 929.621 53.5C929.621 52.744 929.765 52.0953 930.055 51.554C930.344 51.0033 930.741 50.5833 931.245 50.294C931.749 50.0047 932.323 49.86 932.967 49.86C933.62 49.86 934.175 50 934.633 50.28C935.099 50.56 935.454 50.9427 935.697 51.428C935.939 51.904 936.061 52.4407 936.061 53.038C936.061 53.1967 936.056 53.3413 936.047 53.472C936.037 53.6027 936.023 53.7193 936.005 53.822H930.349V52.828H935.515L934.941 52.94C934.941 52.268 934.754 51.75 934.381 51.386C934.017 51.022 933.536 50.84 932.939 50.84C932.481 50.84 932.085 50.9473 931.749 51.162C931.422 51.3673 931.165 51.6707 930.979 52.072C930.801 52.464 930.713 52.94 930.713 53.5C930.713 54.0507 930.806 54.5267 930.993 54.928C931.179 55.3293 931.441 55.6373 931.777 55.852C932.122 56.0573 932.533 56.16 933.009 56.16C933.522 56.16 933.937 56.062 934.255 55.866C934.581 55.67 934.843 55.404 935.039 55.068L935.921 55.586C935.743 55.9033 935.515 56.1787 935.235 56.412C934.964 56.6453 934.642 56.8273 934.269 56.958C933.905 57.0793 933.494 57.14 933.037 57.14ZM941.089 49.86C941.574 49.86 941.999 49.9347 942.363 50.084C942.736 50.2333 943.058 50.448 943.329 50.728C943.599 51.008 943.819 51.3393 943.987 51.722L942.923 52.226C942.773 51.778 942.545 51.4373 942.237 51.204C941.938 50.9613 941.546 50.84 941.061 50.84C940.594 50.84 940.193 50.9473 939.857 51.162C939.521 51.3673 939.264 51.6707 939.087 52.072C938.909 52.464 938.821 52.94 938.821 53.5C938.821 54.0507 938.909 54.5267 939.087 54.928C939.264 55.3293 939.521 55.6373 939.857 55.852C940.193 56.0573 940.594 56.16 941.061 56.16C941.425 56.16 941.737 56.104 941.999 55.992C942.269 55.88 942.489 55.7167 942.657 55.502C942.834 55.2873 942.955 55.026 943.021 54.718L944.057 55.082C943.898 55.5113 943.679 55.88 943.399 56.188C943.128 56.496 942.797 56.734 942.405 56.902C942.022 57.0607 941.583 57.14 941.089 57.14C940.435 57.14 939.852 56.9953 939.339 56.706C938.825 56.4167 938.424 56.0013 938.135 55.46C937.845 54.9093 937.701 54.256 937.701 53.5C937.701 52.744 937.845 52.0953 938.135 51.554C938.424 51.0033 938.825 50.5833 939.339 50.294C939.852 50.0047 940.435 49.86 941.089 49.86ZM946.585 48.656C946.333 48.656 946.127 48.5813 945.969 48.432C945.819 48.2733 945.745 48.068 945.745 47.816C945.745 47.564 945.819 47.3633 945.969 47.214C946.127 47.0553 946.333 46.976 946.585 46.976C946.837 46.976 947.037 47.0553 947.187 47.214C947.345 47.3633 947.425 47.564 947.425 47.816C947.425 48.068 947.345 48.2733 947.187 48.432C947.037 48.5813 946.837 48.656 946.585 48.656ZM947.145 50V57H946.025V50H947.145ZM952.263 57.14C951.582 57.14 950.952 56.9953 950.373 56.706C949.804 56.4167 949.365 56.006 949.057 55.474L950.009 54.788C950.215 55.2173 950.513 55.5533 950.905 55.796C951.307 56.0387 951.787 56.16 952.347 56.16C952.842 56.16 953.229 56.0667 953.509 55.88C953.789 55.684 953.929 55.432 953.929 55.124C953.929 54.928 953.864 54.7507 953.733 54.592C953.612 54.424 953.374 54.3027 953.019 54.228L951.339 53.878C950.658 53.738 950.168 53.5047 949.869 53.178C949.58 52.8513 949.435 52.4453 949.435 51.96C949.435 51.5773 949.543 51.2273 949.757 50.91C949.981 50.5927 950.294 50.3407 950.695 50.154C951.106 49.958 951.587 49.86 952.137 49.86C952.828 49.86 953.411 49.9953 953.887 50.266C954.363 50.5367 954.718 50.9193 954.951 51.414L954.013 52.03C953.855 51.6193 953.598 51.3207 953.243 51.134C952.889 50.938 952.52 50.84 952.137 50.84C951.801 50.84 951.512 50.8867 951.269 50.98C951.036 51.0733 950.854 51.204 950.723 51.372C950.602 51.5307 950.541 51.7127 950.541 51.918C950.541 52.1233 950.611 52.3147 950.751 52.492C950.891 52.66 951.153 52.7813 951.535 52.856L953.285 53.22C953.939 53.3507 954.396 53.5653 954.657 53.864C954.919 54.1627 955.049 54.5267 955.049 54.956C955.049 55.3947 954.933 55.782 954.699 56.118C954.466 56.4447 954.139 56.6967 953.719 56.874C953.299 57.0513 952.814 57.14 952.263 57.14ZM957.686 48.656C957.434 48.656 957.229 48.5813 957.07 48.432C956.921 48.2733 956.846 48.068 956.846 47.816C956.846 47.564 956.921 47.3633 957.07 47.214C957.229 47.0553 957.434 46.976 957.686 46.976C957.938 46.976 958.139 47.0553 958.288 47.214C958.447 47.3633 958.526 47.564 958.526 47.816C958.526 48.068 958.447 48.2733 958.288 48.432C958.139 48.5813 957.938 48.656 957.686 48.656ZM958.246 50V57H957.126V50H958.246ZM963.743 49.86C964.406 49.86 964.989 50.0047 965.493 50.294C966.006 50.5833 966.408 51.0033 966.697 51.554C966.986 52.0953 967.131 52.744 967.131 53.5C967.131 54.256 966.986 54.9093 966.697 55.46C966.408 56.0013 966.006 56.4167 965.493 56.706C964.989 56.9953 964.406 57.14 963.743 57.14C963.09 57.14 962.506 56.9953 961.993 56.706C961.48 56.4167 961.078 56.0013 960.789 55.46C960.5 54.9093 960.355 54.256 960.355 53.5C960.355 52.744 960.5 52.0953 960.789 51.554C961.078 51.0033 961.48 50.5833 961.993 50.294C962.506 50.0047 963.09 49.86 963.743 49.86ZM963.743 50.826C963.267 50.826 962.861 50.9333 962.525 51.148C962.189 51.3627 961.928 51.6707 961.741 52.072C961.564 52.464 961.475 52.94 961.475 53.5C961.475 54.0507 961.564 54.5267 961.741 54.928C961.928 55.3293 962.189 55.6373 962.525 55.852C962.861 56.0667 963.267 56.174 963.743 56.174C964.219 56.174 964.625 56.0667 964.961 55.852C965.297 55.6373 965.554 55.3293 965.731 54.928C965.918 54.5267 966.011 54.0507 966.011 53.5C966.011 52.94 965.918 52.464 965.731 52.072C965.554 51.6707 965.297 51.3627 964.961 51.148C964.625 50.9333 964.219 50.826 963.743 50.826ZM969.24 57V50H970.22L970.318 51.568L970.136 51.414C970.285 51.0407 970.486 50.742 970.738 50.518C970.99 50.2847 971.279 50.1167 971.606 50.014C971.942 49.9113 972.287 49.86 972.642 49.86C973.146 49.86 973.603 49.958 974.014 50.154C974.424 50.3407 974.751 50.63 974.994 51.022C975.246 51.414 975.372 51.9133 975.372 52.52V57H974.252V52.912C974.252 52.1373 974.084 51.6007 973.748 51.302C973.421 50.994 973.015 50.84 972.53 50.84C972.194 50.84 971.858 50.9193 971.522 51.078C971.186 51.2367 970.906 51.4933 970.682 51.848C970.467 52.2027 970.36 52.6787 970.36 53.276V57H969.24Z" fill="#454545"/>
</svg>
