<svg width="237" height="80" viewBox="0 0 237 80" fill="none" xmlns="http://www.w3.org/2000/svg">
<mask id="path-1-inside-1_10_12937" fill="white">
<path d="M0 0H237V80H0V0Z"/>
</mask>
<path d="M0 0H237V80H0V0Z" fill="white"/>
<path d="M0 12H237V-12H0V12Z" fill="#BD6697" mask="url(#path-1-inside-1_10_12937)"/>
<circle cx="24" cy="44" r="8" fill="#BDBDBD"/>
<path d="M67 37V46H62V51H53V37H67ZM67 35H53C51.9 35 51 35.9 51 37V51C51 52.1 51.9 53 53 53H63L69 47V37C69 35.9 68.1 35 67 35ZM60 46H55V44H60V46ZM65 42H55V40H65V42Z" fill="#454545"/>
<path d="M82.632 39.76V49H81.512V39.76H82.632ZM85.3762 49V42H86.3562L86.4542 43.568L86.2722 43.414C86.4216 43.0407 86.6222 42.742 86.8742 42.518C87.1262 42.2847 87.4156 42.1167 87.7422 42.014C88.0782 41.9113 88.4236 41.86 88.7782 41.86C89.2822 41.86 89.7396 41.958 90.1502 42.154C90.5609 42.3407 90.8876 42.63 91.1302 43.022C91.3822 43.414 91.5082 43.9133 91.5082 44.52V49H90.3882V44.912C90.3882 44.1373 90.2202 43.6007 89.8842 43.302C89.5576 42.994 89.1516 42.84 88.6662 42.84C88.3302 42.84 87.9942 42.9193 87.6582 43.078C87.3222 43.2367 87.0422 43.4933 86.8182 43.848C86.6036 44.2027 86.4962 44.6787 86.4962 45.276V49H85.3762ZM96.5642 49.14C95.8829 49.14 95.2529 48.9953 94.6742 48.706C94.1049 48.4167 93.6662 48.006 93.3582 47.474L94.3102 46.788C94.5155 47.2173 94.8142 47.5533 95.2062 47.796C95.6075 48.0387 96.0882 48.16 96.6482 48.16C97.1429 48.16 97.5302 48.0667 97.8102 47.88C98.0902 47.684 98.2302 47.432 98.2302 47.124C98.2302 46.928 98.1649 46.7507 98.0342 46.592C97.9129 46.424 97.6749 46.3027 97.3202 46.228L95.6402 45.878C94.9589 45.738 94.4689 45.5047 94.1702 45.178C93.8809 44.8513 93.7362 44.4453 93.7362 43.96C93.7362 43.5773 93.8435 43.2273 94.0582 42.91C94.2822 42.5927 94.5949 42.3407 94.9962 42.154C95.4069 41.958 95.8875 41.86 96.4382 41.86C97.1289 41.86 97.7122 41.9953 98.1882 42.266C98.6642 42.5367 99.0189 42.9193 99.2522 43.414L98.3142 44.03C98.1555 43.6193 97.8989 43.3207 97.5442 43.134C97.1895 42.938 96.8209 42.84 96.4382 42.84C96.1022 42.84 95.8129 42.8867 95.5702 42.98C95.3369 43.0733 95.1549 43.204 95.0242 43.372C94.9029 43.5307 94.8422 43.7127 94.8422 43.918C94.8422 44.1233 94.9122 44.3147 95.0522 44.492C95.1922 44.66 95.4535 44.7813 95.8362 44.856L97.5862 45.22C98.2395 45.3507 98.6969 45.5653 98.9582 45.864C99.2195 46.1627 99.3502 46.5267 99.3502 46.956C99.3502 47.3947 99.2335 47.782 99.0002 48.118C98.7669 48.4447 98.4402 48.6967 98.0202 48.874C97.6002 49.0513 97.1149 49.14 96.5642 49.14ZM103.079 40.012V47.068C103.079 47.4133 103.177 47.67 103.373 47.838C103.569 48.006 103.821 48.09 104.129 48.09C104.4 48.09 104.633 48.0433 104.829 47.95C105.025 47.8567 105.202 47.7307 105.361 47.572L105.753 48.51C105.538 48.706 105.282 48.86 104.983 48.972C104.694 49.084 104.358 49.14 103.975 49.14C103.62 49.14 103.289 49.0793 102.981 48.958C102.673 48.8273 102.426 48.6267 102.239 48.356C102.062 48.076 101.968 47.712 101.959 47.264V40.32L103.079 40.012ZM105.627 42V42.966H100.559V42H105.627ZM107.292 49V42H108.202L108.356 43.148C108.552 42.7187 108.837 42.3967 109.21 42.182C109.593 41.9673 110.055 41.86 110.596 41.86C110.718 41.86 110.848 41.8693 110.988 41.888C111.138 41.9067 111.264 41.944 111.366 42L111.17 43.022C111.068 42.9847 110.956 42.9567 110.834 42.938C110.713 42.9193 110.54 42.91 110.316 42.91C110.027 42.91 109.733 42.994 109.434 43.162C109.145 43.33 108.902 43.5867 108.706 43.932C108.51 44.268 108.412 44.6973 108.412 45.22V49H107.292ZM115.541 49.14C115.093 49.14 114.668 49.056 114.267 48.888C113.875 48.72 113.553 48.4493 113.301 48.076C113.058 47.6933 112.937 47.1987 112.937 46.592V42H114.057V46.298C114.057 47.0073 114.211 47.4973 114.519 47.768C114.827 48.0293 115.261 48.16 115.821 48.16C116.082 48.16 116.339 48.118 116.591 48.034C116.843 47.9407 117.067 47.8007 117.263 47.614C117.468 47.418 117.627 47.1707 117.739 46.872C117.86 46.5733 117.921 46.2187 117.921 45.808V42H119.041V49H118.061L117.991 47.936C117.748 48.356 117.417 48.664 116.997 48.86C116.586 49.0467 116.101 49.14 115.541 49.14ZM124.546 41.86C125.031 41.86 125.456 41.9347 125.82 42.084C126.193 42.2333 126.515 42.448 126.786 42.728C127.056 43.008 127.276 43.3393 127.444 43.722L126.38 44.226C126.23 43.778 126.002 43.4373 125.694 43.204C125.395 42.9613 125.003 42.84 124.518 42.84C124.051 42.84 123.65 42.9473 123.314 43.162C122.978 43.3673 122.721 43.6707 122.544 44.072C122.366 44.464 122.278 44.94 122.278 45.5C122.278 46.0507 122.366 46.5267 122.544 46.928C122.721 47.3293 122.978 47.6373 123.314 47.852C123.65 48.0573 124.051 48.16 124.518 48.16C124.882 48.16 125.194 48.104 125.456 47.992C125.726 47.88 125.946 47.7167 126.114 47.502C126.291 47.2873 126.412 47.026 126.478 46.718L127.514 47.082C127.355 47.5113 127.136 47.88 126.856 48.188C126.585 48.496 126.254 48.734 125.862 48.902C125.479 49.0607 125.04 49.14 124.546 49.14C123.892 49.14 123.309 48.9953 122.796 48.706C122.282 48.4167 121.881 48.0013 121.592 47.46C121.302 46.9093 121.158 46.256 121.158 45.5C121.158 44.744 121.302 44.0953 121.592 43.554C121.881 43.0033 122.282 42.5833 122.796 42.294C123.309 42.0047 123.892 41.86 124.546 41.86ZM131.134 40.012V47.068C131.134 47.4133 131.232 47.67 131.428 47.838C131.624 48.006 131.876 48.09 132.184 48.09C132.454 48.09 132.688 48.0433 132.884 47.95C133.08 47.8567 133.257 47.7307 133.416 47.572L133.808 48.51C133.593 48.706 133.336 48.86 133.038 48.972C132.748 49.084 132.412 49.14 132.03 49.14C131.675 49.14 131.344 49.0793 131.036 48.958C130.728 48.8273 130.48 48.6267 130.294 48.356C130.116 48.076 130.023 47.712 130.014 47.264V40.32L131.134 40.012ZM133.682 42V42.966H128.614V42H133.682ZM135.907 40.656C135.655 40.656 135.45 40.5813 135.291 40.432C135.142 40.2733 135.067 40.068 135.067 39.816C135.067 39.564 135.142 39.3633 135.291 39.214C135.45 39.0553 135.655 38.976 135.907 38.976C136.159 38.976 136.36 39.0553 136.509 39.214C136.668 39.3633 136.747 39.564 136.747 39.816C136.747 40.068 136.668 40.2733 136.509 40.432C136.36 40.5813 136.159 40.656 135.907 40.656ZM136.467 42V49H135.347V42H136.467ZM141.964 41.86C142.626 41.86 143.21 42.0047 143.714 42.294C144.227 42.5833 144.628 43.0033 144.918 43.554C145.207 44.0953 145.352 44.744 145.352 45.5C145.352 46.256 145.207 46.9093 144.918 47.46C144.628 48.0013 144.227 48.4167 143.714 48.706C143.21 48.9953 142.626 49.14 141.964 49.14C141.31 49.14 140.727 48.9953 140.214 48.706C139.7 48.4167 139.299 48.0013 139.01 47.46C138.72 46.9093 138.576 46.256 138.576 45.5C138.576 44.744 138.72 44.0953 139.01 43.554C139.299 43.0033 139.7 42.5833 140.214 42.294C140.727 42.0047 141.31 41.86 141.964 41.86ZM141.964 42.826C141.488 42.826 141.082 42.9333 140.746 43.148C140.41 43.3627 140.148 43.6707 139.962 44.072C139.784 44.464 139.696 44.94 139.696 45.5C139.696 46.0507 139.784 46.5267 139.962 46.928C140.148 47.3293 140.41 47.6373 140.746 47.852C141.082 48.0667 141.488 48.174 141.964 48.174C142.44 48.174 142.846 48.0667 143.182 47.852C143.518 47.6373 143.774 47.3293 143.952 46.928C144.138 46.5267 144.232 46.0507 144.232 45.5C144.232 44.94 144.138 44.464 143.952 44.072C143.774 43.6707 143.518 43.3627 143.182 43.148C142.846 42.9333 142.44 42.826 141.964 42.826ZM147.46 49V42H148.44L148.538 43.568L148.356 43.414C148.506 43.0407 148.706 42.742 148.958 42.518C149.21 42.2847 149.5 42.1167 149.826 42.014C150.162 41.9113 150.508 41.86 150.862 41.86C151.366 41.86 151.824 41.958 152.234 42.154C152.645 42.3407 152.972 42.63 153.214 43.022C153.466 43.414 153.592 43.9133 153.592 44.52V49H152.472V44.912C152.472 44.1373 152.304 43.6007 151.968 43.302C151.642 42.994 151.236 42.84 150.75 42.84C150.414 42.84 150.078 42.9193 149.742 43.078C149.406 43.2367 149.126 43.4933 148.902 43.848C148.688 44.2027 148.58 44.6787 148.58 45.276V49H147.46ZM158.648 49.14C157.967 49.14 157.337 48.9953 156.758 48.706C156.189 48.4167 155.75 48.006 155.442 47.474L156.394 46.788C156.6 47.2173 156.898 47.5533 157.29 47.796C157.692 48.0387 158.172 48.16 158.732 48.16C159.227 48.16 159.614 48.0667 159.894 47.88C160.174 47.684 160.314 47.432 160.314 47.124C160.314 46.928 160.249 46.7507 160.118 46.592C159.997 46.424 159.759 46.3027 159.404 46.228L157.724 45.878C157.043 45.738 156.553 45.5047 156.254 45.178C155.965 44.8513 155.82 44.4453 155.82 43.96C155.82 43.5773 155.928 43.2273 156.142 42.91C156.366 42.5927 156.679 42.3407 157.08 42.154C157.491 41.958 157.972 41.86 158.522 41.86C159.213 41.86 159.796 41.9953 160.272 42.266C160.748 42.5367 161.103 42.9193 161.336 43.414L160.398 44.03C160.24 43.6193 159.983 43.3207 159.628 43.134C159.274 42.938 158.905 42.84 158.522 42.84C158.186 42.84 157.897 42.8867 157.654 42.98C157.421 43.0733 157.239 43.204 157.108 43.372C156.987 43.5307 156.926 43.7127 156.926 43.918C156.926 44.1233 156.996 44.3147 157.136 44.492C157.276 44.66 157.538 44.7813 157.92 44.856L159.67 45.22C160.324 45.3507 160.781 45.5653 161.042 45.864C161.304 46.1627 161.434 46.5267 161.434 46.956C161.434 47.3947 161.318 47.782 161.084 48.118C160.851 48.4447 160.524 48.6967 160.104 48.874C159.684 49.0513 159.199 49.14 158.648 49.14Z" fill="#454545"/>
</svg>
