<svg width="1056" height="128" viewBox="0 0 1056 128" fill="none" xmlns="http://www.w3.org/2000/svg">
<rect x="0.5" y="0.5" width="1055" height="127" rx="4.5" stroke="#9747FF" stroke-dasharray="10 5"/>
<mask id="path-2-inside-1_10_12935" fill="white">
<path d="M24 24H261V104H24V24Z"/>
</mask>
<path d="M24 24H261V104H24V24Z" fill="white"/>
<path d="M24 36H261V12H24V36Z" fill="#BD6697" mask="url(#path-2-inside-1_10_12935)"/>
<circle cx="48" cy="68" r="8" fill="#BDBDBD"/>
<path d="M91 61V70H86V75H77V61H91ZM91 59H77C75.9 59 75 59.9 75 61V75C75 76.1 75.9 77 77 77H87L93 71V61C93 59.9 92.1 59 91 59ZM84 70H79V68H84V70ZM89 66H79V64H89V66Z" fill="#454545"/>
<path d="M106.632 63.76V73H105.512V63.76H106.632ZM109.376 73V66H110.356L110.454 67.568L110.272 67.414C110.422 67.0407 110.622 66.742 110.874 66.518C111.126 66.2847 111.416 66.1167 111.742 66.014C112.078 65.9113 112.424 65.86 112.778 65.86C113.282 65.86 113.74 65.958 114.15 66.154C114.561 66.3407 114.888 66.63 115.13 67.022C115.382 67.414 115.508 67.9133 115.508 68.52V73H114.388V68.912C114.388 68.1373 114.22 67.6007 113.884 67.302C113.558 66.994 113.152 66.84 112.666 66.84C112.33 66.84 111.994 66.9193 111.658 67.078C111.322 67.2367 111.042 67.4933 110.818 67.848C110.604 68.2027 110.496 68.6787 110.496 69.276V73H109.376ZM120.564 73.14C119.883 73.14 119.253 72.9953 118.674 72.706C118.105 72.4167 117.666 72.006 117.358 71.474L118.31 70.788C118.516 71.2173 118.814 71.5533 119.206 71.796C119.608 72.0387 120.088 72.16 120.648 72.16C121.143 72.16 121.53 72.0667 121.81 71.88C122.09 71.684 122.23 71.432 122.23 71.124C122.23 70.928 122.165 70.7507 122.034 70.592C121.913 70.424 121.675 70.3027 121.32 70.228L119.64 69.878C118.959 69.738 118.469 69.5047 118.17 69.178C117.881 68.8513 117.736 68.4453 117.736 67.96C117.736 67.5773 117.844 67.2273 118.058 66.91C118.282 66.5927 118.595 66.3407 118.996 66.154C119.407 65.958 119.888 65.86 120.438 65.86C121.129 65.86 121.712 65.9953 122.188 66.266C122.664 66.5367 123.019 66.9193 123.252 67.414L122.314 68.03C122.156 67.6193 121.899 67.3207 121.544 67.134C121.19 66.938 120.821 66.84 120.438 66.84C120.102 66.84 119.813 66.8867 119.57 66.98C119.337 67.0733 119.155 67.204 119.024 67.372C118.903 67.5307 118.842 67.7127 118.842 67.918C118.842 68.1233 118.912 68.3147 119.052 68.492C119.192 68.66 119.454 68.7813 119.836 68.856L121.586 69.22C122.24 69.3507 122.697 69.5653 122.958 69.864C123.22 70.1627 123.35 70.5267 123.35 70.956C123.35 71.3947 123.234 71.782 123 72.118C122.767 72.4447 122.44 72.6967 122.02 72.874C121.6 73.0513 121.115 73.14 120.564 73.14ZM127.079 64.012V71.068C127.079 71.4133 127.177 71.67 127.373 71.838C127.569 72.006 127.821 72.09 128.129 72.09C128.4 72.09 128.633 72.0433 128.829 71.95C129.025 71.8567 129.202 71.7307 129.361 71.572L129.753 72.51C129.538 72.706 129.282 72.86 128.983 72.972C128.694 73.084 128.358 73.14 127.975 73.14C127.62 73.14 127.289 73.0793 126.981 72.958C126.673 72.8273 126.426 72.6267 126.239 72.356C126.062 72.076 125.968 71.712 125.959 71.264V64.32L127.079 64.012ZM129.627 66V66.966H124.559V66H129.627ZM131.292 73V66H132.202L132.356 67.148C132.552 66.7187 132.837 66.3967 133.21 66.182C133.593 65.9673 134.055 65.86 134.596 65.86C134.718 65.86 134.848 65.8693 134.988 65.888C135.138 65.9067 135.264 65.944 135.366 66L135.17 67.022C135.068 66.9847 134.956 66.9567 134.834 66.938C134.713 66.9193 134.54 66.91 134.316 66.91C134.027 66.91 133.733 66.994 133.434 67.162C133.145 67.33 132.902 67.5867 132.706 67.932C132.51 68.268 132.412 68.6973 132.412 69.22V73H131.292ZM139.541 73.14C139.093 73.14 138.668 73.056 138.267 72.888C137.875 72.72 137.553 72.4493 137.301 72.076C137.058 71.6933 136.937 71.1987 136.937 70.592V66H138.057V70.298C138.057 71.0073 138.211 71.4973 138.519 71.768C138.827 72.0293 139.261 72.16 139.821 72.16C140.082 72.16 140.339 72.118 140.591 72.034C140.843 71.9407 141.067 71.8007 141.263 71.614C141.468 71.418 141.627 71.1707 141.739 70.872C141.86 70.5733 141.921 70.2187 141.921 69.808V66H143.041V73H142.061L141.991 71.936C141.748 72.356 141.417 72.664 140.997 72.86C140.586 73.0467 140.101 73.14 139.541 73.14ZM148.546 65.86C149.031 65.86 149.456 65.9347 149.82 66.084C150.193 66.2333 150.515 66.448 150.786 66.728C151.056 67.008 151.276 67.3393 151.444 67.722L150.38 68.226C150.23 67.778 150.002 67.4373 149.694 67.204C149.395 66.9613 149.003 66.84 148.518 66.84C148.051 66.84 147.65 66.9473 147.314 67.162C146.978 67.3673 146.721 67.6707 146.544 68.072C146.366 68.464 146.278 68.94 146.278 69.5C146.278 70.0507 146.366 70.5267 146.544 70.928C146.721 71.3293 146.978 71.6373 147.314 71.852C147.65 72.0573 148.051 72.16 148.518 72.16C148.882 72.16 149.194 72.104 149.456 71.992C149.726 71.88 149.946 71.7167 150.114 71.502C150.291 71.2873 150.412 71.026 150.478 70.718L151.514 71.082C151.355 71.5113 151.136 71.88 150.856 72.188C150.585 72.496 150.254 72.734 149.862 72.902C149.479 73.0607 149.04 73.14 148.546 73.14C147.892 73.14 147.309 72.9953 146.796 72.706C146.282 72.4167 145.881 72.0013 145.592 71.46C145.302 70.9093 145.158 70.256 145.158 69.5C145.158 68.744 145.302 68.0953 145.592 67.554C145.881 67.0033 146.282 66.5833 146.796 66.294C147.309 66.0047 147.892 65.86 148.546 65.86ZM155.134 64.012V71.068C155.134 71.4133 155.232 71.67 155.428 71.838C155.624 72.006 155.876 72.09 156.184 72.09C156.454 72.09 156.688 72.0433 156.884 71.95C157.08 71.8567 157.257 71.7307 157.416 71.572L157.808 72.51C157.593 72.706 157.336 72.86 157.038 72.972C156.748 73.084 156.412 73.14 156.03 73.14C155.675 73.14 155.344 73.0793 155.036 72.958C154.728 72.8273 154.48 72.6267 154.294 72.356C154.116 72.076 154.023 71.712 154.014 71.264V64.32L155.134 64.012ZM157.682 66V66.966H152.614V66H157.682ZM159.907 64.656C159.655 64.656 159.45 64.5813 159.291 64.432C159.142 64.2733 159.067 64.068 159.067 63.816C159.067 63.564 159.142 63.3633 159.291 63.214C159.45 63.0553 159.655 62.976 159.907 62.976C160.159 62.976 160.36 63.0553 160.509 63.214C160.668 63.3633 160.747 63.564 160.747 63.816C160.747 64.068 160.668 64.2733 160.509 64.432C160.36 64.5813 160.159 64.656 159.907 64.656ZM160.467 66V73H159.347V66H160.467ZM165.964 65.86C166.626 65.86 167.21 66.0047 167.714 66.294C168.227 66.5833 168.628 67.0033 168.918 67.554C169.207 68.0953 169.352 68.744 169.352 69.5C169.352 70.256 169.207 70.9093 168.918 71.46C168.628 72.0013 168.227 72.4167 167.714 72.706C167.21 72.9953 166.626 73.14 165.964 73.14C165.31 73.14 164.727 72.9953 164.214 72.706C163.7 72.4167 163.299 72.0013 163.01 71.46C162.72 70.9093 162.576 70.256 162.576 69.5C162.576 68.744 162.72 68.0953 163.01 67.554C163.299 67.0033 163.7 66.5833 164.214 66.294C164.727 66.0047 165.31 65.86 165.964 65.86ZM165.964 66.826C165.488 66.826 165.082 66.9333 164.746 67.148C164.41 67.3627 164.148 67.6707 163.962 68.072C163.784 68.464 163.696 68.94 163.696 69.5C163.696 70.0507 163.784 70.5267 163.962 70.928C164.148 71.3293 164.41 71.6373 164.746 71.852C165.082 72.0667 165.488 72.174 165.964 72.174C166.44 72.174 166.846 72.0667 167.182 71.852C167.518 71.6373 167.774 71.3293 167.952 70.928C168.138 70.5267 168.232 70.0507 168.232 69.5C168.232 68.94 168.138 68.464 167.952 68.072C167.774 67.6707 167.518 67.3627 167.182 67.148C166.846 66.9333 166.44 66.826 165.964 66.826ZM171.46 73V66H172.44L172.538 67.568L172.356 67.414C172.506 67.0407 172.706 66.742 172.958 66.518C173.21 66.2847 173.5 66.1167 173.826 66.014C174.162 65.9113 174.508 65.86 174.862 65.86C175.366 65.86 175.824 65.958 176.234 66.154C176.645 66.3407 176.972 66.63 177.214 67.022C177.466 67.414 177.592 67.9133 177.592 68.52V73H176.472V68.912C176.472 68.1373 176.304 67.6007 175.968 67.302C175.642 66.994 175.236 66.84 174.75 66.84C174.414 66.84 174.078 66.9193 173.742 67.078C173.406 67.2367 173.126 67.4933 172.902 67.848C172.688 68.2027 172.58 68.6787 172.58 69.276V73H171.46ZM182.648 73.14C181.967 73.14 181.337 72.9953 180.758 72.706C180.189 72.4167 179.75 72.006 179.442 71.474L180.394 70.788C180.6 71.2173 180.898 71.5533 181.29 71.796C181.692 72.0387 182.172 72.16 182.732 72.16C183.227 72.16 183.614 72.0667 183.894 71.88C184.174 71.684 184.314 71.432 184.314 71.124C184.314 70.928 184.249 70.7507 184.118 70.592C183.997 70.424 183.759 70.3027 183.404 70.228L181.724 69.878C181.043 69.738 180.553 69.5047 180.254 69.178C179.965 68.8513 179.82 68.4453 179.82 67.96C179.82 67.5773 179.928 67.2273 180.142 66.91C180.366 66.5927 180.679 66.3407 181.08 66.154C181.491 65.958 181.972 65.86 182.522 65.86C183.213 65.86 183.796 65.9953 184.272 66.266C184.748 66.5367 185.103 66.9193 185.336 67.414L184.398 68.03C184.24 67.6193 183.983 67.3207 183.628 67.134C183.274 66.938 182.905 66.84 182.522 66.84C182.186 66.84 181.897 66.8867 181.654 66.98C181.421 67.0733 181.239 67.204 181.108 67.372C180.987 67.5307 180.926 67.7127 180.926 67.918C180.926 68.1233 180.996 68.3147 181.136 68.492C181.276 68.66 181.538 68.7813 181.92 68.856L183.67 69.22C184.324 69.3507 184.781 69.5653 185.042 69.864C185.304 70.1627 185.434 70.5267 185.434 70.956C185.434 71.3947 185.318 71.782 185.084 72.118C184.851 72.4447 184.524 72.6967 184.104 72.874C183.684 73.0513 183.199 73.14 182.648 73.14Z" fill="#454545"/>
<mask id="path-7-inside-2_10_12935" fill="white">
<path d="M261 24H528V104H261V24Z"/>
</mask>
<path d="M261 24H528V104H261V24Z" fill="white"/>
<path d="M261 36H528V12H261V36Z" fill="#67BC46" mask="url(#path-7-inside-2_10_12935)"/>
<circle cx="297" cy="68" r="8" fill="#BDBDBD"/>
<path d="M335.17 61L340 65.83V75H326V61H335.17ZM335.17 59H326C324.9 59 324 59.9 324 61V75C324 76.1 324.9 77 326 77H340C341.1 77 342 76.1 342 75V65.83C342 65.3 341.79 64.79 341.41 64.42L336.58 59.59C336.21 59.21 335.7 59 335.17 59ZM328 71H338V73H328V71ZM328 67H338V69H328V67ZM328 63H335V65H328V63Z" fill="#454545"/>
<path d="M360.608 60H359.588L358.748 57.804H355.16L354.32 60H353.312L356.396 52.08H357.536L360.608 60ZM355.508 56.904H358.4L356.948 53.004L355.508 56.904ZM362.358 60V54H363.138L363.27 54.984C363.438 54.616 363.682 54.34 364.002 54.156C364.33 53.972 364.726 53.88 365.19 53.88C365.294 53.88 365.406 53.888 365.526 53.904C365.654 53.92 365.762 53.952 365.85 54L365.682 54.876C365.594 54.844 365.498 54.82 365.394 54.804C365.29 54.788 365.142 54.78 364.95 54.78C364.702 54.78 364.45 54.852 364.194 54.996C363.946 55.14 363.738 55.36 363.57 55.656C363.402 55.944 363.318 56.312 363.318 56.76V60H362.358ZM368.629 52.296V58.344C368.629 58.64 368.713 58.86 368.881 59.004C369.049 59.148 369.265 59.22 369.529 59.22C369.761 59.22 369.961 59.18 370.129 59.1C370.297 59.02 370.449 58.912 370.585 58.776L370.921 59.58C370.737 59.748 370.517 59.88 370.261 59.976C370.013 60.072 369.725 60.12 369.397 60.12C369.093 60.12 368.809 60.068 368.545 59.964C368.281 59.852 368.069 59.68 367.909 59.448C367.757 59.208 367.677 58.896 367.669 58.512V52.56L368.629 52.296ZM370.813 54V54.828H366.469V54H370.813ZM373.04 52.848C372.824 52.848 372.648 52.784 372.512 52.656C372.384 52.52 372.32 52.344 372.32 52.128C372.32 51.912 372.384 51.74 372.512 51.612C372.648 51.476 372.824 51.408 373.04 51.408C373.256 51.408 373.428 51.476 373.556 51.612C373.692 51.74 373.76 51.912 373.76 52.128C373.76 52.344 373.692 52.52 373.556 52.656C373.428 52.784 373.256 52.848 373.04 52.848ZM373.52 54V60H372.56V54H373.52ZM378.504 51.18C378.712 51.18 378.908 51.204 379.092 51.252C379.276 51.3 379.42 51.368 379.524 51.456L379.272 52.236C379.176 52.172 379.072 52.128 378.96 52.104C378.848 52.072 378.724 52.056 378.588 52.056C378.244 52.056 377.976 52.14 377.784 52.308C377.592 52.468 377.496 52.728 377.496 53.088V54V54.312V60H376.536V52.992C376.536 52.728 376.576 52.484 376.656 52.26C376.736 52.036 376.856 51.844 377.016 51.684C377.184 51.524 377.392 51.4 377.64 51.312C377.888 51.224 378.176 51.18 378.504 51.18ZM379.5 54V54.828H375.336V54H379.5ZM384.24 56.124C384.24 55.676 384.12 55.332 383.88 55.092C383.64 54.844 383.3 54.72 382.86 54.72C382.444 54.72 382.092 54.812 381.804 54.996C381.516 55.172 381.304 55.46 381.168 55.86L380.388 55.38C380.548 54.932 380.844 54.572 381.276 54.3C381.708 54.02 382.244 53.88 382.884 53.88C383.316 53.88 383.708 53.956 384.06 54.108C384.412 54.252 384.688 54.476 384.888 54.78C385.096 55.076 385.2 55.46 385.2 55.932V58.836C385.2 59.124 385.352 59.268 385.656 59.268C385.808 59.268 385.956 59.248 386.1 59.208L386.052 59.964C385.892 60.044 385.684 60.084 385.428 60.084C385.196 60.084 384.988 60.04 384.804 59.952C384.62 59.864 384.476 59.732 384.372 59.556C384.268 59.372 384.216 59.144 384.216 58.872V58.752L384.456 58.788C384.36 59.1 384.196 59.356 383.964 59.556C383.732 59.748 383.472 59.892 383.184 59.988C382.896 60.076 382.612 60.12 382.332 60.12C381.98 60.12 381.652 60.06 381.348 59.94C381.044 59.82 380.8 59.64 380.616 59.4C380.44 59.152 380.352 58.848 380.352 58.488C380.352 58.04 380.5 57.672 380.796 57.384C381.1 57.088 381.52 56.888 382.056 56.784L384.432 56.316V57.108L382.5 57.504C382.108 57.584 381.816 57.696 381.624 57.84C381.432 57.984 381.336 58.184 381.336 58.44C381.336 58.688 381.432 58.892 381.624 59.052C381.824 59.204 382.104 59.28 382.464 59.28C382.696 59.28 382.916 59.252 383.124 59.196C383.34 59.132 383.532 59.04 383.7 58.92C383.868 58.792 384 58.636 384.096 58.452C384.192 58.26 384.24 58.036 384.24 57.78V56.124ZM390.336 53.88C390.752 53.88 391.116 53.944 391.428 54.072C391.748 54.2 392.024 54.384 392.256 54.624C392.488 54.864 392.676 55.148 392.82 55.476L391.908 55.908C391.78 55.524 391.584 55.232 391.32 55.032C391.064 54.824 390.728 54.72 390.312 54.72C389.912 54.72 389.568 54.812 389.28 54.996C388.992 55.172 388.772 55.432 388.62 55.776C388.468 56.112 388.392 56.52 388.392 57C388.392 57.472 388.468 57.88 388.62 58.224C388.772 58.568 388.992 58.832 389.28 59.016C389.568 59.192 389.912 59.28 390.312 59.28C390.624 59.28 390.892 59.232 391.116 59.136C391.348 59.04 391.536 58.9 391.68 58.716C391.832 58.532 391.936 58.308 391.992 58.044L392.88 58.356C392.744 58.724 392.556 59.04 392.316 59.304C392.084 59.568 391.8 59.772 391.464 59.916C391.136 60.052 390.76 60.12 390.336 60.12C389.776 60.12 389.276 59.996 388.836 59.748C388.396 59.5 388.052 59.144 387.804 58.68C387.556 58.208 387.432 57.648 387.432 57C387.432 56.352 387.556 55.796 387.804 55.332C388.052 54.86 388.396 54.5 388.836 54.252C389.276 54.004 389.776 53.88 390.336 53.88ZM396.303 52.296V58.344C396.303 58.64 396.387 58.86 396.555 59.004C396.723 59.148 396.939 59.22 397.203 59.22C397.435 59.22 397.635 59.18 397.803 59.1C397.971 59.02 398.123 58.912 398.259 58.776L398.595 59.58C398.411 59.748 398.191 59.88 397.935 59.976C397.687 60.072 397.399 60.12 397.071 60.12C396.767 60.12 396.483 60.068 396.219 59.964C395.955 59.852 395.743 59.68 395.583 59.448C395.431 59.208 395.351 58.896 395.343 58.512V52.56L396.303 52.296ZM398.487 54V54.828H394.143V54H398.487ZM402.395 60.12C401.811 60.12 401.271 59.996 400.775 59.748C400.287 59.5 399.911 59.148 399.647 58.692L400.463 58.104C400.639 58.472 400.895 58.76 401.231 58.968C401.575 59.176 401.987 59.28 402.467 59.28C402.891 59.28 403.223 59.2 403.463 59.04C403.703 58.872 403.823 58.656 403.823 58.392C403.823 58.224 403.767 58.072 403.655 57.936C403.551 57.792 403.347 57.688 403.043 57.624L401.603 57.324C401.019 57.204 400.599 57.004 400.343 56.724C400.095 56.444 399.971 56.096 399.971 55.68C399.971 55.352 400.063 55.052 400.247 54.78C400.439 54.508 400.707 54.292 401.051 54.132C401.403 53.964 401.815 53.88 402.287 53.88C402.879 53.88 403.379 53.996 403.787 54.228C404.195 54.46 404.499 54.788 404.699 55.212L403.895 55.74C403.759 55.388 403.539 55.132 403.235 54.972C402.931 54.804 402.615 54.72 402.287 54.72C401.999 54.72 401.751 54.76 401.543 54.84C401.343 54.92 401.187 55.032 401.075 55.176C400.971 55.312 400.919 55.468 400.919 55.644C400.919 55.82 400.979 55.984 401.099 56.136C401.219 56.28 401.443 56.384 401.771 56.448L403.271 56.76C403.831 56.872 404.223 57.056 404.447 57.312C404.671 57.568 404.783 57.88 404.783 58.248C404.783 58.624 404.683 58.956 404.483 59.244C404.283 59.524 404.003 59.74 403.643 59.892C403.283 60.044 402.867 60.12 402.395 60.12ZM412.433 52.08V60H411.473V52.08H412.433Z" fill="#707070"/>
<path d="M361.96 78.634C361.764 79.1567 361.484 79.6093 361.12 79.992C360.756 80.3653 360.327 80.65 359.832 80.846C359.347 81.042 358.815 81.14 358.236 81.14C357.359 81.14 356.598 80.9487 355.954 80.566C355.319 80.174 354.825 79.6233 354.47 78.914C354.125 78.2047 353.952 77.36 353.952 76.38C353.952 75.4 354.125 74.5553 354.47 73.846C354.825 73.1367 355.319 72.5907 355.954 72.208C356.598 71.816 357.349 71.62 358.208 71.62C358.805 71.62 359.337 71.704 359.804 71.872C360.271 72.0307 360.667 72.2733 360.994 72.6C361.33 72.9173 361.596 73.3093 361.792 73.776L360.686 74.294C360.481 73.762 360.182 73.3607 359.79 73.09C359.407 72.81 358.908 72.67 358.292 72.67C357.667 72.67 357.116 72.8193 356.64 73.118C356.164 73.4073 355.791 73.8273 355.52 74.378C355.259 74.9287 355.128 75.596 355.128 76.38C355.128 77.1547 355.254 77.822 355.506 78.382C355.758 78.9327 356.117 79.3573 356.584 79.656C357.051 79.9453 357.601 80.09 358.236 80.09C358.852 80.09 359.389 79.936 359.846 79.628C360.303 79.3107 360.635 78.8393 360.84 78.214L361.96 78.634ZM366.798 73.86C367.46 73.86 368.044 74.0047 368.548 74.294C369.061 74.5833 369.462 75.0033 369.752 75.554C370.041 76.0953 370.186 76.744 370.186 77.5C370.186 78.256 370.041 78.9093 369.752 79.46C369.462 80.0013 369.061 80.4167 368.548 80.706C368.044 80.9953 367.46 81.14 366.798 81.14C366.144 81.14 365.561 80.9953 365.048 80.706C364.534 80.4167 364.133 80.0013 363.844 79.46C363.554 78.9093 363.41 78.256 363.41 77.5C363.41 76.744 363.554 76.0953 363.844 75.554C364.133 75.0033 364.534 74.5833 365.048 74.294C365.561 74.0047 366.144 73.86 366.798 73.86ZM366.798 74.826C366.322 74.826 365.916 74.9333 365.58 75.148C365.244 75.3627 364.982 75.6707 364.796 76.072C364.618 76.464 364.53 76.94 364.53 77.5C364.53 78.0507 364.618 78.5267 364.796 78.928C364.982 79.3293 365.244 79.6373 365.58 79.852C365.916 80.0667 366.322 80.174 366.798 80.174C367.274 80.174 367.68 80.0667 368.016 79.852C368.352 79.6373 368.608 79.3293 368.786 78.928C368.972 78.5267 369.066 78.0507 369.066 77.5C369.066 76.94 368.972 76.464 368.786 76.072C368.608 75.6707 368.352 75.3627 368.016 75.148C367.68 74.9333 367.274 74.826 366.798 74.826ZM372.294 81V74H373.274L373.372 75.568L373.19 75.414C373.34 75.0407 373.54 74.742 373.792 74.518C374.044 74.2847 374.334 74.1167 374.66 74.014C374.996 73.9113 375.342 73.86 375.696 73.86C376.2 73.86 376.658 73.958 377.068 74.154C377.479 74.3407 377.806 74.63 378.048 75.022C378.3 75.414 378.426 75.9133 378.426 76.52V81H377.306V76.912C377.306 76.1373 377.138 75.6007 376.802 75.302C376.476 74.994 376.07 74.84 375.584 74.84C375.248 74.84 374.912 74.9193 374.576 75.078C374.24 75.2367 373.96 75.4933 373.736 75.848C373.522 76.2027 373.414 76.6787 373.414 77.276V81H372.294ZM383.482 81.14C382.801 81.14 382.171 80.9953 381.592 80.706C381.023 80.4167 380.584 80.006 380.276 79.474L381.228 78.788C381.433 79.2173 381.732 79.5533 382.124 79.796C382.525 80.0387 383.006 80.16 383.566 80.16C384.061 80.16 384.448 80.0667 384.728 79.88C385.008 79.684 385.148 79.432 385.148 79.124C385.148 78.928 385.083 78.7507 384.952 78.592C384.831 78.424 384.593 78.3027 384.238 78.228L382.558 77.878C381.877 77.738 381.387 77.5047 381.088 77.178C380.799 76.8513 380.654 76.4453 380.654 75.96C380.654 75.5773 380.761 75.2273 380.976 74.91C381.2 74.5927 381.513 74.3407 381.914 74.154C382.325 73.958 382.805 73.86 383.356 73.86C384.047 73.86 384.63 73.9953 385.106 74.266C385.582 74.5367 385.937 74.9193 386.17 75.414L385.232 76.03C385.073 75.6193 384.817 75.3207 384.462 75.134C384.107 74.938 383.739 74.84 383.356 74.84C383.02 74.84 382.731 74.8867 382.488 74.98C382.255 75.0733 382.073 75.204 381.942 75.372C381.821 75.5307 381.76 75.7127 381.76 75.918C381.76 76.1233 381.83 76.3147 381.97 76.492C382.11 76.66 382.371 76.7813 382.754 76.856L384.504 77.22C385.157 77.3507 385.615 77.5653 385.876 77.864C386.137 78.1627 386.268 78.5267 386.268 78.956C386.268 79.3947 386.151 79.782 385.918 80.118C385.685 80.4447 385.358 80.6967 384.938 80.874C384.518 81.0513 384.033 81.14 383.482 81.14ZM390.879 81.14C390.431 81.14 390.006 81.056 389.605 80.888C389.213 80.72 388.891 80.4493 388.639 80.076C388.396 79.6933 388.275 79.1987 388.275 78.592V74H389.395V78.298C389.395 79.0073 389.549 79.4973 389.857 79.768C390.165 80.0293 390.599 80.16 391.159 80.16C391.42 80.16 391.677 80.118 391.929 80.034C392.181 79.9407 392.405 79.8007 392.601 79.614C392.806 79.418 392.965 79.1707 393.077 78.872C393.198 78.5733 393.259 78.2187 393.259 77.808V74H394.379V81H393.399L393.329 79.936C393.086 80.356 392.755 80.664 392.335 80.86C391.924 81.0467 391.439 81.14 390.879 81.14ZM398.05 70.78V79.222C398.05 79.5767 398.115 79.824 398.246 79.964C398.376 80.0947 398.586 80.16 398.876 80.16C399.062 80.16 399.216 80.146 399.338 80.118C399.459 80.09 399.622 80.0387 399.828 79.964L399.646 80.944C399.496 81.0093 399.333 81.056 399.156 81.084C398.978 81.1213 398.796 81.14 398.61 81.14C398.04 81.14 397.616 80.986 397.336 80.678C397.065 80.37 396.93 79.8987 396.93 79.264V70.78H398.05ZM402.643 72.012V79.068C402.643 79.4133 402.741 79.67 402.937 79.838C403.133 80.006 403.385 80.09 403.693 80.09C403.964 80.09 404.197 80.0433 404.393 79.95C404.589 79.8567 404.767 79.7307 404.925 79.572L405.317 80.51C405.103 80.706 404.846 80.86 404.547 80.972C404.258 81.084 403.922 81.14 403.539 81.14C403.185 81.14 402.853 81.0793 402.545 80.958C402.237 80.8273 401.99 80.6267 401.803 80.356C401.626 80.076 401.533 79.712 401.523 79.264V72.32L402.643 72.012ZM405.191 74V74.966H400.123V74H405.191ZM413.007 72.012V79.068C413.007 79.4133 413.105 79.67 413.301 79.838C413.497 80.006 413.749 80.09 414.057 80.09C414.327 80.09 414.561 80.0433 414.757 79.95C414.953 79.8567 415.13 79.7307 415.289 79.572L415.681 80.51C415.466 80.706 415.209 80.86 414.911 80.972C414.621 81.084 414.285 81.14 413.903 81.14C413.548 81.14 413.217 81.0793 412.909 80.958C412.601 80.8273 412.353 80.6267 412.167 80.356C411.989 80.076 411.896 79.712 411.887 79.264V72.32L413.007 72.012ZM415.555 74V74.966H410.487V74H415.555ZM417.22 81V70.78H418.34V75.05C418.583 74.63 418.905 74.3267 419.306 74.14C419.707 73.9533 420.146 73.86 420.622 73.86C421.126 73.86 421.583 73.958 421.994 74.154C422.405 74.3407 422.731 74.63 422.974 75.022C423.226 75.414 423.352 75.9133 423.352 76.52V81H422.232V76.912C422.232 76.1373 422.064 75.6007 421.728 75.302C421.401 74.994 420.995 74.84 420.51 74.84C420.174 74.84 419.838 74.9193 419.502 75.078C419.166 75.2367 418.886 75.498 418.662 75.862C418.447 76.2167 418.34 76.6927 418.34 77.29V81H417.22ZM428.814 81.14C428.151 81.14 427.559 80.9953 427.036 80.706C426.523 80.4167 426.121 80.0013 425.832 79.46C425.543 78.9093 425.398 78.256 425.398 77.5C425.398 76.744 425.543 76.0953 425.832 75.554C426.121 75.0033 426.518 74.5833 427.022 74.294C427.526 74.0047 428.1 73.86 428.744 73.86C429.397 73.86 429.953 74 430.41 74.28C430.877 74.56 431.231 74.9427 431.474 75.428C431.717 75.904 431.838 76.4407 431.838 77.038C431.838 77.1967 431.833 77.3413 431.824 77.472C431.815 77.6027 431.801 77.7193 431.782 77.822H426.126V76.828H431.292L430.718 76.94C430.718 76.268 430.531 75.75 430.158 75.386C429.794 75.022 429.313 74.84 428.716 74.84C428.259 74.84 427.862 74.9473 427.526 75.162C427.199 75.3673 426.943 75.6707 426.756 76.072C426.579 76.464 426.49 76.94 426.49 77.5C426.49 78.0507 426.583 78.5267 426.77 78.928C426.957 79.3293 427.218 79.6373 427.554 79.852C427.899 80.0573 428.31 80.16 428.786 80.16C429.299 80.16 429.715 80.062 430.032 79.866C430.359 79.67 430.62 79.404 430.816 79.068L431.698 79.586C431.521 79.9033 431.292 80.1787 431.012 80.412C430.741 80.6453 430.419 80.8273 430.046 80.958C429.682 81.0793 429.271 81.14 428.814 81.14ZM442.45 71.76C443.392 71.76 444.148 72.0027 444.718 72.488C445.287 72.9733 445.572 73.6313 445.572 74.462C445.572 75.2927 445.282 75.9413 444.704 76.408C444.134 76.8653 443.378 77.094 442.436 77.094L442.338 77.164H440.07V81H438.95V71.76H442.45ZM442.436 76.114C443.098 76.114 443.588 75.9787 443.906 75.708C444.232 75.428 444.396 75.0127 444.396 74.462C444.396 73.9113 444.232 73.5007 443.906 73.23C443.588 72.95 443.098 72.81 442.436 72.81H440.07V76.114H442.436ZM443.08 76.338L446.132 81H444.802L442.142 76.954L443.08 76.338ZM450.744 81.14C450.081 81.14 449.488 80.9953 448.966 80.706C448.452 80.4167 448.051 80.0013 447.762 79.46C447.472 78.9093 447.328 78.256 447.328 77.5C447.328 76.744 447.472 76.0953 447.762 75.554C448.051 75.0033 448.448 74.5833 448.952 74.294C449.456 74.0047 450.03 73.86 450.674 73.86C451.327 73.86 451.882 74 452.34 74.28C452.806 74.56 453.161 74.9427 453.404 75.428C453.646 75.904 453.768 76.4407 453.768 77.038C453.768 77.1967 453.763 77.3413 453.754 77.472C453.744 77.6027 453.73 77.7193 453.712 77.822H448.056V76.828H453.222L452.648 76.94C452.648 76.268 452.461 75.75 452.088 75.386C451.724 75.022 451.243 74.84 450.646 74.84C450.188 74.84 449.792 74.9473 449.456 75.162C449.129 75.3673 448.872 75.6707 448.686 76.072C448.508 76.464 448.42 76.94 448.42 77.5C448.42 78.0507 448.513 78.5267 448.7 78.928C448.886 79.3293 449.148 79.6373 449.484 79.852C449.829 80.0573 450.24 80.16 450.716 80.16C451.229 80.16 451.644 80.062 451.962 79.866C452.288 79.67 452.55 79.404 452.746 79.068L453.628 79.586C453.45 79.9033 453.222 80.1787 452.942 80.412C452.671 80.6453 452.349 80.8273 451.976 80.958C451.612 81.0793 451.201 81.14 450.744 81.14ZM458.418 81.14C457.736 81.14 457.106 80.9953 456.528 80.706C455.958 80.4167 455.52 80.006 455.212 79.474L456.164 78.788C456.369 79.2173 456.668 79.5533 457.06 79.796C457.461 80.0387 457.942 80.16 458.502 80.16C458.996 80.16 459.384 80.0667 459.664 79.88C459.944 79.684 460.084 79.432 460.084 79.124C460.084 78.928 460.018 78.7507 459.888 78.592C459.766 78.424 459.528 78.3027 459.174 78.228L457.494 77.878C456.812 77.738 456.322 77.5047 456.024 77.178C455.734 76.8513 455.59 76.4453 455.59 75.96C455.59 75.5773 455.697 75.2273 455.912 74.91C456.136 74.5927 456.448 74.3407 456.85 74.154C457.26 73.958 457.741 73.86 458.292 73.86C458.982 73.86 459.566 73.9953 460.042 74.266C460.518 74.5367 460.872 74.9193 461.106 75.414L460.168 76.03C460.009 75.6193 459.752 75.3207 459.398 75.134C459.043 74.938 458.674 74.84 458.292 74.84C457.956 74.84 457.666 74.8867 457.424 74.98C457.19 75.0733 457.008 75.204 456.878 75.372C456.756 75.5307 456.696 75.7127 456.696 75.918C456.696 76.1233 456.766 76.3147 456.906 76.492C457.046 76.66 457.307 76.7813 457.69 76.856L459.44 77.22C460.093 77.3507 460.55 77.5653 460.812 77.864C461.073 78.1627 461.204 78.5267 461.204 78.956C461.204 79.3947 461.087 79.782 460.854 80.118C460.62 80.4447 460.294 80.6967 459.874 80.874C459.454 81.0513 458.968 81.14 458.418 81.14ZM466.207 81.14C465.544 81.14 464.951 80.9953 464.429 80.706C463.915 80.4167 463.514 80.0013 463.225 79.46C462.935 78.9093 462.791 78.256 462.791 77.5C462.791 76.744 462.935 76.0953 463.225 75.554C463.514 75.0033 463.911 74.5833 464.415 74.294C464.919 74.0047 465.493 73.86 466.137 73.86C466.79 73.86 467.345 74 467.803 74.28C468.269 74.56 468.624 74.9427 468.867 75.428C469.109 75.904 469.231 76.4407 469.231 77.038C469.231 77.1967 469.226 77.3413 469.217 77.472C469.207 77.6027 469.193 77.7193 469.175 77.822H463.519V76.828H468.685L468.111 76.94C468.111 76.268 467.924 75.75 467.551 75.386C467.187 75.022 466.706 74.84 466.109 74.84C465.651 74.84 465.255 74.9473 464.919 75.162C464.592 75.3673 464.335 75.6707 464.149 76.072C463.971 76.464 463.883 76.94 463.883 77.5C463.883 78.0507 463.976 78.5267 464.163 78.928C464.349 79.3293 464.611 79.6373 464.947 79.852C465.292 80.0573 465.703 80.16 466.179 80.16C466.692 80.16 467.107 80.062 467.425 79.866C467.751 79.67 468.013 79.404 468.209 79.068L469.091 79.586C468.913 79.9033 468.685 80.1787 468.405 80.412C468.134 80.6453 467.812 80.8273 467.439 80.958C467.075 81.0793 466.664 81.14 466.207 81.14ZM475.449 76.478C475.449 75.9553 475.309 75.554 475.029 75.274C474.749 74.9847 474.352 74.84 473.839 74.84C473.353 74.84 472.943 74.9473 472.607 75.162C472.271 75.3673 472.023 75.7033 471.865 76.17L470.955 75.61C471.141 75.0873 471.487 74.6673 471.991 74.35C472.495 74.0233 473.12 73.86 473.867 73.86C474.371 73.86 474.828 73.9487 475.239 74.126C475.649 74.294 475.971 74.5553 476.205 74.91C476.447 75.2553 476.569 75.7033 476.569 76.254V79.642C476.569 79.978 476.746 80.146 477.101 80.146C477.278 80.146 477.451 80.1227 477.619 80.076L477.563 80.958C477.376 81.0513 477.133 81.098 476.835 81.098C476.564 81.098 476.321 81.0467 476.107 80.944C475.892 80.8413 475.724 80.6873 475.603 80.482C475.481 80.2673 475.421 80.0013 475.421 79.684V79.544L475.701 79.586C475.589 79.95 475.397 80.2487 475.127 80.482C474.856 80.706 474.553 80.874 474.217 80.986C473.881 81.0887 473.549 81.14 473.223 81.14C472.812 81.14 472.429 81.07 472.075 80.93C471.72 80.79 471.435 80.58 471.221 80.3C471.015 80.0107 470.913 79.656 470.913 79.236C470.913 78.7133 471.085 78.284 471.431 77.948C471.785 77.6027 472.275 77.3693 472.901 77.248L475.673 76.702V77.626L473.419 78.088C472.961 78.1813 472.621 78.312 472.397 78.48C472.173 78.648 472.061 78.8813 472.061 79.18C472.061 79.4693 472.173 79.7073 472.397 79.894C472.63 80.0713 472.957 80.16 473.377 80.16C473.647 80.16 473.904 80.1273 474.147 80.062C474.399 79.9873 474.623 79.88 474.819 79.74C475.015 79.5907 475.169 79.4087 475.281 79.194C475.393 78.97 475.449 78.7087 475.449 78.41V76.478ZM479.29 81V74H480.2L480.354 75.148C480.55 74.7187 480.835 74.3967 481.208 74.182C481.591 73.9673 482.053 73.86 482.594 73.86C482.716 73.86 482.846 73.8693 482.986 73.888C483.136 73.9067 483.262 73.944 483.364 74L483.168 75.022C483.066 74.9847 482.954 74.9567 482.832 74.938C482.711 74.9193 482.538 74.91 482.314 74.91C482.025 74.91 481.731 74.994 481.432 75.162C481.143 75.33 480.9 75.5867 480.704 75.932C480.508 76.268 480.41 76.6973 480.41 77.22V81H479.29ZM487.684 73.86C488.17 73.86 488.594 73.9347 488.958 74.084C489.332 74.2333 489.654 74.448 489.924 74.728C490.195 75.008 490.414 75.3393 490.582 75.722L489.518 76.226C489.369 75.778 489.14 75.4373 488.832 75.204C488.534 74.9613 488.142 74.84 487.656 74.84C487.19 74.84 486.788 74.9473 486.452 75.162C486.116 75.3673 485.86 75.6707 485.682 76.072C485.505 76.464 485.416 76.94 485.416 77.5C485.416 78.0507 485.505 78.5267 485.682 78.928C485.86 79.3293 486.116 79.6373 486.452 79.852C486.788 80.0573 487.19 80.16 487.656 80.16C488.02 80.16 488.333 80.104 488.594 79.992C488.865 79.88 489.084 79.7167 489.252 79.502C489.43 79.2873 489.551 79.026 489.616 78.718L490.652 79.082C490.494 79.5113 490.274 79.88 489.994 80.188C489.724 80.496 489.392 80.734 489 80.902C488.618 81.0607 488.179 81.14 487.684 81.14C487.031 81.14 486.448 80.9953 485.934 80.706C485.421 80.4167 485.02 80.0013 484.73 79.46C484.441 78.9093 484.296 78.256 484.296 77.5C484.296 76.744 484.441 76.0953 484.73 75.554C485.02 75.0033 485.421 74.5833 485.934 74.294C486.448 74.0047 487.031 73.86 487.684 73.86ZM492.62 81V70.78H493.74V75.05C493.983 74.63 494.305 74.3267 494.706 74.14C495.108 73.9533 495.546 73.86 496.022 73.86C496.526 73.86 496.984 73.958 497.394 74.154C497.805 74.3407 498.132 74.63 498.374 75.022C498.626 75.414 498.752 75.9133 498.752 76.52V81H497.632V76.912C497.632 76.1373 497.464 75.6007 497.128 75.302C496.802 74.994 496.396 74.84 495.91 74.84C495.574 74.84 495.238 74.9193 494.902 75.078C494.566 75.2367 494.286 75.498 494.062 75.862C493.848 76.2167 493.74 76.6927 493.74 77.29V81H492.62Z" fill="#454545"/>
<mask id="path-13-inside-3_10_12935" fill="white">
<path d="M528 24H795V104H528V24Z"/>
</mask>
<path d="M528 24H795V104H528V24Z" fill="white"/>
<path d="M528 36H795V12H528V36Z" fill="#F89B1B" mask="url(#path-13-inside-3_10_12935)"/>
<circle cx="554" cy="68" r="8" fill="#BDBDBD"/>
<path d="M585 64.5H580V62.5H585V64.5ZM585 67.5H580V69.5H585V67.5ZM598.59 74.5L594.76 70.67C593.96 71.19 593.02 71.5 592 71.5C589.24 71.5 587 69.26 587 66.5C587 63.74 589.24 61.5 592 61.5C594.76 61.5 597 63.74 597 66.5C597 67.52 596.69 68.46 596.17 69.25L600 73.09L598.59 74.5ZM595 66.5C595 64.85 593.65 63.5 592 63.5C590.35 63.5 589 64.85 589 66.5C589 68.15 590.35 69.5 592 69.5C593.65 69.5 595 68.15 595 66.5ZM580 74.5H590V72.5H580V74.5Z" fill="#454545"/>
<path d="M617.608 60H616.588L615.748 57.804H612.16L611.32 60H610.312L613.396 52.08H614.536L617.608 60ZM612.508 56.904H615.4L613.948 53.004L612.508 56.904ZM619.358 60V54H620.138L620.27 54.984C620.438 54.616 620.682 54.34 621.002 54.156C621.33 53.972 621.726 53.88 622.19 53.88C622.294 53.88 622.406 53.888 622.526 53.904C622.654 53.92 622.762 53.952 622.85 54L622.682 54.876C622.594 54.844 622.498 54.82 622.394 54.804C622.29 54.788 622.142 54.78 621.95 54.78C621.702 54.78 621.45 54.852 621.194 54.996C620.946 55.14 620.738 55.36 620.57 55.656C620.402 55.944 620.318 56.312 620.318 56.76V60H619.358ZM625.629 52.296V58.344C625.629 58.64 625.713 58.86 625.881 59.004C626.049 59.148 626.265 59.22 626.529 59.22C626.761 59.22 626.961 59.18 627.129 59.1C627.297 59.02 627.449 58.912 627.585 58.776L627.921 59.58C627.737 59.748 627.517 59.88 627.261 59.976C627.013 60.072 626.725 60.12 626.397 60.12C626.093 60.12 625.809 60.068 625.545 59.964C625.281 59.852 625.069 59.68 624.909 59.448C624.757 59.208 624.677 58.896 624.669 58.512V52.56L625.629 52.296ZM627.813 54V54.828H623.469V54H627.813ZM630.04 52.848C629.824 52.848 629.648 52.784 629.512 52.656C629.384 52.52 629.32 52.344 629.32 52.128C629.32 51.912 629.384 51.74 629.512 51.612C629.648 51.476 629.824 51.408 630.04 51.408C630.256 51.408 630.428 51.476 630.556 51.612C630.692 51.74 630.76 51.912 630.76 52.128C630.76 52.344 630.692 52.52 630.556 52.656C630.428 52.784 630.256 52.848 630.04 52.848ZM630.52 54V60H629.56V54H630.52ZM635.504 51.18C635.712 51.18 635.908 51.204 636.092 51.252C636.276 51.3 636.42 51.368 636.524 51.456L636.272 52.236C636.176 52.172 636.072 52.128 635.96 52.104C635.848 52.072 635.724 52.056 635.588 52.056C635.244 52.056 634.976 52.14 634.784 52.308C634.592 52.468 634.496 52.728 634.496 53.088V54V54.312V60H633.536V52.992C633.536 52.728 633.576 52.484 633.656 52.26C633.736 52.036 633.856 51.844 634.016 51.684C634.184 51.524 634.392 51.4 634.64 51.312C634.888 51.224 635.176 51.18 635.504 51.18ZM636.5 54V54.828H632.336V54H636.5ZM641.24 56.124C641.24 55.676 641.12 55.332 640.88 55.092C640.64 54.844 640.3 54.72 639.86 54.72C639.444 54.72 639.092 54.812 638.804 54.996C638.516 55.172 638.304 55.46 638.168 55.86L637.388 55.38C637.548 54.932 637.844 54.572 638.276 54.3C638.708 54.02 639.244 53.88 639.884 53.88C640.316 53.88 640.708 53.956 641.06 54.108C641.412 54.252 641.688 54.476 641.888 54.78C642.096 55.076 642.2 55.46 642.2 55.932V58.836C642.2 59.124 642.352 59.268 642.656 59.268C642.808 59.268 642.956 59.248 643.1 59.208L643.052 59.964C642.892 60.044 642.684 60.084 642.428 60.084C642.196 60.084 641.988 60.04 641.804 59.952C641.62 59.864 641.476 59.732 641.372 59.556C641.268 59.372 641.216 59.144 641.216 58.872V58.752L641.456 58.788C641.36 59.1 641.196 59.356 640.964 59.556C640.732 59.748 640.472 59.892 640.184 59.988C639.896 60.076 639.612 60.12 639.332 60.12C638.98 60.12 638.652 60.06 638.348 59.94C638.044 59.82 637.8 59.64 637.616 59.4C637.44 59.152 637.352 58.848 637.352 58.488C637.352 58.04 637.5 57.672 637.796 57.384C638.1 57.088 638.52 56.888 639.056 56.784L641.432 56.316V57.108L639.5 57.504C639.108 57.584 638.816 57.696 638.624 57.84C638.432 57.984 638.336 58.184 638.336 58.44C638.336 58.688 638.432 58.892 638.624 59.052C638.824 59.204 639.104 59.28 639.464 59.28C639.696 59.28 639.916 59.252 640.124 59.196C640.34 59.132 640.532 59.04 640.7 58.92C640.868 58.792 641 58.636 641.096 58.452C641.192 58.26 641.24 58.036 641.24 57.78V56.124ZM647.336 53.88C647.752 53.88 648.116 53.944 648.428 54.072C648.748 54.2 649.024 54.384 649.256 54.624C649.488 54.864 649.676 55.148 649.82 55.476L648.908 55.908C648.78 55.524 648.584 55.232 648.32 55.032C648.064 54.824 647.728 54.72 647.312 54.72C646.912 54.72 646.568 54.812 646.28 54.996C645.992 55.172 645.772 55.432 645.62 55.776C645.468 56.112 645.392 56.52 645.392 57C645.392 57.472 645.468 57.88 645.62 58.224C645.772 58.568 645.992 58.832 646.28 59.016C646.568 59.192 646.912 59.28 647.312 59.28C647.624 59.28 647.892 59.232 648.116 59.136C648.348 59.04 648.536 58.9 648.68 58.716C648.832 58.532 648.936 58.308 648.992 58.044L649.88 58.356C649.744 58.724 649.556 59.04 649.316 59.304C649.084 59.568 648.8 59.772 648.464 59.916C648.136 60.052 647.76 60.12 647.336 60.12C646.776 60.12 646.276 59.996 645.836 59.748C645.396 59.5 645.052 59.144 644.804 58.68C644.556 58.208 644.432 57.648 644.432 57C644.432 56.352 644.556 55.796 644.804 55.332C645.052 54.86 645.396 54.5 645.836 54.252C646.276 54.004 646.776 53.88 647.336 53.88ZM653.303 52.296V58.344C653.303 58.64 653.387 58.86 653.555 59.004C653.723 59.148 653.939 59.22 654.203 59.22C654.435 59.22 654.635 59.18 654.803 59.1C654.971 59.02 655.123 58.912 655.259 58.776L655.595 59.58C655.411 59.748 655.191 59.88 654.935 59.976C654.687 60.072 654.399 60.12 654.071 60.12C653.767 60.12 653.483 60.068 653.219 59.964C652.955 59.852 652.743 59.68 652.583 59.448C652.431 59.208 652.351 58.896 652.343 58.512V52.56L653.303 52.296ZM655.487 54V54.828H651.143V54H655.487ZM659.395 60.12C658.811 60.12 658.271 59.996 657.775 59.748C657.287 59.5 656.911 59.148 656.647 58.692L657.463 58.104C657.639 58.472 657.895 58.76 658.231 58.968C658.575 59.176 658.987 59.28 659.467 59.28C659.891 59.28 660.223 59.2 660.463 59.04C660.703 58.872 660.823 58.656 660.823 58.392C660.823 58.224 660.767 58.072 660.655 57.936C660.551 57.792 660.347 57.688 660.043 57.624L658.603 57.324C658.019 57.204 657.599 57.004 657.343 56.724C657.095 56.444 656.971 56.096 656.971 55.68C656.971 55.352 657.063 55.052 657.247 54.78C657.439 54.508 657.707 54.292 658.051 54.132C658.403 53.964 658.815 53.88 659.287 53.88C659.879 53.88 660.379 53.996 660.787 54.228C661.195 54.46 661.499 54.788 661.699 55.212L660.895 55.74C660.759 55.388 660.539 55.132 660.235 54.972C659.931 54.804 659.615 54.72 659.287 54.72C658.999 54.72 658.751 54.76 658.543 54.84C658.343 54.92 658.187 55.032 658.075 55.176C657.971 55.312 657.919 55.468 657.919 55.644C657.919 55.82 657.979 55.984 658.099 56.136C658.219 56.28 658.443 56.384 658.771 56.448L660.271 56.76C660.831 56.872 661.223 57.056 661.447 57.312C661.671 57.568 661.783 57.88 661.783 58.248C661.783 58.624 661.683 58.956 661.483 59.244C661.283 59.524 661.003 59.74 660.643 59.892C660.283 60.044 659.867 60.12 659.395 60.12ZM669.433 52.08V60H668.473V52.08H669.433ZM673.303 52.08V60H672.343V52.08H673.303Z" fill="#707070"/>
<path d="M612.632 71.76V81H611.512V71.76H612.632ZM615.376 81V74H616.356L616.454 75.568L616.272 75.414C616.422 75.0407 616.622 74.742 616.874 74.518C617.126 74.2847 617.416 74.1167 617.742 74.014C618.078 73.9113 618.424 73.86 618.778 73.86C619.282 73.86 619.74 73.958 620.15 74.154C620.561 74.3407 620.888 74.63 621.13 75.022C621.382 75.414 621.508 75.9133 621.508 76.52V81H620.388V76.912C620.388 76.1373 620.22 75.6007 619.884 75.302C619.558 74.994 619.152 74.84 618.666 74.84C618.33 74.84 617.994 74.9193 617.658 75.078C617.322 75.2367 617.042 75.4933 616.818 75.848C616.604 76.2027 616.496 76.6787 616.496 77.276V81H615.376ZM628.5 74H629.676L626.764 81H625.644L622.732 74H624.006L626.218 79.866L628.5 74ZM634.066 81.14C633.403 81.14 632.811 80.9953 632.288 80.706C631.775 80.4167 631.373 80.0013 631.084 79.46C630.795 78.9093 630.65 78.256 630.65 77.5C630.65 76.744 630.795 76.0953 631.084 75.554C631.373 75.0033 631.77 74.5833 632.274 74.294C632.778 74.0047 633.352 73.86 633.996 73.86C634.649 73.86 635.205 74 635.662 74.28C636.129 74.56 636.483 74.9427 636.726 75.428C636.969 75.904 637.09 76.4407 637.09 77.038C637.09 77.1967 637.085 77.3413 637.076 77.472C637.067 77.6027 637.053 77.7193 637.034 77.822H631.378V76.828H636.544L635.97 76.94C635.97 76.268 635.783 75.75 635.41 75.386C635.046 75.022 634.565 74.84 633.968 74.84C633.511 74.84 633.114 74.9473 632.778 75.162C632.451 75.3673 632.195 75.6707 632.008 76.072C631.831 76.464 631.742 76.94 631.742 77.5C631.742 78.0507 631.835 78.5267 632.022 78.928C632.209 79.3293 632.47 79.6373 632.806 79.852C633.151 80.0573 633.562 80.16 634.038 80.16C634.551 80.16 634.967 80.062 635.284 79.866C635.611 79.67 635.872 79.404 636.068 79.068L636.95 79.586C636.773 79.9033 636.544 80.1787 636.264 80.412C635.993 80.6453 635.671 80.8273 635.298 80.958C634.934 81.0793 634.523 81.14 634.066 81.14ZM641.74 81.14C641.059 81.14 640.429 80.9953 639.85 80.706C639.281 80.4167 638.842 80.006 638.534 79.474L639.486 78.788C639.691 79.2173 639.99 79.5533 640.382 79.796C640.783 80.0387 641.264 80.16 641.824 80.16C642.319 80.16 642.706 80.0667 642.986 79.88C643.266 79.684 643.406 79.432 643.406 79.124C643.406 78.928 643.341 78.7507 643.21 78.592C643.089 78.424 642.851 78.3027 642.496 78.228L640.816 77.878C640.135 77.738 639.645 77.5047 639.346 77.178C639.057 76.8513 638.912 76.4453 638.912 75.96C638.912 75.5773 639.019 75.2273 639.234 74.91C639.458 74.5927 639.771 74.3407 640.172 74.154C640.583 73.958 641.063 73.86 641.614 73.86C642.305 73.86 642.888 73.9953 643.364 74.266C643.84 74.5367 644.195 74.9193 644.428 75.414L643.49 76.03C643.331 75.6193 643.075 75.3207 642.72 75.134C642.365 74.938 641.997 74.84 641.614 74.84C641.278 74.84 640.989 74.8867 640.746 74.98C640.513 75.0733 640.331 75.204 640.2 75.372C640.079 75.5307 640.018 75.7127 640.018 75.918C640.018 76.1233 640.088 76.3147 640.228 76.492C640.368 76.66 640.629 76.7813 641.012 76.856L642.762 77.22C643.415 77.3507 643.873 77.5653 644.134 77.864C644.395 78.1627 644.526 78.5267 644.526 78.956C644.526 79.3947 644.409 79.782 644.176 80.118C643.943 80.4447 643.616 80.6967 643.196 80.874C642.776 81.0513 642.291 81.14 641.74 81.14ZM648.255 72.012V79.068C648.255 79.4133 648.353 79.67 648.549 79.838C648.745 80.006 648.997 80.09 649.305 80.09C649.575 80.09 649.809 80.0433 650.005 79.95C650.201 79.8567 650.378 79.7307 650.537 79.572L650.929 80.51C650.714 80.706 650.457 80.86 650.159 80.972C649.869 81.084 649.533 81.14 649.151 81.14C648.796 81.14 648.465 81.0793 648.157 80.958C647.849 80.8273 647.601 80.6267 647.415 80.356C647.237 80.076 647.144 79.712 647.135 79.264V72.32L648.255 72.012ZM650.803 74V74.966H645.735V74H650.803ZM653.028 72.656C652.776 72.656 652.571 72.5813 652.412 72.432C652.263 72.2733 652.188 72.068 652.188 71.816C652.188 71.564 652.263 71.3633 652.412 71.214C652.571 71.0553 652.776 70.976 653.028 70.976C653.28 70.976 653.481 71.0553 653.63 71.214C653.789 71.3633 653.868 71.564 653.868 71.816C653.868 72.068 653.789 72.2733 653.63 72.432C653.481 72.5813 653.28 72.656 653.028 72.656ZM653.588 74V81H652.468V74H653.588ZM662.081 72.712L662.333 73.706C662.323 73.706 662.309 73.706 662.291 73.706C662.272 73.706 662.253 73.706 662.235 73.706C661.777 73.706 661.423 73.7993 661.171 73.986C660.928 74.1633 660.807 74.4527 660.807 74.854L660.121 74.504C660.121 74.14 660.205 73.8227 660.373 73.552C660.541 73.2813 660.769 73.076 661.059 72.936C661.348 72.7867 661.665 72.712 662.011 72.712C662.02 72.712 662.029 72.712 662.039 72.712C662.057 72.712 662.071 72.712 662.081 72.712ZM659.953 80.104C660.615 80.104 661.133 80.258 661.507 80.566C661.88 80.8647 662.067 81.266 662.067 81.77C662.067 82.2273 661.913 82.624 661.605 82.96C661.306 83.296 660.9 83.5527 660.387 83.73C659.883 83.9167 659.313 84.01 658.679 84.01C657.577 84.01 656.751 83.8233 656.201 83.45C655.659 83.0767 655.389 82.6287 655.389 82.106C655.389 81.7327 655.51 81.3967 655.753 81.098C656.005 80.8087 656.425 80.6453 657.013 80.608L656.915 80.818C656.597 80.734 656.327 80.594 656.103 80.398C655.888 80.1927 655.781 79.8987 655.781 79.516C655.781 79.1333 655.921 78.8067 656.201 78.536C656.49 78.256 656.915 78.0833 657.475 78.018L658.217 78.396H658.077C657.619 78.4427 657.293 78.5593 657.097 78.746C656.91 78.9233 656.817 79.1193 656.817 79.334C656.817 79.5953 656.91 79.7913 657.097 79.922C657.293 80.0433 657.563 80.104 657.909 80.104H659.953ZM658.665 83.072C659.206 83.072 659.649 83.016 659.995 82.904C660.349 82.792 660.611 82.6473 660.779 82.47C660.947 82.2927 661.031 82.1013 661.031 81.896C661.031 81.644 660.928 81.4433 660.723 81.294C660.527 81.1447 660.167 81.07 659.645 81.07H657.489C657.19 81.07 656.938 81.1447 656.733 81.294C656.527 81.4527 656.425 81.6673 656.425 81.938C656.425 82.2833 656.621 82.5587 657.013 82.764C657.414 82.9693 657.965 83.072 658.665 83.072ZM658.567 73.86C659.127 73.86 659.621 73.9627 660.051 74.168C660.489 74.364 660.83 74.6393 661.073 74.994C661.315 75.3487 661.437 75.7593 661.437 76.226C661.437 76.6833 661.315 77.094 661.073 77.458C660.83 77.8127 660.489 78.0927 660.051 78.298C659.621 78.494 659.127 78.592 658.567 78.592C657.643 78.592 656.933 78.3727 656.439 77.934C655.944 77.486 655.697 76.9167 655.697 76.226C655.697 75.7593 655.818 75.3487 656.061 74.994C656.313 74.6393 656.653 74.364 657.083 74.168C657.512 73.9627 658.007 73.86 658.567 73.86ZM658.567 74.77C658.081 74.77 657.675 74.9053 657.349 75.176C657.022 75.4373 656.859 75.7873 656.859 76.226C656.859 76.6553 657.022 77.0053 657.349 77.276C657.675 77.5467 658.081 77.682 658.567 77.682C659.052 77.682 659.458 77.5467 659.785 77.276C660.111 77.0053 660.275 76.6553 660.275 76.226C660.275 75.7873 660.111 75.4373 659.785 75.176C659.458 74.9053 659.052 74.77 658.567 74.77ZM667.726 76.478C667.726 75.9553 667.586 75.554 667.306 75.274C667.026 74.9847 666.629 74.84 666.116 74.84C665.631 74.84 665.22 74.9473 664.884 75.162C664.548 75.3673 664.301 75.7033 664.142 76.17L663.232 75.61C663.419 75.0873 663.764 74.6673 664.268 74.35C664.772 74.0233 665.397 73.86 666.144 73.86C666.648 73.86 667.105 73.9487 667.516 74.126C667.927 74.294 668.249 74.5553 668.482 74.91C668.725 75.2553 668.846 75.7033 668.846 76.254V79.642C668.846 79.978 669.023 80.146 669.378 80.146C669.555 80.146 669.728 80.1227 669.896 80.076L669.84 80.958C669.653 81.0513 669.411 81.098 669.112 81.098C668.841 81.098 668.599 81.0467 668.384 80.944C668.169 80.8413 668.001 80.6873 667.88 80.482C667.759 80.2673 667.698 80.0013 667.698 79.684V79.544L667.978 79.586C667.866 79.95 667.675 80.2487 667.404 80.482C667.133 80.706 666.83 80.874 666.494 80.986C666.158 81.0887 665.827 81.14 665.5 81.14C665.089 81.14 664.707 81.07 664.352 80.93C663.997 80.79 663.713 80.58 663.498 80.3C663.293 80.0107 663.19 79.656 663.19 79.236C663.19 78.7133 663.363 78.284 663.708 77.948C664.063 77.6027 664.553 77.3693 665.178 77.248L667.95 76.702V77.626L665.696 78.088C665.239 78.1813 664.898 78.312 664.674 78.48C664.45 78.648 664.338 78.8813 664.338 79.18C664.338 79.4693 664.45 79.7073 664.674 79.894C664.907 80.0713 665.234 80.16 665.654 80.16C665.925 80.16 666.181 80.1273 666.424 80.062C666.676 79.9873 666.9 79.88 667.096 79.74C667.292 79.5907 667.446 79.4087 667.558 79.194C667.67 78.97 667.726 78.7087 667.726 78.41V76.478ZM672.946 72.012V79.068C672.946 79.4133 673.044 79.67 673.24 79.838C673.436 80.006 673.688 80.09 673.996 80.09C674.267 80.09 674.5 80.0433 674.696 79.95C674.892 79.8567 675.07 79.7307 675.228 79.572L675.62 80.51C675.406 80.706 675.149 80.86 674.85 80.972C674.561 81.084 674.225 81.14 673.842 81.14C673.488 81.14 673.156 81.0793 672.848 80.958C672.54 80.8273 672.293 80.6267 672.106 80.356C671.929 80.076 671.836 79.712 671.826 79.264V72.32L672.946 72.012ZM675.494 74V74.966H670.426V74H675.494ZM680.085 81.14C679.423 81.14 678.83 80.9953 678.307 80.706C677.794 80.4167 677.393 80.0013 677.103 79.46C676.814 78.9093 676.669 78.256 676.669 77.5C676.669 76.744 676.814 76.0953 677.103 75.554C677.393 75.0033 677.789 74.5833 678.293 74.294C678.797 74.0047 679.371 73.86 680.015 73.86C680.669 73.86 681.224 74 681.681 74.28C682.148 74.56 682.503 74.9427 682.745 75.428C682.988 75.904 683.109 76.4407 683.109 77.038C683.109 77.1967 683.105 77.3413 683.095 77.472C683.086 77.6027 683.072 77.7193 683.053 77.822H677.397V76.828H682.563L681.989 76.94C681.989 76.268 681.803 75.75 681.429 75.386C681.065 75.022 680.585 74.84 679.987 74.84C679.53 74.84 679.133 74.9473 678.797 75.162C678.471 75.3673 678.214 75.6707 678.027 76.072C677.85 76.464 677.761 76.94 677.761 77.5C677.761 78.0507 677.855 78.5267 678.041 78.928C678.228 79.3293 678.489 79.6373 678.825 79.852C679.171 80.0573 679.581 80.16 680.057 80.16C680.571 80.16 680.986 80.062 681.303 79.866C681.63 79.67 681.891 79.404 682.087 79.068L682.969 79.586C682.792 79.9033 682.563 80.1787 682.283 80.412C682.013 80.6453 681.691 80.8273 681.317 80.958C680.953 81.0793 680.543 81.14 680.085 81.14ZM691.39 72.012V79.068C691.39 79.4133 691.488 79.67 691.684 79.838C691.88 80.006 692.132 80.09 692.44 80.09C692.71 80.09 692.944 80.0433 693.14 79.95C693.336 79.8567 693.513 79.7307 693.672 79.572L694.064 80.51C693.849 80.706 693.592 80.86 693.294 80.972C693.004 81.084 692.668 81.14 692.286 81.14C691.931 81.14 691.6 81.0793 691.292 80.958C690.984 80.8273 690.736 80.6267 690.55 80.356C690.372 80.076 690.279 79.712 690.27 79.264V72.32L691.39 72.012ZM693.938 74V74.966H688.87V74H693.938ZM695.603 81V70.78H696.723V75.05C696.965 74.63 697.287 74.3267 697.689 74.14C698.09 73.9533 698.529 73.86 699.005 73.86C699.509 73.86 699.966 73.958 700.377 74.154C700.787 74.3407 701.114 74.63 701.357 75.022C701.609 75.414 701.735 75.9133 701.735 76.52V81H700.615V76.912C700.615 76.1373 700.447 75.6007 700.111 75.302C699.784 74.994 699.378 74.84 698.893 74.84C698.557 74.84 698.221 74.9193 697.885 75.078C697.549 75.2367 697.269 75.498 697.045 75.862C696.83 76.2167 696.723 76.6927 696.723 77.29V81H695.603ZM707.197 81.14C706.534 81.14 705.941 80.9953 705.419 80.706C704.905 80.4167 704.504 80.0013 704.215 79.46C703.925 78.9093 703.781 78.256 703.781 77.5C703.781 76.744 703.925 76.0953 704.215 75.554C704.504 75.0033 704.901 74.5833 705.405 74.294C705.909 74.0047 706.483 73.86 707.127 73.86C707.78 73.86 708.335 74 708.793 74.28C709.259 74.56 709.614 74.9427 709.857 75.428C710.099 75.904 710.221 76.4407 710.221 77.038C710.221 77.1967 710.216 77.3413 710.207 77.472C710.197 77.6027 710.183 77.7193 710.165 77.822H704.509V76.828H709.675L709.101 76.94C709.101 76.268 708.914 75.75 708.541 75.386C708.177 75.022 707.696 74.84 707.099 74.84C706.641 74.84 706.245 74.9473 705.909 75.162C705.582 75.3673 705.325 75.6707 705.139 76.072C704.961 76.464 704.873 76.94 704.873 77.5C704.873 78.0507 704.966 78.5267 705.153 78.928C705.339 79.3293 705.601 79.6373 705.937 79.852C706.282 80.0573 706.693 80.16 707.169 80.16C707.682 80.16 708.097 80.062 708.415 79.866C708.741 79.67 709.003 79.404 709.199 79.068L710.081 79.586C709.903 79.9033 709.675 80.1787 709.395 80.412C709.124 80.6453 708.802 80.8273 708.429 80.958C708.065 81.0793 707.654 81.14 707.197 81.14ZM717.332 81V71.76H723.814V72.81H718.452V75.792H722.624V76.842H718.452V79.95H724.024V81H717.332ZM730.233 74H731.409L728.497 81H727.377L724.465 74H725.739L727.951 79.866L730.233 74ZM733.432 72.656C733.18 72.656 732.975 72.5813 732.816 72.432C732.667 72.2733 732.592 72.068 732.592 71.816C732.592 71.564 732.667 71.3633 732.816 71.214C732.975 71.0553 733.18 70.976 733.432 70.976C733.684 70.976 733.885 71.0553 734.034 71.214C734.193 71.3633 734.272 71.564 734.272 71.816C734.272 72.068 734.193 72.2733 734.034 72.432C733.885 72.5813 733.684 72.656 733.432 72.656ZM733.992 74V81H732.872V74H733.992ZM739.321 81.14C738.742 81.14 738.21 80.9953 737.725 80.706C737.24 80.4167 736.852 80.0013 736.563 79.46C736.274 78.9093 736.129 78.256 736.129 77.5C736.129 76.7253 736.283 76.0673 736.591 75.526C736.899 74.9847 737.305 74.574 737.809 74.294C738.313 74.0047 738.854 73.86 739.433 73.86C740.012 73.86 740.511 74.0093 740.931 74.308C741.36 74.6067 741.645 75.0033 741.785 75.498L741.645 75.596V70.78H742.765V81H741.785L741.687 79.306L741.841 79.222C741.776 79.6327 741.617 79.9827 741.365 80.272C741.122 80.552 740.819 80.7667 740.455 80.916C740.1 81.0653 739.722 81.14 739.321 81.14ZM739.433 80.16C739.881 80.16 740.268 80.048 740.595 79.824C740.931 79.6 741.188 79.2827 741.365 78.872C741.552 78.452 741.645 77.962 741.645 77.402C741.645 76.87 741.552 76.4127 741.365 76.03C741.188 75.6473 740.936 75.3533 740.609 75.148C740.292 74.9427 739.918 74.84 739.489 74.84C738.78 74.84 738.229 75.0827 737.837 75.568C737.445 76.0533 737.249 76.6973 737.249 77.5C737.249 78.3027 737.44 78.9467 737.823 79.432C738.206 79.9173 738.742 80.16 739.433 80.16ZM748.294 81.14C747.632 81.14 747.039 80.9953 746.516 80.706C746.003 80.4167 745.602 80.0013 745.312 79.46C745.023 78.9093 744.878 78.256 744.878 77.5C744.878 76.744 745.023 76.0953 745.312 75.554C745.602 75.0033 745.998 74.5833 746.502 74.294C747.006 74.0047 747.58 73.86 748.224 73.86C748.878 73.86 749.433 74 749.89 74.28C750.357 74.56 750.712 74.9427 750.954 75.428C751.197 75.904 751.318 76.4407 751.318 77.038C751.318 77.1967 751.314 77.3413 751.304 77.472C751.295 77.6027 751.281 77.7193 751.262 77.822H745.606V76.828H750.772L750.198 76.94C750.198 76.268 750.012 75.75 749.638 75.386C749.274 75.022 748.794 74.84 748.196 74.84C747.739 74.84 747.342 74.9473 747.006 75.162C746.68 75.3673 746.423 75.6707 746.236 76.072C746.059 76.464 745.97 76.94 745.97 77.5C745.97 78.0507 746.064 78.5267 746.25 78.928C746.437 79.3293 746.698 79.6373 747.034 79.852C747.38 80.0573 747.79 80.16 748.266 80.16C748.78 80.16 749.195 80.062 749.512 79.866C749.839 79.67 750.1 79.404 750.296 79.068L751.178 79.586C751.001 79.9033 750.772 80.1787 750.492 80.412C750.222 80.6453 749.9 80.8273 749.526 80.958C749.162 81.0793 748.752 81.14 748.294 81.14ZM753.448 81V74H754.428L754.526 75.568L754.344 75.414C754.494 75.0407 754.694 74.742 754.946 74.518C755.198 74.2847 755.488 74.1167 755.814 74.014C756.15 73.9113 756.496 73.86 756.85 73.86C757.354 73.86 757.812 73.958 758.222 74.154C758.633 74.3407 758.96 74.63 759.202 75.022C759.454 75.414 759.58 75.9133 759.58 76.52V81H758.46V76.912C758.46 76.1373 758.292 75.6007 757.956 75.302C757.63 74.994 757.224 74.84 756.738 74.84C756.402 74.84 756.066 74.9193 755.73 75.078C755.394 75.2367 755.114 75.4933 754.89 75.848C754.676 76.2027 754.568 76.6787 754.568 77.276V81H753.448ZM765.014 73.86C765.5 73.86 765.924 73.9347 766.288 74.084C766.662 74.2333 766.984 74.448 767.254 74.728C767.525 75.008 767.744 75.3393 767.912 75.722L766.848 76.226C766.699 75.778 766.47 75.4373 766.162 75.204C765.864 74.9613 765.472 74.84 764.986 74.84C764.52 74.84 764.118 74.9473 763.782 75.162C763.446 75.3673 763.19 75.6707 763.012 76.072C762.835 76.464 762.746 76.94 762.746 77.5C762.746 78.0507 762.835 78.5267 763.012 78.928C763.19 79.3293 763.446 79.6373 763.782 79.852C764.118 80.0573 764.52 80.16 764.986 80.16C765.35 80.16 765.663 80.104 765.924 79.992C766.195 79.88 766.414 79.7167 766.582 79.502C766.76 79.2873 766.881 79.026 766.946 78.718L767.982 79.082C767.824 79.5113 767.604 79.88 767.324 80.188C767.054 80.496 766.722 80.734 766.33 80.902C765.948 81.0607 765.509 81.14 765.014 81.14C764.361 81.14 763.778 80.9953 763.264 80.706C762.751 80.4167 762.35 80.0013 762.06 79.46C761.771 78.9093 761.626 78.256 761.626 77.5C761.626 76.744 761.771 76.0953 762.06 75.554C762.35 75.0033 762.751 74.5833 763.264 74.294C763.778 74.0047 764.361 73.86 765.014 73.86ZM772.876 81.14C772.214 81.14 771.621 80.9953 771.098 80.706C770.585 80.4167 770.184 80.0013 769.894 79.46C769.605 78.9093 769.46 78.256 769.46 77.5C769.46 76.744 769.605 76.0953 769.894 75.554C770.184 75.0033 770.58 74.5833 771.084 74.294C771.588 74.0047 772.162 73.86 772.806 73.86C773.46 73.86 774.015 74 774.472 74.28C774.939 74.56 775.294 74.9427 775.536 75.428C775.779 75.904 775.9 76.4407 775.9 77.038C775.9 77.1967 775.896 77.3413 775.886 77.472C775.877 77.6027 775.863 77.7193 775.844 77.822H770.188V76.828H775.354L774.78 76.94C774.78 76.268 774.594 75.75 774.22 75.386C773.856 75.022 773.376 74.84 772.778 74.84C772.321 74.84 771.924 74.9473 771.588 75.162C771.262 75.3673 771.005 75.6707 770.818 76.072C770.641 76.464 770.552 76.94 770.552 77.5C770.552 78.0507 770.646 78.5267 770.832 78.928C771.019 79.3293 771.28 79.6373 771.616 79.852C771.962 80.0573 772.372 80.16 772.848 80.16C773.362 80.16 773.777 80.062 774.094 79.866C774.421 79.67 774.682 79.404 774.878 79.068L775.76 79.586C775.583 79.9033 775.354 80.1787 775.074 80.412C774.804 80.6453 774.482 80.8273 774.108 80.958C773.744 81.0793 773.334 81.14 772.876 81.14Z" fill="#454545"/>
<mask id="path-19-inside-4_10_12935" fill="white">
<path d="M795 24H1032V104H795V24Z"/>
</mask>
<path d="M795 24H1032V104H795V24Z" fill="white"/>
<path d="M795 36H1032V12H795V36Z" fill="#009FDA" mask="url(#path-19-inside-4_10_12935)"/>
<circle cx="834" cy="68" r="8" fill="#BDBDBD"/>
<path d="M867 77C867 77.55 867.45 78 868 78H872C872.55 78 873 77.55 873 77V76H867V77ZM870 58C866.14 58 863 61.14 863 65C863 67.38 864.19 69.47 866 70.74V73C866 73.55 866.45 74 867 74H873C873.55 74 874 73.55 874 73V70.74C875.81 69.47 877 67.38 877 65C877 61.14 873.86 58 870 58ZM872.85 69.1L872 69.7V72H868V69.7L867.15 69.1C865.8 68.16 865 66.63 865 65C865 62.24 867.24 60 870 60C872.76 60 875 62.24 875 65C875 66.63 874.2 68.16 872.85 69.1Z" fill="#454545"/>
<path d="M892.256 59.1H896.792V60H891.296V52.08H892.256V59.1ZM902.112 56.124C902.112 55.676 901.992 55.332 901.752 55.092C901.512 54.844 901.172 54.72 900.732 54.72C900.316 54.72 899.964 54.812 899.676 54.996C899.388 55.172 899.176 55.46 899.04 55.86L898.26 55.38C898.42 54.932 898.716 54.572 899.148 54.3C899.58 54.02 900.116 53.88 900.756 53.88C901.188 53.88 901.58 53.956 901.932 54.108C902.284 54.252 902.56 54.476 902.76 54.78C902.968 55.076 903.072 55.46 903.072 55.932V58.836C903.072 59.124 903.224 59.268 903.528 59.268C903.68 59.268 903.828 59.248 903.972 59.208L903.924 59.964C903.764 60.044 903.556 60.084 903.3 60.084C903.068 60.084 902.86 60.04 902.676 59.952C902.492 59.864 902.348 59.732 902.244 59.556C902.14 59.372 902.088 59.144 902.088 58.872V58.752L902.328 58.788C902.232 59.1 902.068 59.356 901.836 59.556C901.604 59.748 901.344 59.892 901.056 59.988C900.768 60.076 900.484 60.12 900.204 60.12C899.852 60.12 899.524 60.06 899.22 59.94C898.916 59.82 898.672 59.64 898.488 59.4C898.312 59.152 898.224 58.848 898.224 58.488C898.224 58.04 898.372 57.672 898.668 57.384C898.972 57.088 899.392 56.888 899.928 56.784L902.304 56.316V57.108L900.372 57.504C899.98 57.584 899.688 57.696 899.496 57.84C899.304 57.984 899.208 58.184 899.208 58.44C899.208 58.688 899.304 58.892 899.496 59.052C899.696 59.204 899.976 59.28 900.336 59.28C900.568 59.28 900.788 59.252 900.996 59.196C901.212 59.132 901.404 59.04 901.572 58.92C901.74 58.792 901.872 58.636 901.968 58.452C902.064 58.26 902.112 58.036 902.112 57.78V56.124ZM907.885 60.12C907.301 60.12 906.761 59.996 906.265 59.748C905.777 59.5 905.401 59.148 905.137 58.692L905.953 58.104C906.129 58.472 906.385 58.76 906.721 58.968C907.065 59.176 907.477 59.28 907.957 59.28C908.381 59.28 908.713 59.2 908.953 59.04C909.193 58.872 909.313 58.656 909.313 58.392C909.313 58.224 909.257 58.072 909.145 57.936C909.041 57.792 908.837 57.688 908.533 57.624L907.093 57.324C906.509 57.204 906.089 57.004 905.833 56.724C905.585 56.444 905.461 56.096 905.461 55.68C905.461 55.352 905.553 55.052 905.737 54.78C905.929 54.508 906.197 54.292 906.541 54.132C906.893 53.964 907.305 53.88 907.777 53.88C908.369 53.88 908.869 53.996 909.277 54.228C909.685 54.46 909.989 54.788 910.189 55.212L909.385 55.74C909.249 55.388 909.029 55.132 908.725 54.972C908.421 54.804 908.105 54.72 907.777 54.72C907.489 54.72 907.241 54.76 907.033 54.84C906.833 54.92 906.677 55.032 906.565 55.176C906.461 55.312 906.409 55.468 906.409 55.644C906.409 55.82 906.469 55.984 906.589 56.136C906.709 56.28 906.933 56.384 907.261 56.448L908.761 56.76C909.321 56.872 909.713 57.056 909.937 57.312C910.161 57.568 910.273 57.88 910.273 58.248C910.273 58.624 910.173 58.956 909.973 59.244C909.773 59.524 909.493 59.74 909.133 59.892C908.773 60.044 908.357 60.12 907.885 60.12ZM913.789 52.296V58.344C913.789 58.64 913.873 58.86 914.041 59.004C914.209 59.148 914.425 59.22 914.689 59.22C914.921 59.22 915.121 59.18 915.289 59.1C915.457 59.02 915.609 58.912 915.745 58.776L916.081 59.58C915.897 59.748 915.677 59.88 915.421 59.976C915.173 60.072 914.885 60.12 914.557 60.12C914.253 60.12 913.969 60.068 913.705 59.964C913.441 59.852 913.229 59.68 913.069 59.448C912.917 59.208 912.837 58.896 912.829 58.512V52.56L913.789 52.296ZM915.973 54V54.828H911.629V54H915.973Z" fill="#707070"/>
<path d="M900.444 71.76V81H899.38V75.19L899.506 72.754H899.492L896.454 81H895.502L892.464 72.754H892.45L892.576 75.19V81H891.512V71.76H893.234L895.264 77.374L895.964 79.684H895.992L896.706 77.388L898.722 71.76H900.444ZM907.257 76.478C907.257 75.9553 907.117 75.554 906.837 75.274C906.557 74.9847 906.161 74.84 905.647 74.84C905.162 74.84 904.751 74.9473 904.415 75.162C904.079 75.3673 903.832 75.7033 903.673 76.17L902.763 75.61C902.95 75.0873 903.295 74.6673 903.799 74.35C904.303 74.0233 904.929 73.86 905.675 73.86C906.179 73.86 906.637 73.9487 907.047 74.126C907.458 74.294 907.78 74.5553 908.013 74.91C908.256 75.2553 908.377 75.7033 908.377 76.254V79.642C908.377 79.978 908.555 80.146 908.909 80.146C909.087 80.146 909.259 80.1227 909.427 80.076L909.371 80.958C909.185 81.0513 908.942 81.098 908.643 81.098C908.373 81.098 908.13 81.0467 907.915 80.944C907.701 80.8413 907.533 80.6873 907.411 80.482C907.29 80.2673 907.229 80.0013 907.229 79.684V79.544L907.509 79.586C907.397 79.95 907.206 80.2487 906.935 80.482C906.665 80.706 906.361 80.874 906.025 80.986C905.689 81.0887 905.358 81.14 905.031 81.14C904.621 81.14 904.238 81.07 903.883 80.93C903.529 80.79 903.244 80.58 903.029 80.3C902.824 80.0107 902.721 79.656 902.721 79.236C902.721 78.7133 902.894 78.284 903.239 77.948C903.594 77.6027 904.084 77.3693 904.709 77.248L907.481 76.702V77.626L905.227 78.088C904.77 78.1813 904.429 78.312 904.205 78.48C903.981 78.648 903.869 78.8813 903.869 79.18C903.869 79.4693 903.981 79.7073 904.205 79.894C904.439 80.0713 904.765 80.16 905.185 80.16C905.456 80.16 905.713 80.1273 905.955 80.062C906.207 79.9873 906.431 79.88 906.627 79.74C906.823 79.5907 906.977 79.4087 907.089 79.194C907.201 78.97 907.257 78.7087 907.257 78.41V76.478ZM917.245 74L914.221 77.024L913.955 77.29L911.659 79.586V78.186L915.831 74H917.245ZM912.219 70.78V81H911.099V70.78H912.219ZM914.319 76.45L917.413 81H916.055L913.381 77.08L914.319 76.45ZM921.722 81.14C921.059 81.14 920.467 80.9953 919.944 80.706C919.431 80.4167 919.029 80.0013 918.74 79.46C918.451 78.9093 918.306 78.256 918.306 77.5C918.306 76.744 918.451 76.0953 918.74 75.554C919.029 75.0033 919.426 74.5833 919.93 74.294C920.434 74.0047 921.008 73.86 921.652 73.86C922.305 73.86 922.861 74 923.318 74.28C923.785 74.56 924.139 74.9427 924.382 75.428C924.625 75.904 924.746 76.4407 924.746 77.038C924.746 77.1967 924.741 77.3413 924.732 77.472C924.723 77.6027 924.709 77.7193 924.69 77.822H919.034V76.828H924.2L923.626 76.94C923.626 76.268 923.439 75.75 923.066 75.386C922.702 75.022 922.221 74.84 921.624 74.84C921.167 74.84 920.77 74.9473 920.434 75.162C920.107 75.3673 919.851 75.6707 919.664 76.072C919.487 76.464 919.398 76.94 919.398 77.5C919.398 78.0507 919.491 78.5267 919.678 78.928C919.865 79.3293 920.126 79.6373 920.462 79.852C920.807 80.0573 921.218 80.16 921.694 80.16C922.207 80.16 922.623 80.062 922.94 79.866C923.267 79.67 923.528 79.404 923.724 79.068L924.606 79.586C924.429 79.9033 924.2 80.1787 923.92 80.412C923.649 80.6453 923.327 80.8273 922.954 80.958C922.59 81.0793 922.179 81.14 921.722 81.14ZM935.736 76.478C935.736 75.9553 935.596 75.554 935.316 75.274C935.036 74.9847 934.639 74.84 934.126 74.84C933.64 74.84 933.23 74.9473 932.894 75.162C932.558 75.3673 932.31 75.7033 932.152 76.17L931.242 75.61C931.428 75.0873 931.774 74.6673 932.278 74.35C932.782 74.0233 933.407 73.86 934.154 73.86C934.658 73.86 935.115 73.9487 935.526 74.126C935.936 74.294 936.258 74.5553 936.492 74.91C936.734 75.2553 936.856 75.7033 936.856 76.254V79.642C936.856 79.978 937.033 80.146 937.388 80.146C937.565 80.146 937.738 80.1227 937.906 80.076L937.85 80.958C937.663 81.0513 937.42 81.098 937.122 81.098C936.851 81.098 936.608 81.0467 936.394 80.944C936.179 80.8413 936.011 80.6873 935.89 80.482C935.768 80.2673 935.708 80.0013 935.708 79.684V79.544L935.988 79.586C935.876 79.95 935.684 80.2487 935.414 80.482C935.143 80.706 934.84 80.874 934.504 80.986C934.168 81.0887 933.836 81.14 933.51 81.14C933.099 81.14 932.716 81.07 932.362 80.93C932.007 80.79 931.722 80.58 931.508 80.3C931.302 80.0107 931.2 79.656 931.2 79.236C931.2 78.7133 931.372 78.284 931.718 77.948C932.072 77.6027 932.562 77.3693 933.188 77.248L935.96 76.702V77.626L933.706 78.088C933.248 78.1813 932.908 78.312 932.684 78.48C932.46 78.648 932.348 78.8813 932.348 79.18C932.348 79.4693 932.46 79.7073 932.684 79.894C932.917 80.0713 933.244 80.16 933.664 80.16C933.934 80.16 934.191 80.1273 934.434 80.062C934.686 79.9873 934.91 79.88 935.106 79.74C935.302 79.5907 935.456 79.4087 935.568 79.194C935.68 78.97 935.736 78.7087 935.736 78.41V76.478ZM947.213 71.76C948.659 71.76 949.793 72.1613 950.615 72.964C951.445 73.7573 951.861 74.896 951.861 76.38C951.861 77.864 951.445 79.0073 950.615 79.81C949.793 80.6033 948.659 81 947.213 81H944.231V71.76H947.213ZM947.325 79.95C948.379 79.95 949.201 79.6373 949.789 79.012C950.386 78.3773 950.685 77.5 950.685 76.38C950.685 75.26 950.386 74.3873 949.789 73.762C949.201 73.1273 948.379 72.81 947.325 72.81H945.351V79.95H947.325ZM957.037 81.14C956.374 81.14 955.781 80.9953 955.259 80.706C954.745 80.4167 954.344 80.0013 954.055 79.46C953.765 78.9093 953.621 78.256 953.621 77.5C953.621 76.744 953.765 76.0953 954.055 75.554C954.344 75.0033 954.741 74.5833 955.245 74.294C955.749 74.0047 956.323 73.86 956.967 73.86C957.62 73.86 958.175 74 958.633 74.28C959.099 74.56 959.454 74.9427 959.697 75.428C959.939 75.904 960.061 76.4407 960.061 77.038C960.061 77.1967 960.056 77.3413 960.047 77.472C960.037 77.6027 960.023 77.7193 960.005 77.822H954.349V76.828H959.515L958.941 76.94C958.941 76.268 958.754 75.75 958.381 75.386C958.017 75.022 957.536 74.84 956.939 74.84C956.481 74.84 956.085 74.9473 955.749 75.162C955.422 75.3673 955.165 75.6707 954.979 76.072C954.801 76.464 954.713 76.94 954.713 77.5C954.713 78.0507 954.806 78.5267 954.993 78.928C955.179 79.3293 955.441 79.6373 955.777 79.852C956.122 80.0573 956.533 80.16 957.009 80.16C957.522 80.16 957.937 80.062 958.255 79.866C958.581 79.67 958.843 79.404 959.039 79.068L959.921 79.586C959.743 79.9033 959.515 80.1787 959.235 80.412C958.964 80.6453 958.642 80.8273 958.269 80.958C957.905 81.0793 957.494 81.14 957.037 81.14ZM965.089 73.86C965.574 73.86 965.999 73.9347 966.363 74.084C966.736 74.2333 967.058 74.448 967.329 74.728C967.599 75.008 967.819 75.3393 967.987 75.722L966.923 76.226C966.773 75.778 966.545 75.4373 966.237 75.204C965.938 74.9613 965.546 74.84 965.061 74.84C964.594 74.84 964.193 74.9473 963.857 75.162C963.521 75.3673 963.264 75.6707 963.087 76.072C962.909 76.464 962.821 76.94 962.821 77.5C962.821 78.0507 962.909 78.5267 963.087 78.928C963.264 79.3293 963.521 79.6373 963.857 79.852C964.193 80.0573 964.594 80.16 965.061 80.16C965.425 80.16 965.737 80.104 965.999 79.992C966.269 79.88 966.489 79.7167 966.657 79.502C966.834 79.2873 966.955 79.026 967.021 78.718L968.057 79.082C967.898 79.5113 967.679 79.88 967.399 80.188C967.128 80.496 966.797 80.734 966.405 80.902C966.022 81.0607 965.583 81.14 965.089 81.14C964.435 81.14 963.852 80.9953 963.339 80.706C962.825 80.4167 962.424 80.0013 962.135 79.46C961.845 78.9093 961.701 78.256 961.701 77.5C961.701 76.744 961.845 76.0953 962.135 75.554C962.424 75.0033 962.825 74.5833 963.339 74.294C963.852 74.0047 964.435 73.86 965.089 73.86ZM970.585 72.656C970.333 72.656 970.127 72.5813 969.969 72.432C969.819 72.2733 969.745 72.068 969.745 71.816C969.745 71.564 969.819 71.3633 969.969 71.214C970.127 71.0553 970.333 70.976 970.585 70.976C970.837 70.976 971.037 71.0553 971.187 71.214C971.345 71.3633 971.425 71.564 971.425 71.816C971.425 72.068 971.345 72.2733 971.187 72.432C971.037 72.5813 970.837 72.656 970.585 72.656ZM971.145 74V81H970.025V74H971.145ZM976.263 81.14C975.582 81.14 974.952 80.9953 974.373 80.706C973.804 80.4167 973.365 80.006 973.057 79.474L974.009 78.788C974.215 79.2173 974.513 79.5533 974.905 79.796C975.307 80.0387 975.787 80.16 976.347 80.16C976.842 80.16 977.229 80.0667 977.509 79.88C977.789 79.684 977.929 79.432 977.929 79.124C977.929 78.928 977.864 78.7507 977.733 78.592C977.612 78.424 977.374 78.3027 977.019 78.228L975.339 77.878C974.658 77.738 974.168 77.5047 973.869 77.178C973.58 76.8513 973.435 76.4453 973.435 75.96C973.435 75.5773 973.543 75.2273 973.757 74.91C973.981 74.5927 974.294 74.3407 974.695 74.154C975.106 73.958 975.587 73.86 976.137 73.86C976.828 73.86 977.411 73.9953 977.887 74.266C978.363 74.5367 978.718 74.9193 978.951 75.414L978.013 76.03C977.855 75.6193 977.598 75.3207 977.243 75.134C976.889 74.938 976.52 74.84 976.137 74.84C975.801 74.84 975.512 74.8867 975.269 74.98C975.036 75.0733 974.854 75.204 974.723 75.372C974.602 75.5307 974.541 75.7127 974.541 75.918C974.541 76.1233 974.611 76.3147 974.751 76.492C974.891 76.66 975.153 76.7813 975.535 76.856L977.285 77.22C977.939 77.3507 978.396 77.5653 978.657 77.864C978.919 78.1627 979.049 78.5267 979.049 78.956C979.049 79.3947 978.933 79.782 978.699 80.118C978.466 80.4447 978.139 80.6967 977.719 80.874C977.299 81.0513 976.814 81.14 976.263 81.14ZM981.686 72.656C981.434 72.656 981.229 72.5813 981.07 72.432C980.921 72.2733 980.846 72.068 980.846 71.816C980.846 71.564 980.921 71.3633 981.07 71.214C981.229 71.0553 981.434 70.976 981.686 70.976C981.938 70.976 982.139 71.0553 982.288 71.214C982.447 71.3633 982.526 71.564 982.526 71.816C982.526 72.068 982.447 72.2733 982.288 72.432C982.139 72.5813 981.938 72.656 981.686 72.656ZM982.246 74V81H981.126V74H982.246ZM987.743 73.86C988.406 73.86 988.989 74.0047 989.493 74.294C990.006 74.5833 990.408 75.0033 990.697 75.554C990.986 76.0953 991.131 76.744 991.131 77.5C991.131 78.256 990.986 78.9093 990.697 79.46C990.408 80.0013 990.006 80.4167 989.493 80.706C988.989 80.9953 988.406 81.14 987.743 81.14C987.09 81.14 986.506 80.9953 985.993 80.706C985.48 80.4167 985.078 80.0013 984.789 79.46C984.5 78.9093 984.355 78.256 984.355 77.5C984.355 76.744 984.5 76.0953 984.789 75.554C985.078 75.0033 985.48 74.5833 985.993 74.294C986.506 74.0047 987.09 73.86 987.743 73.86ZM987.743 74.826C987.267 74.826 986.861 74.9333 986.525 75.148C986.189 75.3627 985.928 75.6707 985.741 76.072C985.564 76.464 985.475 76.94 985.475 77.5C985.475 78.0507 985.564 78.5267 985.741 78.928C985.928 79.3293 986.189 79.6373 986.525 79.852C986.861 80.0667 987.267 80.174 987.743 80.174C988.219 80.174 988.625 80.0667 988.961 79.852C989.297 79.6373 989.554 79.3293 989.731 78.928C989.918 78.5267 990.011 78.0507 990.011 77.5C990.011 76.94 989.918 76.464 989.731 76.072C989.554 75.6707 989.297 75.3627 988.961 75.148C988.625 74.9333 988.219 74.826 987.743 74.826ZM993.24 81V74H994.22L994.318 75.568L994.136 75.414C994.285 75.0407 994.486 74.742 994.738 74.518C994.99 74.2847 995.279 74.1167 995.606 74.014C995.942 73.9113 996.287 73.86 996.642 73.86C997.146 73.86 997.603 73.958 998.014 74.154C998.424 74.3407 998.751 74.63 998.994 75.022C999.246 75.414 999.372 75.9133 999.372 76.52V81H998.252V76.912C998.252 76.1373 998.084 75.6007 997.748 75.302C997.421 74.994 997.015 74.84 996.53 74.84C996.194 74.84 995.858 74.9193 995.522 75.078C995.186 75.2367 994.906 75.4933 994.682 75.848C994.467 76.2027 994.36 76.6787 994.36 77.276V81H993.24Z" fill="#454545"/>
</svg>
