<svg width="146" height="40" viewBox="0 0 146 40" fill="none" xmlns="http://www.w3.org/2000/svg">
<path d="M8 0.5H138C142.142 0.5 145.5 3.85786 145.5 8V32C145.5 36.1421 142.142 39.5 138 39.5H8C3.85787 39.5 0.5 36.1421 0.5 32V8C0.5 3.85786 3.85786 0.5 8 0.5Z" fill="white"/>
<path d="M8 0.5H138C142.142 0.5 145.5 3.85786 145.5 8V32C145.5 36.1421 142.142 39.5 138 39.5H8C3.85787 39.5 0.5 36.1421 0.5 32V8C0.5 3.85786 3.85786 0.5 8 0.5Z" stroke="#D4D4D4"/>
<path d="M29.9337 17.5C29.9337 18.05 29.4837 18.5 28.9337 18.5H19.9337C19.3837 18.5 18.9337 18.05 18.9337 17.5C18.9337 16.95 19.3837 16.5 19.9337 16.5H28.9337C29.4837 16.5 29.9337 16.95 29.9337 17.5ZM18.9337 13.5C18.9337 14.05 19.3837 14.5 19.9337 14.5H28.9337C29.4837 14.5 29.9337 14.05 29.9337 13.5C29.9337 12.95 29.4837 12.5 28.9337 12.5H19.9337C19.3837 12.5 18.9337 12.95 18.9337 13.5ZM25.9337 21.5C25.9337 20.95 25.4837 20.5 24.9337 20.5H19.9337C19.3837 20.5 18.9337 20.95 18.9337 21.5C18.9337 22.05 19.3837 22.5 19.9337 22.5H24.9337C25.4837 22.5 25.9337 22.05 25.9337 21.5ZM33.9437 19.37L34.6537 18.66C35.0437 18.27 35.6737 18.27 36.0637 18.66L36.7737 19.37C37.1637 19.76 37.1637 20.39 36.7737 20.78L36.0637 21.49L33.9437 19.37ZM33.2337 20.08L28.0737 25.24C27.9837 25.33 27.9337 25.45 27.9337 25.59V27C27.9337 27.28 28.1537 27.5 28.4337 27.5H29.8437C29.9737 27.5 30.1037 27.45 30.1937 27.35L35.3537 22.19L33.2337 20.08Z" fill="#454545"/>
<path d="M60.493 14.44V25H58.909V18.888L59.037 15.976H59.021L55.805 25H54.381L51.165 15.976H51.149L51.277 18.888V25H49.693V14.44H52.237L54.365 20.552L55.101 23.064H55.133L55.885 20.552L57.997 14.44H60.493ZM71.4705 14.44L67.6945 20.952V25H65.9825V20.952L62.2225 14.44H64.1265L66.0145 17.848L66.8465 19.416L67.6785 17.848L69.5505 14.44H71.4705ZM86.4271 14.44V25H84.3951L80.3151 18.344L79.2911 16.472H79.2751L79.3391 18.184V25H77.7711V14.44H79.7871L83.8511 21.08L84.8911 22.984H84.9071L84.8431 21.256V14.44H86.4271ZM93.9364 14.28C94.9604 14.28 95.8457 14.4987 96.5924 14.936C97.339 15.3733 97.915 15.9973 98.3204 16.808C98.7257 17.6187 98.9284 18.5893 98.9284 19.72C98.9284 20.8507 98.7257 21.8213 98.3204 22.632C97.915 23.4427 97.339 24.0667 96.5924 24.504C95.8457 24.9413 94.9604 25.16 93.9364 25.16C92.923 25.16 92.043 24.9413 91.2964 24.504C90.5497 24.0667 89.9737 23.4427 89.5684 22.632C89.163 21.8213 88.9604 20.8507 88.9604 19.72C88.9604 18.5893 89.163 17.6187 89.5684 16.808C89.9737 15.9973 90.5497 15.3733 91.2964 14.936C92.043 14.4987 92.923 14.28 93.9364 14.28ZM93.9364 15.768C93.275 15.768 92.7044 15.9227 92.2244 16.232C91.755 16.5413 91.3924 16.9893 91.1364 17.576C90.8804 18.1627 90.7524 18.8773 90.7524 19.72C90.7524 20.552 90.8804 21.2667 91.1364 21.864C91.3924 22.4507 91.755 22.8987 92.2244 23.208C92.7044 23.5173 93.275 23.672 93.9364 23.672C94.6084 23.672 95.179 23.5173 95.6484 23.208C96.1284 22.8987 96.4964 22.4507 96.7524 21.864C97.0084 21.2667 97.1364 20.552 97.1364 19.72C97.1364 18.8773 97.0084 18.1627 96.7524 17.576C96.4964 16.9893 96.1284 16.5413 95.6484 16.232C95.179 15.9227 94.6084 15.768 93.9364 15.768ZM108.955 14.44V15.912H105.339V25H103.627V15.912H100.011V14.44H108.955ZM111.006 25V14.44H118.654V15.912H112.718V18.952H117.358V20.392H112.718V23.528H118.878V25H111.006ZM124.777 14.28C125.727 14.28 126.548 14.4613 127.241 14.824C127.935 15.176 128.521 15.6987 129.001 16.392L127.849 17.496C127.444 16.8773 126.985 16.4347 126.473 16.168C125.972 15.8907 125.375 15.752 124.681 15.752C124.169 15.752 123.748 15.8213 123.417 15.96C123.087 16.0987 122.841 16.2853 122.681 16.52C122.532 16.744 122.457 17 122.457 17.288C122.457 17.6187 122.569 17.9067 122.793 18.152C123.028 18.3973 123.46 18.5893 124.089 18.728L126.233 19.208C127.257 19.432 127.983 19.7733 128.409 20.232C128.836 20.6907 129.049 21.272 129.049 21.976C129.049 22.6267 128.873 23.192 128.521 23.672C128.169 24.152 127.679 24.52 127.049 24.776C126.431 25.032 125.7 25.16 124.857 25.16C124.111 25.16 123.439 25.064 122.841 24.872C122.244 24.68 121.721 24.4187 121.273 24.088C120.825 23.7573 120.457 23.3787 120.169 22.952L121.353 21.768C121.577 22.1413 121.86 22.4773 122.201 22.776C122.543 23.064 122.937 23.288 123.385 23.448C123.844 23.608 124.351 23.688 124.905 23.688C125.396 23.688 125.817 23.6293 126.169 23.512C126.532 23.3947 126.804 23.224 126.985 23C127.177 22.7653 127.273 22.488 127.273 22.168C127.273 21.8587 127.167 21.5867 126.953 21.352C126.751 21.1173 126.367 20.936 125.801 20.808L123.481 20.28C122.841 20.1413 122.313 19.944 121.897 19.688C121.481 19.432 121.172 19.1227 120.969 18.76C120.767 18.3867 120.665 17.9707 120.665 17.512C120.665 16.9147 120.825 16.376 121.145 15.896C121.476 15.4053 121.951 15.016 122.569 14.728C123.188 14.4293 123.924 14.28 124.777 14.28Z" fill="#454545"/>
</svg>
