<svg width="267" height="80" viewBox="0 0 267 80" fill="none" xmlns="http://www.w3.org/2000/svg">
<mask id="path-1-inside-1_10_12938" fill="white">
<path d="M0 0H267V80H0V0Z"/>
</mask>
<path d="M0 0H267V80H0V0Z" fill="white"/>
<path d="M0 12H267V-12H0V12Z" fill="#67BC46" mask="url(#path-1-inside-1_10_12938)"/>
<circle cx="36" cy="44" r="8" fill="#BDBDBD"/>
<path d="M74.17 37L79 41.83V51H65V37H74.17ZM74.17 35H65C63.9 35 63 35.9 63 37V51C63 52.1 63.9 53 65 53H79C80.1 53 81 52.1 81 51V41.83C81 41.3 80.79 40.79 80.41 40.42L75.58 35.59C75.21 35.21 74.7 35 74.17 35ZM67 47H77V49H67V47ZM67 43H77V45H67V43ZM67 39H74V41H67V39Z" fill="#454545"/>
<path d="M99.608 36H98.588L97.748 33.804H94.16L93.32 36H92.312L95.396 28.08H96.536L99.608 36ZM94.508 32.904H97.4L95.948 29.004L94.508 32.904ZM101.358 36V30H102.138L102.27 30.984C102.438 30.616 102.682 30.34 103.002 30.156C103.33 29.972 103.726 29.88 104.19 29.88C104.294 29.88 104.406 29.888 104.526 29.904C104.654 29.92 104.762 29.952 104.85 30L104.682 30.876C104.594 30.844 104.498 30.82 104.394 30.804C104.29 30.788 104.142 30.78 103.95 30.78C103.702 30.78 103.45 30.852 103.194 30.996C102.946 31.14 102.738 31.36 102.57 31.656C102.402 31.944 102.318 32.312 102.318 32.76V36H101.358ZM107.629 28.296V34.344C107.629 34.64 107.713 34.86 107.881 35.004C108.049 35.148 108.265 35.22 108.529 35.22C108.761 35.22 108.961 35.18 109.129 35.1C109.297 35.02 109.449 34.912 109.585 34.776L109.921 35.58C109.737 35.748 109.517 35.88 109.261 35.976C109.013 36.072 108.725 36.12 108.397 36.12C108.093 36.12 107.809 36.068 107.545 35.964C107.281 35.852 107.069 35.68 106.909 35.448C106.757 35.208 106.677 34.896 106.669 34.512V28.56L107.629 28.296ZM109.813 30V30.828H105.469V30H109.813ZM112.04 28.848C111.824 28.848 111.648 28.784 111.512 28.656C111.384 28.52 111.32 28.344 111.32 28.128C111.32 27.912 111.384 27.74 111.512 27.612C111.648 27.476 111.824 27.408 112.04 27.408C112.256 27.408 112.428 27.476 112.556 27.612C112.692 27.74 112.76 27.912 112.76 28.128C112.76 28.344 112.692 28.52 112.556 28.656C112.428 28.784 112.256 28.848 112.04 28.848ZM112.52 30V36H111.56V30H112.52ZM117.504 27.18C117.712 27.18 117.908 27.204 118.092 27.252C118.276 27.3 118.42 27.368 118.524 27.456L118.272 28.236C118.176 28.172 118.072 28.128 117.96 28.104C117.848 28.072 117.724 28.056 117.588 28.056C117.244 28.056 116.976 28.14 116.784 28.308C116.592 28.468 116.496 28.728 116.496 29.088V30V30.312V36H115.536V28.992C115.536 28.728 115.576 28.484 115.656 28.26C115.736 28.036 115.856 27.844 116.016 27.684C116.184 27.524 116.392 27.4 116.64 27.312C116.888 27.224 117.176 27.18 117.504 27.18ZM118.5 30V30.828H114.336V30H118.5ZM123.24 32.124C123.24 31.676 123.12 31.332 122.88 31.092C122.64 30.844 122.3 30.72 121.86 30.72C121.444 30.72 121.092 30.812 120.804 30.996C120.516 31.172 120.304 31.46 120.168 31.86L119.388 31.38C119.548 30.932 119.844 30.572 120.276 30.3C120.708 30.02 121.244 29.88 121.884 29.88C122.316 29.88 122.708 29.956 123.06 30.108C123.412 30.252 123.688 30.476 123.888 30.78C124.096 31.076 124.2 31.46 124.2 31.932V34.836C124.2 35.124 124.352 35.268 124.656 35.268C124.808 35.268 124.956 35.248 125.1 35.208L125.052 35.964C124.892 36.044 124.684 36.084 124.428 36.084C124.196 36.084 123.988 36.04 123.804 35.952C123.62 35.864 123.476 35.732 123.372 35.556C123.268 35.372 123.216 35.144 123.216 34.872V34.752L123.456 34.788C123.36 35.1 123.196 35.356 122.964 35.556C122.732 35.748 122.472 35.892 122.184 35.988C121.896 36.076 121.612 36.12 121.332 36.12C120.98 36.12 120.652 36.06 120.348 35.94C120.044 35.82 119.8 35.64 119.616 35.4C119.44 35.152 119.352 34.848 119.352 34.488C119.352 34.04 119.5 33.672 119.796 33.384C120.1 33.088 120.52 32.888 121.056 32.784L123.432 32.316V33.108L121.5 33.504C121.108 33.584 120.816 33.696 120.624 33.84C120.432 33.984 120.336 34.184 120.336 34.44C120.336 34.688 120.432 34.892 120.624 35.052C120.824 35.204 121.104 35.28 121.464 35.28C121.696 35.28 121.916 35.252 122.124 35.196C122.34 35.132 122.532 35.04 122.7 34.92C122.868 34.792 123 34.636 123.096 34.452C123.192 34.26 123.24 34.036 123.24 33.78V32.124ZM129.336 29.88C129.752 29.88 130.116 29.944 130.428 30.072C130.748 30.2 131.024 30.384 131.256 30.624C131.488 30.864 131.676 31.148 131.82 31.476L130.908 31.908C130.78 31.524 130.584 31.232 130.32 31.032C130.064 30.824 129.728 30.72 129.312 30.72C128.912 30.72 128.568 30.812 128.28 30.996C127.992 31.172 127.772 31.432 127.62 31.776C127.468 32.112 127.392 32.52 127.392 33C127.392 33.472 127.468 33.88 127.62 34.224C127.772 34.568 127.992 34.832 128.28 35.016C128.568 35.192 128.912 35.28 129.312 35.28C129.624 35.28 129.892 35.232 130.116 35.136C130.348 35.04 130.536 34.9 130.68 34.716C130.832 34.532 130.936 34.308 130.992 34.044L131.88 34.356C131.744 34.724 131.556 35.04 131.316 35.304C131.084 35.568 130.8 35.772 130.464 35.916C130.136 36.052 129.76 36.12 129.336 36.12C128.776 36.12 128.276 35.996 127.836 35.748C127.396 35.5 127.052 35.144 126.804 34.68C126.556 34.208 126.432 33.648 126.432 33C126.432 32.352 126.556 31.796 126.804 31.332C127.052 30.86 127.396 30.5 127.836 30.252C128.276 30.004 128.776 29.88 129.336 29.88ZM135.303 28.296V34.344C135.303 34.64 135.387 34.86 135.555 35.004C135.723 35.148 135.939 35.22 136.203 35.22C136.435 35.22 136.635 35.18 136.803 35.1C136.971 35.02 137.123 34.912 137.259 34.776L137.595 35.58C137.411 35.748 137.191 35.88 136.935 35.976C136.687 36.072 136.399 36.12 136.071 36.12C135.767 36.12 135.483 36.068 135.219 35.964C134.955 35.852 134.743 35.68 134.583 35.448C134.431 35.208 134.351 34.896 134.343 34.512V28.56L135.303 28.296ZM137.487 30V30.828H133.143V30H137.487ZM141.395 36.12C140.811 36.12 140.271 35.996 139.775 35.748C139.287 35.5 138.911 35.148 138.647 34.692L139.463 34.104C139.639 34.472 139.895 34.76 140.231 34.968C140.575 35.176 140.987 35.28 141.467 35.28C141.891 35.28 142.223 35.2 142.463 35.04C142.703 34.872 142.823 34.656 142.823 34.392C142.823 34.224 142.767 34.072 142.655 33.936C142.551 33.792 142.347 33.688 142.043 33.624L140.603 33.324C140.019 33.204 139.599 33.004 139.343 32.724C139.095 32.444 138.971 32.096 138.971 31.68C138.971 31.352 139.063 31.052 139.247 30.78C139.439 30.508 139.707 30.292 140.051 30.132C140.403 29.964 140.815 29.88 141.287 29.88C141.879 29.88 142.379 29.996 142.787 30.228C143.195 30.46 143.499 30.788 143.699 31.212L142.895 31.74C142.759 31.388 142.539 31.132 142.235 30.972C141.931 30.804 141.615 30.72 141.287 30.72C140.999 30.72 140.751 30.76 140.543 30.84C140.343 30.92 140.187 31.032 140.075 31.176C139.971 31.312 139.919 31.468 139.919 31.644C139.919 31.82 139.979 31.984 140.099 32.136C140.219 32.28 140.443 32.384 140.771 32.448L142.271 32.76C142.831 32.872 143.223 33.056 143.447 33.312C143.671 33.568 143.783 33.88 143.783 34.248C143.783 34.624 143.683 34.956 143.483 35.244C143.283 35.524 143.003 35.74 142.643 35.892C142.283 36.044 141.867 36.12 141.395 36.12ZM151.433 28.08V36H150.473V28.08H151.433Z" fill="#707070"/>
<path d="M100.96 54.634C100.764 55.1567 100.484 55.6093 100.12 55.992C99.756 56.3653 99.3267 56.65 98.832 56.846C98.3467 57.042 97.8147 57.14 97.236 57.14C96.3587 57.14 95.598 56.9487 94.954 56.566C94.3193 56.174 93.8247 55.6233 93.47 54.914C93.1247 54.2047 92.952 53.36 92.952 52.38C92.952 51.4 93.1247 50.5553 93.47 49.846C93.8247 49.1367 94.3193 48.5907 94.954 48.208C95.598 47.816 96.3493 47.62 97.208 47.62C97.8053 47.62 98.3373 47.704 98.804 47.872C99.2707 48.0307 99.6673 48.2733 99.994 48.6C100.33 48.9173 100.596 49.3093 100.792 49.776L99.686 50.294C99.4807 49.762 99.182 49.3607 98.79 49.09C98.4073 48.81 97.908 48.67 97.292 48.67C96.6667 48.67 96.116 48.8193 95.64 49.118C95.164 49.4073 94.7907 49.8273 94.52 50.378C94.2587 50.9287 94.128 51.596 94.128 52.38C94.128 53.1547 94.254 53.822 94.506 54.382C94.758 54.9327 95.1173 55.3573 95.584 55.656C96.0507 55.9453 96.6013 56.09 97.236 56.09C97.852 56.09 98.3887 55.936 98.846 55.628C99.3033 55.3107 99.6347 54.8393 99.84 54.214L100.96 54.634ZM105.798 49.86C106.46 49.86 107.044 50.0047 107.548 50.294C108.061 50.5833 108.462 51.0033 108.752 51.554C109.041 52.0953 109.186 52.744 109.186 53.5C109.186 54.256 109.041 54.9093 108.752 55.46C108.462 56.0013 108.061 56.4167 107.548 56.706C107.044 56.9953 106.46 57.14 105.798 57.14C105.144 57.14 104.561 56.9953 104.048 56.706C103.534 56.4167 103.133 56.0013 102.844 55.46C102.554 54.9093 102.41 54.256 102.41 53.5C102.41 52.744 102.554 52.0953 102.844 51.554C103.133 51.0033 103.534 50.5833 104.048 50.294C104.561 50.0047 105.144 49.86 105.798 49.86ZM105.798 50.826C105.322 50.826 104.916 50.9333 104.58 51.148C104.244 51.3627 103.982 51.6707 103.796 52.072C103.618 52.464 103.53 52.94 103.53 53.5C103.53 54.0507 103.618 54.5267 103.796 54.928C103.982 55.3293 104.244 55.6373 104.58 55.852C104.916 56.0667 105.322 56.174 105.798 56.174C106.274 56.174 106.68 56.0667 107.016 55.852C107.352 55.6373 107.608 55.3293 107.786 54.928C107.972 54.5267 108.066 54.0507 108.066 53.5C108.066 52.94 107.972 52.464 107.786 52.072C107.608 51.6707 107.352 51.3627 107.016 51.148C106.68 50.9333 106.274 50.826 105.798 50.826ZM111.294 57V50H112.274L112.372 51.568L112.19 51.414C112.34 51.0407 112.54 50.742 112.792 50.518C113.044 50.2847 113.334 50.1167 113.66 50.014C113.996 49.9113 114.342 49.86 114.696 49.86C115.2 49.86 115.658 49.958 116.068 50.154C116.479 50.3407 116.806 50.63 117.048 51.022C117.3 51.414 117.426 51.9133 117.426 52.52V57H116.306V52.912C116.306 52.1373 116.138 51.6007 115.802 51.302C115.476 50.994 115.07 50.84 114.584 50.84C114.248 50.84 113.912 50.9193 113.576 51.078C113.24 51.2367 112.96 51.4933 112.736 51.848C112.522 52.2027 112.414 52.6787 112.414 53.276V57H111.294ZM122.482 57.14C121.801 57.14 121.171 56.9953 120.592 56.706C120.023 56.4167 119.584 56.006 119.276 55.474L120.228 54.788C120.433 55.2173 120.732 55.5533 121.124 55.796C121.525 56.0387 122.006 56.16 122.566 56.16C123.061 56.16 123.448 56.0667 123.728 55.88C124.008 55.684 124.148 55.432 124.148 55.124C124.148 54.928 124.083 54.7507 123.952 54.592C123.831 54.424 123.593 54.3027 123.238 54.228L121.558 53.878C120.877 53.738 120.387 53.5047 120.088 53.178C119.799 52.8513 119.654 52.4453 119.654 51.96C119.654 51.5773 119.761 51.2273 119.976 50.91C120.2 50.5927 120.513 50.3407 120.914 50.154C121.325 49.958 121.805 49.86 122.356 49.86C123.047 49.86 123.63 49.9953 124.106 50.266C124.582 50.5367 124.937 50.9193 125.17 51.414L124.232 52.03C124.073 51.6193 123.817 51.3207 123.462 51.134C123.107 50.938 122.739 50.84 122.356 50.84C122.02 50.84 121.731 50.8867 121.488 50.98C121.255 51.0733 121.073 51.204 120.942 51.372C120.821 51.5307 120.76 51.7127 120.76 51.918C120.76 52.1233 120.83 52.3147 120.97 52.492C121.11 52.66 121.371 52.7813 121.754 52.856L123.504 53.22C124.157 53.3507 124.615 53.5653 124.876 53.864C125.137 54.1627 125.268 54.5267 125.268 54.956C125.268 55.3947 125.151 55.782 124.918 56.118C124.685 56.4447 124.358 56.6967 123.938 56.874C123.518 57.0513 123.033 57.14 122.482 57.14ZM129.879 57.14C129.431 57.14 129.006 57.056 128.605 56.888C128.213 56.72 127.891 56.4493 127.639 56.076C127.396 55.6933 127.275 55.1987 127.275 54.592V50H128.395V54.298C128.395 55.0073 128.549 55.4973 128.857 55.768C129.165 56.0293 129.599 56.16 130.159 56.16C130.42 56.16 130.677 56.118 130.929 56.034C131.181 55.9407 131.405 55.8007 131.601 55.614C131.806 55.418 131.965 55.1707 132.077 54.872C132.198 54.5733 132.259 54.2187 132.259 53.808V50H133.379V57H132.399L132.329 55.936C132.086 56.356 131.755 56.664 131.335 56.86C130.924 57.0467 130.439 57.14 129.879 57.14ZM137.05 46.78V55.222C137.05 55.5767 137.115 55.824 137.246 55.964C137.376 56.0947 137.586 56.16 137.876 56.16C138.062 56.16 138.216 56.146 138.338 56.118C138.459 56.09 138.622 56.0387 138.828 55.964L138.646 56.944C138.496 57.0093 138.333 57.056 138.156 57.084C137.978 57.1213 137.796 57.14 137.61 57.14C137.04 57.14 136.616 56.986 136.336 56.678C136.065 56.37 135.93 55.8987 135.93 55.264V46.78H137.05ZM141.643 48.012V55.068C141.643 55.4133 141.741 55.67 141.937 55.838C142.133 56.006 142.385 56.09 142.693 56.09C142.964 56.09 143.197 56.0433 143.393 55.95C143.589 55.8567 143.767 55.7307 143.925 55.572L144.317 56.51C144.103 56.706 143.846 56.86 143.547 56.972C143.258 57.084 142.922 57.14 142.539 57.14C142.185 57.14 141.853 57.0793 141.545 56.958C141.237 56.8273 140.99 56.6267 140.803 56.356C140.626 56.076 140.533 55.712 140.523 55.264V48.32L141.643 48.012ZM144.191 50V50.966H139.123V50H144.191ZM152.007 48.012V55.068C152.007 55.4133 152.105 55.67 152.301 55.838C152.497 56.006 152.749 56.09 153.057 56.09C153.327 56.09 153.561 56.0433 153.757 55.95C153.953 55.8567 154.13 55.7307 154.289 55.572L154.681 56.51C154.466 56.706 154.209 56.86 153.911 56.972C153.621 57.084 153.285 57.14 152.903 57.14C152.548 57.14 152.217 57.0793 151.909 56.958C151.601 56.8273 151.353 56.6267 151.167 56.356C150.989 56.076 150.896 55.712 150.887 55.264V48.32L152.007 48.012ZM154.555 50V50.966H149.487V50H154.555ZM156.22 57V46.78H157.34V51.05C157.583 50.63 157.905 50.3267 158.306 50.14C158.707 49.9533 159.146 49.86 159.622 49.86C160.126 49.86 160.583 49.958 160.994 50.154C161.405 50.3407 161.731 50.63 161.974 51.022C162.226 51.414 162.352 51.9133 162.352 52.52V57H161.232V52.912C161.232 52.1373 161.064 51.6007 160.728 51.302C160.401 50.994 159.995 50.84 159.51 50.84C159.174 50.84 158.838 50.9193 158.502 51.078C158.166 51.2367 157.886 51.498 157.662 51.862C157.447 52.2167 157.34 52.6927 157.34 53.29V57H156.22ZM167.814 57.14C167.151 57.14 166.559 56.9953 166.036 56.706C165.523 56.4167 165.121 56.0013 164.832 55.46C164.543 54.9093 164.398 54.256 164.398 53.5C164.398 52.744 164.543 52.0953 164.832 51.554C165.121 51.0033 165.518 50.5833 166.022 50.294C166.526 50.0047 167.1 49.86 167.744 49.86C168.397 49.86 168.953 50 169.41 50.28C169.877 50.56 170.231 50.9427 170.474 51.428C170.717 51.904 170.838 52.4407 170.838 53.038C170.838 53.1967 170.833 53.3413 170.824 53.472C170.815 53.6027 170.801 53.7193 170.782 53.822H165.126V52.828H170.292L169.718 52.94C169.718 52.268 169.531 51.75 169.158 51.386C168.794 51.022 168.313 50.84 167.716 50.84C167.259 50.84 166.862 50.9473 166.526 51.162C166.199 51.3673 165.943 51.6707 165.756 52.072C165.579 52.464 165.49 52.94 165.49 53.5C165.49 54.0507 165.583 54.5267 165.77 54.928C165.957 55.3293 166.218 55.6373 166.554 55.852C166.899 56.0573 167.31 56.16 167.786 56.16C168.299 56.16 168.715 56.062 169.032 55.866C169.359 55.67 169.62 55.404 169.816 55.068L170.698 55.586C170.521 55.9033 170.292 56.1787 170.012 56.412C169.741 56.6453 169.419 56.8273 169.046 56.958C168.682 57.0793 168.271 57.14 167.814 57.14ZM181.45 47.76C182.392 47.76 183.148 48.0027 183.718 48.488C184.287 48.9733 184.572 49.6313 184.572 50.462C184.572 51.2927 184.282 51.9413 183.704 52.408C183.134 52.8653 182.378 53.094 181.436 53.094L181.338 53.164H179.07V57H177.95V47.76H181.45ZM181.436 52.114C182.098 52.114 182.588 51.9787 182.906 51.708C183.232 51.428 183.396 51.0127 183.396 50.462C183.396 49.9113 183.232 49.5007 182.906 49.23C182.588 48.95 182.098 48.81 181.436 48.81H179.07V52.114H181.436ZM182.08 52.338L185.132 57H183.802L181.142 52.954L182.08 52.338ZM189.744 57.14C189.081 57.14 188.488 56.9953 187.966 56.706C187.452 56.4167 187.051 56.0013 186.762 55.46C186.472 54.9093 186.328 54.256 186.328 53.5C186.328 52.744 186.472 52.0953 186.762 51.554C187.051 51.0033 187.448 50.5833 187.952 50.294C188.456 50.0047 189.03 49.86 189.674 49.86C190.327 49.86 190.882 50 191.34 50.28C191.806 50.56 192.161 50.9427 192.404 51.428C192.646 51.904 192.768 52.4407 192.768 53.038C192.768 53.1967 192.763 53.3413 192.754 53.472C192.744 53.6027 192.73 53.7193 192.712 53.822H187.056V52.828H192.222L191.648 52.94C191.648 52.268 191.461 51.75 191.088 51.386C190.724 51.022 190.243 50.84 189.646 50.84C189.188 50.84 188.792 50.9473 188.456 51.162C188.129 51.3673 187.872 51.6707 187.686 52.072C187.508 52.464 187.42 52.94 187.42 53.5C187.42 54.0507 187.513 54.5267 187.7 54.928C187.886 55.3293 188.148 55.6373 188.484 55.852C188.829 56.0573 189.24 56.16 189.716 56.16C190.229 56.16 190.644 56.062 190.962 55.866C191.288 55.67 191.55 55.404 191.746 55.068L192.628 55.586C192.45 55.9033 192.222 56.1787 191.942 56.412C191.671 56.6453 191.349 56.8273 190.976 56.958C190.612 57.0793 190.201 57.14 189.744 57.14ZM197.418 57.14C196.736 57.14 196.106 56.9953 195.528 56.706C194.958 56.4167 194.52 56.006 194.212 55.474L195.164 54.788C195.369 55.2173 195.668 55.5533 196.06 55.796C196.461 56.0387 196.942 56.16 197.502 56.16C197.996 56.16 198.384 56.0667 198.664 55.88C198.944 55.684 199.084 55.432 199.084 55.124C199.084 54.928 199.018 54.7507 198.888 54.592C198.766 54.424 198.528 54.3027 198.174 54.228L196.494 53.878C195.812 53.738 195.322 53.5047 195.024 53.178C194.734 52.8513 194.59 52.4453 194.59 51.96C194.59 51.5773 194.697 51.2273 194.912 50.91C195.136 50.5927 195.448 50.3407 195.85 50.154C196.26 49.958 196.741 49.86 197.292 49.86C197.982 49.86 198.566 49.9953 199.042 50.266C199.518 50.5367 199.872 50.9193 200.106 51.414L199.168 52.03C199.009 51.6193 198.752 51.3207 198.398 51.134C198.043 50.938 197.674 50.84 197.292 50.84C196.956 50.84 196.666 50.8867 196.424 50.98C196.19 51.0733 196.008 51.204 195.878 51.372C195.756 51.5307 195.696 51.7127 195.696 51.918C195.696 52.1233 195.766 52.3147 195.906 52.492C196.046 52.66 196.307 52.7813 196.69 52.856L198.44 53.22C199.093 53.3507 199.55 53.5653 199.812 53.864C200.073 54.1627 200.204 54.5267 200.204 54.956C200.204 55.3947 200.087 55.782 199.854 56.118C199.62 56.4447 199.294 56.6967 198.874 56.874C198.454 57.0513 197.968 57.14 197.418 57.14ZM205.207 57.14C204.544 57.14 203.951 56.9953 203.429 56.706C202.915 56.4167 202.514 56.0013 202.225 55.46C201.935 54.9093 201.791 54.256 201.791 53.5C201.791 52.744 201.935 52.0953 202.225 51.554C202.514 51.0033 202.911 50.5833 203.415 50.294C203.919 50.0047 204.493 49.86 205.137 49.86C205.79 49.86 206.345 50 206.803 50.28C207.269 50.56 207.624 50.9427 207.867 51.428C208.109 51.904 208.231 52.4407 208.231 53.038C208.231 53.1967 208.226 53.3413 208.217 53.472C208.207 53.6027 208.193 53.7193 208.175 53.822H202.519V52.828H207.685L207.111 52.94C207.111 52.268 206.924 51.75 206.551 51.386C206.187 51.022 205.706 50.84 205.109 50.84C204.651 50.84 204.255 50.9473 203.919 51.162C203.592 51.3673 203.335 51.6707 203.149 52.072C202.971 52.464 202.883 52.94 202.883 53.5C202.883 54.0507 202.976 54.5267 203.163 54.928C203.349 55.3293 203.611 55.6373 203.947 55.852C204.292 56.0573 204.703 56.16 205.179 56.16C205.692 56.16 206.107 56.062 206.425 55.866C206.751 55.67 207.013 55.404 207.209 55.068L208.091 55.586C207.913 55.9033 207.685 56.1787 207.405 56.412C207.134 56.6453 206.812 56.8273 206.439 56.958C206.075 57.0793 205.664 57.14 205.207 57.14ZM214.449 52.478C214.449 51.9553 214.309 51.554 214.029 51.274C213.749 50.9847 213.352 50.84 212.839 50.84C212.353 50.84 211.943 50.9473 211.607 51.162C211.271 51.3673 211.023 51.7033 210.865 52.17L209.955 51.61C210.141 51.0873 210.487 50.6673 210.991 50.35C211.495 50.0233 212.12 49.86 212.867 49.86C213.371 49.86 213.828 49.9487 214.239 50.126C214.649 50.294 214.971 50.5553 215.205 50.91C215.447 51.2553 215.569 51.7033 215.569 52.254V55.642C215.569 55.978 215.746 56.146 216.101 56.146C216.278 56.146 216.451 56.1227 216.619 56.076L216.563 56.958C216.376 57.0513 216.133 57.098 215.835 57.098C215.564 57.098 215.321 57.0467 215.107 56.944C214.892 56.8413 214.724 56.6873 214.603 56.482C214.481 56.2673 214.421 56.0013 214.421 55.684V55.544L214.701 55.586C214.589 55.95 214.397 56.2487 214.127 56.482C213.856 56.706 213.553 56.874 213.217 56.986C212.881 57.0887 212.549 57.14 212.223 57.14C211.812 57.14 211.429 57.07 211.075 56.93C210.72 56.79 210.435 56.58 210.221 56.3C210.015 56.0107 209.913 55.656 209.913 55.236C209.913 54.7133 210.085 54.284 210.431 53.948C210.785 53.6027 211.275 53.3693 211.901 53.248L214.673 52.702V53.626L212.419 54.088C211.961 54.1813 211.621 54.312 211.397 54.48C211.173 54.648 211.061 54.8813 211.061 55.18C211.061 55.4693 211.173 55.7073 211.397 55.894C211.63 56.0713 211.957 56.16 212.377 56.16C212.647 56.16 212.904 56.1273 213.147 56.062C213.399 55.9873 213.623 55.88 213.819 55.74C214.015 55.5907 214.169 55.4087 214.281 55.194C214.393 54.97 214.449 54.7087 214.449 54.41V52.478ZM218.29 57V50H219.2L219.354 51.148C219.55 50.7187 219.835 50.3967 220.208 50.182C220.591 49.9673 221.053 49.86 221.594 49.86C221.716 49.86 221.846 49.8693 221.986 49.888C222.136 49.9067 222.262 49.944 222.364 50L222.168 51.022C222.066 50.9847 221.954 50.9567 221.832 50.938C221.711 50.9193 221.538 50.91 221.314 50.91C221.025 50.91 220.731 50.994 220.432 51.162C220.143 51.33 219.9 51.5867 219.704 51.932C219.508 52.268 219.41 52.6973 219.41 53.22V57H218.29ZM226.684 49.86C227.17 49.86 227.594 49.9347 227.958 50.084C228.332 50.2333 228.654 50.448 228.924 50.728C229.195 51.008 229.414 51.3393 229.582 51.722L228.518 52.226C228.369 51.778 228.14 51.4373 227.832 51.204C227.534 50.9613 227.142 50.84 226.656 50.84C226.19 50.84 225.788 50.9473 225.452 51.162C225.116 51.3673 224.86 51.6707 224.682 52.072C224.505 52.464 224.416 52.94 224.416 53.5C224.416 54.0507 224.505 54.5267 224.682 54.928C224.86 55.3293 225.116 55.6373 225.452 55.852C225.788 56.0573 226.19 56.16 226.656 56.16C227.02 56.16 227.333 56.104 227.594 55.992C227.865 55.88 228.084 55.7167 228.252 55.502C228.43 55.2873 228.551 55.026 228.616 54.718L229.652 55.082C229.494 55.5113 229.274 55.88 228.994 56.188C228.724 56.496 228.392 56.734 228 56.902C227.618 57.0607 227.179 57.14 226.684 57.14C226.031 57.14 225.448 56.9953 224.934 56.706C224.421 56.4167 224.02 56.0013 223.73 55.46C223.441 54.9093 223.296 54.256 223.296 53.5C223.296 52.744 223.441 52.0953 223.73 51.554C224.02 51.0033 224.421 50.5833 224.934 50.294C225.448 50.0047 226.031 49.86 226.684 49.86ZM231.62 57V46.78H232.74V51.05C232.983 50.63 233.305 50.3267 233.706 50.14C234.108 49.9533 234.546 49.86 235.022 49.86C235.526 49.86 235.984 49.958 236.394 50.154C236.805 50.3407 237.132 50.63 237.374 51.022C237.626 51.414 237.752 51.9133 237.752 52.52V57H236.632V52.912C236.632 52.1373 236.464 51.6007 236.128 51.302C235.802 50.994 235.396 50.84 234.91 50.84C234.574 50.84 234.238 50.9193 233.902 51.078C233.566 51.2367 233.286 51.498 233.062 51.862C232.848 52.2167 232.74 52.6927 232.74 53.29V57H231.62Z" fill="#454545"/>
</svg>
