<svg width="236" height="80" viewBox="0 0 236 80" fill="none" xmlns="http://www.w3.org/2000/svg">
<rect x="0.5" y="0.5" width="235" height="79" rx="3.5" stroke="#D4D4D4"/>
<line x1="18.0001" y1="18" x2="18" y2="62" stroke="#BD6697" stroke-width="4" stroke-linecap="round"/>
<path d="M35.5841 34.44V45H33.3761V34.44H35.5841ZM38.0583 45V37H40.0263L40.1543 39.4L39.8823 39.144C40.0103 38.6213 40.213 38.1893 40.4903 37.848C40.7677 37.5067 41.1037 37.256 41.4983 37.096C41.9037 36.9253 42.3463 36.84 42.8263 36.84C43.381 36.84 43.8717 36.9467 44.2983 37.16C44.7357 37.3733 45.077 37.6987 45.3223 38.136C45.5783 38.5627 45.7063 39.1013 45.7063 39.752V45H43.5143V40.376C43.5143 39.6933 43.381 39.224 43.1143 38.968C42.8477 38.7013 42.501 38.568 42.0743 38.568C41.7757 38.568 41.4823 38.6427 41.1943 38.792C40.917 38.9307 40.6877 39.16 40.5063 39.48C40.3357 39.8 40.2503 40.2267 40.2503 40.76V45H38.0583ZM51.1646 45.16C50.3539 45.16 49.6126 45.016 48.9406 44.728C48.2793 44.44 47.7406 44.0347 47.3246 43.512L48.5886 42.232C48.8446 42.616 49.1859 42.9307 49.6126 43.176C50.0393 43.4213 50.5459 43.544 51.1326 43.544C51.5486 43.544 51.8793 43.4853 52.1246 43.368C52.3806 43.24 52.5086 43.0427 52.5086 42.776C52.5086 42.6053 52.4499 42.4613 52.3326 42.344C52.2153 42.216 51.9806 42.1147 51.6286 42.04L50.2206 41.752C49.2926 41.56 48.6313 41.272 48.2366 40.888C47.8526 40.4933 47.6606 39.9867 47.6606 39.368C47.6606 38.9307 47.7886 38.52 48.0446 38.136C48.3113 37.752 48.7059 37.4427 49.2286 37.208C49.7513 36.9627 50.4019 36.84 51.1806 36.84C51.9806 36.84 52.6739 36.968 53.2606 37.224C53.8579 37.4693 54.3273 37.8373 54.6686 38.328L53.3566 39.608C53.1219 39.2347 52.8126 38.952 52.4286 38.76C52.0553 38.5573 51.6606 38.456 51.2446 38.456C50.9459 38.456 50.6899 38.488 50.4766 38.552C50.2633 38.616 50.1033 38.7067 49.9966 38.824C49.8899 38.9307 49.8366 39.0693 49.8366 39.24C49.8366 39.4107 49.9113 39.56 50.0606 39.688C50.2099 39.8053 50.4819 39.9067 50.8766 39.992L52.5086 40.328C53.2979 40.488 53.8633 40.76 54.2046 41.144C54.5459 41.5173 54.7166 41.9707 54.7166 42.504C54.7166 43.016 54.5779 43.4747 54.3006 43.88C54.0339 44.2747 53.6339 44.5893 53.1006 44.824C52.5779 45.048 51.9326 45.16 51.1646 45.16ZM59.2966 34.552V42.392C59.2966 42.776 59.3926 43.0587 59.5846 43.24C59.7873 43.4107 60.0593 43.496 60.4006 43.496C60.6673 43.496 60.9019 43.4587 61.1046 43.384C61.3073 43.2987 61.4886 43.1867 61.6486 43.048L62.0006 44.504C61.7446 44.7067 61.4246 44.8667 61.0406 44.984C60.6566 45.1013 60.2513 45.16 59.8246 45.16C59.2913 45.16 58.8166 45.08 58.4006 44.92C57.9953 44.76 57.6753 44.504 57.4406 44.152C57.2166 43.8 57.1046 43.3307 57.1046 42.744V35.16L59.2966 34.552ZM61.8566 37V38.632H55.6326V37H61.8566ZM63.3396 45V37H65.2436L65.3876 38.568C65.6009 38.0133 65.9103 37.5867 66.3156 37.288C66.7316 36.9893 67.2489 36.84 67.8676 36.84C68.0489 36.84 68.2143 36.856 68.3636 36.888C68.5129 36.92 68.6356 36.9627 68.7316 37.016L68.4756 38.856C68.3689 38.8133 68.2356 38.7813 68.0756 38.76C67.9263 38.7387 67.7289 38.728 67.4836 38.728C67.1636 38.728 66.8543 38.808 66.5556 38.968C66.2569 39.1173 66.0116 39.352 65.8196 39.672C65.6276 39.9813 65.5316 40.376 65.5316 40.856V45H63.3396ZM72.8736 45.16C72.3403 45.16 71.8603 45.064 71.4336 44.872C71.0069 44.68 70.6656 44.376 70.4096 43.96C70.1643 43.5333 70.0416 42.984 70.0416 42.312V37H72.2336V41.784C72.2336 42.4027 72.3616 42.8347 72.6176 43.08C72.8736 43.3147 73.2416 43.432 73.7216 43.432C73.9456 43.432 74.1643 43.3947 74.3776 43.32C74.5909 43.2347 74.7776 43.1067 74.9376 42.936C75.1083 42.7653 75.2416 42.5467 75.3376 42.28C75.4336 42.0027 75.4816 41.6773 75.4816 41.304V37H77.6736V45H75.7216L75.6416 43.608C75.3749 44.1413 75.0069 44.536 74.5376 44.792C74.0789 45.0373 73.5243 45.16 72.8736 45.16ZM83.6122 36.84C84.3269 36.84 84.9296 36.9467 85.4202 37.16C85.9216 37.3627 86.3216 37.6453 86.6202 38.008C86.9296 38.36 87.1482 38.7547 87.2762 39.192L85.2282 39.928C85.1216 39.448 84.9402 39.0853 84.6842 38.84C84.4282 38.5947 84.0816 38.472 83.6442 38.472C83.2389 38.472 82.8922 38.568 82.6042 38.76C82.3162 38.9413 82.0975 39.224 81.9482 39.608C81.7989 39.9813 81.7242 40.4507 81.7242 41.016C81.7242 41.5813 81.7989 42.0507 81.9482 42.424C82.1082 42.7973 82.3322 43.0747 82.6202 43.256C82.9189 43.4373 83.2656 43.528 83.6602 43.528C83.9802 43.528 84.2522 43.4747 84.4762 43.368C84.7002 43.2507 84.8816 43.0853 85.0202 42.872C85.1696 42.6587 85.2709 42.4027 85.3242 42.104L87.3082 42.744C87.1909 43.224 86.9722 43.6453 86.6522 44.008C86.3322 44.3707 85.9216 44.6533 85.4202 44.856C84.9189 45.0587 84.3376 45.16 83.6762 45.16C82.8549 45.16 82.1296 44.9947 81.5002 44.664C80.8709 44.3333 80.3855 43.8587 80.0442 43.24C79.7029 42.6213 79.5322 41.8747 79.5322 41C79.5322 40.1253 79.7029 39.3787 80.0442 38.76C80.3855 38.1413 80.8655 37.6667 81.4842 37.336C82.1029 37.0053 82.8122 36.84 83.6122 36.84ZM91.8435 34.552V42.392C91.8435 42.776 91.9395 43.0587 92.1315 43.24C92.3341 43.4107 92.6061 43.496 92.9475 43.496C93.2141 43.496 93.4488 43.4587 93.6515 43.384C93.8541 43.2987 94.0355 43.1867 94.1955 43.048L94.5475 44.504C94.2915 44.7067 93.9715 44.8667 93.5875 44.984C93.2035 45.1013 92.7981 45.16 92.3715 45.16C91.8381 45.16 91.3635 45.08 90.9475 44.92C90.5421 44.76 90.2221 44.504 89.9875 44.152C89.7635 43.8 89.6515 43.3307 89.6515 42.744V35.16L91.8435 34.552ZM94.4035 37V38.632H88.1795V37H94.4035ZM96.9905 35.848C96.5318 35.848 96.1905 35.752 95.9665 35.56C95.7425 35.3573 95.6305 35.064 95.6305 34.68C95.6305 34.2853 95.7425 33.992 95.9665 33.8C96.1905 33.5973 96.5318 33.496 96.9905 33.496C97.4491 33.496 97.7905 33.5973 98.0145 33.8C98.2385 33.992 98.3505 34.2853 98.3505 34.68C98.3505 35.064 98.2385 35.3573 98.0145 35.56C97.7905 35.752 97.4491 35.848 96.9905 35.848ZM98.0785 37V45H95.8865V37H98.0785ZM104.05 36.84C104.861 36.84 105.57 37.0053 106.178 37.336C106.797 37.6667 107.277 38.1413 107.618 38.76C107.97 39.3787 108.146 40.1253 108.146 41C108.146 41.864 107.97 42.6107 107.618 43.24C107.277 43.8587 106.797 44.3333 106.178 44.664C105.57 44.9947 104.861 45.16 104.05 45.16C103.25 45.16 102.541 44.9947 101.922 44.664C101.303 44.3333 100.818 43.8587 100.466 43.24C100.125 42.6107 99.9541 41.864 99.9541 41C99.9541 40.1253 100.125 39.3787 100.466 38.76C100.818 38.1413 101.303 37.6667 101.922 37.336C102.541 37.0053 103.25 36.84 104.05 36.84ZM104.05 38.472C103.645 38.472 103.298 38.568 103.01 38.76C102.733 38.9413 102.519 39.2187 102.37 39.592C102.221 39.9653 102.146 40.4347 102.146 41C102.146 41.5653 102.221 42.0347 102.37 42.408C102.519 42.7813 102.733 43.064 103.01 43.256C103.298 43.4373 103.645 43.528 104.05 43.528C104.445 43.528 104.781 43.4373 105.058 43.256C105.346 43.064 105.565 42.7813 105.714 42.408C105.863 42.0347 105.938 41.5653 105.938 41C105.938 40.4347 105.863 39.9653 105.714 39.592C105.565 39.2187 105.346 38.9413 105.058 38.76C104.781 38.568 104.445 38.472 104.05 38.472ZM109.98 45V37H111.948L112.076 39.4L111.804 39.144C111.932 38.6213 112.135 38.1893 112.412 37.848C112.69 37.5067 113.026 37.256 113.42 37.096C113.826 36.9253 114.268 36.84 114.748 36.84C115.303 36.84 115.794 36.9467 116.22 37.16C116.658 37.3733 116.999 37.6987 117.244 38.136C117.5 38.5627 117.628 39.1013 117.628 39.752V45H115.436V40.376C115.436 39.6933 115.303 39.224 115.036 38.968C114.77 38.7013 114.423 38.568 113.996 38.568C113.698 38.568 113.404 38.6427 113.116 38.792C112.839 38.9307 112.61 39.16 112.428 39.48C112.258 39.8 112.172 40.2267 112.172 40.76V45H109.98ZM123.086 45.16C122.276 45.16 121.534 45.016 120.862 44.728C120.201 44.44 119.662 44.0347 119.246 43.512L120.51 42.232C120.766 42.616 121.108 42.9307 121.534 43.176C121.961 43.4213 122.468 43.544 123.054 43.544C123.47 43.544 123.801 43.4853 124.046 43.368C124.302 43.24 124.43 43.0427 124.43 42.776C124.43 42.6053 124.372 42.4613 124.254 42.344C124.137 42.216 123.902 42.1147 123.55 42.04L122.142 41.752C121.214 41.56 120.553 41.272 120.158 40.888C119.774 40.4933 119.582 39.9867 119.582 39.368C119.582 38.9307 119.71 38.52 119.966 38.136C120.233 37.752 120.628 37.4427 121.15 37.208C121.673 36.9627 122.324 36.84 123.102 36.84C123.902 36.84 124.596 36.968 125.182 37.224C125.78 37.4693 126.249 37.8373 126.59 38.328L125.278 39.608C125.044 39.2347 124.734 38.952 124.35 38.76C123.977 38.5573 123.582 38.456 123.166 38.456C122.868 38.456 122.612 38.488 122.398 38.552C122.185 38.616 122.025 38.7067 121.918 38.824C121.812 38.9307 121.758 39.0693 121.758 39.24C121.758 39.4107 121.833 39.56 121.982 39.688C122.132 39.8053 122.404 39.9067 122.798 39.992L124.43 40.328C125.22 40.488 125.785 40.76 126.126 41.144C126.468 41.5173 126.638 41.9707 126.638 42.504C126.638 43.016 126.5 43.4747 126.222 43.88C125.956 44.2747 125.556 44.5893 125.022 44.824C124.5 45.048 123.854 45.16 123.086 45.16Z" fill="#252525"/>
<circle cx="212" cy="40" r="6" fill="white" stroke="#BD6697" stroke-width="4"/>
</svg>
