<svg width="252" height="80" viewBox="0 0 252 80" fill="none" xmlns="http://www.w3.org/2000/svg">
<mask id="path-1-inside-1_10_12905" fill="white">
<path d="M0 0H229V80H0V0Z"/>
</mask>
<path d="M0 0H229V80H0V0Z" fill="white"/>
<path d="M0 12H229V-12H0V12Z" fill="#009FDA" mask="url(#path-1-inside-1_10_12905)"/>
<path d="M35 36C30.584 36 27 39.584 27 44C27 48.416 30.584 52 35 52C39.416 52 43 48.416 43 44C43 39.584 39.416 36 35 36ZM33.4 48L29.4 44L30.528 42.872L33.4 45.736L39.472 39.664L40.6 40.8L33.4 48Z" fill="#34C759"/>
<path d="M68 53C68 53.55 68.45 54 69 54H73C73.55 54 74 53.55 74 53V52H68V53ZM71 34C67.14 34 64 37.14 64 41C64 43.38 65.19 45.47 67 46.74V49C67 49.55 67.45 50 68 50H74C74.55 50 75 49.55 75 49V46.74C76.81 45.47 78 43.38 78 41C78 37.14 74.86 34 71 34ZM73.85 45.1L73 45.7V48H69V45.7L68.15 45.1C66.8 44.16 66 42.63 66 41C66 38.24 68.24 36 71 36C73.76 36 76 38.24 76 41C76 42.63 75.2 44.16 73.85 45.1Z" fill="#454545"/>
<path d="M93.256 35.1H97.792V36H92.296V28.08H93.256V35.1ZM103.112 32.124C103.112 31.676 102.992 31.332 102.752 31.092C102.512 30.844 102.172 30.72 101.732 30.72C101.316 30.72 100.964 30.812 100.676 30.996C100.388 31.172 100.176 31.46 100.04 31.86L99.2599 31.38C99.4199 30.932 99.7159 30.572 100.148 30.3C100.58 30.02 101.116 29.88 101.756 29.88C102.188 29.88 102.58 29.956 102.932 30.108C103.284 30.252 103.56 30.476 103.76 30.78C103.968 31.076 104.072 31.46 104.072 31.932V34.836C104.072 35.124 104.224 35.268 104.528 35.268C104.68 35.268 104.828 35.248 104.972 35.208L104.924 35.964C104.764 36.044 104.556 36.084 104.3 36.084C104.068 36.084 103.86 36.04 103.676 35.952C103.492 35.864 103.348 35.732 103.244 35.556C103.14 35.372 103.088 35.144 103.088 34.872V34.752L103.328 34.788C103.232 35.1 103.068 35.356 102.836 35.556C102.604 35.748 102.344 35.892 102.056 35.988C101.768 36.076 101.484 36.12 101.204 36.12C100.852 36.12 100.524 36.06 100.22 35.94C99.9159 35.82 99.6719 35.64 99.4879 35.4C99.3119 35.152 99.2239 34.848 99.2239 34.488C99.2239 34.04 99.3719 33.672 99.6679 33.384C99.9719 33.088 100.392 32.888 100.928 32.784L103.304 32.316V33.108L101.372 33.504C100.98 33.584 100.688 33.696 100.496 33.84C100.304 33.984 100.208 34.184 100.208 34.44C100.208 34.688 100.304 34.892 100.496 35.052C100.696 35.204 100.976 35.28 101.336 35.28C101.568 35.28 101.788 35.252 101.996 35.196C102.212 35.132 102.404 35.04 102.572 34.92C102.74 34.792 102.872 34.636 102.968 34.452C103.064 34.26 103.112 34.036 103.112 33.78V32.124ZM108.885 36.12C108.301 36.12 107.761 35.996 107.265 35.748C106.777 35.5 106.401 35.148 106.137 34.692L106.953 34.104C107.129 34.472 107.385 34.76 107.721 34.968C108.065 35.176 108.477 35.28 108.957 35.28C109.381 35.28 109.713 35.2 109.953 35.04C110.193 34.872 110.313 34.656 110.313 34.392C110.313 34.224 110.257 34.072 110.145 33.936C110.041 33.792 109.837 33.688 109.533 33.624L108.093 33.324C107.509 33.204 107.089 33.004 106.833 32.724C106.585 32.444 106.461 32.096 106.461 31.68C106.461 31.352 106.553 31.052 106.737 30.78C106.929 30.508 107.197 30.292 107.541 30.132C107.893 29.964 108.305 29.88 108.777 29.88C109.369 29.88 109.869 29.996 110.277 30.228C110.685 30.46 110.989 30.788 111.189 31.212L110.385 31.74C110.249 31.388 110.029 31.132 109.725 30.972C109.421 30.804 109.105 30.72 108.777 30.72C108.489 30.72 108.241 30.76 108.033 30.84C107.833 30.92 107.677 31.032 107.565 31.176C107.461 31.312 107.409 31.468 107.409 31.644C107.409 31.82 107.469 31.984 107.589 32.136C107.709 32.28 107.933 32.384 108.261 32.448L109.761 32.76C110.321 32.872 110.713 33.056 110.937 33.312C111.161 33.568 111.273 33.88 111.273 34.248C111.273 34.624 111.173 34.956 110.973 35.244C110.773 35.524 110.493 35.74 110.133 35.892C109.773 36.044 109.357 36.12 108.885 36.12ZM114.789 28.296V34.344C114.789 34.64 114.873 34.86 115.041 35.004C115.209 35.148 115.425 35.22 115.689 35.22C115.921 35.22 116.121 35.18 116.289 35.1C116.457 35.02 116.609 34.912 116.745 34.776L117.081 35.58C116.897 35.748 116.677 35.88 116.421 35.976C116.173 36.072 115.885 36.12 115.557 36.12C115.253 36.12 114.969 36.068 114.705 35.964C114.441 35.852 114.229 35.68 114.069 35.448C113.917 35.208 113.837 34.896 113.829 34.512V28.56L114.789 28.296ZM116.973 30V30.828H112.629V30H116.973Z" fill="#707070"/>
<path d="M138.4 28.08L133.6 36H132.508L131.416 28.08H132.388L133.084 33.552L133.228 35.124L134.02 33.564L137.344 28.08H138.4ZM140.471 28.848C140.279 28.848 140.123 28.792 140.003 28.68C139.883 28.56 139.823 28.408 139.823 28.224C139.823 27.976 139.895 27.78 140.039 27.636C140.191 27.484 140.371 27.408 140.579 27.408C140.771 27.408 140.927 27.468 141.047 27.588C141.167 27.7 141.227 27.848 141.227 28.032C141.227 28.28 141.151 28.48 140.999 28.632C140.855 28.776 140.679 28.848 140.471 28.848ZM140.579 30L139.187 36H138.227L139.619 30H140.579ZM144.581 36.108C144.029 36.108 143.553 35.988 143.153 35.748C142.761 35.508 142.461 35.184 142.253 34.776C142.045 34.368 141.941 33.912 141.941 33.408C141.941 32.784 142.065 32.204 142.313 31.668C142.561 31.132 142.921 30.704 143.393 30.384C143.873 30.056 144.453 29.892 145.133 29.892C145.621 29.892 146.037 29.992 146.381 30.192C146.733 30.392 147.001 30.668 147.185 31.02C147.369 31.364 147.461 31.756 147.461 32.196C147.461 32.356 147.445 32.524 147.413 32.7C147.389 32.868 147.349 33.044 147.293 33.228H142.409V32.388H146.873L146.453 32.724C146.477 32.628 146.493 32.532 146.501 32.436C146.517 32.34 146.525 32.248 146.525 32.16C146.525 31.872 146.465 31.62 146.345 31.404C146.233 31.188 146.069 31.02 145.853 30.9C145.637 30.78 145.377 30.72 145.073 30.72C144.681 30.72 144.345 30.8 144.065 30.96C143.793 31.112 143.569 31.32 143.393 31.584C143.225 31.848 143.101 32.144 143.021 32.472C142.949 32.792 142.913 33.116 142.913 33.444C142.913 33.804 142.985 34.124 143.129 34.404C143.281 34.676 143.489 34.892 143.753 35.052C144.017 35.204 144.329 35.28 144.689 35.28C145.097 35.272 145.433 35.184 145.697 35.016C145.961 34.848 146.177 34.628 146.345 34.356L147.101 34.86C146.925 35.116 146.713 35.34 146.465 35.532C146.217 35.716 145.933 35.86 145.613 35.964C145.301 36.06 144.957 36.108 144.581 36.108ZM149.747 36L149.099 30H150.023L150.479 34.8L153.011 30H153.971L154.583 34.872L157.175 30H158.195L154.883 36H153.923L153.263 31.236L150.719 36H149.747ZM161.44 36.108C160.888 36.108 160.412 35.988 160.012 35.748C159.62 35.508 159.32 35.184 159.112 34.776C158.904 34.368 158.8 33.912 158.8 33.408C158.8 32.784 158.924 32.204 159.172 31.668C159.42 31.132 159.78 30.704 160.252 30.384C160.732 30.056 161.312 29.892 161.992 29.892C162.48 29.892 162.896 29.992 163.24 30.192C163.592 30.392 163.86 30.668 164.044 31.02C164.228 31.364 164.32 31.756 164.32 32.196C164.32 32.356 164.304 32.524 164.272 32.7C164.248 32.868 164.208 33.044 164.152 33.228H159.268V32.388H163.732L163.312 32.724C163.336 32.628 163.352 32.532 163.36 32.436C163.376 32.34 163.384 32.248 163.384 32.16C163.384 31.872 163.324 31.62 163.204 31.404C163.092 31.188 162.928 31.02 162.712 30.9C162.496 30.78 162.236 30.72 161.932 30.72C161.54 30.72 161.204 30.8 160.924 30.96C160.652 31.112 160.428 31.32 160.252 31.584C160.084 31.848 159.96 32.144 159.88 32.472C159.808 32.792 159.772 33.116 159.772 33.444C159.772 33.804 159.844 34.124 159.988 34.404C160.14 34.676 160.348 34.892 160.612 35.052C160.876 35.204 161.188 35.28 161.548 35.28C161.956 35.272 162.292 35.184 162.556 35.016C162.82 34.848 163.036 34.628 163.204 34.356L163.96 34.86C163.784 35.116 163.572 35.34 163.324 35.532C163.076 35.716 162.792 35.86 162.472 35.964C162.16 36.06 161.816 36.108 161.44 36.108ZM168.268 36.096C167.804 36.096 167.396 35.984 167.044 35.76C166.692 35.536 166.416 35.228 166.216 34.836C166.016 34.436 165.916 33.976 165.916 33.456C165.916 32.96 165.992 32.496 166.144 32.064C166.296 31.632 166.508 31.252 166.78 30.924C167.052 30.596 167.376 30.34 167.752 30.156C168.128 29.972 168.536 29.88 168.976 29.88C169.328 29.88 169.644 29.94 169.924 30.06C170.204 30.18 170.436 30.352 170.62 30.576C170.804 30.792 170.932 31.052 171.004 31.356L171.952 27.24H172.912L170.884 36H170.044L170.248 34.884C170.056 35.252 169.78 35.548 169.42 35.772C169.068 35.988 168.684 36.096 168.268 36.096ZM168.508 35.28C168.796 35.28 169.068 35.208 169.324 35.064C169.58 34.92 169.804 34.724 169.996 34.476C170.188 34.22 170.34 33.924 170.452 33.588C170.564 33.244 170.62 32.876 170.62 32.484C170.62 32.124 170.552 31.812 170.416 31.548C170.288 31.276 170.104 31.068 169.864 30.924C169.632 30.78 169.356 30.708 169.036 30.708C168.716 30.708 168.424 30.78 168.16 30.924C167.896 31.06 167.668 31.252 167.476 31.5C167.284 31.748 167.132 32.04 167.02 32.376C166.916 32.704 166.864 33.06 166.864 33.444C166.864 33.836 166.928 34.168 167.056 34.44C167.184 34.712 167.368 34.92 167.608 35.064C167.856 35.208 168.156 35.28 168.508 35.28Z" fill="#1E1E1E"/>
<path d="M101.444 47.76V57H100.38V51.19L100.506 48.754H100.492L97.454 57H96.502L93.464 48.754H93.45L93.576 51.19V57H92.512V47.76H94.234L96.264 53.374L96.964 55.684H96.992L97.706 53.388L99.722 47.76H101.444ZM108.257 52.478C108.257 51.9553 108.117 51.554 107.837 51.274C107.557 50.9847 107.161 50.84 106.647 50.84C106.162 50.84 105.751 50.9473 105.415 51.162C105.079 51.3673 104.832 51.7033 104.673 52.17L103.763 51.61C103.95 51.0873 104.295 50.6673 104.799 50.35C105.303 50.0233 105.929 49.86 106.675 49.86C107.179 49.86 107.637 49.9487 108.047 50.126C108.458 50.294 108.78 50.5553 109.013 50.91C109.256 51.2553 109.377 51.7033 109.377 52.254V55.642C109.377 55.978 109.555 56.146 109.909 56.146C110.087 56.146 110.259 56.1227 110.427 56.076L110.371 56.958C110.185 57.0513 109.942 57.098 109.643 57.098C109.373 57.098 109.13 57.0467 108.915 56.944C108.701 56.8413 108.533 56.6873 108.411 56.482C108.29 56.2673 108.229 56.0013 108.229 55.684V55.544L108.509 55.586C108.397 55.95 108.206 56.2487 107.935 56.482C107.665 56.706 107.361 56.874 107.025 56.986C106.689 57.0887 106.358 57.14 106.031 57.14C105.621 57.14 105.238 57.07 104.883 56.93C104.529 56.79 104.244 56.58 104.029 56.3C103.824 56.0107 103.721 55.656 103.721 55.236C103.721 54.7133 103.894 54.284 104.239 53.948C104.594 53.6027 105.084 53.3693 105.709 53.248L108.481 52.702V53.626L106.227 54.088C105.77 54.1813 105.429 54.312 105.205 54.48C104.981 54.648 104.869 54.8813 104.869 55.18C104.869 55.4693 104.981 55.7073 105.205 55.894C105.439 56.0713 105.765 56.16 106.185 56.16C106.456 56.16 106.713 56.1273 106.955 56.062C107.207 55.9873 107.431 55.88 107.627 55.74C107.823 55.5907 107.977 55.4087 108.089 55.194C108.201 54.97 108.257 54.7087 108.257 54.41V52.478ZM118.245 50L115.221 53.024L114.955 53.29L112.659 55.586V54.186L116.831 50H118.245ZM113.219 46.78V57H112.099V46.78H113.219ZM115.319 52.45L118.413 57H117.055L114.381 53.08L115.319 52.45ZM122.722 57.14C122.059 57.14 121.467 56.9953 120.944 56.706C120.431 56.4167 120.029 56.0013 119.74 55.46C119.451 54.9093 119.306 54.256 119.306 53.5C119.306 52.744 119.451 52.0953 119.74 51.554C120.029 51.0033 120.426 50.5833 120.93 50.294C121.434 50.0047 122.008 49.86 122.652 49.86C123.305 49.86 123.861 50 124.318 50.28C124.785 50.56 125.139 50.9427 125.382 51.428C125.625 51.904 125.746 52.4407 125.746 53.038C125.746 53.1967 125.741 53.3413 125.732 53.472C125.723 53.6027 125.709 53.7193 125.69 53.822H120.034V52.828H125.2L124.626 52.94C124.626 52.268 124.439 51.75 124.066 51.386C123.702 51.022 123.221 50.84 122.624 50.84C122.167 50.84 121.77 50.9473 121.434 51.162C121.107 51.3673 120.851 51.6707 120.664 52.072C120.487 52.464 120.398 52.94 120.398 53.5C120.398 54.0507 120.491 54.5267 120.678 54.928C120.865 55.3293 121.126 55.6373 121.462 55.852C121.807 56.0573 122.218 56.16 122.694 56.16C123.207 56.16 123.623 56.062 123.94 55.866C124.267 55.67 124.528 55.404 124.724 55.068L125.606 55.586C125.429 55.9033 125.2 56.1787 124.92 56.412C124.649 56.6453 124.327 56.8273 123.954 56.958C123.59 57.0793 123.179 57.14 122.722 57.14ZM136.736 52.478C136.736 51.9553 136.596 51.554 136.316 51.274C136.036 50.9847 135.639 50.84 135.126 50.84C134.64 50.84 134.23 50.9473 133.894 51.162C133.558 51.3673 133.31 51.7033 133.152 52.17L132.242 51.61C132.428 51.0873 132.774 50.6673 133.278 50.35C133.782 50.0233 134.407 49.86 135.154 49.86C135.658 49.86 136.115 49.9487 136.526 50.126C136.936 50.294 137.258 50.5553 137.492 50.91C137.734 51.2553 137.856 51.7033 137.856 52.254V55.642C137.856 55.978 138.033 56.146 138.388 56.146C138.565 56.146 138.738 56.1227 138.906 56.076L138.85 56.958C138.663 57.0513 138.42 57.098 138.122 57.098C137.851 57.098 137.608 57.0467 137.394 56.944C137.179 56.8413 137.011 56.6873 136.89 56.482C136.768 56.2673 136.708 56.0013 136.708 55.684V55.544L136.988 55.586C136.876 55.95 136.684 56.2487 136.414 56.482C136.143 56.706 135.84 56.874 135.504 56.986C135.168 57.0887 134.836 57.14 134.51 57.14C134.099 57.14 133.716 57.07 133.362 56.93C133.007 56.79 132.722 56.58 132.508 56.3C132.302 56.0107 132.2 55.656 132.2 55.236C132.2 54.7133 132.372 54.284 132.718 53.948C133.072 53.6027 133.562 53.3693 134.188 53.248L136.96 52.702V53.626L134.706 54.088C134.248 54.1813 133.908 54.312 133.684 54.48C133.46 54.648 133.348 54.8813 133.348 55.18C133.348 55.4693 133.46 55.7073 133.684 55.894C133.917 56.0713 134.244 56.16 134.664 56.16C134.934 56.16 135.191 56.1273 135.434 56.062C135.686 55.9873 135.91 55.88 136.106 55.74C136.302 55.5907 136.456 55.4087 136.568 55.194C136.68 54.97 136.736 54.7087 136.736 54.41V52.478ZM148.213 47.76C149.659 47.76 150.793 48.1613 151.615 48.964C152.445 49.7573 152.861 50.896 152.861 52.38C152.861 53.864 152.445 55.0073 151.615 55.81C150.793 56.6033 149.659 57 148.213 57H145.231V47.76H148.213ZM148.325 55.95C149.379 55.95 150.201 55.6373 150.789 55.012C151.386 54.3773 151.685 53.5 151.685 52.38C151.685 51.26 151.386 50.3873 150.789 49.762C150.201 49.1273 149.379 48.81 148.325 48.81H146.351V55.95H148.325ZM158.037 57.14C157.374 57.14 156.781 56.9953 156.259 56.706C155.745 56.4167 155.344 56.0013 155.055 55.46C154.765 54.9093 154.621 54.256 154.621 53.5C154.621 52.744 154.765 52.0953 155.055 51.554C155.344 51.0033 155.741 50.5833 156.245 50.294C156.749 50.0047 157.323 49.86 157.967 49.86C158.62 49.86 159.175 50 159.633 50.28C160.099 50.56 160.454 50.9427 160.697 51.428C160.939 51.904 161.061 52.4407 161.061 53.038C161.061 53.1967 161.056 53.3413 161.047 53.472C161.037 53.6027 161.023 53.7193 161.005 53.822H155.349V52.828H160.515L159.941 52.94C159.941 52.268 159.754 51.75 159.381 51.386C159.017 51.022 158.536 50.84 157.939 50.84C157.481 50.84 157.085 50.9473 156.749 51.162C156.422 51.3673 156.165 51.6707 155.979 52.072C155.801 52.464 155.713 52.94 155.713 53.5C155.713 54.0507 155.806 54.5267 155.993 54.928C156.179 55.3293 156.441 55.6373 156.777 55.852C157.122 56.0573 157.533 56.16 158.009 56.16C158.522 56.16 158.937 56.062 159.255 55.866C159.581 55.67 159.843 55.404 160.039 55.068L160.921 55.586C160.743 55.9033 160.515 56.1787 160.235 56.412C159.964 56.6453 159.642 56.8273 159.269 56.958C158.905 57.0793 158.494 57.14 158.037 57.14ZM166.089 49.86C166.574 49.86 166.999 49.9347 167.363 50.084C167.736 50.2333 168.058 50.448 168.329 50.728C168.599 51.008 168.819 51.3393 168.987 51.722L167.923 52.226C167.773 51.778 167.545 51.4373 167.237 51.204C166.938 50.9613 166.546 50.84 166.061 50.84C165.594 50.84 165.193 50.9473 164.857 51.162C164.521 51.3673 164.264 51.6707 164.087 52.072C163.909 52.464 163.821 52.94 163.821 53.5C163.821 54.0507 163.909 54.5267 164.087 54.928C164.264 55.3293 164.521 55.6373 164.857 55.852C165.193 56.0573 165.594 56.16 166.061 56.16C166.425 56.16 166.737 56.104 166.999 55.992C167.269 55.88 167.489 55.7167 167.657 55.502C167.834 55.2873 167.955 55.026 168.021 54.718L169.057 55.082C168.898 55.5113 168.679 55.88 168.399 56.188C168.128 56.496 167.797 56.734 167.405 56.902C167.022 57.0607 166.583 57.14 166.089 57.14C165.435 57.14 164.852 56.9953 164.339 56.706C163.825 56.4167 163.424 56.0013 163.135 55.46C162.845 54.9093 162.701 54.256 162.701 53.5C162.701 52.744 162.845 52.0953 163.135 51.554C163.424 51.0033 163.825 50.5833 164.339 50.294C164.852 50.0047 165.435 49.86 166.089 49.86ZM171.585 48.656C171.333 48.656 171.127 48.5813 170.969 48.432C170.819 48.2733 170.745 48.068 170.745 47.816C170.745 47.564 170.819 47.3633 170.969 47.214C171.127 47.0553 171.333 46.976 171.585 46.976C171.837 46.976 172.037 47.0553 172.187 47.214C172.345 47.3633 172.425 47.564 172.425 47.816C172.425 48.068 172.345 48.2733 172.187 48.432C172.037 48.5813 171.837 48.656 171.585 48.656ZM172.145 50V57H171.025V50H172.145ZM177.263 57.14C176.582 57.14 175.952 56.9953 175.373 56.706C174.804 56.4167 174.365 56.006 174.057 55.474L175.009 54.788C175.215 55.2173 175.513 55.5533 175.905 55.796C176.307 56.0387 176.787 56.16 177.347 56.16C177.842 56.16 178.229 56.0667 178.509 55.88C178.789 55.684 178.929 55.432 178.929 55.124C178.929 54.928 178.864 54.7507 178.733 54.592C178.612 54.424 178.374 54.3027 178.019 54.228L176.339 53.878C175.658 53.738 175.168 53.5047 174.869 53.178C174.58 52.8513 174.435 52.4453 174.435 51.96C174.435 51.5773 174.543 51.2273 174.757 50.91C174.981 50.5927 175.294 50.3407 175.695 50.154C176.106 49.958 176.587 49.86 177.137 49.86C177.828 49.86 178.411 49.9953 178.887 50.266C179.363 50.5367 179.718 50.9193 179.951 51.414L179.013 52.03C178.855 51.6193 178.598 51.3207 178.243 51.134C177.889 50.938 177.52 50.84 177.137 50.84C176.801 50.84 176.512 50.8867 176.269 50.98C176.036 51.0733 175.854 51.204 175.723 51.372C175.602 51.5307 175.541 51.7127 175.541 51.918C175.541 52.1233 175.611 52.3147 175.751 52.492C175.891 52.66 176.153 52.7813 176.535 52.856L178.285 53.22C178.939 53.3507 179.396 53.5653 179.657 53.864C179.919 54.1627 180.049 54.5267 180.049 54.956C180.049 55.3947 179.933 55.782 179.699 56.118C179.466 56.4447 179.139 56.6967 178.719 56.874C178.299 57.0513 177.814 57.14 177.263 57.14ZM182.686 48.656C182.434 48.656 182.229 48.5813 182.07 48.432C181.921 48.2733 181.846 48.068 181.846 47.816C181.846 47.564 181.921 47.3633 182.07 47.214C182.229 47.0553 182.434 46.976 182.686 46.976C182.938 46.976 183.139 47.0553 183.288 47.214C183.447 47.3633 183.526 47.564 183.526 47.816C183.526 48.068 183.447 48.2733 183.288 48.432C183.139 48.5813 182.938 48.656 182.686 48.656ZM183.246 50V57H182.126V50H183.246ZM188.743 49.86C189.406 49.86 189.989 50.0047 190.493 50.294C191.006 50.5833 191.408 51.0033 191.697 51.554C191.986 52.0953 192.131 52.744 192.131 53.5C192.131 54.256 191.986 54.9093 191.697 55.46C191.408 56.0013 191.006 56.4167 190.493 56.706C189.989 56.9953 189.406 57.14 188.743 57.14C188.09 57.14 187.506 56.9953 186.993 56.706C186.48 56.4167 186.078 56.0013 185.789 55.46C185.5 54.9093 185.355 54.256 185.355 53.5C185.355 52.744 185.5 52.0953 185.789 51.554C186.078 51.0033 186.48 50.5833 186.993 50.294C187.506 50.0047 188.09 49.86 188.743 49.86ZM188.743 50.826C188.267 50.826 187.861 50.9333 187.525 51.148C187.189 51.3627 186.928 51.6707 186.741 52.072C186.564 52.464 186.475 52.94 186.475 53.5C186.475 54.0507 186.564 54.5267 186.741 54.928C186.928 55.3293 187.189 55.6373 187.525 55.852C187.861 56.0667 188.267 56.174 188.743 56.174C189.219 56.174 189.625 56.0667 189.961 55.852C190.297 55.6373 190.554 55.3293 190.731 54.928C190.918 54.5267 191.011 54.0507 191.011 53.5C191.011 52.94 190.918 52.464 190.731 52.072C190.554 51.6707 190.297 51.3627 189.961 51.148C189.625 50.9333 189.219 50.826 188.743 50.826ZM194.24 57V50H195.22L195.318 51.568L195.136 51.414C195.285 51.0407 195.486 50.742 195.738 50.518C195.99 50.2847 196.279 50.1167 196.606 50.014C196.942 49.9113 197.287 49.86 197.642 49.86C198.146 49.86 198.603 49.958 199.014 50.154C199.424 50.3407 199.751 50.63 199.994 51.022C200.246 51.414 200.372 51.9133 200.372 52.52V57H199.252V52.912C199.252 52.1373 199.084 51.6007 198.748 51.302C198.421 50.994 198.015 50.84 197.53 50.84C197.194 50.84 196.858 50.9193 196.522 51.078C196.186 51.2367 195.906 51.4933 195.682 51.848C195.467 52.2027 195.36 52.6787 195.36 53.276V57H194.24Z" fill="#454545"/>
</svg>
