<svg width="273" height="80" viewBox="0 0 273 80" fill="none" xmlns="http://www.w3.org/2000/svg">
<mask id="path-1-inside-1_10_12854" fill="white">
<path d="M0 0H273V80H0V0Z"/>
</mask>
<path d="M0 0H273V80H0V0Z" fill="white"/>
<path d="M0 12H273V-12H0V12Z" fill="#F89B1B" mask="url(#path-1-inside-1_10_12854)"/>
<path d="M29 36C24.584 36 21 39.584 21 44C21 48.416 24.584 52 29 52C33.416 52 37 48.416 37 44C37 39.584 33.416 36 29 36ZM27.4 48L23.4 44L24.528 42.872L27.4 45.736L33.472 39.664L34.6 40.8L27.4 48Z" fill="#34C759"/>
<path d="M60 40.5H55V38.5H60V40.5ZM60 43.5H55V45.5H60V43.5ZM73.59 50.5L69.76 46.67C68.96 47.19 68.02 47.5 67 47.5C64.24 47.5 62 45.26 62 42.5C62 39.74 64.24 37.5 67 37.5C69.76 37.5 72 39.74 72 42.5C72 43.52 71.69 44.46 71.17 45.25L75 49.09L73.59 50.5ZM70 42.5C70 40.85 68.65 39.5 67 39.5C65.35 39.5 64 40.85 64 42.5C64 44.15 65.35 45.5 67 45.5C68.65 45.5 70 44.15 70 42.5ZM55 50.5H65V48.5H55V50.5Z" fill="#454545"/>
<path d="M92.608 36H91.588L90.748 33.804H87.16L86.32 36H85.312L88.396 28.08H89.536L92.608 36ZM87.508 32.904H90.4L88.948 29.004L87.508 32.904ZM94.3579 36V30H95.1379L95.2699 30.984C95.4379 30.616 95.6819 30.34 96.0019 30.156C96.3299 29.972 96.7259 29.88 97.1899 29.88C97.2939 29.88 97.4059 29.888 97.5259 29.904C97.6539 29.92 97.7619 29.952 97.8499 30L97.6819 30.876C97.5939 30.844 97.4979 30.82 97.3939 30.804C97.2899 30.788 97.1419 30.78 96.9499 30.78C96.7019 30.78 96.4499 30.852 96.1939 30.996C95.9459 31.14 95.7379 31.36 95.5699 31.656C95.4019 31.944 95.3179 32.312 95.3179 32.76V36H94.3579ZM100.629 28.296V34.344C100.629 34.64 100.713 34.86 100.881 35.004C101.049 35.148 101.265 35.22 101.529 35.22C101.761 35.22 101.961 35.18 102.129 35.1C102.297 35.02 102.449 34.912 102.585 34.776L102.921 35.58C102.737 35.748 102.517 35.88 102.261 35.976C102.013 36.072 101.725 36.12 101.397 36.12C101.093 36.12 100.809 36.068 100.545 35.964C100.281 35.852 100.069 35.68 99.909 35.448C99.757 35.208 99.677 34.896 99.669 34.512V28.56L100.629 28.296ZM102.813 30V30.828H98.469V30H102.813ZM105.04 28.848C104.824 28.848 104.648 28.784 104.512 28.656C104.384 28.52 104.32 28.344 104.32 28.128C104.32 27.912 104.384 27.74 104.512 27.612C104.648 27.476 104.824 27.408 105.04 27.408C105.256 27.408 105.428 27.476 105.556 27.612C105.692 27.74 105.76 27.912 105.76 28.128C105.76 28.344 105.692 28.52 105.556 28.656C105.428 28.784 105.256 28.848 105.04 28.848ZM105.52 30V36H104.56V30H105.52ZM110.504 27.18C110.712 27.18 110.908 27.204 111.092 27.252C111.276 27.3 111.42 27.368 111.524 27.456L111.272 28.236C111.176 28.172 111.072 28.128 110.96 28.104C110.848 28.072 110.724 28.056 110.588 28.056C110.244 28.056 109.976 28.14 109.784 28.308C109.592 28.468 109.496 28.728 109.496 29.088V30V30.312V36H108.536V28.992C108.536 28.728 108.576 28.484 108.656 28.26C108.736 28.036 108.856 27.844 109.016 27.684C109.184 27.524 109.392 27.4 109.64 27.312C109.888 27.224 110.176 27.18 110.504 27.18ZM111.5 30V30.828H107.336V30H111.5ZM116.24 32.124C116.24 31.676 116.12 31.332 115.88 31.092C115.64 30.844 115.3 30.72 114.86 30.72C114.444 30.72 114.092 30.812 113.804 30.996C113.516 31.172 113.304 31.46 113.168 31.86L112.388 31.38C112.548 30.932 112.844 30.572 113.276 30.3C113.708 30.02 114.244 29.88 114.884 29.88C115.316 29.88 115.708 29.956 116.06 30.108C116.412 30.252 116.688 30.476 116.888 30.78C117.096 31.076 117.2 31.46 117.2 31.932V34.836C117.2 35.124 117.352 35.268 117.656 35.268C117.808 35.268 117.956 35.248 118.1 35.208L118.052 35.964C117.892 36.044 117.684 36.084 117.428 36.084C117.196 36.084 116.988 36.04 116.804 35.952C116.62 35.864 116.476 35.732 116.372 35.556C116.268 35.372 116.216 35.144 116.216 34.872V34.752L116.456 34.788C116.36 35.1 116.196 35.356 115.964 35.556C115.732 35.748 115.472 35.892 115.184 35.988C114.896 36.076 114.612 36.12 114.332 36.12C113.98 36.12 113.652 36.06 113.348 35.94C113.044 35.82 112.8 35.64 112.616 35.4C112.44 35.152 112.352 34.848 112.352 34.488C112.352 34.04 112.5 33.672 112.796 33.384C113.1 33.088 113.52 32.888 114.056 32.784L116.432 32.316V33.108L114.5 33.504C114.108 33.584 113.816 33.696 113.624 33.84C113.432 33.984 113.336 34.184 113.336 34.44C113.336 34.688 113.432 34.892 113.624 35.052C113.824 35.204 114.104 35.28 114.464 35.28C114.696 35.28 114.916 35.252 115.124 35.196C115.34 35.132 115.532 35.04 115.7 34.92C115.868 34.792 116 34.636 116.096 34.452C116.192 34.26 116.24 34.036 116.24 33.78V32.124ZM122.336 29.88C122.752 29.88 123.116 29.944 123.428 30.072C123.748 30.2 124.024 30.384 124.256 30.624C124.488 30.864 124.676 31.148 124.82 31.476L123.908 31.908C123.78 31.524 123.584 31.232 123.32 31.032C123.064 30.824 122.728 30.72 122.312 30.72C121.912 30.72 121.568 30.812 121.28 30.996C120.992 31.172 120.772 31.432 120.62 31.776C120.468 32.112 120.392 32.52 120.392 33C120.392 33.472 120.468 33.88 120.62 34.224C120.772 34.568 120.992 34.832 121.28 35.016C121.568 35.192 121.912 35.28 122.312 35.28C122.624 35.28 122.892 35.232 123.116 35.136C123.348 35.04 123.536 34.9 123.68 34.716C123.832 34.532 123.936 34.308 123.992 34.044L124.88 34.356C124.744 34.724 124.556 35.04 124.316 35.304C124.084 35.568 123.8 35.772 123.464 35.916C123.136 36.052 122.76 36.12 122.336 36.12C121.776 36.12 121.276 35.996 120.836 35.748C120.396 35.5 120.052 35.144 119.804 34.68C119.556 34.208 119.432 33.648 119.432 33C119.432 32.352 119.556 31.796 119.804 31.332C120.052 30.86 120.396 30.5 120.836 30.252C121.276 30.004 121.776 29.88 122.336 29.88ZM128.303 28.296V34.344C128.303 34.64 128.387 34.86 128.555 35.004C128.723 35.148 128.939 35.22 129.203 35.22C129.435 35.22 129.635 35.18 129.803 35.1C129.971 35.02 130.123 34.912 130.259 34.776L130.595 35.58C130.411 35.748 130.191 35.88 129.935 35.976C129.687 36.072 129.399 36.12 129.071 36.12C128.767 36.12 128.483 36.068 128.219 35.964C127.955 35.852 127.743 35.68 127.583 35.448C127.431 35.208 127.351 34.896 127.343 34.512V28.56L128.303 28.296ZM130.487 30V30.828H126.143V30H130.487ZM134.395 36.12C133.811 36.12 133.271 35.996 132.775 35.748C132.287 35.5 131.911 35.148 131.647 34.692L132.463 34.104C132.639 34.472 132.895 34.76 133.231 34.968C133.575 35.176 133.987 35.28 134.467 35.28C134.891 35.28 135.223 35.2 135.463 35.04C135.703 34.872 135.823 34.656 135.823 34.392C135.823 34.224 135.767 34.072 135.655 33.936C135.551 33.792 135.347 33.688 135.043 33.624L133.603 33.324C133.019 33.204 132.599 33.004 132.343 32.724C132.095 32.444 131.971 32.096 131.971 31.68C131.971 31.352 132.063 31.052 132.247 30.78C132.439 30.508 132.707 30.292 133.051 30.132C133.403 29.964 133.815 29.88 134.287 29.88C134.879 29.88 135.379 29.996 135.787 30.228C136.195 30.46 136.499 30.788 136.699 31.212L135.895 31.74C135.759 31.388 135.539 31.132 135.235 30.972C134.931 30.804 134.615 30.72 134.287 30.72C133.999 30.72 133.751 30.76 133.543 30.84C133.343 30.92 133.187 31.032 133.075 31.176C132.971 31.312 132.919 31.468 132.919 31.644C132.919 31.82 132.979 31.984 133.099 32.136C133.219 32.28 133.443 32.384 133.771 32.448L135.271 32.76C135.831 32.872 136.223 33.056 136.447 33.312C136.671 33.568 136.783 33.88 136.783 34.248C136.783 34.624 136.683 34.956 136.483 35.244C136.283 35.524 136.003 35.74 135.643 35.892C135.283 36.044 134.867 36.12 134.395 36.12ZM144.433 28.08V36H143.473V28.08H144.433ZM148.303 28.08V36H147.343V28.08H148.303Z" fill="#707070"/>
<path d="M170.4 28.08L165.6 36H164.508L163.416 28.08H164.388L165.084 33.552L165.228 35.124L166.02 33.564L169.344 28.08H170.4ZM172.471 28.848C172.279 28.848 172.123 28.792 172.003 28.68C171.883 28.56 171.823 28.408 171.823 28.224C171.823 27.976 171.895 27.78 172.039 27.636C172.191 27.484 172.371 27.408 172.579 27.408C172.771 27.408 172.927 27.468 173.047 27.588C173.167 27.7 173.227 27.848 173.227 28.032C173.227 28.28 173.151 28.48 172.999 28.632C172.855 28.776 172.679 28.848 172.471 28.848ZM172.579 30L171.187 36H170.227L171.619 30H172.579ZM176.581 36.108C176.029 36.108 175.553 35.988 175.153 35.748C174.761 35.508 174.461 35.184 174.253 34.776C174.045 34.368 173.941 33.912 173.941 33.408C173.941 32.784 174.065 32.204 174.313 31.668C174.561 31.132 174.921 30.704 175.393 30.384C175.873 30.056 176.453 29.892 177.133 29.892C177.621 29.892 178.037 29.992 178.381 30.192C178.733 30.392 179.001 30.668 179.185 31.02C179.369 31.364 179.461 31.756 179.461 32.196C179.461 32.356 179.445 32.524 179.413 32.7C179.389 32.868 179.349 33.044 179.293 33.228H174.409V32.388H178.873L178.453 32.724C178.477 32.628 178.493 32.532 178.501 32.436C178.517 32.34 178.525 32.248 178.525 32.16C178.525 31.872 178.465 31.62 178.345 31.404C178.233 31.188 178.069 31.02 177.853 30.9C177.637 30.78 177.377 30.72 177.073 30.72C176.681 30.72 176.345 30.8 176.065 30.96C175.793 31.112 175.569 31.32 175.393 31.584C175.225 31.848 175.101 32.144 175.021 32.472C174.949 32.792 174.913 33.116 174.913 33.444C174.913 33.804 174.985 34.124 175.129 34.404C175.281 34.676 175.489 34.892 175.753 35.052C176.017 35.204 176.329 35.28 176.689 35.28C177.097 35.272 177.433 35.184 177.697 35.016C177.961 34.848 178.177 34.628 178.345 34.356L179.101 34.86C178.925 35.116 178.713 35.34 178.465 35.532C178.217 35.716 177.933 35.86 177.613 35.964C177.301 36.06 176.957 36.108 176.581 36.108ZM181.747 36L181.099 30H182.023L182.479 34.8L185.011 30H185.971L186.583 34.872L189.175 30H190.195L186.883 36H185.923L185.263 31.236L182.719 36H181.747ZM193.44 36.108C192.888 36.108 192.412 35.988 192.012 35.748C191.62 35.508 191.32 35.184 191.112 34.776C190.904 34.368 190.8 33.912 190.8 33.408C190.8 32.784 190.924 32.204 191.172 31.668C191.42 31.132 191.78 30.704 192.252 30.384C192.732 30.056 193.312 29.892 193.992 29.892C194.48 29.892 194.896 29.992 195.24 30.192C195.592 30.392 195.86 30.668 196.044 31.02C196.228 31.364 196.32 31.756 196.32 32.196C196.32 32.356 196.304 32.524 196.272 32.7C196.248 32.868 196.208 33.044 196.152 33.228H191.268V32.388H195.732L195.312 32.724C195.336 32.628 195.352 32.532 195.36 32.436C195.376 32.34 195.384 32.248 195.384 32.16C195.384 31.872 195.324 31.62 195.204 31.404C195.092 31.188 194.928 31.02 194.712 30.9C194.496 30.78 194.236 30.72 193.932 30.72C193.54 30.72 193.204 30.8 192.924 30.96C192.652 31.112 192.428 31.32 192.252 31.584C192.084 31.848 191.96 32.144 191.88 32.472C191.808 32.792 191.772 33.116 191.772 33.444C191.772 33.804 191.844 34.124 191.988 34.404C192.14 34.676 192.348 34.892 192.612 35.052C192.876 35.204 193.188 35.28 193.548 35.28C193.956 35.272 194.292 35.184 194.556 35.016C194.82 34.848 195.036 34.628 195.204 34.356L195.96 34.86C195.784 35.116 195.572 35.34 195.324 35.532C195.076 35.716 194.792 35.86 194.472 35.964C194.16 36.06 193.816 36.108 193.44 36.108ZM200.268 36.096C199.804 36.096 199.396 35.984 199.044 35.76C198.692 35.536 198.416 35.228 198.216 34.836C198.016 34.436 197.916 33.976 197.916 33.456C197.916 32.96 197.992 32.496 198.144 32.064C198.296 31.632 198.508 31.252 198.78 30.924C199.052 30.596 199.376 30.34 199.752 30.156C200.128 29.972 200.536 29.88 200.976 29.88C201.328 29.88 201.644 29.94 201.924 30.06C202.204 30.18 202.436 30.352 202.62 30.576C202.804 30.792 202.932 31.052 203.004 31.356L203.952 27.24H204.912L202.884 36H202.044L202.248 34.884C202.056 35.252 201.78 35.548 201.42 35.772C201.068 35.988 200.684 36.096 200.268 36.096ZM200.508 35.28C200.796 35.28 201.068 35.208 201.324 35.064C201.58 34.92 201.804 34.724 201.996 34.476C202.188 34.22 202.34 33.924 202.452 33.588C202.564 33.244 202.62 32.876 202.62 32.484C202.62 32.124 202.552 31.812 202.416 31.548C202.288 31.276 202.104 31.068 201.864 30.924C201.632 30.78 201.356 30.708 201.036 30.708C200.716 30.708 200.424 30.78 200.16 30.924C199.896 31.06 199.668 31.252 199.476 31.5C199.284 31.748 199.132 32.04 199.02 32.376C198.916 32.704 198.864 33.06 198.864 33.444C198.864 33.836 198.928 34.168 199.056 34.44C199.184 34.712 199.368 34.92 199.608 35.064C199.856 35.208 200.156 35.28 200.508 35.28Z" fill="#1E1E1E"/>
<path d="M87.632 47.76V57H86.512V47.76H87.632ZM90.3762 57V50H91.3562L91.4542 51.568L91.2722 51.414C91.4216 51.0407 91.6222 50.742 91.8742 50.518C92.1262 50.2847 92.4156 50.1167 92.7422 50.014C93.0782 49.9113 93.4236 49.86 93.7782 49.86C94.2822 49.86 94.7396 49.958 95.1502 50.154C95.5609 50.3407 95.8876 50.63 96.1302 51.022C96.3822 51.414 96.5082 51.9133 96.5082 52.52V57H95.3882V52.912C95.3882 52.1373 95.2202 51.6007 94.8842 51.302C94.5576 50.994 94.1516 50.84 93.6662 50.84C93.3302 50.84 92.9942 50.9193 92.6582 51.078C92.3222 51.2367 92.0422 51.4933 91.8182 51.848C91.6036 52.2027 91.4962 52.6787 91.4962 53.276V57H90.3762ZM103.5 50H104.676L101.764 57H100.644L97.7325 50H99.0065L101.218 55.866L103.5 50ZM109.066 57.14C108.403 57.14 107.811 56.9953 107.288 56.706C106.775 56.4167 106.373 56.0013 106.084 55.46C105.795 54.9093 105.65 54.256 105.65 53.5C105.65 52.744 105.795 52.0953 106.084 51.554C106.373 51.0033 106.77 50.5833 107.274 50.294C107.778 50.0047 108.352 49.86 108.996 49.86C109.649 49.86 110.205 50 110.662 50.28C111.129 50.56 111.483 50.9427 111.726 51.428C111.969 51.904 112.09 52.4407 112.09 53.038C112.09 53.1967 112.085 53.3413 112.076 53.472C112.067 53.6027 112.053 53.7193 112.034 53.822H106.378V52.828H111.544L110.97 52.94C110.97 52.268 110.783 51.75 110.41 51.386C110.046 51.022 109.565 50.84 108.968 50.84C108.511 50.84 108.114 50.9473 107.778 51.162C107.451 51.3673 107.195 51.6707 107.008 52.072C106.831 52.464 106.742 52.94 106.742 53.5C106.742 54.0507 106.835 54.5267 107.022 54.928C107.209 55.3293 107.47 55.6373 107.806 55.852C108.151 56.0573 108.562 56.16 109.038 56.16C109.551 56.16 109.967 56.062 110.284 55.866C110.611 55.67 110.872 55.404 111.068 55.068L111.95 55.586C111.773 55.9033 111.544 56.1787 111.264 56.412C110.993 56.6453 110.671 56.8273 110.298 56.958C109.934 57.0793 109.523 57.14 109.066 57.14ZM116.74 57.14C116.059 57.14 115.429 56.9953 114.85 56.706C114.281 56.4167 113.842 56.006 113.534 55.474L114.486 54.788C114.691 55.2173 114.99 55.5533 115.382 55.796C115.783 56.0387 116.264 56.16 116.824 56.16C117.319 56.16 117.706 56.0667 117.986 55.88C118.266 55.684 118.406 55.432 118.406 55.124C118.406 54.928 118.341 54.7507 118.21 54.592C118.089 54.424 117.851 54.3027 117.496 54.228L115.816 53.878C115.135 53.738 114.645 53.5047 114.346 53.178C114.057 52.8513 113.912 52.4453 113.912 51.96C113.912 51.5773 114.019 51.2273 114.234 50.91C114.458 50.5927 114.771 50.3407 115.172 50.154C115.583 49.958 116.063 49.86 116.614 49.86C117.305 49.86 117.888 49.9953 118.364 50.266C118.84 50.5367 119.195 50.9193 119.428 51.414L118.49 52.03C118.331 51.6193 118.075 51.3207 117.72 51.134C117.365 50.938 116.997 50.84 116.614 50.84C116.278 50.84 115.989 50.8867 115.746 50.98C115.513 51.0733 115.331 51.204 115.2 51.372C115.079 51.5307 115.018 51.7127 115.018 51.918C115.018 52.1233 115.088 52.3147 115.228 52.492C115.368 52.66 115.629 52.7813 116.012 52.856L117.762 53.22C118.415 53.3507 118.873 53.5653 119.134 53.864C119.395 54.1627 119.526 54.5267 119.526 54.956C119.526 55.3947 119.409 55.782 119.176 56.118C118.943 56.4447 118.616 56.6967 118.196 56.874C117.776 57.0513 117.291 57.14 116.74 57.14ZM123.255 48.012V55.068C123.255 55.4133 123.353 55.67 123.549 55.838C123.745 56.006 123.997 56.09 124.305 56.09C124.575 56.09 124.809 56.0433 125.005 55.95C125.201 55.8567 125.378 55.7307 125.537 55.572L125.929 56.51C125.714 56.706 125.457 56.86 125.159 56.972C124.869 57.084 124.533 57.14 124.151 57.14C123.796 57.14 123.465 57.0793 123.157 56.958C122.849 56.8273 122.601 56.6267 122.415 56.356C122.237 56.076 122.144 55.712 122.135 55.264V48.32L123.255 48.012ZM125.803 50V50.966H120.735V50H125.803ZM128.028 48.656C127.776 48.656 127.571 48.5813 127.412 48.432C127.263 48.2733 127.188 48.068 127.188 47.816C127.188 47.564 127.263 47.3633 127.412 47.214C127.571 47.0553 127.776 46.976 128.028 46.976C128.28 46.976 128.481 47.0553 128.63 47.214C128.789 47.3633 128.868 47.564 128.868 47.816C128.868 48.068 128.789 48.2733 128.63 48.432C128.481 48.5813 128.28 48.656 128.028 48.656ZM128.588 50V57H127.468V50H128.588ZM137.081 48.712L137.333 49.706C137.323 49.706 137.309 49.706 137.291 49.706C137.272 49.706 137.253 49.706 137.235 49.706C136.777 49.706 136.423 49.7993 136.171 49.986C135.928 50.1633 135.807 50.4527 135.807 50.854L135.121 50.504C135.121 50.14 135.205 49.8227 135.373 49.552C135.541 49.2813 135.769 49.076 136.059 48.936C136.348 48.7867 136.665 48.712 137.011 48.712C137.02 48.712 137.029 48.712 137.039 48.712C137.057 48.712 137.071 48.712 137.081 48.712ZM134.953 56.104C135.615 56.104 136.133 56.258 136.507 56.566C136.88 56.8647 137.067 57.266 137.067 57.77C137.067 58.2273 136.913 58.624 136.605 58.96C136.306 59.296 135.9 59.5527 135.387 59.73C134.883 59.9167 134.313 60.01 133.679 60.01C132.577 60.01 131.751 59.8233 131.201 59.45C130.659 59.0767 130.389 58.6287 130.389 58.106C130.389 57.7327 130.51 57.3967 130.753 57.098C131.005 56.8087 131.425 56.6453 132.013 56.608L131.915 56.818C131.597 56.734 131.327 56.594 131.103 56.398C130.888 56.1927 130.781 55.8987 130.781 55.516C130.781 55.1333 130.921 54.8067 131.201 54.536C131.49 54.256 131.915 54.0833 132.475 54.018L133.217 54.396H133.077C132.619 54.4427 132.293 54.5593 132.097 54.746C131.91 54.9233 131.817 55.1193 131.817 55.334C131.817 55.5953 131.91 55.7913 132.097 55.922C132.293 56.0433 132.563 56.104 132.909 56.104H134.953ZM133.665 59.072C134.206 59.072 134.649 59.016 134.995 58.904C135.349 58.792 135.611 58.6473 135.779 58.47C135.947 58.2927 136.031 58.1013 136.031 57.896C136.031 57.644 135.928 57.4433 135.723 57.294C135.527 57.1447 135.167 57.07 134.645 57.07H132.489C132.19 57.07 131.938 57.1447 131.733 57.294C131.527 57.4527 131.425 57.6673 131.425 57.938C131.425 58.2833 131.621 58.5587 132.013 58.764C132.414 58.9693 132.965 59.072 133.665 59.072ZM133.567 49.86C134.127 49.86 134.621 49.9627 135.051 50.168C135.489 50.364 135.83 50.6393 136.073 50.994C136.315 51.3487 136.437 51.7593 136.437 52.226C136.437 52.6833 136.315 53.094 136.073 53.458C135.83 53.8127 135.489 54.0927 135.051 54.298C134.621 54.494 134.127 54.592 133.567 54.592C132.643 54.592 131.933 54.3727 131.439 53.934C130.944 53.486 130.697 52.9167 130.697 52.226C130.697 51.7593 130.818 51.3487 131.061 50.994C131.313 50.6393 131.653 50.364 132.083 50.168C132.512 49.9627 133.007 49.86 133.567 49.86ZM133.567 50.77C133.081 50.77 132.675 50.9053 132.349 51.176C132.022 51.4373 131.859 51.7873 131.859 52.226C131.859 52.6553 132.022 53.0053 132.349 53.276C132.675 53.5467 133.081 53.682 133.567 53.682C134.052 53.682 134.458 53.5467 134.785 53.276C135.111 53.0053 135.275 52.6553 135.275 52.226C135.275 51.7873 135.111 51.4373 134.785 51.176C134.458 50.9053 134.052 50.77 133.567 50.77ZM142.726 52.478C142.726 51.9553 142.586 51.554 142.306 51.274C142.026 50.9847 141.629 50.84 141.116 50.84C140.631 50.84 140.22 50.9473 139.884 51.162C139.548 51.3673 139.301 51.7033 139.142 52.17L138.232 51.61C138.419 51.0873 138.764 50.6673 139.268 50.35C139.772 50.0233 140.397 49.86 141.144 49.86C141.648 49.86 142.105 49.9487 142.516 50.126C142.927 50.294 143.249 50.5553 143.482 50.91C143.725 51.2553 143.846 51.7033 143.846 52.254V55.642C143.846 55.978 144.023 56.146 144.378 56.146C144.555 56.146 144.728 56.1227 144.896 56.076L144.84 56.958C144.653 57.0513 144.411 57.098 144.112 57.098C143.841 57.098 143.599 57.0467 143.384 56.944C143.169 56.8413 143.001 56.6873 142.88 56.482C142.759 56.2673 142.698 56.0013 142.698 55.684V55.544L142.978 55.586C142.866 55.95 142.675 56.2487 142.404 56.482C142.133 56.706 141.83 56.874 141.494 56.986C141.158 57.0887 140.827 57.14 140.5 57.14C140.089 57.14 139.707 57.07 139.352 56.93C138.997 56.79 138.713 56.58 138.498 56.3C138.293 56.0107 138.19 55.656 138.19 55.236C138.19 54.7133 138.363 54.284 138.708 53.948C139.063 53.6027 139.553 53.3693 140.178 53.248L142.95 52.702V53.626L140.696 54.088C140.239 54.1813 139.898 54.312 139.674 54.48C139.45 54.648 139.338 54.8813 139.338 55.18C139.338 55.4693 139.45 55.7073 139.674 55.894C139.907 56.0713 140.234 56.16 140.654 56.16C140.925 56.16 141.181 56.1273 141.424 56.062C141.676 55.9873 141.9 55.88 142.096 55.74C142.292 55.5907 142.446 55.4087 142.558 55.194C142.67 54.97 142.726 54.7087 142.726 54.41V52.478ZM147.946 48.012V55.068C147.946 55.4133 148.044 55.67 148.24 55.838C148.436 56.006 148.688 56.09 148.996 56.09C149.267 56.09 149.5 56.0433 149.696 55.95C149.892 55.8567 150.07 55.7307 150.228 55.572L150.62 56.51C150.406 56.706 150.149 56.86 149.85 56.972C149.561 57.084 149.225 57.14 148.842 57.14C148.488 57.14 148.156 57.0793 147.848 56.958C147.54 56.8273 147.293 56.6267 147.106 56.356C146.929 56.076 146.836 55.712 146.826 55.264V48.32L147.946 48.012ZM150.494 50V50.966H145.426V50H150.494ZM155.085 57.14C154.423 57.14 153.83 56.9953 153.307 56.706C152.794 56.4167 152.393 56.0013 152.103 55.46C151.814 54.9093 151.669 54.256 151.669 53.5C151.669 52.744 151.814 52.0953 152.103 51.554C152.393 51.0033 152.789 50.5833 153.293 50.294C153.797 50.0047 154.371 49.86 155.015 49.86C155.669 49.86 156.224 50 156.681 50.28C157.148 50.56 157.503 50.9427 157.745 51.428C157.988 51.904 158.109 52.4407 158.109 53.038C158.109 53.1967 158.105 53.3413 158.095 53.472C158.086 53.6027 158.072 53.7193 158.053 53.822H152.397V52.828H157.563L156.989 52.94C156.989 52.268 156.803 51.75 156.429 51.386C156.065 51.022 155.585 50.84 154.987 50.84C154.53 50.84 154.133 50.9473 153.797 51.162C153.471 51.3673 153.214 51.6707 153.027 52.072C152.85 52.464 152.761 52.94 152.761 53.5C152.761 54.0507 152.855 54.5267 153.041 54.928C153.228 55.3293 153.489 55.6373 153.825 55.852C154.171 56.0573 154.581 56.16 155.057 56.16C155.571 56.16 155.986 56.062 156.303 55.866C156.63 55.67 156.891 55.404 157.087 55.068L157.969 55.586C157.792 55.9033 157.563 56.1787 157.283 56.412C157.013 56.6453 156.691 56.8273 156.317 56.958C155.953 57.0793 155.543 57.14 155.085 57.14ZM166.39 48.012V55.068C166.39 55.4133 166.488 55.67 166.684 55.838C166.88 56.006 167.132 56.09 167.44 56.09C167.71 56.09 167.944 56.0433 168.14 55.95C168.336 55.8567 168.513 55.7307 168.672 55.572L169.064 56.51C168.849 56.706 168.592 56.86 168.294 56.972C168.004 57.084 167.668 57.14 167.286 57.14C166.931 57.14 166.6 57.0793 166.292 56.958C165.984 56.8273 165.736 56.6267 165.55 56.356C165.372 56.076 165.279 55.712 165.27 55.264V48.32L166.39 48.012ZM168.938 50V50.966H163.87V50H168.938ZM170.603 57V46.78H171.723V51.05C171.965 50.63 172.287 50.3267 172.689 50.14C173.09 49.9533 173.529 49.86 174.005 49.86C174.509 49.86 174.966 49.958 175.377 50.154C175.787 50.3407 176.114 50.63 176.357 51.022C176.609 51.414 176.735 51.9133 176.735 52.52V57H175.615V52.912C175.615 52.1373 175.447 51.6007 175.111 51.302C174.784 50.994 174.378 50.84 173.893 50.84C173.557 50.84 173.221 50.9193 172.885 51.078C172.549 51.2367 172.269 51.498 172.045 51.862C171.83 52.2167 171.723 52.6927 171.723 53.29V57H170.603ZM182.197 57.14C181.534 57.14 180.941 56.9953 180.419 56.706C179.905 56.4167 179.504 56.0013 179.215 55.46C178.925 54.9093 178.781 54.256 178.781 53.5C178.781 52.744 178.925 52.0953 179.215 51.554C179.504 51.0033 179.901 50.5833 180.405 50.294C180.909 50.0047 181.483 49.86 182.127 49.86C182.78 49.86 183.335 50 183.793 50.28C184.259 50.56 184.614 50.9427 184.857 51.428C185.099 51.904 185.221 52.4407 185.221 53.038C185.221 53.1967 185.216 53.3413 185.207 53.472C185.197 53.6027 185.183 53.7193 185.165 53.822H179.509V52.828H184.675L184.101 52.94C184.101 52.268 183.914 51.75 183.541 51.386C183.177 51.022 182.696 50.84 182.099 50.84C181.641 50.84 181.245 50.9473 180.909 51.162C180.582 51.3673 180.325 51.6707 180.139 52.072C179.961 52.464 179.873 52.94 179.873 53.5C179.873 54.0507 179.966 54.5267 180.153 54.928C180.339 55.3293 180.601 55.6373 180.937 55.852C181.282 56.0573 181.693 56.16 182.169 56.16C182.682 56.16 183.097 56.062 183.415 55.866C183.741 55.67 184.003 55.404 184.199 55.068L185.081 55.586C184.903 55.9033 184.675 56.1787 184.395 56.412C184.124 56.6453 183.802 56.8273 183.429 56.958C183.065 57.0793 182.654 57.14 182.197 57.14ZM192.332 57V47.76H198.814V48.81H193.452V51.792H197.624V52.842H193.452V55.95H199.024V57H192.332ZM205.233 50H206.409L203.497 57H202.377L199.465 50H200.739L202.951 55.866L205.233 50ZM208.432 48.656C208.18 48.656 207.975 48.5813 207.816 48.432C207.667 48.2733 207.592 48.068 207.592 47.816C207.592 47.564 207.667 47.3633 207.816 47.214C207.975 47.0553 208.18 46.976 208.432 46.976C208.684 46.976 208.885 47.0553 209.034 47.214C209.193 47.3633 209.272 47.564 209.272 47.816C209.272 48.068 209.193 48.2733 209.034 48.432C208.885 48.5813 208.684 48.656 208.432 48.656ZM208.992 50V57H207.872V50H208.992ZM214.321 57.14C213.742 57.14 213.21 56.9953 212.725 56.706C212.24 56.4167 211.852 56.0013 211.563 55.46C211.274 54.9093 211.129 54.256 211.129 53.5C211.129 52.7253 211.283 52.0673 211.591 51.526C211.899 50.9847 212.305 50.574 212.809 50.294C213.313 50.0047 213.854 49.86 214.433 49.86C215.012 49.86 215.511 50.0093 215.931 50.308C216.36 50.6067 216.645 51.0033 216.785 51.498L216.645 51.596V46.78H217.765V57H216.785L216.687 55.306L216.841 55.222C216.776 55.6327 216.617 55.9827 216.365 56.272C216.122 56.552 215.819 56.7667 215.455 56.916C215.1 57.0653 214.722 57.14 214.321 57.14ZM214.433 56.16C214.881 56.16 215.268 56.048 215.595 55.824C215.931 55.6 216.188 55.2827 216.365 54.872C216.552 54.452 216.645 53.962 216.645 53.402C216.645 52.87 216.552 52.4127 216.365 52.03C216.188 51.6473 215.936 51.3533 215.609 51.148C215.292 50.9427 214.918 50.84 214.489 50.84C213.78 50.84 213.229 51.0827 212.837 51.568C212.445 52.0533 212.249 52.6973 212.249 53.5C212.249 54.3027 212.44 54.9467 212.823 55.432C213.206 55.9173 213.742 56.16 214.433 56.16ZM223.294 57.14C222.632 57.14 222.039 56.9953 221.516 56.706C221.003 56.4167 220.602 56.0013 220.312 55.46C220.023 54.9093 219.878 54.256 219.878 53.5C219.878 52.744 220.023 52.0953 220.312 51.554C220.602 51.0033 220.998 50.5833 221.502 50.294C222.006 50.0047 222.58 49.86 223.224 49.86C223.878 49.86 224.433 50 224.89 50.28C225.357 50.56 225.712 50.9427 225.954 51.428C226.197 51.904 226.318 52.4407 226.318 53.038C226.318 53.1967 226.314 53.3413 226.304 53.472C226.295 53.6027 226.281 53.7193 226.262 53.822H220.606V52.828H225.772L225.198 52.94C225.198 52.268 225.012 51.75 224.638 51.386C224.274 51.022 223.794 50.84 223.196 50.84C222.739 50.84 222.342 50.9473 222.006 51.162C221.68 51.3673 221.423 51.6707 221.236 52.072C221.059 52.464 220.97 52.94 220.97 53.5C220.97 54.0507 221.064 54.5267 221.25 54.928C221.437 55.3293 221.698 55.6373 222.034 55.852C222.38 56.0573 222.79 56.16 223.266 56.16C223.78 56.16 224.195 56.062 224.512 55.866C224.839 55.67 225.1 55.404 225.296 55.068L226.178 55.586C226.001 55.9033 225.772 56.1787 225.492 56.412C225.222 56.6453 224.9 56.8273 224.526 56.958C224.162 57.0793 223.752 57.14 223.294 57.14ZM228.448 57V50H229.428L229.526 51.568L229.344 51.414C229.494 51.0407 229.694 50.742 229.946 50.518C230.198 50.2847 230.488 50.1167 230.814 50.014C231.15 49.9113 231.496 49.86 231.85 49.86C232.354 49.86 232.812 49.958 233.222 50.154C233.633 50.3407 233.96 50.63 234.202 51.022C234.454 51.414 234.58 51.9133 234.58 52.52V57H233.46V52.912C233.46 52.1373 233.292 51.6007 232.956 51.302C232.63 50.994 232.224 50.84 231.738 50.84C231.402 50.84 231.066 50.9193 230.73 51.078C230.394 51.2367 230.114 51.4933 229.89 51.848C229.676 52.2027 229.568 52.6787 229.568 53.276V57H228.448ZM240.014 49.86C240.5 49.86 240.924 49.9347 241.288 50.084C241.662 50.2333 241.984 50.448 242.254 50.728C242.525 51.008 242.744 51.3393 242.912 51.722L241.848 52.226C241.699 51.778 241.47 51.4373 241.162 51.204C240.864 50.9613 240.472 50.84 239.986 50.84C239.52 50.84 239.118 50.9473 238.782 51.162C238.446 51.3673 238.19 51.6707 238.012 52.072C237.835 52.464 237.746 52.94 237.746 53.5C237.746 54.0507 237.835 54.5267 238.012 54.928C238.19 55.3293 238.446 55.6373 238.782 55.852C239.118 56.0573 239.52 56.16 239.986 56.16C240.35 56.16 240.663 56.104 240.924 55.992C241.195 55.88 241.414 55.7167 241.582 55.502C241.76 55.2873 241.881 55.026 241.946 54.718L242.982 55.082C242.824 55.5113 242.604 55.88 242.324 56.188C242.054 56.496 241.722 56.734 241.33 56.902C240.948 57.0607 240.509 57.14 240.014 57.14C239.361 57.14 238.778 56.9953 238.264 56.706C237.751 56.4167 237.35 56.0013 237.06 55.46C236.771 54.9093 236.626 54.256 236.626 53.5C236.626 52.744 236.771 52.0953 237.06 51.554C237.35 51.0033 237.751 50.5833 238.264 50.294C238.778 50.0047 239.361 49.86 240.014 49.86ZM247.876 57.14C247.214 57.14 246.621 56.9953 246.098 56.706C245.585 56.4167 245.184 56.0013 244.894 55.46C244.605 54.9093 244.46 54.256 244.46 53.5C244.46 52.744 244.605 52.0953 244.894 51.554C245.184 51.0033 245.58 50.5833 246.084 50.294C246.588 50.0047 247.162 49.86 247.806 49.86C248.46 49.86 249.015 50 249.472 50.28C249.939 50.56 250.294 50.9427 250.536 51.428C250.779 51.904 250.9 52.4407 250.9 53.038C250.9 53.1967 250.896 53.3413 250.886 53.472C250.877 53.6027 250.863 53.7193 250.844 53.822H245.188V52.828H250.354L249.78 52.94C249.78 52.268 249.594 51.75 249.22 51.386C248.856 51.022 248.376 50.84 247.778 50.84C247.321 50.84 246.924 50.9473 246.588 51.162C246.262 51.3673 246.005 51.6707 245.818 52.072C245.641 52.464 245.552 52.94 245.552 53.5C245.552 54.0507 245.646 54.5267 245.832 54.928C246.019 55.3293 246.28 55.6373 246.616 55.852C246.962 56.0573 247.372 56.16 247.848 56.16C248.362 56.16 248.777 56.062 249.094 55.866C249.421 55.67 249.682 55.404 249.878 55.068L250.76 55.586C250.583 55.9033 250.354 56.1787 250.074 56.412C249.804 56.6453 249.482 56.8273 249.108 56.958C248.744 57.0793 248.334 57.14 247.876 57.14Z" fill="#454545"/>
</svg>
