<svg width="252" height="80" viewBox="0 0 252 80" fill="none" xmlns="http://www.w3.org/2000/svg">
<mask id="path-1-inside-1_10_12803" fill="white">
<path d="M0 0H243V80H0V0Z"/>
</mask>
<path d="M0 0H243V80H0V0Z" fill="white"/>
<path d="M0 12H243V-12H0V12Z" fill="#67BC46" mask="url(#path-1-inside-1_10_12803)"/>
<path d="M24 36C19.584 36 16 39.584 16 44C16 48.416 19.584 52 24 52C28.416 52 32 48.416 32 44C32 39.584 28.416 36 24 36ZM22.4 48L18.4 44L19.528 42.872L22.4 45.736L28.472 39.664L29.6 40.8L22.4 48Z" fill="#34C759"/>
<path d="M62.17 37L67 41.83V51H53V37H62.17ZM62.17 35H53C51.9 35 51 35.9 51 37V51C51 52.1 51.9 53 53 53H67C68.1 53 69 52.1 69 51V41.83C69 41.3 68.79 40.79 68.41 40.42L63.58 35.59C63.21 35.21 62.7 35 62.17 35ZM55 47H65V49H55V47ZM55 43H65V45H55V43ZM55 39H62V41H55V39Z" fill="#454545"/>
<path d="M87.608 36H86.588L85.748 33.804H82.16L81.32 36H80.312L83.396 28.08H84.536L87.608 36ZM82.508 32.904H85.4L83.948 29.004L82.508 32.904ZM89.3579 36V30H90.1379L90.2699 30.984C90.4379 30.616 90.6819 30.34 91.0019 30.156C91.3299 29.972 91.7259 29.88 92.1899 29.88C92.2939 29.88 92.4059 29.888 92.5259 29.904C92.6539 29.92 92.7619 29.952 92.8499 30L92.6819 30.876C92.5939 30.844 92.4979 30.82 92.3939 30.804C92.2899 30.788 92.1419 30.78 91.9499 30.78C91.7019 30.78 91.4499 30.852 91.1939 30.996C90.9459 31.14 90.7379 31.36 90.5699 31.656C90.4019 31.944 90.3179 32.312 90.3179 32.76V36H89.3579ZM95.629 28.296V34.344C95.629 34.64 95.713 34.86 95.881 35.004C96.049 35.148 96.265 35.22 96.529 35.22C96.761 35.22 96.961 35.18 97.129 35.1C97.297 35.02 97.449 34.912 97.585 34.776L97.921 35.58C97.737 35.748 97.517 35.88 97.261 35.976C97.013 36.072 96.725 36.12 96.397 36.12C96.093 36.12 95.809 36.068 95.545 35.964C95.281 35.852 95.069 35.68 94.909 35.448C94.757 35.208 94.677 34.896 94.669 34.512V28.56L95.629 28.296ZM97.813 30V30.828H93.469V30H97.813ZM100.04 28.848C99.8244 28.848 99.6484 28.784 99.5124 28.656C99.3844 28.52 99.3204 28.344 99.3204 28.128C99.3204 27.912 99.3844 27.74 99.5124 27.612C99.6484 27.476 99.8244 27.408 100.04 27.408C100.256 27.408 100.428 27.476 100.556 27.612C100.692 27.74 100.76 27.912 100.76 28.128C100.76 28.344 100.692 28.52 100.556 28.656C100.428 28.784 100.256 28.848 100.04 28.848ZM100.52 30V36H99.5604V30H100.52ZM105.504 27.18C105.712 27.18 105.908 27.204 106.092 27.252C106.276 27.3 106.42 27.368 106.524 27.456L106.272 28.236C106.176 28.172 106.072 28.128 105.96 28.104C105.848 28.072 105.724 28.056 105.588 28.056C105.244 28.056 104.976 28.14 104.784 28.308C104.592 28.468 104.496 28.728 104.496 29.088V30V30.312V36H103.536V28.992C103.536 28.728 103.576 28.484 103.656 28.26C103.736 28.036 103.856 27.844 104.016 27.684C104.184 27.524 104.392 27.4 104.64 27.312C104.888 27.224 105.176 27.18 105.504 27.18ZM106.5 30V30.828H102.336V30H106.5ZM111.24 32.124C111.24 31.676 111.12 31.332 110.88 31.092C110.64 30.844 110.3 30.72 109.86 30.72C109.444 30.72 109.092 30.812 108.804 30.996C108.516 31.172 108.304 31.46 108.168 31.86L107.388 31.38C107.548 30.932 107.844 30.572 108.276 30.3C108.708 30.02 109.244 29.88 109.884 29.88C110.316 29.88 110.708 29.956 111.06 30.108C111.412 30.252 111.688 30.476 111.888 30.78C112.096 31.076 112.2 31.46 112.2 31.932V34.836C112.2 35.124 112.352 35.268 112.656 35.268C112.808 35.268 112.956 35.248 113.1 35.208L113.052 35.964C112.892 36.044 112.684 36.084 112.428 36.084C112.196 36.084 111.988 36.04 111.804 35.952C111.62 35.864 111.476 35.732 111.372 35.556C111.268 35.372 111.216 35.144 111.216 34.872V34.752L111.456 34.788C111.36 35.1 111.196 35.356 110.964 35.556C110.732 35.748 110.472 35.892 110.184 35.988C109.896 36.076 109.612 36.12 109.332 36.12C108.98 36.12 108.652 36.06 108.348 35.94C108.044 35.82 107.8 35.64 107.616 35.4C107.44 35.152 107.352 34.848 107.352 34.488C107.352 34.04 107.5 33.672 107.796 33.384C108.1 33.088 108.52 32.888 109.056 32.784L111.432 32.316V33.108L109.5 33.504C109.108 33.584 108.816 33.696 108.624 33.84C108.432 33.984 108.336 34.184 108.336 34.44C108.336 34.688 108.432 34.892 108.624 35.052C108.824 35.204 109.104 35.28 109.464 35.28C109.696 35.28 109.916 35.252 110.124 35.196C110.34 35.132 110.532 35.04 110.7 34.92C110.868 34.792 111 34.636 111.096 34.452C111.192 34.26 111.24 34.036 111.24 33.78V32.124ZM117.336 29.88C117.752 29.88 118.116 29.944 118.428 30.072C118.748 30.2 119.024 30.384 119.256 30.624C119.488 30.864 119.676 31.148 119.82 31.476L118.908 31.908C118.78 31.524 118.584 31.232 118.32 31.032C118.064 30.824 117.728 30.72 117.312 30.72C116.912 30.72 116.568 30.812 116.28 30.996C115.992 31.172 115.772 31.432 115.62 31.776C115.468 32.112 115.392 32.52 115.392 33C115.392 33.472 115.468 33.88 115.62 34.224C115.772 34.568 115.992 34.832 116.28 35.016C116.568 35.192 116.912 35.28 117.312 35.28C117.624 35.28 117.892 35.232 118.116 35.136C118.348 35.04 118.536 34.9 118.68 34.716C118.832 34.532 118.936 34.308 118.992 34.044L119.88 34.356C119.744 34.724 119.556 35.04 119.316 35.304C119.084 35.568 118.8 35.772 118.464 35.916C118.136 36.052 117.76 36.12 117.336 36.12C116.776 36.12 116.276 35.996 115.836 35.748C115.396 35.5 115.052 35.144 114.804 34.68C114.556 34.208 114.432 33.648 114.432 33C114.432 32.352 114.556 31.796 114.804 31.332C115.052 30.86 115.396 30.5 115.836 30.252C116.276 30.004 116.776 29.88 117.336 29.88ZM123.303 28.296V34.344C123.303 34.64 123.387 34.86 123.555 35.004C123.723 35.148 123.939 35.22 124.203 35.22C124.435 35.22 124.635 35.18 124.803 35.1C124.971 35.02 125.123 34.912 125.259 34.776L125.595 35.58C125.411 35.748 125.191 35.88 124.935 35.976C124.687 36.072 124.399 36.12 124.071 36.12C123.767 36.12 123.483 36.068 123.219 35.964C122.955 35.852 122.743 35.68 122.583 35.448C122.431 35.208 122.351 34.896 122.343 34.512V28.56L123.303 28.296ZM125.487 30V30.828H121.143V30H125.487ZM129.395 36.12C128.811 36.12 128.271 35.996 127.775 35.748C127.287 35.5 126.911 35.148 126.647 34.692L127.463 34.104C127.639 34.472 127.895 34.76 128.231 34.968C128.575 35.176 128.987 35.28 129.467 35.28C129.891 35.28 130.223 35.2 130.463 35.04C130.703 34.872 130.823 34.656 130.823 34.392C130.823 34.224 130.767 34.072 130.655 33.936C130.551 33.792 130.347 33.688 130.043 33.624L128.603 33.324C128.019 33.204 127.599 33.004 127.343 32.724C127.095 32.444 126.971 32.096 126.971 31.68C126.971 31.352 127.063 31.052 127.247 30.78C127.439 30.508 127.707 30.292 128.051 30.132C128.403 29.964 128.815 29.88 129.287 29.88C129.879 29.88 130.379 29.996 130.787 30.228C131.195 30.46 131.499 30.788 131.699 31.212L130.895 31.74C130.759 31.388 130.539 31.132 130.235 30.972C129.931 30.804 129.615 30.72 129.287 30.72C128.999 30.72 128.751 30.76 128.543 30.84C128.343 30.92 128.187 31.032 128.075 31.176C127.971 31.312 127.919 31.468 127.919 31.644C127.919 31.82 127.979 31.984 128.099 32.136C128.219 32.28 128.443 32.384 128.771 32.448L130.271 32.76C130.831 32.872 131.223 33.056 131.447 33.312C131.671 33.568 131.783 33.88 131.783 34.248C131.783 34.624 131.683 34.956 131.483 35.244C131.283 35.524 131.003 35.74 130.643 35.892C130.283 36.044 129.867 36.12 129.395 36.12ZM139.433 28.08V36H138.473V28.08H139.433Z" fill="#707070"/>
<path d="M161.4 28.08L156.6 36H155.508L154.416 28.08H155.388L156.084 33.552L156.228 35.124L157.02 33.564L160.344 28.08H161.4ZM163.471 28.848C163.279 28.848 163.123 28.792 163.003 28.68C162.883 28.56 162.823 28.408 162.823 28.224C162.823 27.976 162.895 27.78 163.039 27.636C163.191 27.484 163.371 27.408 163.579 27.408C163.771 27.408 163.927 27.468 164.047 27.588C164.167 27.7 164.227 27.848 164.227 28.032C164.227 28.28 164.151 28.48 163.999 28.632C163.855 28.776 163.679 28.848 163.471 28.848ZM163.579 30L162.187 36H161.227L162.619 30H163.579ZM167.581 36.108C167.029 36.108 166.553 35.988 166.153 35.748C165.761 35.508 165.461 35.184 165.253 34.776C165.045 34.368 164.941 33.912 164.941 33.408C164.941 32.784 165.065 32.204 165.313 31.668C165.561 31.132 165.921 30.704 166.393 30.384C166.873 30.056 167.453 29.892 168.133 29.892C168.621 29.892 169.037 29.992 169.381 30.192C169.733 30.392 170.001 30.668 170.185 31.02C170.369 31.364 170.461 31.756 170.461 32.196C170.461 32.356 170.445 32.524 170.413 32.7C170.389 32.868 170.349 33.044 170.293 33.228H165.409V32.388H169.873L169.453 32.724C169.477 32.628 169.493 32.532 169.501 32.436C169.517 32.34 169.525 32.248 169.525 32.16C169.525 31.872 169.465 31.62 169.345 31.404C169.233 31.188 169.069 31.02 168.853 30.9C168.637 30.78 168.377 30.72 168.073 30.72C167.681 30.72 167.345 30.8 167.065 30.96C166.793 31.112 166.569 31.32 166.393 31.584C166.225 31.848 166.101 32.144 166.021 32.472C165.949 32.792 165.913 33.116 165.913 33.444C165.913 33.804 165.985 34.124 166.129 34.404C166.281 34.676 166.489 34.892 166.753 35.052C167.017 35.204 167.329 35.28 167.689 35.28C168.097 35.272 168.433 35.184 168.697 35.016C168.961 34.848 169.177 34.628 169.345 34.356L170.101 34.86C169.925 35.116 169.713 35.34 169.465 35.532C169.217 35.716 168.933 35.86 168.613 35.964C168.301 36.06 167.957 36.108 167.581 36.108ZM172.747 36L172.099 30H173.023L173.479 34.8L176.011 30H176.971L177.583 34.872L180.175 30H181.195L177.883 36H176.923L176.263 31.236L173.719 36H172.747ZM184.44 36.108C183.888 36.108 183.412 35.988 183.012 35.748C182.62 35.508 182.32 35.184 182.112 34.776C181.904 34.368 181.8 33.912 181.8 33.408C181.8 32.784 181.924 32.204 182.172 31.668C182.42 31.132 182.78 30.704 183.252 30.384C183.732 30.056 184.312 29.892 184.992 29.892C185.48 29.892 185.896 29.992 186.24 30.192C186.592 30.392 186.86 30.668 187.044 31.02C187.228 31.364 187.32 31.756 187.32 32.196C187.32 32.356 187.304 32.524 187.272 32.7C187.248 32.868 187.208 33.044 187.152 33.228H182.268V32.388H186.732L186.312 32.724C186.336 32.628 186.352 32.532 186.36 32.436C186.376 32.34 186.384 32.248 186.384 32.16C186.384 31.872 186.324 31.62 186.204 31.404C186.092 31.188 185.928 31.02 185.712 30.9C185.496 30.78 185.236 30.72 184.932 30.72C184.54 30.72 184.204 30.8 183.924 30.96C183.652 31.112 183.428 31.32 183.252 31.584C183.084 31.848 182.96 32.144 182.88 32.472C182.808 32.792 182.772 33.116 182.772 33.444C182.772 33.804 182.844 34.124 182.988 34.404C183.14 34.676 183.348 34.892 183.612 35.052C183.876 35.204 184.188 35.28 184.548 35.28C184.956 35.272 185.292 35.184 185.556 35.016C185.82 34.848 186.036 34.628 186.204 34.356L186.96 34.86C186.784 35.116 186.572 35.34 186.324 35.532C186.076 35.716 185.792 35.86 185.472 35.964C185.16 36.06 184.816 36.108 184.44 36.108ZM191.268 36.096C190.804 36.096 190.396 35.984 190.044 35.76C189.692 35.536 189.416 35.228 189.216 34.836C189.016 34.436 188.916 33.976 188.916 33.456C188.916 32.96 188.992 32.496 189.144 32.064C189.296 31.632 189.508 31.252 189.78 30.924C190.052 30.596 190.376 30.34 190.752 30.156C191.128 29.972 191.536 29.88 191.976 29.88C192.328 29.88 192.644 29.94 192.924 30.06C193.204 30.18 193.436 30.352 193.62 30.576C193.804 30.792 193.932 31.052 194.004 31.356L194.952 27.24H195.912L193.884 36H193.044L193.248 34.884C193.056 35.252 192.78 35.548 192.42 35.772C192.068 35.988 191.684 36.096 191.268 36.096ZM191.508 35.28C191.796 35.28 192.068 35.208 192.324 35.064C192.58 34.92 192.804 34.724 192.996 34.476C193.188 34.22 193.34 33.924 193.452 33.588C193.564 33.244 193.62 32.876 193.62 32.484C193.62 32.124 193.552 31.812 193.416 31.548C193.288 31.276 193.104 31.068 192.864 30.924C192.632 30.78 192.356 30.708 192.036 30.708C191.716 30.708 191.424 30.78 191.16 30.924C190.896 31.06 190.668 31.252 190.476 31.5C190.284 31.748 190.132 32.04 190.02 32.376C189.916 32.704 189.864 33.06 189.864 33.444C189.864 33.836 189.928 34.168 190.056 34.44C190.184 34.712 190.368 34.92 190.608 35.064C190.856 35.208 191.156 35.28 191.508 35.28Z" fill="#1E1E1E"/>
<path d="M88.96 54.634C88.764 55.1567 88.484 55.6093 88.12 55.992C87.756 56.3653 87.3267 56.65 86.832 56.846C86.3467 57.042 85.8147 57.14 85.236 57.14C84.3587 57.14 83.598 56.9487 82.954 56.566C82.3193 56.174 81.8247 55.6233 81.47 54.914C81.1247 54.2047 80.952 53.36 80.952 52.38C80.952 51.4 81.1247 50.5553 81.47 49.846C81.8247 49.1367 82.3193 48.5907 82.954 48.208C83.598 47.816 84.3493 47.62 85.208 47.62C85.8053 47.62 86.3373 47.704 86.804 47.872C87.2707 48.0307 87.6673 48.2733 87.994 48.6C88.33 48.9173 88.596 49.3093 88.792 49.776L87.686 50.294C87.4807 49.762 87.182 49.3607 86.79 49.09C86.4073 48.81 85.908 48.67 85.292 48.67C84.6667 48.67 84.116 48.8193 83.64 49.118C83.164 49.4073 82.7907 49.8273 82.52 50.378C82.2587 50.9287 82.128 51.596 82.128 52.38C82.128 53.1547 82.254 53.822 82.506 54.382C82.758 54.9327 83.1173 55.3573 83.584 55.656C84.0507 55.9453 84.6013 56.09 85.236 56.09C85.852 56.09 86.3887 55.936 86.846 55.628C87.3033 55.3107 87.6347 54.8393 87.84 54.214L88.96 54.634ZM93.7977 49.86C94.4603 49.86 95.0437 50.0047 95.5477 50.294C96.061 50.5833 96.4623 51.0033 96.7517 51.554C97.041 52.0953 97.1857 52.744 97.1857 53.5C97.1857 54.256 97.041 54.9093 96.7517 55.46C96.4623 56.0013 96.061 56.4167 95.5477 56.706C95.0437 56.9953 94.4603 57.14 93.7977 57.14C93.1443 57.14 92.561 56.9953 92.0477 56.706C91.5343 56.4167 91.133 56.0013 90.8437 55.46C90.5543 54.9093 90.4097 54.256 90.4097 53.5C90.4097 52.744 90.5543 52.0953 90.8437 51.554C91.133 51.0033 91.5343 50.5833 92.0477 50.294C92.561 50.0047 93.1443 49.86 93.7977 49.86ZM93.7977 50.826C93.3217 50.826 92.9157 50.9333 92.5797 51.148C92.2437 51.3627 91.9823 51.6707 91.7957 52.072C91.6183 52.464 91.5297 52.94 91.5297 53.5C91.5297 54.0507 91.6183 54.5267 91.7957 54.928C91.9823 55.3293 92.2437 55.6373 92.5797 55.852C92.9157 56.0667 93.3217 56.174 93.7977 56.174C94.2737 56.174 94.6797 56.0667 95.0157 55.852C95.3517 55.6373 95.6083 55.3293 95.7857 54.928C95.9723 54.5267 96.0657 54.0507 96.0657 53.5C96.0657 52.94 95.9723 52.464 95.7857 52.072C95.6083 51.6707 95.3517 51.3627 95.0157 51.148C94.6797 50.9333 94.2737 50.826 93.7977 50.826ZM99.2942 57V50H100.274L100.372 51.568L100.19 51.414C100.34 51.0407 100.54 50.742 100.792 50.518C101.044 50.2847 101.334 50.1167 101.66 50.014C101.996 49.9113 102.342 49.86 102.696 49.86C103.2 49.86 103.658 49.958 104.068 50.154C104.479 50.3407 104.806 50.63 105.048 51.022C105.3 51.414 105.426 51.9133 105.426 52.52V57H104.306V52.912C104.306 52.1373 104.138 51.6007 103.802 51.302C103.476 50.994 103.07 50.84 102.584 50.84C102.248 50.84 101.912 50.9193 101.576 51.078C101.24 51.2367 100.96 51.4933 100.736 51.848C100.522 52.2027 100.414 52.6787 100.414 53.276V57H99.2942ZM110.482 57.14C109.801 57.14 109.171 56.9953 108.592 56.706C108.023 56.4167 107.584 56.006 107.276 55.474L108.228 54.788C108.433 55.2173 108.732 55.5533 109.124 55.796C109.525 56.0387 110.006 56.16 110.566 56.16C111.061 56.16 111.448 56.0667 111.728 55.88C112.008 55.684 112.148 55.432 112.148 55.124C112.148 54.928 112.083 54.7507 111.952 54.592C111.831 54.424 111.593 54.3027 111.238 54.228L109.558 53.878C108.877 53.738 108.387 53.5047 108.088 53.178C107.799 52.8513 107.654 52.4453 107.654 51.96C107.654 51.5773 107.761 51.2273 107.976 50.91C108.2 50.5927 108.513 50.3407 108.914 50.154C109.325 49.958 109.805 49.86 110.356 49.86C111.047 49.86 111.63 49.9953 112.106 50.266C112.582 50.5367 112.937 50.9193 113.17 51.414L112.232 52.03C112.073 51.6193 111.817 51.3207 111.462 51.134C111.107 50.938 110.739 50.84 110.356 50.84C110.02 50.84 109.731 50.8867 109.488 50.98C109.255 51.0733 109.073 51.204 108.942 51.372C108.821 51.5307 108.76 51.7127 108.76 51.918C108.76 52.1233 108.83 52.3147 108.97 52.492C109.11 52.66 109.371 52.7813 109.754 52.856L111.504 53.22C112.157 53.3507 112.615 53.5653 112.876 53.864C113.137 54.1627 113.268 54.5267 113.268 54.956C113.268 55.3947 113.151 55.782 112.918 56.118C112.685 56.4447 112.358 56.6967 111.938 56.874C111.518 57.0513 111.033 57.14 110.482 57.14ZM117.879 57.14C117.431 57.14 117.006 57.056 116.605 56.888C116.213 56.72 115.891 56.4493 115.639 56.076C115.396 55.6933 115.275 55.1987 115.275 54.592V50H116.395V54.298C116.395 55.0073 116.549 55.4973 116.857 55.768C117.165 56.0293 117.599 56.16 118.159 56.16C118.42 56.16 118.677 56.118 118.929 56.034C119.181 55.9407 119.405 55.8007 119.601 55.614C119.806 55.418 119.965 55.1707 120.077 54.872C120.198 54.5733 120.259 54.2187 120.259 53.808V50H121.379V57H120.399L120.329 55.936C120.086 56.356 119.755 56.664 119.335 56.86C118.924 57.0467 118.439 57.14 117.879 57.14ZM125.05 46.78V55.222C125.05 55.5767 125.115 55.824 125.246 55.964C125.376 56.0947 125.586 56.16 125.876 56.16C126.062 56.16 126.216 56.146 126.338 56.118C126.459 56.09 126.622 56.0387 126.828 55.964L126.646 56.944C126.496 57.0093 126.333 57.056 126.156 57.084C125.978 57.1213 125.796 57.14 125.61 57.14C125.04 57.14 124.616 56.986 124.336 56.678C124.065 56.37 123.93 55.8987 123.93 55.264V46.78H125.05ZM129.643 48.012V55.068C129.643 55.4133 129.741 55.67 129.937 55.838C130.133 56.006 130.385 56.09 130.693 56.09C130.964 56.09 131.197 56.0433 131.393 55.95C131.589 55.8567 131.767 55.7307 131.925 55.572L132.317 56.51C132.103 56.706 131.846 56.86 131.547 56.972C131.258 57.084 130.922 57.14 130.539 57.14C130.185 57.14 129.853 57.0793 129.545 56.958C129.237 56.8273 128.99 56.6267 128.803 56.356C128.626 56.076 128.533 55.712 128.523 55.264V48.32L129.643 48.012ZM132.191 50V50.966H127.123V50H132.191ZM140.007 48.012V55.068C140.007 55.4133 140.105 55.67 140.301 55.838C140.497 56.006 140.749 56.09 141.057 56.09C141.327 56.09 141.561 56.0433 141.757 55.95C141.953 55.8567 142.13 55.7307 142.289 55.572L142.681 56.51C142.466 56.706 142.209 56.86 141.911 56.972C141.621 57.084 141.285 57.14 140.903 57.14C140.548 57.14 140.217 57.0793 139.909 56.958C139.601 56.8273 139.353 56.6267 139.167 56.356C138.989 56.076 138.896 55.712 138.887 55.264V48.32L140.007 48.012ZM142.555 50V50.966H137.487V50H142.555ZM144.22 57V46.78H145.34V51.05C145.583 50.63 145.905 50.3267 146.306 50.14C146.707 49.9533 147.146 49.86 147.622 49.86C148.126 49.86 148.583 49.958 148.994 50.154C149.405 50.3407 149.731 50.63 149.974 51.022C150.226 51.414 150.352 51.9133 150.352 52.52V57H149.232V52.912C149.232 52.1373 149.064 51.6007 148.728 51.302C148.401 50.994 147.995 50.84 147.51 50.84C147.174 50.84 146.838 50.9193 146.502 51.078C146.166 51.2367 145.886 51.498 145.662 51.862C145.447 52.2167 145.34 52.6927 145.34 53.29V57H144.22ZM155.814 57.14C155.151 57.14 154.559 56.9953 154.036 56.706C153.523 56.4167 153.121 56.0013 152.832 55.46C152.543 54.9093 152.398 54.256 152.398 53.5C152.398 52.744 152.543 52.0953 152.832 51.554C153.121 51.0033 153.518 50.5833 154.022 50.294C154.526 50.0047 155.1 49.86 155.744 49.86C156.397 49.86 156.953 50 157.41 50.28C157.877 50.56 158.231 50.9427 158.474 51.428C158.717 51.904 158.838 52.4407 158.838 53.038C158.838 53.1967 158.833 53.3413 158.824 53.472C158.815 53.6027 158.801 53.7193 158.782 53.822H153.126V52.828H158.292L157.718 52.94C157.718 52.268 157.531 51.75 157.158 51.386C156.794 51.022 156.313 50.84 155.716 50.84C155.259 50.84 154.862 50.9473 154.526 51.162C154.199 51.3673 153.943 51.6707 153.756 52.072C153.579 52.464 153.49 52.94 153.49 53.5C153.49 54.0507 153.583 54.5267 153.77 54.928C153.957 55.3293 154.218 55.6373 154.554 55.852C154.899 56.0573 155.31 56.16 155.786 56.16C156.299 56.16 156.715 56.062 157.032 55.866C157.359 55.67 157.62 55.404 157.816 55.068L158.698 55.586C158.521 55.9033 158.292 56.1787 158.012 56.412C157.741 56.6453 157.419 56.8273 157.046 56.958C156.682 57.0793 156.271 57.14 155.814 57.14ZM169.45 47.76C170.392 47.76 171.148 48.0027 171.718 48.488C172.287 48.9733 172.572 49.6313 172.572 50.462C172.572 51.2927 172.282 51.9413 171.704 52.408C171.134 52.8653 170.378 53.094 169.436 53.094L169.338 53.164H167.07V57H165.95V47.76H169.45ZM169.436 52.114C170.098 52.114 170.588 51.9787 170.906 51.708C171.232 51.428 171.396 51.0127 171.396 50.462C171.396 49.9113 171.232 49.5007 170.906 49.23C170.588 48.95 170.098 48.81 169.436 48.81H167.07V52.114H169.436ZM170.08 52.338L173.132 57H171.802L169.142 52.954L170.08 52.338ZM177.744 57.14C177.081 57.14 176.488 56.9953 175.966 56.706C175.452 56.4167 175.051 56.0013 174.762 55.46C174.472 54.9093 174.328 54.256 174.328 53.5C174.328 52.744 174.472 52.0953 174.762 51.554C175.051 51.0033 175.448 50.5833 175.952 50.294C176.456 50.0047 177.03 49.86 177.674 49.86C178.327 49.86 178.882 50 179.34 50.28C179.806 50.56 180.161 50.9427 180.404 51.428C180.646 51.904 180.768 52.4407 180.768 53.038C180.768 53.1967 180.763 53.3413 180.754 53.472C180.744 53.6027 180.73 53.7193 180.712 53.822H175.056V52.828H180.222L179.648 52.94C179.648 52.268 179.461 51.75 179.088 51.386C178.724 51.022 178.243 50.84 177.646 50.84C177.188 50.84 176.792 50.9473 176.456 51.162C176.129 51.3673 175.872 51.6707 175.686 52.072C175.508 52.464 175.42 52.94 175.42 53.5C175.42 54.0507 175.513 54.5267 175.7 54.928C175.886 55.3293 176.148 55.6373 176.484 55.852C176.829 56.0573 177.24 56.16 177.716 56.16C178.229 56.16 178.644 56.062 178.962 55.866C179.288 55.67 179.55 55.404 179.746 55.068L180.628 55.586C180.45 55.9033 180.222 56.1787 179.942 56.412C179.671 56.6453 179.349 56.8273 178.976 56.958C178.612 57.0793 178.201 57.14 177.744 57.14ZM185.418 57.14C184.736 57.14 184.106 56.9953 183.528 56.706C182.958 56.4167 182.52 56.006 182.212 55.474L183.164 54.788C183.369 55.2173 183.668 55.5533 184.06 55.796C184.461 56.0387 184.942 56.16 185.502 56.16C185.996 56.16 186.384 56.0667 186.664 55.88C186.944 55.684 187.084 55.432 187.084 55.124C187.084 54.928 187.018 54.7507 186.888 54.592C186.766 54.424 186.528 54.3027 186.174 54.228L184.494 53.878C183.812 53.738 183.322 53.5047 183.024 53.178C182.734 52.8513 182.59 52.4453 182.59 51.96C182.59 51.5773 182.697 51.2273 182.912 50.91C183.136 50.5927 183.448 50.3407 183.85 50.154C184.26 49.958 184.741 49.86 185.292 49.86C185.982 49.86 186.566 49.9953 187.042 50.266C187.518 50.5367 187.872 50.9193 188.106 51.414L187.168 52.03C187.009 51.6193 186.752 51.3207 186.398 51.134C186.043 50.938 185.674 50.84 185.292 50.84C184.956 50.84 184.666 50.8867 184.424 50.98C184.19 51.0733 184.008 51.204 183.878 51.372C183.756 51.5307 183.696 51.7127 183.696 51.918C183.696 52.1233 183.766 52.3147 183.906 52.492C184.046 52.66 184.307 52.7813 184.69 52.856L186.44 53.22C187.093 53.3507 187.55 53.5653 187.812 53.864C188.073 54.1627 188.204 54.5267 188.204 54.956C188.204 55.3947 188.087 55.782 187.854 56.118C187.62 56.4447 187.294 56.6967 186.874 56.874C186.454 57.0513 185.968 57.14 185.418 57.14ZM193.207 57.14C192.544 57.14 191.951 56.9953 191.429 56.706C190.915 56.4167 190.514 56.0013 190.225 55.46C189.935 54.9093 189.791 54.256 189.791 53.5C189.791 52.744 189.935 52.0953 190.225 51.554C190.514 51.0033 190.911 50.5833 191.415 50.294C191.919 50.0047 192.493 49.86 193.137 49.86C193.79 49.86 194.345 50 194.803 50.28C195.269 50.56 195.624 50.9427 195.867 51.428C196.109 51.904 196.231 52.4407 196.231 53.038C196.231 53.1967 196.226 53.3413 196.217 53.472C196.207 53.6027 196.193 53.7193 196.175 53.822H190.519V52.828H195.685L195.111 52.94C195.111 52.268 194.924 51.75 194.551 51.386C194.187 51.022 193.706 50.84 193.109 50.84C192.651 50.84 192.255 50.9473 191.919 51.162C191.592 51.3673 191.335 51.6707 191.149 52.072C190.971 52.464 190.883 52.94 190.883 53.5C190.883 54.0507 190.976 54.5267 191.163 54.928C191.349 55.3293 191.611 55.6373 191.947 55.852C192.292 56.0573 192.703 56.16 193.179 56.16C193.692 56.16 194.107 56.062 194.425 55.866C194.751 55.67 195.013 55.404 195.209 55.068L196.091 55.586C195.913 55.9033 195.685 56.1787 195.405 56.412C195.134 56.6453 194.812 56.8273 194.439 56.958C194.075 57.0793 193.664 57.14 193.207 57.14ZM202.449 52.478C202.449 51.9553 202.309 51.554 202.029 51.274C201.749 50.9847 201.352 50.84 200.839 50.84C200.353 50.84 199.943 50.9473 199.607 51.162C199.271 51.3673 199.023 51.7033 198.865 52.17L197.955 51.61C198.141 51.0873 198.487 50.6673 198.991 50.35C199.495 50.0233 200.12 49.86 200.867 49.86C201.371 49.86 201.828 49.9487 202.239 50.126C202.649 50.294 202.971 50.5553 203.205 50.91C203.447 51.2553 203.569 51.7033 203.569 52.254V55.642C203.569 55.978 203.746 56.146 204.101 56.146C204.278 56.146 204.451 56.1227 204.619 56.076L204.563 56.958C204.376 57.0513 204.133 57.098 203.835 57.098C203.564 57.098 203.321 57.0467 203.107 56.944C202.892 56.8413 202.724 56.6873 202.603 56.482C202.481 56.2673 202.421 56.0013 202.421 55.684V55.544L202.701 55.586C202.589 55.95 202.397 56.2487 202.127 56.482C201.856 56.706 201.553 56.874 201.217 56.986C200.881 57.0887 200.549 57.14 200.223 57.14C199.812 57.14 199.429 57.07 199.075 56.93C198.72 56.79 198.435 56.58 198.221 56.3C198.015 56.0107 197.913 55.656 197.913 55.236C197.913 54.7133 198.085 54.284 198.431 53.948C198.785 53.6027 199.275 53.3693 199.901 53.248L202.673 52.702V53.626L200.419 54.088C199.961 54.1813 199.621 54.312 199.397 54.48C199.173 54.648 199.061 54.8813 199.061 55.18C199.061 55.4693 199.173 55.7073 199.397 55.894C199.63 56.0713 199.957 56.16 200.377 56.16C200.647 56.16 200.904 56.1273 201.147 56.062C201.399 55.9873 201.623 55.88 201.819 55.74C202.015 55.5907 202.169 55.4087 202.281 55.194C202.393 54.97 202.449 54.7087 202.449 54.41V52.478ZM206.29 57V50H207.2L207.354 51.148C207.55 50.7187 207.835 50.3967 208.208 50.182C208.591 49.9673 209.053 49.86 209.594 49.86C209.716 49.86 209.846 49.8693 209.986 49.888C210.136 49.9067 210.262 49.944 210.364 50L210.168 51.022C210.066 50.9847 209.954 50.9567 209.832 50.938C209.711 50.9193 209.538 50.91 209.314 50.91C209.025 50.91 208.731 50.994 208.432 51.162C208.143 51.33 207.9 51.5867 207.704 51.932C207.508 52.268 207.41 52.6973 207.41 53.22V57H206.29ZM214.684 49.86C215.17 49.86 215.594 49.9347 215.958 50.084C216.332 50.2333 216.654 50.448 216.924 50.728C217.195 51.008 217.414 51.3393 217.582 51.722L216.518 52.226C216.369 51.778 216.14 51.4373 215.832 51.204C215.534 50.9613 215.142 50.84 214.656 50.84C214.19 50.84 213.788 50.9473 213.452 51.162C213.116 51.3673 212.86 51.6707 212.682 52.072C212.505 52.464 212.416 52.94 212.416 53.5C212.416 54.0507 212.505 54.5267 212.682 54.928C212.86 55.3293 213.116 55.6373 213.452 55.852C213.788 56.0573 214.19 56.16 214.656 56.16C215.02 56.16 215.333 56.104 215.594 55.992C215.865 55.88 216.084 55.7167 216.252 55.502C216.43 55.2873 216.551 55.026 216.616 54.718L217.652 55.082C217.494 55.5113 217.274 55.88 216.994 56.188C216.724 56.496 216.392 56.734 216 56.902C215.618 57.0607 215.179 57.14 214.684 57.14C214.031 57.14 213.448 56.9953 212.934 56.706C212.421 56.4167 212.02 56.0013 211.73 55.46C211.441 54.9093 211.296 54.256 211.296 53.5C211.296 52.744 211.441 52.0953 211.73 51.554C212.02 51.0033 212.421 50.5833 212.934 50.294C213.448 50.0047 214.031 49.86 214.684 49.86ZM219.62 57V46.78H220.74V51.05C220.983 50.63 221.305 50.3267 221.706 50.14C222.108 49.9533 222.546 49.86 223.022 49.86C223.526 49.86 223.984 49.958 224.394 50.154C224.805 50.3407 225.132 50.63 225.374 51.022C225.626 51.414 225.752 51.9133 225.752 52.52V57H224.632V52.912C224.632 52.1373 224.464 51.6007 224.128 51.302C223.802 50.994 223.396 50.84 222.91 50.84C222.574 50.84 222.238 50.9193 221.902 51.078C221.566 51.2367 221.286 51.498 221.062 51.862C220.848 52.2167 220.74 52.6927 220.74 53.29V57H219.62Z" fill="#454545"/>
</svg>
