<svg width="252" height="80" viewBox="0 0 252 80" fill="none" xmlns="http://www.w3.org/2000/svg">
<mask id="path-1-inside-1_10_12731" fill="white">
<path d="M0 0H229V84H0V0Z"/>
</mask>
<path d="M0 0H229V84H0V0Z" fill="white"/>
<path d="M0 12H229V-12H0V12Z" fill="#BD6697" mask="url(#path-1-inside-1_10_12731)"/>
<path d="M24 38C19.584 38 16 41.584 16 46C16 50.416 19.584 54 24 54C28.416 54 32 50.416 32 46C32 41.584 28.416 38 24 38ZM22.4 50L18.4 46L19.528 44.872L22.4 47.736L28.472 41.664L29.6 42.8L22.4 50Z" fill="#34C759"/>
<path d="M67 39V48H62V53H53V39H67ZM67 37H53C51.9 37 51 37.9 51 39V53C51 54.1 51.9 55 53 55H63L69 49V39C69 37.9 68.1 37 67 37ZM60 48H55V46H60V48ZM65 44H55V42H65V44Z" fill="#454545"/>
<path d="M88.4 28.08L83.6 36H82.508L81.416 28.08H82.388L83.084 33.552L83.228 35.124L84.02 33.564L87.344 28.08H88.4ZM90.4712 28.848C90.2792 28.848 90.1232 28.792 90.0032 28.68C89.8832 28.56 89.8232 28.408 89.8232 28.224C89.8232 27.976 89.8952 27.78 90.0392 27.636C90.1912 27.484 90.3712 27.408 90.5792 27.408C90.7712 27.408 90.9272 27.468 91.0472 27.588C91.1672 27.7 91.2272 27.848 91.2272 28.032C91.2272 28.28 91.1512 28.48 90.9992 28.632C90.8552 28.776 90.6792 28.848 90.4712 28.848ZM90.5792 30L89.1872 36H88.2272L89.6192 30H90.5792ZM94.5809 36.108C94.0289 36.108 93.5529 35.988 93.1529 35.748C92.7609 35.508 92.4609 35.184 92.2529 34.776C92.0449 34.368 91.9409 33.912 91.9409 33.408C91.9409 32.784 92.0649 32.204 92.3129 31.668C92.5609 31.132 92.9209 30.704 93.3929 30.384C93.8729 30.056 94.4529 29.892 95.1329 29.892C95.6209 29.892 96.0369 29.992 96.3809 30.192C96.7329 30.392 97.0009 30.668 97.1849 31.02C97.3689 31.364 97.4609 31.756 97.4609 32.196C97.4609 32.356 97.4449 32.524 97.4129 32.7C97.3889 32.868 97.3489 33.044 97.2929 33.228H92.4089V32.388H96.8729L96.4529 32.724C96.4769 32.628 96.4929 32.532 96.5009 32.436C96.5169 32.34 96.5249 32.248 96.5249 32.16C96.5249 31.872 96.4649 31.62 96.3449 31.404C96.2329 31.188 96.0689 31.02 95.8529 30.9C95.6369 30.78 95.3769 30.72 95.0729 30.72C94.6809 30.72 94.3449 30.8 94.0649 30.96C93.7929 31.112 93.5689 31.32 93.3929 31.584C93.2249 31.848 93.1009 32.144 93.0209 32.472C92.9489 32.792 92.9129 33.116 92.9129 33.444C92.9129 33.804 92.9849 34.124 93.1289 34.404C93.2809 34.676 93.4889 34.892 93.7529 35.052C94.0169 35.204 94.3289 35.28 94.6889 35.28C95.0969 35.272 95.4329 35.184 95.6969 35.016C95.9609 34.848 96.1769 34.628 96.3449 34.356L97.1009 34.86C96.9249 35.116 96.7129 35.34 96.4649 35.532C96.2169 35.716 95.9329 35.86 95.6129 35.964C95.3009 36.06 94.9569 36.108 94.5809 36.108ZM99.7466 36L99.0986 30H100.023L100.479 34.8L103.011 30H103.971L104.583 34.872L107.175 30H108.195L104.883 36H103.923L103.263 31.236L100.719 36H99.7466ZM111.44 36.108C110.888 36.108 110.412 35.988 110.012 35.748C109.62 35.508 109.32 35.184 109.112 34.776C108.904 34.368 108.8 33.912 108.8 33.408C108.8 32.784 108.924 32.204 109.172 31.668C109.42 31.132 109.78 30.704 110.252 30.384C110.732 30.056 111.312 29.892 111.992 29.892C112.48 29.892 112.896 29.992 113.24 30.192C113.592 30.392 113.86 30.668 114.044 31.02C114.228 31.364 114.32 31.756 114.32 32.196C114.32 32.356 114.304 32.524 114.272 32.7C114.248 32.868 114.208 33.044 114.152 33.228H109.268V32.388H113.732L113.312 32.724C113.336 32.628 113.352 32.532 113.36 32.436C113.376 32.34 113.384 32.248 113.384 32.16C113.384 31.872 113.324 31.62 113.204 31.404C113.092 31.188 112.928 31.02 112.712 30.9C112.496 30.78 112.236 30.72 111.932 30.72C111.54 30.72 111.204 30.8 110.924 30.96C110.652 31.112 110.428 31.32 110.252 31.584C110.084 31.848 109.96 32.144 109.88 32.472C109.808 32.792 109.772 33.116 109.772 33.444C109.772 33.804 109.844 34.124 109.988 34.404C110.14 34.676 110.348 34.892 110.612 35.052C110.876 35.204 111.188 35.28 111.548 35.28C111.956 35.272 112.292 35.184 112.556 35.016C112.82 34.848 113.036 34.628 113.204 34.356L113.96 34.86C113.784 35.116 113.572 35.34 113.324 35.532C113.076 35.716 112.792 35.86 112.472 35.964C112.16 36.06 111.816 36.108 111.44 36.108ZM118.268 36.096C117.804 36.096 117.396 35.984 117.044 35.76C116.692 35.536 116.416 35.228 116.216 34.836C116.016 34.436 115.916 33.976 115.916 33.456C115.916 32.96 115.992 32.496 116.144 32.064C116.296 31.632 116.508 31.252 116.78 30.924C117.052 30.596 117.376 30.34 117.752 30.156C118.128 29.972 118.536 29.88 118.976 29.88C119.328 29.88 119.644 29.94 119.924 30.06C120.204 30.18 120.436 30.352 120.62 30.576C120.804 30.792 120.932 31.052 121.004 31.356L121.952 27.24H122.912L120.884 36H120.044L120.248 34.884C120.056 35.252 119.78 35.548 119.42 35.772C119.068 35.988 118.684 36.096 118.268 36.096ZM118.508 35.28C118.796 35.28 119.068 35.208 119.324 35.064C119.58 34.92 119.804 34.724 119.996 34.476C120.188 34.22 120.34 33.924 120.452 33.588C120.564 33.244 120.62 32.876 120.62 32.484C120.62 32.124 120.552 31.812 120.416 31.548C120.288 31.276 120.104 31.068 119.864 30.924C119.632 30.78 119.356 30.708 119.036 30.708C118.716 30.708 118.424 30.78 118.16 30.924C117.896 31.06 117.668 31.252 117.476 31.5C117.284 31.748 117.132 32.04 117.02 32.376C116.916 32.704 116.864 33.06 116.864 33.444C116.864 33.836 116.928 34.168 117.056 34.44C117.184 34.712 117.368 34.92 117.608 35.064C117.856 35.208 118.156 35.28 118.508 35.28Z" fill="#1E1E1E"/>
<path d="M82.632 51.76V61H81.512V51.76H82.632ZM85.3762 61V54H86.3562L86.4542 55.568L86.2722 55.414C86.4216 55.0407 86.6222 54.742 86.8742 54.518C87.1262 54.2847 87.4156 54.1167 87.7422 54.014C88.0782 53.9113 88.4236 53.86 88.7782 53.86C89.2822 53.86 89.7396 53.958 90.1502 54.154C90.5609 54.3407 90.8876 54.63 91.1302 55.022C91.3822 55.414 91.5082 55.9133 91.5082 56.52V61H90.3882V56.912C90.3882 56.1373 90.2202 55.6007 89.8842 55.302C89.5576 54.994 89.1516 54.84 88.6662 54.84C88.3302 54.84 87.9942 54.9193 87.6582 55.078C87.3222 55.2367 87.0422 55.4933 86.8182 55.848C86.6036 56.2027 86.4962 56.6787 86.4962 57.276V61H85.3762ZM96.5642 61.14C95.8829 61.14 95.2529 60.9953 94.6742 60.706C94.1049 60.4167 93.6662 60.006 93.3582 59.474L94.3102 58.788C94.5155 59.2173 94.8142 59.5533 95.2062 59.796C95.6075 60.0387 96.0882 60.16 96.6482 60.16C97.1429 60.16 97.5302 60.0667 97.8102 59.88C98.0902 59.684 98.2302 59.432 98.2302 59.124C98.2302 58.928 98.1649 58.7507 98.0342 58.592C97.9129 58.424 97.6749 58.3027 97.3202 58.228L95.6402 57.878C94.9589 57.738 94.4689 57.5047 94.1702 57.178C93.8809 56.8513 93.7362 56.4453 93.7362 55.96C93.7362 55.5773 93.8435 55.2273 94.0582 54.91C94.2822 54.5927 94.5949 54.3407 94.9962 54.154C95.4069 53.958 95.8875 53.86 96.4382 53.86C97.1289 53.86 97.7122 53.9953 98.1882 54.266C98.6642 54.5367 99.0189 54.9193 99.2522 55.414L98.3142 56.03C98.1555 55.6193 97.8989 55.3207 97.5442 55.134C97.1895 54.938 96.8209 54.84 96.4382 54.84C96.1022 54.84 95.8129 54.8867 95.5702 54.98C95.3369 55.0733 95.1549 55.204 95.0242 55.372C94.9029 55.5307 94.8422 55.7127 94.8422 55.918C94.8422 56.1233 94.9122 56.3147 95.0522 56.492C95.1922 56.66 95.4535 56.7813 95.8362 56.856L97.5862 57.22C98.2395 57.3507 98.6969 57.5653 98.9582 57.864C99.2195 58.1627 99.3502 58.5267 99.3502 58.956C99.3502 59.3947 99.2335 59.782 99.0002 60.118C98.7669 60.4447 98.4402 60.6967 98.0202 60.874C97.6002 61.0513 97.1149 61.14 96.5642 61.14ZM103.079 52.012V59.068C103.079 59.4133 103.177 59.67 103.373 59.838C103.569 60.006 103.821 60.09 104.129 60.09C104.4 60.09 104.633 60.0433 104.829 59.95C105.025 59.8567 105.202 59.7307 105.361 59.572L105.753 60.51C105.538 60.706 105.282 60.86 104.983 60.972C104.694 61.084 104.358 61.14 103.975 61.14C103.62 61.14 103.289 61.0793 102.981 60.958C102.673 60.8273 102.426 60.6267 102.239 60.356C102.062 60.076 101.968 59.712 101.959 59.264V52.32L103.079 52.012ZM105.627 54V54.966H100.559V54H105.627ZM107.292 61V54H108.202L108.356 55.148C108.552 54.7187 108.837 54.3967 109.21 54.182C109.593 53.9673 110.055 53.86 110.596 53.86C110.718 53.86 110.848 53.8693 110.988 53.888C111.138 53.9067 111.264 53.944 111.366 54L111.17 55.022C111.068 54.9847 110.956 54.9567 110.834 54.938C110.713 54.9193 110.54 54.91 110.316 54.91C110.027 54.91 109.733 54.994 109.434 55.162C109.145 55.33 108.902 55.5867 108.706 55.932C108.51 56.268 108.412 56.6973 108.412 57.22V61H107.292ZM115.541 61.14C115.093 61.14 114.668 61.056 114.267 60.888C113.875 60.72 113.553 60.4493 113.301 60.076C113.058 59.6933 112.937 59.1987 112.937 58.592V54H114.057V58.298C114.057 59.0073 114.211 59.4973 114.519 59.768C114.827 60.0293 115.261 60.16 115.821 60.16C116.082 60.16 116.339 60.118 116.591 60.034C116.843 59.9407 117.067 59.8007 117.263 59.614C117.468 59.418 117.627 59.1707 117.739 58.872C117.86 58.5733 117.921 58.2187 117.921 57.808V54H119.041V61H118.061L117.991 59.936C117.748 60.356 117.417 60.664 116.997 60.86C116.586 61.0467 116.101 61.14 115.541 61.14ZM124.546 53.86C125.031 53.86 125.456 53.9347 125.82 54.084C126.193 54.2333 126.515 54.448 126.786 54.728C127.056 55.008 127.276 55.3393 127.444 55.722L126.38 56.226C126.23 55.778 126.002 55.4373 125.694 55.204C125.395 54.9613 125.003 54.84 124.518 54.84C124.051 54.84 123.65 54.9473 123.314 55.162C122.978 55.3673 122.721 55.6707 122.544 56.072C122.366 56.464 122.278 56.94 122.278 57.5C122.278 58.0507 122.366 58.5267 122.544 58.928C122.721 59.3293 122.978 59.6373 123.314 59.852C123.65 60.0573 124.051 60.16 124.518 60.16C124.882 60.16 125.194 60.104 125.456 59.992C125.726 59.88 125.946 59.7167 126.114 59.502C126.291 59.2873 126.412 59.026 126.478 58.718L127.514 59.082C127.355 59.5113 127.136 59.88 126.856 60.188C126.585 60.496 126.254 60.734 125.862 60.902C125.479 61.0607 125.04 61.14 124.546 61.14C123.892 61.14 123.309 60.9953 122.796 60.706C122.282 60.4167 121.881 60.0013 121.592 59.46C121.302 58.9093 121.158 58.256 121.158 57.5C121.158 56.744 121.302 56.0953 121.592 55.554C121.881 55.0033 122.282 54.5833 122.796 54.294C123.309 54.0047 123.892 53.86 124.546 53.86ZM131.134 52.012V59.068C131.134 59.4133 131.232 59.67 131.428 59.838C131.624 60.006 131.876 60.09 132.184 60.09C132.454 60.09 132.688 60.0433 132.884 59.95C133.08 59.8567 133.257 59.7307 133.416 59.572L133.808 60.51C133.593 60.706 133.336 60.86 133.038 60.972C132.748 61.084 132.412 61.14 132.03 61.14C131.675 61.14 131.344 61.0793 131.036 60.958C130.728 60.8273 130.48 60.6267 130.294 60.356C130.116 60.076 130.023 59.712 130.014 59.264V52.32L131.134 52.012ZM133.682 54V54.966H128.614V54H133.682ZM135.907 52.656C135.655 52.656 135.45 52.5813 135.291 52.432C135.142 52.2733 135.067 52.068 135.067 51.816C135.067 51.564 135.142 51.3633 135.291 51.214C135.45 51.0553 135.655 50.976 135.907 50.976C136.159 50.976 136.36 51.0553 136.509 51.214C136.668 51.3633 136.747 51.564 136.747 51.816C136.747 52.068 136.668 52.2733 136.509 52.432C136.36 52.5813 136.159 52.656 135.907 52.656ZM136.467 54V61H135.347V54H136.467ZM141.964 53.86C142.626 53.86 143.21 54.0047 143.714 54.294C144.227 54.5833 144.628 55.0033 144.918 55.554C145.207 56.0953 145.352 56.744 145.352 57.5C145.352 58.256 145.207 58.9093 144.918 59.46C144.628 60.0013 144.227 60.4167 143.714 60.706C143.21 60.9953 142.626 61.14 141.964 61.14C141.31 61.14 140.727 60.9953 140.214 60.706C139.7 60.4167 139.299 60.0013 139.01 59.46C138.72 58.9093 138.576 58.256 138.576 57.5C138.576 56.744 138.72 56.0953 139.01 55.554C139.299 55.0033 139.7 54.5833 140.214 54.294C140.727 54.0047 141.31 53.86 141.964 53.86ZM141.964 54.826C141.488 54.826 141.082 54.9333 140.746 55.148C140.41 55.3627 140.148 55.6707 139.962 56.072C139.784 56.464 139.696 56.94 139.696 57.5C139.696 58.0507 139.784 58.5267 139.962 58.928C140.148 59.3293 140.41 59.6373 140.746 59.852C141.082 60.0667 141.488 60.174 141.964 60.174C142.44 60.174 142.846 60.0667 143.182 59.852C143.518 59.6373 143.774 59.3293 143.952 58.928C144.138 58.5267 144.232 58.0507 144.232 57.5C144.232 56.94 144.138 56.464 143.952 56.072C143.774 55.6707 143.518 55.3627 143.182 55.148C142.846 54.9333 142.44 54.826 141.964 54.826ZM147.46 61V54H148.44L148.538 55.568L148.356 55.414C148.506 55.0407 148.706 54.742 148.958 54.518C149.21 54.2847 149.5 54.1167 149.826 54.014C150.162 53.9113 150.508 53.86 150.862 53.86C151.366 53.86 151.824 53.958 152.234 54.154C152.645 54.3407 152.972 54.63 153.214 55.022C153.466 55.414 153.592 55.9133 153.592 56.52V61H152.472V56.912C152.472 56.1373 152.304 55.6007 151.968 55.302C151.642 54.994 151.236 54.84 150.75 54.84C150.414 54.84 150.078 54.9193 149.742 55.078C149.406 55.2367 149.126 55.4933 148.902 55.848C148.688 56.2027 148.58 56.6787 148.58 57.276V61H147.46ZM158.648 61.14C157.967 61.14 157.337 60.9953 156.758 60.706C156.189 60.4167 155.75 60.006 155.442 59.474L156.394 58.788C156.6 59.2173 156.898 59.5533 157.29 59.796C157.692 60.0387 158.172 60.16 158.732 60.16C159.227 60.16 159.614 60.0667 159.894 59.88C160.174 59.684 160.314 59.432 160.314 59.124C160.314 58.928 160.249 58.7507 160.118 58.592C159.997 58.424 159.759 58.3027 159.404 58.228L157.724 57.878C157.043 57.738 156.553 57.5047 156.254 57.178C155.965 56.8513 155.82 56.4453 155.82 55.96C155.82 55.5773 155.928 55.2273 156.142 54.91C156.366 54.5927 156.679 54.3407 157.08 54.154C157.491 53.958 157.972 53.86 158.522 53.86C159.213 53.86 159.796 53.9953 160.272 54.266C160.748 54.5367 161.103 54.9193 161.336 55.414L160.398 56.03C160.24 55.6193 159.983 55.3207 159.628 55.134C159.274 54.938 158.905 54.84 158.522 54.84C158.186 54.84 157.897 54.8867 157.654 54.98C157.421 55.0733 157.239 55.204 157.108 55.372C156.987 55.5307 156.926 55.7127 156.926 55.918C156.926 56.1233 156.996 56.3147 157.136 56.492C157.276 56.66 157.538 56.7813 157.92 56.856L159.67 57.22C160.324 57.3507 160.781 57.5653 161.042 57.864C161.304 58.1627 161.434 58.5267 161.434 58.956C161.434 59.3947 161.318 59.782 161.084 60.118C160.851 60.4447 160.524 60.6967 160.104 60.874C159.684 61.0513 159.199 61.14 158.648 61.14Z" fill="#454545"/>
</svg>
